G04*
G04 #@! TF.GenerationSoftware,Altium Limited,Altium Designer,26.2.0 (7)*
G04*
G04 Layer_Color=65535*
%FSLAX25Y25*%
%MOIN*%
G70*
G04*
G04 #@! TF.SameCoordinates,F614A745-3F37-49C4-9740-4EE86F791CEA*
G04*
G04*
G04 #@! TF.FilePolarity,Positive*
G04*
G01*
G75*
%ADD10C,0.00787*%
%ADD11C,0.01575*%
%ADD12C,0.00600*%
%ADD13C,0.00500*%
%ADD14C,0.00591*%
%ADD15C,0.00984*%
%ADD16C,0.00394*%
%ADD17C,0.00300*%
G36*
X189961Y142717D02*
X187008Y139764D01*
X192913D01*
X189961Y142717D01*
D02*
G37*
D10*
X39449Y73819D02*
G03*
X39449Y73819I-5000J0D01*
G01*
X122598Y187008D02*
G03*
X122598Y187008I-394J0D01*
G01*
Y175197D02*
G03*
X122598Y175197I-394J0D01*
G01*
X30591Y45276D02*
G03*
X30591Y45276I-5000J0D01*
G01*
X77835D02*
G03*
X77835Y45276I-5000J0D01*
G01*
X80433Y43307D02*
G03*
X80433Y43307I-394J0D01*
G01*
X51260Y73819D02*
G03*
X51260Y73819I-5000J0D01*
G01*
X12874Y116142D02*
G03*
X12874Y116142I-5000J0D01*
G01*
X194882Y15748D02*
G03*
X194882Y15748I-13780J0D01*
G01*
X179528Y111221D02*
G03*
X179528Y111221I-16142J0D01*
G01*
X12874Y127953D02*
G03*
X12874Y127953I-5000J0D01*
G01*
X51260Y62008D02*
G03*
X51260Y62008I-5000J0D01*
G01*
X77835Y175197D02*
G03*
X77835Y175197I-394J0D01*
G01*
Y187008D02*
G03*
X77835Y187008I-394J0D01*
G01*
X194882Y181102D02*
G03*
X194882Y181102I-13780J0D01*
G01*
X176260Y38386D02*
G03*
X176260Y38386I-5000J0D01*
G01*
X182165Y135827D02*
G03*
X182165Y135827I-5000J0D01*
G01*
X164449Y38386D02*
G03*
X164449Y38386I-5000J0D01*
G01*
X170354Y135827D02*
G03*
X170354Y135827I-5000J0D01*
G01*
X29528Y15748D02*
G03*
X29528Y15748I-13780J0D01*
G01*
X29735Y159449D02*
G03*
X29735Y159449I-7097J0D01*
G01*
X29528Y181102D02*
G03*
X29528Y181102I-13780J0D01*
G01*
X3937Y64567D02*
Y75591D01*
Y64567D02*
X9843D01*
Y75591D01*
X3937D02*
X9843D01*
X15748Y64567D02*
Y75591D01*
Y64567D02*
X21654Y64567D01*
Y75591D01*
X15748Y75591D02*
X21654Y75591D01*
X4921Y31693D02*
X10827D01*
X4921D02*
Y42717D01*
X10827D01*
Y31693D02*
Y42717D01*
X114764Y66535D02*
X120669D01*
X114764D02*
Y77559D01*
X120669D01*
Y66535D02*
Y77559D01*
X14764Y116732D02*
Y127756D01*
Y116732D02*
X20669D01*
Y127756D01*
X14764D02*
X20669D01*
X29035Y129921D02*
X32087D01*
X26476Y116732D02*
X34252D01*
X24902Y115748D02*
X35925D01*
X24902Y109843D02*
Y115748D01*
Y109843D02*
X35925D01*
Y115748D01*
X40945Y114764D02*
Y125787D01*
Y114764D02*
X46850D01*
Y125787D01*
X40945D02*
X46850D01*
X46850Y114764D02*
Y125787D01*
Y114764D02*
X52756D01*
Y125787D01*
X46850D02*
X52756D01*
X33661Y129921D02*
X44685D01*
X44685Y135827D02*
X44685Y129921D01*
X33661Y135827D02*
X44685Y135827D01*
X33661Y135827D02*
X33661Y129921D01*
X33661Y142717D02*
X44685Y142717D01*
X33661Y136811D02*
Y142717D01*
Y136811D02*
X44685D01*
X44685Y142717D02*
X44685Y136811D01*
X125591Y162008D02*
X165748D01*
X125591D02*
Y192323D01*
X165748D01*
Y162008D02*
Y192323D01*
X188779Y52559D02*
X191535D01*
X189961Y54134D02*
X191535Y52559D01*
X107559Y112106D02*
Y127854D01*
X85315Y112106D02*
Y127854D01*
X82677Y102657D02*
Y111516D01*
X68110D02*
X82677D01*
X68110Y102657D02*
X82677D01*
X68110D02*
Y111516D01*
X9843Y64567D02*
Y75591D01*
Y64567D02*
X15748D01*
Y75591D01*
X9843D02*
X15748D01*
X171419Y46180D02*
X179214Y53975D01*
X175038Y58151D02*
X179214Y53975D01*
X167243Y50356D02*
X175038Y58151D01*
X167243Y50356D02*
X171419Y46180D01*
X120669Y52165D02*
Y58071D01*
X131693D01*
Y52165D02*
Y58071D01*
X120669Y52165D02*
X131693D01*
X84252Y138779D02*
Y149803D01*
Y138779D02*
X90158D01*
Y149803D01*
X84252D02*
X90158D01*
X21654Y64567D02*
Y75590D01*
Y64567D02*
X27559Y64567D01*
Y75590D01*
X21654Y75590D02*
X27559Y75590D01*
X108858Y66535D02*
Y77559D01*
Y66535D02*
X114764Y66535D01*
X114764Y77559D01*
X108858D02*
X114764D01*
X115256Y103543D02*
X124114D01*
Y118110D01*
X115256Y103543D02*
Y118110D01*
X124114D01*
X124311Y103543D02*
X133169D01*
Y118110D01*
X124311Y103543D02*
Y118110D01*
X133169D01*
X108465Y116732D02*
X114370D01*
Y105709D02*
Y116732D01*
X108465Y105709D02*
X114370D01*
X108465D02*
Y116732D01*
X120669Y58071D02*
X131693Y58071D01*
X131693Y63976D02*
X131693Y58071D01*
X120669Y63976D02*
X131693D01*
X120669Y58071D02*
Y63976D01*
X158465Y80512D02*
X164370D01*
Y69488D02*
Y80512D01*
X158465Y69488D02*
X164370D01*
X158465D02*
Y80512D01*
X68110Y111713D02*
Y120571D01*
Y111713D02*
X82677D01*
X68110Y120571D02*
X82677D01*
X82677Y111713D01*
X101181Y144685D02*
X101181Y138779D01*
X90158D02*
X101181D01*
X90158Y144685D02*
X90158Y138779D01*
X90158Y144685D02*
X101181D01*
X73032Y132874D02*
X84055D01*
Y138779D01*
X73032Y138779D02*
X84055Y138779D01*
X73032Y132874D02*
Y138779D01*
X97441Y89173D02*
X97441Y100197D01*
X97441Y89173D02*
X103347Y89173D01*
Y100197D01*
X97441D02*
X103347D01*
X73032Y126969D02*
X84055D01*
X84055Y132874D01*
X73032Y132874D02*
X84055Y132874D01*
X73032Y126969D02*
Y132874D01*
X107480Y130905D02*
Y136811D01*
X118504D01*
Y130905D02*
Y136811D01*
X107480Y130905D02*
X118504D01*
X101181Y144685D02*
X101181Y150591D01*
X90158Y144685D02*
X101181D01*
X90158D02*
X90158Y150591D01*
X101181D01*
X107480Y142717D02*
X118504D01*
X107480Y136811D02*
Y142717D01*
Y136811D02*
X118504D01*
X118504Y142717D02*
X118504Y136811D01*
X169095Y87598D02*
X169095Y93504D01*
X158071Y87598D02*
X169095Y87598D01*
X158071Y93504D02*
X158071Y87598D01*
X158071Y93504D02*
X169095Y93504D01*
X33071Y5512D02*
Y35827D01*
Y5512D02*
X73228D01*
Y35827D01*
X33071D02*
X73228D01*
X191929Y31693D02*
Y42717D01*
X186024D02*
X191929D01*
X186024Y31693D02*
Y42717D01*
Y31693D02*
X191929D01*
X186024Y154134D02*
Y165157D01*
Y154134D02*
X191929D01*
Y165157D01*
X186024D02*
X191929D01*
X4921Y153937D02*
Y164961D01*
Y153937D02*
X10827D01*
Y164961D01*
X4921D02*
X10827D01*
X188189Y80124D02*
Y78943D01*
Y79534D01*
X191141D01*
X191732Y78943D01*
Y78353D01*
X191141Y77763D01*
X188189Y81305D02*
X191732D01*
Y83666D01*
X188780Y87208D02*
X188189Y86618D01*
Y85437D01*
X188780Y84847D01*
X191141D01*
X191732Y85437D01*
Y86618D01*
X191141Y87208D01*
X188189Y90750D02*
Y89570D01*
Y90160D01*
X191141D01*
X191732Y89570D01*
Y88979D01*
X191141Y88389D01*
X188189Y91931D02*
X191732D01*
Y94293D01*
X188780Y97835D02*
X188189Y97245D01*
Y96064D01*
X188780Y95473D01*
X191141D01*
X191732Y96064D01*
Y97245D01*
X191141Y97835D01*
X188189Y101377D02*
Y100196D01*
Y100787D01*
X191141D01*
X191732Y100196D01*
Y99606D01*
X191141Y99015D01*
X188189Y102558D02*
X191732D01*
Y104919D01*
X188780Y108461D02*
X188189Y107871D01*
Y106690D01*
X188780Y106100D01*
X191141D01*
X191732Y106690D01*
Y107871D01*
X191141Y108461D01*
X188189Y112004D02*
Y110823D01*
Y111413D01*
X191141D01*
X191732Y110823D01*
Y110232D01*
X191141Y109642D01*
X188189Y113184D02*
X191732D01*
Y115546D01*
X188780Y119088D02*
X188189Y118497D01*
Y117317D01*
X188780Y116726D01*
X191141D01*
X191732Y117317D01*
Y118497D01*
X191141Y119088D01*
X191272Y51180D02*
X189961D01*
X190617D01*
Y47901D01*
X189961Y47245D01*
X189305D01*
X188649Y47901D01*
X82352Y54134D02*
X84976D01*
X83664Y55446D02*
Y52822D01*
X86288Y56102D02*
Y52166D01*
X88256D01*
X88912Y52822D01*
Y53478D01*
X88256Y54134D01*
X86288D01*
X88256D01*
X88912Y54790D01*
Y55446D01*
X88256Y56102D01*
X86288D01*
X90223Y52166D02*
Y54790D01*
X91535Y56102D01*
X92847Y54790D01*
Y52166D01*
Y54134D01*
X90223D01*
X94159Y56102D02*
X96783D01*
X95471D01*
Y52166D01*
X98095Y56102D02*
X100719D01*
X99407D01*
Y52166D01*
X107611Y55446D02*
X106955Y56102D01*
X105643D01*
X104987Y55446D01*
Y52822D01*
X105643Y52166D01*
X106955D01*
X107611Y52822D01*
Y54134D01*
X106299D01*
X64634Y166339D02*
X67258D01*
X65946Y167650D02*
Y165027D01*
X71194Y168306D02*
X68570D01*
Y166339D01*
X69882Y166995D01*
X70538D01*
X71194Y166339D01*
Y165027D01*
X70538Y164371D01*
X69226D01*
X68570Y165027D01*
X72506Y168306D02*
Y165683D01*
X73818Y164371D01*
X75129Y165683D01*
Y168306D01*
X41997Y166339D02*
X44621D01*
X43309Y167650D02*
Y165027D01*
X45933Y167650D02*
X46589Y168306D01*
X47901D01*
X48557Y167650D01*
Y166995D01*
X47901Y166339D01*
X47245D01*
X47901D01*
X48557Y165683D01*
Y165027D01*
X47901Y164371D01*
X46589D01*
X45933Y165027D01*
X49869Y168306D02*
Y165683D01*
X51180Y164371D01*
X52492Y165683D01*
Y168306D01*
X53804Y167650D02*
X54460Y168306D01*
X55772D01*
X56428Y167650D01*
Y166995D01*
X55772Y166339D01*
X55116D01*
X55772D01*
X56428Y165683D01*
Y165027D01*
X55772Y164371D01*
X54460D01*
X53804Y165027D01*
X62336Y167650D02*
X61680Y168306D01*
X60368D01*
X59712Y167650D01*
Y165027D01*
X60368Y164371D01*
X61680D01*
X62336Y165027D01*
Y166339D01*
X61024D01*
X39698Y167650D02*
X39042Y168306D01*
X37730D01*
X37074Y167650D01*
Y165027D01*
X37730Y164371D01*
X39042D01*
X39698Y165027D01*
Y166339D01*
X38386D01*
X105645Y164370D02*
X108269D01*
X106957Y165682D02*
Y163058D01*
X109581Y162402D02*
X110893D01*
X110237D01*
Y166338D01*
X109581Y165682D01*
X112861Y162402D02*
X114173D01*
X113517D01*
Y166338D01*
X112861Y165682D01*
X116140Y166338D02*
Y163714D01*
X117452Y162402D01*
X118764Y163714D01*
Y166338D01*
X97769Y165682D02*
X97113Y166338D01*
X95801D01*
X95145Y165682D01*
Y163058D01*
X95801Y162402D01*
X97113D01*
X97769Y163058D01*
Y164370D01*
X96457D01*
X27560Y31496D02*
X31495D01*
X129267Y158465D02*
X131891D01*
X130579Y159776D02*
Y157153D01*
X133203Y156497D02*
X134515D01*
X133859D01*
Y160432D01*
X133203Y159776D01*
X136483Y156497D02*
X137795D01*
X137139D01*
Y160432D01*
X136483Y159776D01*
X139762Y160432D02*
Y157809D01*
X141074Y156497D01*
X142386Y157809D01*
Y160432D01*
X77756Y32805D02*
Y30182D01*
X79068Y31493D02*
X76444D01*
X79724Y28870D02*
X75788D01*
Y26902D01*
X76444Y26246D01*
X77100D01*
X77756Y26902D01*
Y28870D01*
Y26902D01*
X78412Y26246D01*
X79068D01*
X79724Y26902D01*
Y28870D01*
X75788Y24934D02*
X78412D01*
X79724Y23622D01*
X78412Y22310D01*
X75788D01*
X77756D01*
Y24934D01*
X79724Y20998D02*
Y18374D01*
Y19686D01*
X75788D01*
X79724Y17063D02*
Y14439D01*
Y15751D01*
X75788D01*
X153544Y158465D02*
X157480D01*
X5709Y95473D02*
Y99409D01*
X7677D01*
X8332Y98753D01*
Y97441D01*
X7677Y96785D01*
X5709D01*
X10300Y95473D02*
X11612D01*
X12268Y96129D01*
Y97441D01*
X11612Y98097D01*
X10300D01*
X9644Y97441D01*
Y96129D01*
X10300Y95473D01*
X13580Y98097D02*
Y96129D01*
X14236Y95473D01*
X14892Y96129D01*
X15548Y95473D01*
X16204Y96129D01*
Y98097D01*
X19484Y95473D02*
X18172D01*
X17516Y96129D01*
Y97441D01*
X18172Y98097D01*
X19484D01*
X20140Y97441D01*
Y96785D01*
X17516D01*
X21452Y98097D02*
Y95473D01*
Y96785D01*
X22108Y97441D01*
X22763Y98097D01*
X23419D01*
X29323Y99409D02*
Y95473D01*
X31291D01*
X31947Y96129D01*
Y96785D01*
X31291Y97441D01*
X29323D01*
X31291D01*
X31947Y98097D01*
Y98753D01*
X31291Y99409D01*
X29323D01*
X33915Y95473D02*
X35227D01*
X35883Y96129D01*
Y97441D01*
X35227Y98097D01*
X33915D01*
X33259Y97441D01*
Y96129D01*
X33915Y95473D01*
X37850Y98097D02*
X39162D01*
X39818Y97441D01*
Y95473D01*
X37850D01*
X37195Y96129D01*
X37850Y96785D01*
X39818D01*
X41130Y98097D02*
Y95473D01*
Y96785D01*
X41786Y97441D01*
X42442Y98097D01*
X43098D01*
X47690Y99409D02*
Y95473D01*
X45722D01*
X45066Y96129D01*
Y97441D01*
X45722Y98097D01*
X47690D01*
X52938D02*
X54250Y95473D01*
X55561Y98097D01*
X56873Y95473D02*
X58185D01*
X57529D01*
Y99409D01*
X56873Y98753D01*
X107614Y80709D02*
X110238D01*
X108926Y82021D02*
Y79397D01*
X111549Y78741D02*
X112861D01*
X112205D01*
Y82677D01*
X111549Y82021D01*
X114829Y78741D02*
X116141D01*
X115485D01*
Y82677D01*
X114829Y82021D01*
X118109Y82677D02*
Y80053D01*
X119421Y78741D01*
X120733Y80053D01*
Y82677D01*
X18374Y78740D02*
X20998D01*
X19686Y80052D02*
Y77428D01*
X24934Y80708D02*
X22310D01*
Y78740D01*
X23622Y79396D01*
X24278D01*
X24934Y78740D01*
Y77428D01*
X24278Y76772D01*
X22966D01*
X22310Y77428D01*
X26246Y80708D02*
Y78084D01*
X27558Y76772D01*
X28870Y78084D01*
Y80708D01*
X1643Y78740D02*
X4267D01*
X2955Y80052D02*
Y77428D01*
X5579Y80052D02*
X6234Y80708D01*
X7546D01*
X8202Y80052D01*
Y79396D01*
X7546Y78740D01*
X6890D01*
X7546D01*
X8202Y78084D01*
Y77428D01*
X7546Y76772D01*
X6234D01*
X5579Y77428D01*
X9514Y80708D02*
Y78084D01*
X10826Y76772D01*
X12138Y78084D01*
Y80708D01*
X13450Y80052D02*
X14106Y80708D01*
X15418D01*
X16074Y80052D01*
Y79396D01*
X15418Y78740D01*
X14762D01*
X15418D01*
X16074Y78084D01*
Y77428D01*
X15418Y76772D01*
X14106D01*
X13450Y77428D01*
X41995Y2953D02*
X44619D01*
X61680D02*
X64304D01*
X62992Y4265D02*
Y1641D01*
X20014Y163385D02*
Y156825D01*
X21326Y155513D01*
X23950D01*
X25262Y156825D01*
Y163385D01*
D11*
X164173Y159449D02*
G03*
X164173Y159449I-394J0D01*
G01*
X40157Y27165D02*
G03*
X40157Y27165I-394J0D01*
G01*
D12*
X136701Y81803D02*
X138002D01*
X149399Y67803D02*
X150701D01*
Y81803D01*
X149399D02*
X150701D01*
X136701Y67803D02*
Y81803D01*
Y67803D02*
X138002D01*
X38123Y49836D02*
Y51276D01*
Y39276D02*
Y40716D01*
X59923Y39276D02*
Y40716D01*
Y49836D02*
Y51276D01*
X38123Y39276D02*
X59923D01*
X38123Y51276D02*
X59923D01*
X174286Y143606D02*
X174286Y145046D01*
X174286Y155606D02*
X174286Y154166D01*
X152486D02*
Y155606D01*
Y143606D02*
Y145046D01*
Y155606D02*
X174286Y155606D01*
X152486Y143606D02*
X174286Y143606D01*
X73959Y101496D02*
X86336Y101496D01*
X73959Y67796D02*
X86336D01*
X77824Y165852D02*
X87124D01*
X77824Y158952D02*
X87124D01*
D13*
X79646Y192008D02*
X119646D01*
X79646Y182008D02*
X119646D01*
X79646D02*
Y192008D01*
X119646Y182008D02*
Y192008D01*
Y170197D02*
Y180197D01*
X79646Y170197D02*
Y180197D01*
Y170197D02*
X119646D01*
X79646Y180197D02*
X119646D01*
X82598Y38307D02*
Y48307D01*
X122598Y38307D02*
Y48307D01*
X82598Y48307D02*
X122598Y48307D01*
X82598Y38307D02*
X122598Y38307D01*
X82520Y5650D02*
Y32146D01*
Y5650D02*
X145512D01*
Y32146D01*
X82520D02*
X145512D01*
X74882Y170197D02*
Y180197D01*
X34882Y170197D02*
Y180197D01*
Y170197D02*
X74882D01*
X34882Y180197D02*
X74882D01*
Y182008D02*
Y192008D01*
X34882Y182008D02*
Y192008D01*
Y182008D02*
X74882D01*
X34882Y192008D02*
X74882D01*
D14*
X165354Y74410D02*
Y77559D01*
X176969Y74410D02*
Y77559D01*
X7611Y90157D02*
X7086Y90682D01*
X6037D01*
X5512Y90157D01*
Y88058D01*
X6037Y87533D01*
X7086D01*
X7611Y88058D01*
Y89107D01*
X6561D01*
X8660Y89632D02*
Y87533D01*
Y88583D01*
X9185Y89107D01*
X9710Y89632D01*
X10235D01*
X12334Y87533D02*
X13383D01*
X13908Y88058D01*
Y89107D01*
X13383Y89632D01*
X12334D01*
X11809Y89107D01*
Y88058D01*
X12334Y87533D01*
X14958Y89632D02*
Y88058D01*
X15482Y87533D01*
X17057D01*
Y89632D01*
X18106Y86484D02*
Y89632D01*
X19681D01*
X20205Y89107D01*
Y88058D01*
X19681Y87533D01*
X18106D01*
X26502D02*
X24403D01*
X26502Y89632D01*
Y90157D01*
X25978Y90682D01*
X24928D01*
X24403Y90157D01*
X29126Y87533D02*
Y90682D01*
X27552Y89107D01*
X29651D01*
X31225Y87008D02*
X31750Y87533D01*
Y88058D01*
X31225D01*
Y87533D01*
X31750D01*
X31225Y87008D01*
X30700Y86484D01*
X39097Y90682D02*
X36998D01*
Y87533D01*
X39097D01*
X36998Y89107D02*
X38047D01*
X40146Y87533D02*
Y90682D01*
X42245Y87533D01*
Y90682D01*
X45394D02*
X43295D01*
Y87533D01*
X45394D01*
X43295Y89107D02*
X44344D01*
X46444Y90682D02*
Y87533D01*
X48542D01*
X52741Y90157D02*
X53265Y90682D01*
X54315D01*
X54840Y90157D01*
Y89632D01*
X54315Y89107D01*
X53790D01*
X54315D01*
X54840Y88583D01*
Y88058D01*
X54315Y87533D01*
X53265D01*
X52741Y88058D01*
X55889Y90157D02*
X56414Y90682D01*
X57464D01*
X57988Y90157D01*
Y88058D01*
X57464Y87533D01*
X56414D01*
X55889Y88058D01*
Y90157D01*
X59038D02*
X59563Y90682D01*
X60612D01*
X61137Y90157D01*
Y88058D01*
X60612Y87533D01*
X59563D01*
X59038Y88058D01*
Y90157D01*
D15*
X189961Y122047D02*
Y139764D01*
Y56102D02*
Y74803D01*
X104331Y50197D02*
X122047D01*
X82677D02*
X100394D01*
X79724Y168307D02*
X98032D01*
X101378D02*
X119095D01*
X182677Y109534D02*
Y112907D01*
D16*
X133334Y64436D02*
X135958Y67060D01*
Y64436D02*
X133334Y67060D01*
X134646Y64436D02*
Y67060D01*
X135958Y65748D02*
X133334D01*
X33041Y47244D02*
Y43308D01*
X33228Y47244D02*
Y43308D01*
X35665Y47244D02*
X33228Y44807D01*
X34165Y45557D02*
X35665Y43308D01*
X33978Y45557D02*
X35477Y43308D01*
X32478Y47244D02*
X33790D01*
X34915D02*
X36040D01*
X32478Y43308D02*
X33790D01*
X34915D02*
X36040D01*
X20669Y62636D02*
X16733D01*
X20669Y62448D02*
X16733D01*
X20669Y60012D02*
X18232Y62448D01*
X18982Y61511D02*
X16733Y60012D01*
X18982Y61699D02*
X16733Y60199D01*
X20669Y63198D02*
Y61886D01*
Y60761D02*
Y59637D01*
X16733Y63198D02*
Y61886D01*
Y60761D02*
Y59637D01*
X176509Y86942D02*
X173885Y84318D01*
Y86942D02*
X176509Y84318D01*
X175197Y86942D02*
Y84318D01*
X173885Y85630D02*
X176509D01*
X39501Y114436D02*
X36877Y117060D01*
X39501D02*
X36877Y114436D01*
X39501Y115748D02*
X36877D01*
X38189Y117060D02*
Y114436D01*
X176931Y151574D02*
Y147638D01*
X177119Y151574D02*
Y147638D01*
X179555Y151574D02*
X177119Y149138D01*
X178056Y149888D02*
X179555Y147638D01*
X177868Y149888D02*
X179368Y147638D01*
X176369Y151574D02*
X177681D01*
X178806D02*
X179930D01*
X176369Y147638D02*
X177681D01*
X178806D02*
X179930D01*
X78506Y158071D02*
Y154134D01*
X78693Y158071D02*
Y154134D01*
X81130Y158071D02*
X78693Y155634D01*
X79631Y156384D02*
X81130Y154134D01*
X79443Y156384D02*
X80943Y154134D01*
X77944Y158071D02*
X79256D01*
X80380D02*
X81505D01*
X77944Y154134D02*
X79256D01*
X80380D02*
X81505D01*
X59805Y160236D02*
Y156300D01*
X59993Y160236D02*
Y156300D01*
X62429Y160236D02*
X59993Y157799D01*
X60930Y158549D02*
X62429Y156300D01*
X60742Y158549D02*
X62242Y156300D01*
X59243Y160236D02*
X60555D01*
X61680D02*
X62804D01*
X59243Y156300D02*
X60555D01*
X61680D02*
X62804D01*
X14763Y62636D02*
X10827D01*
X14763Y62448D02*
X10827D01*
X14763Y60012D02*
X12327Y62448D01*
X13076Y61511D02*
X10827Y60012D01*
X13076Y61699D02*
X10827Y60199D01*
X14763Y63198D02*
Y61886D01*
Y60761D02*
Y59637D01*
X10827Y63198D02*
Y61886D01*
Y60761D02*
Y59637D01*
X114173Y65195D02*
X110237D01*
X114173Y65007D02*
X110237D01*
X114173Y62571D02*
X111736Y65007D01*
X112486Y64070D02*
X110237Y62571D01*
X112486Y64258D02*
X110237Y62758D01*
X114173Y65757D02*
Y64445D01*
Y63320D02*
Y62196D01*
X110237Y65757D02*
Y64445D01*
Y63320D02*
Y62196D01*
X108924Y129265D02*
X111548Y126641D01*
X108924D02*
X111548Y129265D01*
X108924Y127953D02*
X111548D01*
X110236Y126641D02*
Y129265D01*
X32678Y66732D02*
X32285Y67126D01*
X31497D01*
X31104Y66732D01*
Y65158D01*
X31497Y64764D01*
X32285D01*
X32678Y65158D01*
Y65945D01*
X31891D01*
X33465Y64764D02*
Y67126D01*
X35039Y64764D01*
Y67126D01*
X35827D02*
Y64764D01*
X37007D01*
X37401Y65158D01*
Y66732D01*
X37007Y67126D01*
X35827D01*
X39762D02*
X38975Y66732D01*
X38188Y65945D01*
Y65158D01*
X38582Y64764D01*
X39369D01*
X39762Y65158D01*
Y65551D01*
X39369Y65945D01*
X38188D01*
X132678Y68111D02*
Y70472D01*
X133465Y69685D01*
X134252Y70472D01*
Y68111D01*
X135039D02*
X135826D01*
X135433D01*
Y70472D01*
X135039Y70078D01*
X121654Y159645D02*
X120867D01*
X121260D01*
Y157677D01*
X120867Y157284D01*
X120473D01*
X120079Y157677D01*
X122441Y159645D02*
X124015D01*
Y159252D01*
X122441Y157677D01*
Y157284D01*
X78347Y147441D02*
X77953Y147834D01*
X77166D01*
X76773Y147441D01*
Y145866D01*
X77166Y145473D01*
X77953D01*
X78347Y145866D01*
X79134Y145473D02*
X79921D01*
X79528D01*
Y147834D01*
X79134Y147441D01*
X82676Y147834D02*
X81102D01*
Y146653D01*
X81889Y147047D01*
X82283D01*
X82676Y146653D01*
Y145866D01*
X82283Y145473D01*
X81495D01*
X81102Y145866D01*
X177560Y86614D02*
Y84646D01*
X177953Y84252D01*
X178740D01*
X179134Y84646D01*
Y86614D01*
X179921Y86220D02*
X180315Y86614D01*
X181102D01*
X181495Y86220D01*
Y85827D01*
X181102Y85433D01*
X180708D01*
X181102D01*
X181495Y85040D01*
Y84646D01*
X181102Y84252D01*
X180315D01*
X179921Y84646D01*
X30118Y174409D02*
X29331D01*
X29725D01*
Y172441D01*
X29331Y172048D01*
X28938D01*
X28544Y172441D01*
X32480Y174409D02*
X31692Y174015D01*
X30905Y173228D01*
Y172441D01*
X31299Y172048D01*
X32086D01*
X32480Y172441D01*
Y172835D01*
X32086Y173228D01*
X30905D01*
X18112Y144881D02*
Y142520D01*
X19686D01*
X20473Y144881D02*
Y142520D01*
X21654D01*
X22048Y142914D01*
Y144488D01*
X21654Y144881D01*
X20473D01*
X24016D02*
X23228D01*
X22835Y144488D01*
Y142914D01*
X23228Y142520D01*
X24016D01*
X24409Y142914D01*
Y144488D01*
X24016Y144881D01*
X26771D02*
X25196D01*
Y142520D01*
X26771D01*
X25196Y143701D02*
X25984D01*
X27558Y142520D02*
Y144881D01*
X29132Y142520D01*
Y144881D01*
X132875Y55315D02*
Y52953D01*
X134056D01*
X134450Y53347D01*
Y54921D01*
X134056Y55315D01*
X132875D01*
X135237Y52953D02*
Y55315D01*
X136811Y52953D01*
Y55315D01*
X137598Y52953D02*
Y55315D01*
X138779D01*
X139172Y54921D01*
Y54134D01*
X138779Y53740D01*
X137598D01*
X139960Y52953D02*
X140747D01*
X140353D01*
Y55315D01*
X139960Y54921D01*
X5119Y136614D02*
X4725Y137007D01*
X3938D01*
X3545Y136614D01*
Y135040D01*
X3938Y134646D01*
X4725D01*
X5119Y135040D01*
Y135827D01*
X4332D01*
X5906Y134646D02*
Y137007D01*
X7480Y134646D01*
Y137007D01*
X8268D02*
Y134646D01*
X9448D01*
X9842Y135040D01*
Y136614D01*
X9448Y137007D01*
X8268D01*
X12203D02*
X10629D01*
Y135827D01*
X11416Y136220D01*
X11810D01*
X12203Y135827D01*
Y135040D01*
X11810Y134646D01*
X11023D01*
X10629Y135040D01*
X54332Y66732D02*
X53938Y67126D01*
X53151D01*
X52757Y66732D01*
Y65158D01*
X53151Y64764D01*
X53938D01*
X54332Y65158D01*
Y65945D01*
X53544D01*
X55119Y64764D02*
Y67126D01*
X56693Y64764D01*
Y67126D01*
X57480D02*
Y64764D01*
X58661D01*
X59054Y65158D01*
Y66732D01*
X58661Y67126D01*
X57480D01*
X61022Y64764D02*
Y67126D01*
X59842Y65945D01*
X61416D01*
X179726Y55906D02*
Y58267D01*
X180906D01*
X181300Y57874D01*
Y57087D01*
X180906Y56693D01*
X179726D01*
X180513D02*
X181300Y55906D01*
X182087D02*
Y58267D01*
X183268D01*
X183662Y57874D01*
Y57087D01*
X183268Y56693D01*
X182087D01*
X186023Y58267D02*
X184449D01*
Y55906D01*
X186023D01*
X184449Y57087D02*
X185236D01*
X186810Y55906D02*
Y58267D01*
X188384Y55906D01*
Y58267D01*
X161418Y49016D02*
Y51378D01*
X162599D01*
X162992Y50984D01*
Y50197D01*
X162599Y49803D01*
X161418D01*
X162205D02*
X162992Y49016D01*
X163779Y50984D02*
X164173Y51378D01*
X164960D01*
X165354Y50984D01*
Y50590D01*
X164960Y50197D01*
X165354Y49803D01*
Y49410D01*
X164960Y49016D01*
X164173D01*
X163779Y49410D01*
Y49803D01*
X164173Y50197D01*
X163779Y50590D01*
Y50984D01*
X164173Y50197D02*
X164960D01*
X52954Y73819D02*
X54528D01*
X53741Y74606D02*
Y73032D01*
X56889Y75000D02*
X55315D01*
Y73819D01*
X56102Y74212D01*
X56496D01*
X56889Y73819D01*
Y73032D01*
X56496Y72638D01*
X55709D01*
X55315Y73032D01*
X57677Y75000D02*
Y73425D01*
X58464Y72638D01*
X59251Y73425D01*
Y75000D01*
X167323Y160629D02*
X166536D01*
X166929D01*
Y158662D01*
X166536Y158268D01*
X166142D01*
X165749Y158662D01*
X168110Y158268D02*
X168897D01*
X168503D01*
Y160629D01*
X168110Y160236D01*
X34474Y41161D02*
X33687D01*
X34081D01*
Y39194D01*
X33687Y38800D01*
X33294D01*
X32900Y39194D01*
X35261Y40768D02*
X35655Y41161D01*
X36442D01*
X36836Y40768D01*
Y40374D01*
X36442Y39981D01*
X36049D01*
X36442D01*
X36836Y39587D01*
Y39194D01*
X36442Y38800D01*
X35655D01*
X35261Y39194D01*
X79331Y51378D02*
X78544D01*
X78937D01*
Y49410D01*
X78544Y49016D01*
X78150D01*
X77757Y49410D01*
X81299Y49016D02*
Y51378D01*
X80118Y50197D01*
X81692D01*
X176182Y155708D02*
Y153347D01*
X177363D01*
X177756Y153740D01*
Y155315D01*
X177363Y155708D01*
X176182D01*
X178543D02*
X180117D01*
Y155315D01*
X178543Y153740D01*
Y153347D01*
X121654Y163582D02*
X120867D01*
X121260D01*
Y161614D01*
X120867Y161221D01*
X120473D01*
X120079Y161614D01*
X124015Y163582D02*
X122441D01*
Y162402D01*
X123228Y162795D01*
X123621D01*
X124015Y162402D01*
Y161614D01*
X123621Y161221D01*
X122834D01*
X122441Y161614D01*
X176379Y144488D02*
X175985Y144881D01*
X175198D01*
X174805Y144488D01*
Y142914D01*
X175198Y142520D01*
X175985D01*
X176379Y142914D01*
Y143701D01*
X175592D01*
X177166Y142520D02*
Y144881D01*
X178740Y142520D01*
Y144881D01*
X179527D02*
Y142520D01*
X180708D01*
X181102Y142914D01*
Y144488D01*
X180708Y144881D01*
X179527D01*
X181889Y144488D02*
X182282Y144881D01*
X183070D01*
X183463Y144488D01*
Y144094D01*
X183070Y143701D01*
X182676D01*
X183070D01*
X183463Y143307D01*
Y142914D01*
X183070Y142520D01*
X182282D01*
X181889Y142914D01*
X176379Y33268D02*
X175985Y33661D01*
X175198D01*
X174805Y33268D01*
Y31693D01*
X175198Y31300D01*
X175985D01*
X176379Y31693D01*
Y32480D01*
X175592D01*
X177166Y31300D02*
Y33661D01*
X178740Y31300D01*
Y33661D01*
X179527D02*
Y31300D01*
X180708D01*
X181102Y31693D01*
Y33268D01*
X180708Y33661D01*
X179527D01*
X183463Y31300D02*
X181889D01*
X183463Y32874D01*
Y33268D01*
X183070Y33661D01*
X182282D01*
X181889Y33268D01*
X144293Y38386D02*
X145867D01*
X145080Y39173D02*
Y37599D01*
X146654Y39567D02*
Y37992D01*
X147441Y37205D01*
X148229Y37992D01*
Y39567D01*
X149016D02*
Y37205D01*
X150196D01*
X150590Y37599D01*
Y37992D01*
X150196Y38386D01*
X149016D01*
X150196D01*
X150590Y38779D01*
Y39173D01*
X150196Y39567D01*
X149016D01*
X152951D02*
X151377D01*
Y38386D01*
X152164D01*
X151377D01*
Y37205D01*
X158269Y59843D02*
Y62204D01*
X159450D01*
X159843Y61811D01*
Y61024D01*
X159450Y60630D01*
X158269D01*
X159056D02*
X159843Y59843D01*
X160631D02*
Y62204D01*
X161811D01*
X162205Y61811D01*
Y61024D01*
X161811Y60630D01*
X160631D01*
X162992Y59843D02*
Y62204D01*
X164173D01*
X164566Y61811D01*
Y61024D01*
X164173Y60630D01*
X162992D01*
X166928Y61811D02*
X166534Y62204D01*
X165747D01*
X165353Y61811D01*
Y60237D01*
X165747Y59843D01*
X166534D01*
X166928Y60237D01*
Y61024D01*
X166141D01*
X32875Y51378D02*
Y49016D01*
X34055D01*
X34449Y49410D01*
Y50984D01*
X34055Y51378D01*
X32875D01*
X35236Y49016D02*
X36023D01*
X35629D01*
Y51378D01*
X35236Y50984D01*
X144292Y122834D02*
X143898Y123228D01*
X143111D01*
X142718Y122834D01*
Y121260D01*
X143111Y120867D01*
X143898D01*
X144292Y121260D01*
X145079Y120867D02*
X145866D01*
X145473D01*
Y123228D01*
X145079Y122834D01*
X147047D02*
X147440Y123228D01*
X148228D01*
X148621Y122834D01*
Y122441D01*
X148228Y122047D01*
X147834D01*
X148228D01*
X148621Y121654D01*
Y121260D01*
X148228Y120867D01*
X147440D01*
X147047Y121260D01*
X22638Y58859D02*
Y61220D01*
X23819D01*
X24213Y60826D01*
Y60039D01*
X23819Y59646D01*
X22638D01*
X23426D02*
X24213Y58859D01*
X26574Y61220D02*
X25787Y60826D01*
X25000Y60039D01*
Y59252D01*
X25394Y58859D01*
X26181D01*
X26574Y59252D01*
Y59646D01*
X26181Y60039D01*
X25000D01*
X10827Y58267D02*
Y55906D01*
X12008D01*
X12402Y56300D01*
Y57874D01*
X12008Y58267D01*
X10827D01*
X14763D02*
X13976Y57874D01*
X13189Y57087D01*
Y56300D01*
X13582Y55906D01*
X14370D01*
X14763Y56300D01*
Y56693D01*
X14370Y57087D01*
X13189D01*
X54331Y159448D02*
Y157087D01*
X55512D01*
X55906Y157481D01*
Y159055D01*
X55512Y159448D01*
X54331D01*
X56693Y159055D02*
X57086Y159448D01*
X57873D01*
X58267Y159055D01*
Y158661D01*
X57873Y158268D01*
X57480D01*
X57873D01*
X58267Y157874D01*
Y157481D01*
X57873Y157087D01*
X57086D01*
X56693Y157481D01*
X71851Y157283D02*
Y154922D01*
X73032D01*
X73425Y155315D01*
Y156889D01*
X73032Y157283D01*
X71851D01*
X75787Y154922D02*
X74212D01*
X75787Y156496D01*
Y156889D01*
X75393Y157283D01*
X74606D01*
X74212Y156889D01*
X112599Y129133D02*
Y127166D01*
X112993Y126772D01*
X113780D01*
X114173Y127166D01*
Y129133D01*
X114960Y126772D02*
X115747D01*
X115354D01*
Y129133D01*
X114960Y128740D01*
X107875Y145866D02*
Y143504D01*
X109056D01*
X109450Y143898D01*
Y144291D01*
X109056Y144685D01*
X107875D01*
X109056D01*
X109450Y145079D01*
Y145472D01*
X109056Y145866D01*
X107875D01*
X111811Y145472D02*
X111418Y145866D01*
X110630D01*
X110237Y145472D01*
Y143898D01*
X110630Y143504D01*
X111418D01*
X111811Y143898D01*
X114173Y145866D02*
X112598D01*
Y143504D01*
X114173D01*
X112598Y144685D02*
X113385D01*
X114960Y143504D02*
Y145866D01*
X116534Y143504D01*
Y145866D01*
X102363Y143504D02*
Y145866D01*
X103544D01*
X103937Y145472D01*
Y144685D01*
X103544Y144291D01*
X102363D01*
X103150D02*
X103937Y143504D01*
X104724Y145472D02*
X105118Y145866D01*
X105905D01*
X106299Y145472D01*
Y145079D01*
X105905Y144685D01*
X105511D01*
X105905D01*
X106299Y144291D01*
Y143898D01*
X105905Y143504D01*
X105118D01*
X104724Y143898D01*
X120079Y128741D02*
Y131102D01*
X121260D01*
X121654Y130708D01*
Y129921D01*
X121260Y129528D01*
X120079D01*
X120867D02*
X121654Y128741D01*
X124015D02*
X122441D01*
X124015Y130315D01*
Y130708D01*
X123621Y131102D01*
X122834D01*
X122441Y130708D01*
X102363Y150394D02*
Y152755D01*
X103544D01*
X103937Y152362D01*
Y151575D01*
X103544Y151181D01*
X102363D01*
X103150D02*
X103937Y150394D01*
X105905D02*
Y152755D01*
X104724Y151575D01*
X106299D01*
X57481Y81889D02*
Y79528D01*
X59055D01*
X59842D02*
X60629D01*
X60236D01*
Y81889D01*
X59842Y81496D01*
X119686Y143897D02*
Y141536D01*
X120867D01*
X121261Y141929D01*
Y143504D01*
X120867Y143897D01*
X119686D01*
X122048Y141536D02*
Y143897D01*
X123622Y141536D01*
Y143897D01*
X124409Y141536D02*
Y143897D01*
X125590D01*
X125984Y143504D01*
Y142717D01*
X125590Y142323D01*
X124409D01*
X126771Y143504D02*
X127164Y143897D01*
X127952D01*
X128345Y143504D01*
Y143110D01*
X127952Y142717D01*
X128345Y142323D01*
Y141929D01*
X127952Y141536D01*
X127164D01*
X126771Y141929D01*
Y142323D01*
X127164Y142717D01*
X126771Y143110D01*
Y143504D01*
X127164Y142717D02*
X127952D01*
X64567Y105118D02*
X64174Y105511D01*
X63386D01*
X62993Y105118D01*
Y103544D01*
X63386Y103150D01*
X64174D01*
X64567Y103544D01*
X66928Y105511D02*
X66141Y105118D01*
X65354Y104331D01*
Y103544D01*
X65748Y103150D01*
X66535D01*
X66928Y103544D01*
Y103937D01*
X66535Y104331D01*
X65354D01*
X64567Y113976D02*
X64174Y114370D01*
X63386D01*
X62993Y113976D01*
Y112402D01*
X63386Y112008D01*
X64174D01*
X64567Y112402D01*
X66928Y114370D02*
X65354D01*
Y113189D01*
X66141Y113583D01*
X66535D01*
X66928Y113189D01*
Y112402D01*
X66535Y112008D01*
X65748D01*
X65354Y112402D01*
X136417Y105118D02*
X136024Y105511D01*
X135237D01*
X134843Y105118D01*
Y103544D01*
X135237Y103150D01*
X136024D01*
X136417Y103544D01*
X138779Y103150D02*
X137205D01*
X138779Y104724D01*
Y105118D01*
X138385Y105511D01*
X137598D01*
X137205Y105118D01*
X115748Y120866D02*
X115355Y121259D01*
X114567D01*
X114174Y120866D01*
Y119292D01*
X114567Y118898D01*
X115355D01*
X115748Y119292D01*
X116535Y120866D02*
X116929Y121259D01*
X117716D01*
X118110Y120866D01*
Y120472D01*
X117716Y120079D01*
X117323D01*
X117716D01*
X118110Y119685D01*
Y119292D01*
X117716Y118898D01*
X116929D01*
X116535Y119292D01*
X69488Y138582D02*
X69095Y138976D01*
X68308D01*
X67914Y138582D01*
Y137008D01*
X68308Y136615D01*
X69095D01*
X69488Y137008D01*
X70275Y138976D02*
X71850D01*
Y138582D01*
X70275Y137008D01*
Y136615D01*
X69488Y129724D02*
X69095Y130118D01*
X68308D01*
X67914Y129724D01*
Y128150D01*
X68308Y127756D01*
X69095D01*
X69488Y128150D01*
X70275Y129724D02*
X70669Y130118D01*
X71456D01*
X71850Y129724D01*
Y129331D01*
X71456Y128937D01*
X71850Y128543D01*
Y128150D01*
X71456Y127756D01*
X70669D01*
X70275Y128150D01*
Y128543D01*
X70669Y128937D01*
X70275Y129331D01*
Y129724D01*
X70669Y128937D02*
X71456D01*
X107087Y104134D02*
X106693Y104527D01*
X105906D01*
X105512Y104134D01*
Y102559D01*
X105906Y102166D01*
X106693D01*
X107087Y102559D01*
X109055Y102166D02*
Y104527D01*
X107874Y103347D01*
X109448D01*
X106299Y99212D02*
X105906Y99606D01*
X105119D01*
X104725Y99212D01*
Y97638D01*
X105119Y97245D01*
X105906D01*
X106299Y97638D01*
X107086Y97245D02*
X107873D01*
X107480D01*
Y99606D01*
X107086Y99212D01*
X30118Y170472D02*
X29331D01*
X29725D01*
Y168504D01*
X29331Y168111D01*
X28938D01*
X28544Y168504D01*
X32480Y168111D02*
X30905D01*
X32480Y169685D01*
Y170079D01*
X32086Y170472D01*
X31299D01*
X30905Y170079D01*
X148622Y31692D02*
X147048D01*
Y30512D01*
X147835D01*
X147048D01*
Y29331D01*
X149409D02*
X150196D01*
X149803D01*
Y31692D01*
X149409Y31299D01*
X122441Y74607D02*
Y76968D01*
X123622D01*
X124016Y76574D01*
Y75787D01*
X123622Y75394D01*
X122441D01*
X123229D02*
X124016Y74607D01*
X124803D02*
X125590D01*
X125197D01*
Y76968D01*
X124803Y76574D01*
X4922Y58859D02*
Y61220D01*
X6103D01*
X6496Y60826D01*
Y60039D01*
X6103Y59646D01*
X4922D01*
X5709D02*
X6496Y58859D01*
X7283Y61220D02*
X8858D01*
Y60826D01*
X7283Y59252D01*
Y58859D01*
X16733Y58267D02*
Y55906D01*
X17914D01*
X18307Y56300D01*
Y57874D01*
X17914Y58267D01*
X16733D01*
X20669D02*
X19094D01*
Y57087D01*
X19882Y57480D01*
X20275D01*
X20669Y57087D01*
Y56300D01*
X20275Y55906D01*
X19488D01*
X19094Y56300D01*
X105316Y65157D02*
Y62796D01*
X106496D01*
X106890Y63189D01*
Y64763D01*
X106496Y65157D01*
X105316D01*
X108858Y62796D02*
Y65157D01*
X107677Y63976D01*
X109251D01*
X154725Y73426D02*
X154331Y73032D01*
Y72245D01*
X154725Y71851D01*
X156299D01*
X156693Y72245D01*
Y73032D01*
X156299Y73426D01*
X156693Y74213D02*
Y75000D01*
Y74606D01*
X154331D01*
X154725Y74213D01*
X156693Y77361D02*
X154331D01*
X155512Y76181D01*
Y77755D01*
X150592Y140748D02*
X152166D01*
X151379Y141535D02*
Y139961D01*
X152954Y141929D02*
Y140355D01*
X153741Y139567D01*
X154528Y140355D01*
Y141929D01*
X155315D02*
X156102D01*
X155709D01*
Y139567D01*
X155315D01*
X156102D01*
X157283D02*
Y141929D01*
X158857Y139567D01*
Y141929D01*
X159644Y139567D02*
X160432D01*
X160038D01*
Y141929D01*
X159644Y141535D01*
X152166Y91338D02*
X151772Y91732D01*
X150985D01*
X150592Y91338D01*
Y89764D01*
X150985Y89371D01*
X151772D01*
X152166Y89764D01*
X152953Y89371D02*
X153740D01*
X153347D01*
Y91732D01*
X152953Y91338D01*
X156495Y89371D02*
X154921D01*
X156495Y90945D01*
Y91338D01*
X156102Y91732D01*
X155314D01*
X154921Y91338D01*
X118897Y62992D02*
X119291Y63385D01*
Y64173D01*
X118897Y64566D01*
X117323D01*
X116929Y64173D01*
Y63385D01*
X117323Y62992D01*
X116929Y62205D02*
Y61418D01*
Y61811D01*
X119291D01*
X118897Y62205D01*
X116929Y60237D02*
Y59450D01*
Y59843D01*
X119291D01*
X118897Y60237D01*
X37402Y113385D02*
Y111418D01*
X37796Y111024D01*
X38583D01*
X38976Y111418D01*
Y113385D01*
X41338Y111024D02*
X39764D01*
X41338Y112598D01*
Y112992D01*
X40944Y113385D01*
X40157D01*
X39764Y112992D01*
X2561Y105315D02*
X4135D01*
X3348Y106102D02*
Y104528D01*
X4922Y106102D02*
X5316Y106496D01*
X6103D01*
X6496Y106102D01*
Y105709D01*
X6103Y105315D01*
X5709D01*
X6103D01*
X6496Y104921D01*
Y104528D01*
X6103Y104134D01*
X5316D01*
X4922Y104528D01*
X7283Y106496D02*
Y104921D01*
X8071Y104134D01*
X8858Y104921D01*
Y106496D01*
X9645Y106102D02*
X10038Y106496D01*
X10825D01*
X11219Y106102D01*
Y105709D01*
X10825Y105315D01*
X10432D01*
X10825D01*
X11219Y104921D01*
Y104528D01*
X10825Y104134D01*
X10038D01*
X9645Y104528D01*
X14371Y50984D02*
X13977Y51378D01*
X13190D01*
X12797Y50984D01*
Y49410D01*
X13190Y49016D01*
X13977D01*
X14371Y49410D01*
Y50197D01*
X13584D01*
X15158Y49016D02*
Y51378D01*
X16732Y49016D01*
Y51378D01*
X17519D02*
Y49016D01*
X18700D01*
X19094Y49410D01*
Y50984D01*
X18700Y51378D01*
X17519D01*
X19881Y49016D02*
X20668D01*
X20274D01*
Y51378D01*
X19881Y50984D01*
X61812Y50197D02*
X63386D01*
X62599Y50984D02*
Y49410D01*
X64174Y51378D02*
Y49803D01*
X64961Y49016D01*
X65748Y49803D01*
Y51378D01*
X66535D02*
Y49016D01*
X67716D01*
X68109Y49410D01*
Y49803D01*
X67716Y50197D01*
X66535D01*
X67716D01*
X68109Y50590D01*
Y50984D01*
X67716Y51378D01*
X66535D01*
X28544Y133662D02*
Y136023D01*
X29725D01*
X30118Y135630D01*
Y134843D01*
X29725Y134449D01*
X28544D01*
X29331D02*
X30118Y133662D01*
X32480Y136023D02*
X30905D01*
Y134843D01*
X31692Y135236D01*
X32086D01*
X32480Y134843D01*
Y134055D01*
X32086Y133662D01*
X31299D01*
X30905Y134055D01*
X34450Y146850D02*
Y144489D01*
X35631D01*
X36025Y144882D01*
Y146456D01*
X35631Y146850D01*
X34450D01*
X36812Y144489D02*
Y146850D01*
X38386Y144489D01*
Y146850D01*
X39173Y144489D02*
Y146850D01*
X40354D01*
X40748Y146456D01*
Y145669D01*
X40354Y145276D01*
X39173D01*
X41535Y144489D02*
X42322D01*
X41928D01*
Y146850D01*
X41535Y146456D01*
X43503Y144489D02*
X44290D01*
X43896D01*
Y146850D01*
X43503Y146456D01*
X50789Y129133D02*
Y126772D01*
X51970D01*
X52363Y127166D01*
Y128740D01*
X51970Y129133D01*
X50789D01*
X53151Y126772D02*
Y129133D01*
X54725Y126772D01*
Y129133D01*
X55512Y126772D02*
Y129133D01*
X56693D01*
X57086Y128740D01*
Y127953D01*
X56693Y127559D01*
X55512D01*
X57873Y126772D02*
X58661D01*
X58267D01*
Y129133D01*
X57873Y128740D01*
X59841D02*
X60235Y129133D01*
X61022D01*
X61416Y128740D01*
Y127166D01*
X61022Y126772D01*
X60235D01*
X59841Y127166D01*
Y128740D01*
X28151Y108464D02*
Y106103D01*
X29332D01*
X29725Y106496D01*
Y108071D01*
X29332Y108464D01*
X28151D01*
X30512Y106103D02*
Y108464D01*
X32087Y106103D01*
Y108464D01*
X32874Y106103D02*
Y108464D01*
X34055D01*
X34448Y108071D01*
Y107283D01*
X34055Y106890D01*
X32874D01*
X35235Y106496D02*
X35629Y106103D01*
X36416D01*
X36810Y106496D01*
Y108071D01*
X36416Y108464D01*
X35629D01*
X35235Y108071D01*
Y107677D01*
X35629Y107283D01*
X36810D01*
X16339Y114960D02*
X15946Y115354D01*
X15158D01*
X14765Y114960D01*
Y113386D01*
X15158Y112993D01*
X15946D01*
X16339Y113386D01*
X17126Y112993D02*
X17913D01*
X17520D01*
Y115354D01*
X17126Y114960D01*
X19094D02*
X19488Y115354D01*
X20275D01*
X20668Y114960D01*
Y113386D01*
X20275Y112993D01*
X19488D01*
X19094Y113386D01*
Y114960D01*
X46850Y128740D02*
X46457Y129133D01*
X45670D01*
X45276Y128740D01*
Y127166D01*
X45670Y126772D01*
X46457D01*
X46850Y127166D01*
X47638D02*
X48031Y126772D01*
X48818D01*
X49212Y127166D01*
Y128740D01*
X48818Y129133D01*
X48031D01*
X47638Y128740D01*
Y128346D01*
X48031Y127953D01*
X49212D01*
X162206Y5118D02*
X163780D01*
X162993D01*
Y2756D01*
X164567Y5118D02*
Y2756D01*
Y3937D01*
X166141D01*
Y5118D01*
Y2756D01*
X168109D02*
Y5118D01*
X166929Y3937D01*
X168503D01*
X168111Y168503D02*
X169685D01*
X168898D01*
Y166142D01*
X170473Y168503D02*
Y166142D01*
Y167323D01*
X172047D01*
Y168503D01*
Y166142D01*
X172834Y168110D02*
X173228Y168503D01*
X174015D01*
X174408Y168110D01*
Y167716D01*
X174015Y167323D01*
X173621D01*
X174015D01*
X174408Y166929D01*
Y166536D01*
X174015Y166142D01*
X173228D01*
X172834Y166536D01*
X26773Y5118D02*
X28347D01*
X27560D01*
Y2756D01*
X29134Y5118D02*
Y2756D01*
Y3937D01*
X30708D01*
Y5118D01*
Y2756D01*
X31495D02*
X32283D01*
X31889D01*
Y5118D01*
X31495Y4724D01*
X26379Y193110D02*
X27953D01*
X27166D01*
Y190748D01*
X28740Y193110D02*
Y190748D01*
Y191929D01*
X30315D01*
Y193110D01*
Y190748D01*
X32676D02*
X31102D01*
X32676Y192323D01*
Y192716D01*
X32283Y193110D01*
X31495D01*
X31102Y192716D01*
X178742Y46456D02*
Y44095D01*
X179922D01*
X180316Y44488D01*
Y46063D01*
X179922Y46456D01*
X178742D01*
X181103Y44095D02*
Y46456D01*
X182677Y44095D01*
Y46456D01*
X183465Y44095D02*
Y46456D01*
X184645D01*
X185039Y46063D01*
Y45276D01*
X184645Y44882D01*
X183465D01*
X187400Y46456D02*
X186613Y46063D01*
X185826Y45276D01*
Y44488D01*
X186220Y44095D01*
X187007D01*
X187400Y44488D01*
Y44882D01*
X187007Y45276D01*
X185826D01*
X175789Y160629D02*
Y158268D01*
X176970D01*
X177363Y158662D01*
Y160236D01*
X176970Y160629D01*
X175789D01*
X178150Y158268D02*
Y160629D01*
X179725Y158268D01*
Y160629D01*
X180512Y158268D02*
Y160629D01*
X181692D01*
X182086Y160236D01*
Y159449D01*
X181692Y159055D01*
X180512D01*
X184447Y160629D02*
X182873D01*
Y159449D01*
X183660Y159842D01*
X184054D01*
X184447Y159449D01*
Y158662D01*
X184054Y158268D01*
X183267D01*
X182873Y158662D01*
X12403Y34645D02*
Y32284D01*
X13584D01*
X13977Y32677D01*
Y34252D01*
X13584Y34645D01*
X12403D01*
X14764Y32284D02*
Y34645D01*
X16339Y32284D01*
Y34645D01*
X17126Y32284D02*
Y34645D01*
X18307D01*
X18700Y34252D01*
Y33465D01*
X18307Y33071D01*
X17126D01*
X19487Y34252D02*
X19881Y34645D01*
X20668D01*
X21062Y34252D01*
Y33858D01*
X20668Y33465D01*
X20274D01*
X20668D01*
X21062Y33071D01*
Y32677D01*
X20668Y32284D01*
X19881D01*
X19487Y32677D01*
X4529Y151771D02*
Y149410D01*
X5710D01*
X6103Y149803D01*
Y151378D01*
X5710Y151771D01*
X4529D01*
X6890Y149410D02*
Y151771D01*
X8465Y149410D01*
Y151771D01*
X9252Y149410D02*
Y151771D01*
X10433D01*
X10826Y151378D01*
Y150591D01*
X10433Y150197D01*
X9252D01*
X12794Y149410D02*
Y151771D01*
X11613Y150591D01*
X13188D01*
D17*
X57812Y86312D02*
X61145Y82980D01*
X57812D02*
X61145Y86312D01*
X57812Y84646D02*
X61145D01*
X59478Y82980D02*
Y86312D01*
M02*
