G04*
G04 #@! TF.GenerationSoftware,Altium Limited,Altium Designer,26.2.0 (7)*
G04*
G04 Layer_Color=8421504*
%FSLAX25Y25*%
%MOIN*%
G70*
G04*
G04 #@! TF.SameCoordinates,411507BF-F166-4A87-A089-D605349E98DF*
G04*
G04*
G04 #@! TF.FilePolarity,Positive*
G04*
G01*
G75*
%ADD18R,0.05750X0.02200*%
%ADD19R,0.03150X0.03543*%
%ADD20R,0.08600X0.06500*%
G36*
X52232Y95682D02*
X56795D01*
Y101594D01*
X52232D01*
Y95682D01*
D02*
G37*
G36*
X57582D02*
X62145D01*
Y101594D01*
X57582D01*
Y95682D01*
D02*
G37*
G36*
X52232Y102382D02*
X56795Y102382D01*
Y108294D01*
X52232D01*
Y102382D01*
D02*
G37*
G36*
X57582Y102382D02*
X62145Y102382D01*
Y108294D01*
X57582D01*
Y102382D01*
D02*
G37*
G36*
X139268Y128917D02*
X134706D01*
Y123005D01*
X139268D01*
Y128917D01*
D02*
G37*
G36*
X144618D02*
X140056D01*
Y123005D01*
X144618D01*
Y128917D01*
D02*
G37*
G36*
X139268Y135617D02*
X134706D01*
Y129705D01*
X139268D01*
Y135617D01*
D02*
G37*
G36*
X144618D02*
X140056D01*
Y129705D01*
X144618D01*
Y135617D01*
D02*
G37*
D18*
X128937Y126811D02*
D03*
X150387Y131811D02*
D03*
X46463Y99488D02*
D03*
X150387Y121811D02*
D03*
X46463Y109488D02*
D03*
Y104488D02*
D03*
Y94488D02*
D03*
X150387Y126811D02*
D03*
Y136811D02*
D03*
X67913Y109488D02*
D03*
Y104488D02*
D03*
Y99488D02*
D03*
Y94488D02*
D03*
X128937Y121811D02*
D03*
Y131811D02*
D03*
Y136811D02*
D03*
D19*
X58465Y33465D02*
D03*
X62402Y84646D02*
D03*
X50787Y117126D02*
D03*
X64370Y117126D02*
D03*
X82087Y50197D02*
D03*
X132480Y114173D02*
D03*
X145079D02*
D03*
X132480Y146653D02*
D03*
X150591Y114173D02*
D03*
X45276Y117126D02*
D03*
X98425Y50197D02*
D03*
X67913Y84646D02*
D03*
X87598Y50197D02*
D03*
X126969Y146653D02*
D03*
X74803Y33465D02*
D03*
X69882Y117126D02*
D03*
X126969Y114173D02*
D03*
X69291Y33465D02*
D03*
X92913Y50197D02*
D03*
X63976Y33465D02*
D03*
D20*
X148242Y44291D02*
D03*
X134843D02*
D03*
M02*
