G04*
G04 #@! TF.GenerationSoftware,Altium Limited,Altium Designer,26.2.0 (7)*
G04*
G04 Layer_Color=65535*
%FSLAX25Y25*%
%MOIN*%
G70*
G04*
G04 #@! TF.SameCoordinates,411507BF-F166-4A87-A089-D605349E98DF*
G04*
G04*
G04 #@! TF.FilePolarity,Positive*
G04*
G01*
G75*
%ADD10C,0.01575*%
%ADD11C,0.00787*%
%ADD12C,0.00984*%
%ADD13C,0.00600*%
%ADD14C,0.00500*%
%ADD15C,0.00591*%
%ADD16C,0.00394*%
%ADD17C,0.00300*%
D10*
X22638Y107874D02*
G03*
X22638Y107874I-394J0D01*
G01*
X175000Y123425D02*
G03*
X175000Y123425I-394J0D01*
G01*
X128740Y27165D02*
G03*
X128740Y27165I-394J0D01*
G01*
D11*
X163779Y87598D02*
G03*
X163779Y87598I-16142J0D01*
G01*
X120079Y140748D02*
G03*
X120079Y140748I-8858J0D01*
G01*
X93504Y90551D02*
G03*
X93504Y90551I-8858J0D01*
G01*
X40562Y166339D02*
G03*
X40562Y166339I-7097J0D01*
G01*
X64370Y143701D02*
G03*
X64370Y143701I-16142J0D01*
G01*
X93071Y14764D02*
G03*
X93071Y14764I-394J0D01*
G01*
X29528Y15748D02*
G03*
X29528Y15748I-13780J0D01*
G01*
X194882D02*
G03*
X194882Y15748I-13780J0D01*
G01*
Y181102D02*
G03*
X194882Y181102I-13780J0D01*
G01*
X29528D02*
G03*
X29528Y181102I-13780J0D01*
G01*
X189055Y68898D02*
G03*
X189055Y68898I-5000J0D01*
G01*
X175276D02*
G03*
X175276Y68898I-5000J0D01*
G01*
X14842Y155512D02*
G03*
X14842Y155512I-5000J0D01*
G01*
X28622D02*
G03*
X28622Y155512I-5000J0D01*
G01*
X56181Y53150D02*
G03*
X56181Y53150I-5000J0D01*
G01*
X69961D02*
G03*
X69961Y53150I-5000J0D01*
G01*
X163465Y172244D02*
G03*
X163465Y172244I-5000J0D01*
G01*
X59646Y75787D02*
Y81693D01*
X70669D01*
Y75787D02*
Y81693D01*
X59646Y75787D02*
X70669D01*
X53543Y120079D02*
Y125984D01*
X42520Y120079D02*
X53543D01*
X42520D02*
Y125984D01*
X53543D01*
X591Y114567D02*
X30906D01*
X591Y74410D02*
Y114567D01*
Y74410D02*
X30906D01*
Y114567D01*
X165945Y116732D02*
X196260D01*
Y156890D01*
X165945D02*
X196260D01*
X165945Y116732D02*
Y156890D01*
X135236Y149606D02*
Y155512D01*
X124213Y149606D02*
X135236D01*
X124213D02*
Y155512D01*
X135236D01*
X142323Y105315D02*
Y111221D01*
X153347D01*
Y105315D02*
Y111221D01*
X142323Y105315D02*
X153347D01*
X59646Y81693D02*
X70669D01*
X70669Y87598D02*
X70669Y81693D01*
X59646Y87598D02*
X70669D01*
X59646D02*
X59646Y81693D01*
X90354Y47244D02*
Y53150D01*
X79331Y47244D02*
X90354D01*
X79331D02*
Y53150D01*
X90354D01*
X124213Y149606D02*
X135236D01*
X124213Y143701D02*
Y149606D01*
Y143701D02*
X135236D01*
Y149606D01*
X66535Y23622D02*
X77559D01*
Y29528D01*
X66535D02*
X77559D01*
X66535Y23622D02*
Y29528D01*
X142323Y111221D02*
X153347D01*
Y117126D01*
X142323D02*
X153347D01*
X142323Y111221D02*
Y117126D01*
X124213D02*
X135236D01*
X124213Y111221D02*
Y117126D01*
Y111221D02*
X135236D01*
Y117126D01*
X42520Y120079D02*
X53543D01*
X42520Y114173D02*
Y120079D01*
Y114173D02*
X53543D01*
Y120079D01*
X61614Y114173D02*
X72638D01*
X72638Y120079D02*
X72638Y114173D01*
X61614Y120079D02*
X72638D01*
X61614Y114173D02*
Y120079D01*
X121653Y35827D02*
X161811D01*
Y5512D02*
Y35827D01*
X121653Y5512D02*
X161811D01*
X121653D02*
Y35827D01*
X66535Y30512D02*
X77559D01*
Y36417D01*
X66535D02*
X77559D01*
X66535Y30512D02*
Y36417D01*
X90158Y47244D02*
X101181D01*
Y53150D01*
X90158D02*
X101181D01*
X90158Y47244D02*
Y53150D01*
X18701Y32677D02*
Y43701D01*
X12795D02*
X18701D01*
X12795Y32677D02*
Y43701D01*
Y32677D02*
X18701D01*
X184055D02*
Y43701D01*
X178150D02*
X184055D01*
X178150Y32677D02*
Y43701D01*
Y32677D02*
X184055D01*
X154134Y191929D02*
X165157D01*
X154134Y186024D02*
Y191929D01*
Y186024D02*
X165157D01*
Y191929D01*
X31693Y186024D02*
X42717D01*
Y191929D01*
X31693D02*
X42717D01*
X31693Y186024D02*
Y191929D01*
X55709Y36417D02*
X66732D01*
X55709Y30512D02*
Y36417D01*
Y30512D02*
X66732D01*
Y36417D01*
X80512Y72835D02*
Y76771D01*
X81824Y75459D01*
X83136Y76771D01*
Y72835D01*
X85103D02*
X86415D01*
X87071Y73491D01*
Y74803D01*
X86415Y75459D01*
X85103D01*
X84448Y74803D01*
Y73491D01*
X85103Y72835D01*
X89039Y76115D02*
Y75459D01*
X88383D01*
X89695D01*
X89039D01*
Y73491D01*
X89695Y72835D01*
X92319D02*
X93631D01*
X94287Y73491D01*
Y74803D01*
X93631Y75459D01*
X92319D01*
X91663Y74803D01*
Y73491D01*
X92319Y72835D01*
X95599Y75459D02*
Y72835D01*
Y74147D01*
X96255Y74803D01*
X96911Y75459D01*
X97567D01*
X103470Y76771D02*
Y72835D01*
X105438D01*
X106094Y73491D01*
Y74147D01*
X105438Y74803D01*
X103470D01*
X105438D01*
X106094Y75459D01*
Y76115D01*
X105438Y76771D01*
X103470D01*
X108062Y72835D02*
X109374D01*
X110030Y73491D01*
Y74803D01*
X109374Y75459D01*
X108062D01*
X107406Y74803D01*
Y73491D01*
X108062Y72835D01*
X111998Y75459D02*
X113310D01*
X113966Y74803D01*
Y72835D01*
X111998D01*
X111342Y73491D01*
X111998Y74147D01*
X113966D01*
X115278Y75459D02*
Y72835D01*
Y74147D01*
X115934Y74803D01*
X116589Y75459D01*
X117245D01*
X121837Y76771D02*
Y72835D01*
X119869D01*
X119213Y73491D01*
Y74803D01*
X119869Y75459D01*
X121837D01*
X127085D02*
X128397Y72835D01*
X129709Y75459D01*
X131020Y72835D02*
X132332D01*
X131676D01*
Y76771D01*
X131020Y76115D01*
X78086Y57087D02*
X80710D01*
X79398Y58398D02*
Y55775D01*
X82022Y55119D02*
X83334D01*
X82678D01*
Y59054D01*
X82022Y58398D01*
X85302Y55119D02*
X86614D01*
X85958D01*
Y59054D01*
X85302Y58398D01*
X88581Y59054D02*
Y56431D01*
X89893Y55119D01*
X91205Y56431D01*
Y59054D01*
X51840Y40354D02*
X54463D01*
X53152Y41666D02*
Y39042D01*
X55775Y41666D02*
X56431Y42322D01*
X57743D01*
X58399Y41666D01*
Y41010D01*
X57743Y40354D01*
X57087D01*
X57743D01*
X58399Y39698D01*
Y39042D01*
X57743Y38386D01*
X56431D01*
X55775Y39042D01*
X59711Y42322D02*
Y39698D01*
X61023Y38386D01*
X62335Y39698D01*
Y42322D01*
X63647Y41666D02*
X64303Y42322D01*
X65615D01*
X66271Y41666D01*
Y41010D01*
X65615Y40354D01*
X64959D01*
X65615D01*
X66271Y39698D01*
Y39042D01*
X65615Y38386D01*
X64303D01*
X63647Y39042D01*
X130578Y191602D02*
X131234Y190945D01*
X132546D01*
X133202Y191602D01*
Y194225D01*
X132546Y194881D01*
X131234D01*
X130578Y194225D01*
Y192913D01*
X131890D01*
X113516Y190945D02*
X112204D01*
X112860D01*
Y194881D01*
X113516D01*
X112204D01*
X110236D02*
Y190945D01*
X107612Y194881D01*
Y190945D01*
X106300Y194881D02*
X104988D01*
X105644D01*
Y190945D01*
X106300Y191602D01*
X126967Y190945D02*
X125655D01*
X126311D01*
Y194881D01*
X126967D01*
X125655D01*
X123687D02*
Y190945D01*
X121063Y194881D01*
Y190945D01*
X117128Y194881D02*
X119751D01*
X117128Y192257D01*
Y191602D01*
X117783Y190945D01*
X119095D01*
X119751Y191602D01*
X147636Y194881D02*
Y190945D01*
X146324Y192257D01*
X145012Y190945D01*
Y194881D01*
X143701D02*
X142388D01*
X143044D01*
Y190945D01*
X143701Y191602D01*
X137797D02*
X138453Y190945D01*
X139765D01*
X140421Y191602D01*
Y194225D01*
X139765Y194881D01*
X138453D01*
X137797Y194225D01*
X90877Y194881D02*
Y190945D01*
X89566Y192257D01*
X88254Y190945D01*
Y194881D01*
X84318D02*
X86942D01*
X84318Y192257D01*
Y191602D01*
X84974Y190945D01*
X86286D01*
X86942Y191602D01*
X80382D02*
X81038Y190945D01*
X82350D01*
X83006Y191602D01*
Y194225D01*
X82350Y194881D01*
X81038D01*
X80382Y194225D01*
X69880Y190945D02*
X68568D01*
X69224D01*
Y194881D01*
X69880D01*
X68568D01*
X66601D02*
Y190945D01*
X63977Y194881D01*
Y190945D01*
X60041Y194881D02*
X62665D01*
X60041Y192257D01*
Y191602D01*
X60697Y190945D01*
X62009D01*
X62665Y191602D01*
X56429Y190945D02*
X55117D01*
X55773D01*
Y194881D01*
X56429D01*
X55117D01*
X53149D02*
Y190945D01*
X50525Y194881D01*
Y190945D01*
X49213Y194881D02*
X47902D01*
X48558D01*
Y190945D01*
X49213Y191602D01*
X73491D02*
X74147Y190945D01*
X75459D01*
X76115Y191602D01*
Y194225D01*
X75459Y194881D01*
X74147D01*
X73491Y194225D01*
Y192913D01*
X74803D01*
X117126Y35430D02*
Y31494D01*
X119094Y33462D02*
X115158D01*
X114174Y29526D02*
Y27558D01*
Y28542D01*
X120078D01*
X119094Y29526D01*
X114174Y24607D02*
Y22639D01*
Y23623D01*
X120078D01*
X119094Y24607D01*
X120078Y19687D02*
X116142D01*
X114174Y17719D01*
X116142Y15751D01*
X120078D01*
X168637Y115157D02*
X167325D01*
X166669Y114501D01*
Y111877D01*
X167325Y111221D01*
X168637D01*
X169293Y111877D01*
Y114501D01*
X168637Y115157D01*
X170605D02*
Y111877D01*
X171260Y111221D01*
X172572D01*
X173228Y111877D01*
Y115157D01*
X174540D02*
X177164D01*
X175852D01*
Y111221D01*
X178476D02*
X179788D01*
X179132D01*
Y115157D01*
X178476Y114501D01*
X75462Y3937D02*
X78086D01*
X76774Y5249D02*
Y2625D01*
X79397Y5249D02*
X80053Y5905D01*
X81365D01*
X82021Y5249D01*
Y4593D01*
X81365Y3937D01*
X80709D01*
X81365D01*
X82021Y3281D01*
Y2625D01*
X81365Y1969D01*
X80053D01*
X79397Y2625D01*
X83333Y5905D02*
Y3281D01*
X84645Y1969D01*
X85957Y3281D01*
Y5905D01*
X87269Y5249D02*
X87925Y5905D01*
X89237D01*
X89893Y5249D01*
Y4593D01*
X89237Y3937D01*
X88581D01*
X89237D01*
X89893Y3281D01*
Y2625D01*
X89237Y1969D01*
X87925D01*
X87269Y2625D01*
X68241Y5249D02*
X67585Y5905D01*
X66273D01*
X65617Y5249D01*
Y2625D01*
X66273Y1969D01*
X67585D01*
X68241Y2625D01*
Y3937D01*
X66929D01*
X18374Y72834D02*
X17063D01*
X16407Y72178D01*
Y69554D01*
X17063Y68898D01*
X18374D01*
X19030Y69554D01*
Y72178D01*
X18374Y72834D01*
X20342D02*
Y69554D01*
X20998Y68898D01*
X22310D01*
X22966Y69554D01*
Y72834D01*
X24278D02*
X26902D01*
X25590D01*
Y68898D01*
X30838D02*
X28214D01*
X30838Y71522D01*
Y72178D01*
X30182Y72834D01*
X28870D01*
X28214Y72178D01*
X19030Y120078D02*
X17718D01*
X17063Y119422D01*
Y116798D01*
X17718Y116142D01*
X19030D01*
X19686Y116798D01*
Y119422D01*
X19030Y120078D01*
X20998D02*
Y116798D01*
X21654Y116142D01*
X22966D01*
X23622Y116798D01*
Y120078D01*
X24934D02*
X27558D01*
X26246D01*
Y116142D01*
X28870D02*
X30182D01*
X29526D01*
Y120078D01*
X28870Y119422D01*
X168965Y162401D02*
X167653D01*
X166997Y161745D01*
Y159121D01*
X167653Y158465D01*
X168965D01*
X169621Y159121D01*
Y161745D01*
X168965Y162401D01*
X170933D02*
Y159121D01*
X171589Y158465D01*
X172901D01*
X173557Y159121D01*
Y162401D01*
X174869D02*
X177492D01*
X176181D01*
Y158465D01*
X181428D02*
X178804D01*
X181428Y161089D01*
Y161745D01*
X180772Y162401D01*
X179460D01*
X178804Y161745D01*
X78086Y86615D02*
Y94487D01*
X80710Y91863D01*
X83334Y94487D01*
Y86615D01*
X91205D02*
X85958D01*
X91205Y91863D01*
Y93175D01*
X89893Y94487D01*
X87270D01*
X85958Y93175D01*
X114505Y169292D02*
Y173228D01*
X115817Y171916D01*
X117129Y173228D01*
Y169292D01*
X120409Y173228D02*
X119097D01*
X118441Y172572D01*
Y169948D01*
X119097Y169292D01*
X120409D01*
X121065Y169948D01*
Y172572D01*
X120409Y173228D01*
X122377D02*
X125001D01*
X123689D01*
Y169292D01*
X128280Y173228D02*
X126969D01*
X126313Y172572D01*
Y169948D01*
X126969Y169292D01*
X128280D01*
X128936Y169948D01*
Y172572D01*
X128280Y173228D01*
X130248Y169292D02*
Y173228D01*
X132216D01*
X132872Y172572D01*
Y171260D01*
X132216Y170604D01*
X130248D01*
X131560D02*
X132872Y169292D01*
X138120D02*
X139432D01*
X138776D01*
Y173228D01*
X138120Y172572D01*
X56763Y169292D02*
Y173228D01*
X58075Y171916D01*
X59387Y173228D01*
Y169292D01*
X62666Y173228D02*
X61355D01*
X60698Y172572D01*
Y169948D01*
X61355Y169292D01*
X62666D01*
X63322Y169948D01*
Y172572D01*
X62666Y173228D01*
X64634D02*
X67258D01*
X65946D01*
Y169292D01*
X70538Y173228D02*
X69226D01*
X68570Y172572D01*
Y169948D01*
X69226Y169292D01*
X70538D01*
X71194Y169948D01*
Y172572D01*
X70538Y173228D01*
X72506Y169292D02*
Y173228D01*
X74474D01*
X75129Y172572D01*
Y171260D01*
X74474Y170604D01*
X72506D01*
X73818D02*
X75129Y169292D01*
X83001D02*
X80377D01*
X83001Y171916D01*
Y172572D01*
X82345Y173228D01*
X81033D01*
X80377Y172572D01*
X105973Y136812D02*
Y144684D01*
X108597Y142060D01*
X111221Y144684D01*
Y136812D01*
X113844D02*
X116468D01*
X115156D01*
Y144684D01*
X113844Y143372D01*
X164371Y33465D02*
X168306D01*
X133202Y2953D02*
X130578D01*
X131890Y1641D02*
Y4265D01*
X152887Y2953D02*
X150263D01*
X30841Y170274D02*
Y163715D01*
X32153Y162403D01*
X34776D01*
X36088Y163715D01*
Y170274D01*
D12*
X71850Y7874D02*
X89567D01*
X50197D02*
X68504D01*
X50197Y175197D02*
X89567D01*
X107283D02*
X145669D01*
X128347Y89285D02*
Y85912D01*
X67520Y142014D02*
Y145388D01*
D13*
X48838Y91638D02*
X65538D01*
X48838Y112338D02*
X65538D01*
X131312Y139661D02*
X148012D01*
X131312Y118961D02*
X148012D01*
X130642Y38291D02*
X152443D01*
X130642Y50291D02*
X152443D01*
X130642Y38291D02*
Y39731D01*
Y48851D02*
Y50291D01*
X152443Y48851D02*
X152443Y50291D01*
X152443Y39731D02*
X152443Y38291D01*
D14*
X106732Y178071D02*
X146732D01*
X106732Y188071D02*
X146732D01*
Y178071D02*
Y188071D01*
X106732Y178071D02*
Y188071D01*
X50118Y19764D02*
X90118D01*
X50118Y9764D02*
X90118D01*
X50118D02*
Y19764D01*
X90118Y9764D02*
Y19764D01*
X50118Y178071D02*
Y188071D01*
X90118Y178071D02*
Y188071D01*
X50118D02*
X90118D01*
X50118Y178071D02*
X90118D01*
D15*
X82414Y67519D02*
X81889Y68044D01*
X80840D01*
X80315Y67519D01*
Y65420D01*
X80840Y64895D01*
X81889D01*
X82414Y65420D01*
Y66470D01*
X81365D01*
X83464Y66994D02*
Y64895D01*
Y65945D01*
X83988Y66470D01*
X84513Y66994D01*
X85038D01*
X87137Y64895D02*
X88186D01*
X88711Y65420D01*
Y66470D01*
X88186Y66994D01*
X87137D01*
X86612Y66470D01*
Y65420D01*
X87137Y64895D01*
X89761Y66994D02*
Y65420D01*
X90285Y64895D01*
X91860D01*
Y66994D01*
X92909Y63846D02*
Y66994D01*
X94484D01*
X95008Y66470D01*
Y65420D01*
X94484Y64895D01*
X92909D01*
X101306D02*
X99207D01*
X101306Y66994D01*
Y67519D01*
X100781Y68044D01*
X99731D01*
X99207Y67519D01*
X103929Y64895D02*
Y68044D01*
X102355Y66470D01*
X104454D01*
X106028Y64371D02*
X106553Y64895D01*
Y65420D01*
X106028D01*
Y64895D01*
X106553D01*
X106028Y64371D01*
X105504Y63846D01*
X113900Y68044D02*
X111801D01*
Y64895D01*
X113900D01*
X111801Y66470D02*
X112850D01*
X114949Y64895D02*
Y68044D01*
X117049Y64895D01*
Y68044D01*
X120197D02*
X118098D01*
Y64895D01*
X120197D01*
X118098Y66470D02*
X119148D01*
X121247Y68044D02*
Y64895D01*
X123346D01*
X127544Y67519D02*
X128069Y68044D01*
X129118D01*
X129643Y67519D01*
Y66994D01*
X129118Y66470D01*
X128593D01*
X129118D01*
X129643Y65945D01*
Y65420D01*
X129118Y64895D01*
X128069D01*
X127544Y65420D01*
X130692Y67519D02*
X131217Y68044D01*
X132267D01*
X132791Y67519D01*
Y65420D01*
X132267Y64895D01*
X131217D01*
X130692Y65420D01*
Y67519D01*
X133841D02*
X134366Y68044D01*
X135415D01*
X135940Y67519D01*
Y65420D01*
X135415Y64895D01*
X134366D01*
X133841Y65420D01*
Y67519D01*
D16*
X75553Y52165D02*
Y48229D01*
X75741Y52165D02*
Y48229D01*
X78177Y52165D02*
X75741Y49728D01*
X76678Y50478D02*
X78177Y48229D01*
X76490Y50478D02*
X77990Y48229D01*
X74991Y52165D02*
X76303D01*
X77428D02*
X78552D01*
X74991Y48229D02*
X76303D01*
X77428D02*
X78552D01*
X155088Y46259D02*
Y42323D01*
X155275Y46259D02*
Y42323D01*
X157712Y46259D02*
X155275Y43823D01*
X156213Y44572D02*
X157712Y42323D01*
X156025Y44572D02*
X157525Y42323D01*
X154526Y46259D02*
X155838D01*
X156962D02*
X158087D01*
X154526Y42323D02*
X155838D01*
X156962D02*
X158087D01*
X51931Y35433D02*
Y31497D01*
X52119Y35433D02*
Y31497D01*
X54555Y35433D02*
X52119Y32996D01*
X53056Y33746D02*
X54555Y31497D01*
X52868Y33746D02*
X54368Y31497D01*
X51369Y35433D02*
X52681D01*
X53806D02*
X54930D01*
X51369Y31497D02*
X52681D01*
X53806D02*
X54930D01*
X144194Y142880D02*
Y141240D01*
X144522Y140912D01*
X145178D01*
X145506Y141240D01*
Y142880D01*
X146162Y140912D02*
X146818D01*
X146490D01*
Y142880D01*
X146162Y142552D01*
X147802Y140584D02*
X149114D01*
X151082Y140912D02*
X149770D01*
X151082Y142224D01*
Y142552D01*
X150754Y142880D01*
X150098D01*
X149770Y142552D01*
X44128Y90715D02*
Y89075D01*
X44456Y88747D01*
X45112D01*
X45440Y89075D01*
Y90715D01*
X46096Y88747D02*
X46752D01*
X46424D01*
Y90715D01*
X46096Y90387D01*
X47736Y88419D02*
X49048D01*
X49704Y88747D02*
X50360D01*
X50032D01*
Y90715D01*
X49704Y90387D01*
X56432Y27559D02*
Y25591D01*
X57416D01*
X57744Y25919D01*
Y27231D01*
X57416Y27559D01*
X56432D01*
X58399Y25591D02*
Y27559D01*
X59711Y25591D01*
Y27559D01*
X60367Y25591D02*
Y27559D01*
X61351D01*
X61679Y27231D01*
Y26575D01*
X61351Y26247D01*
X60367D01*
X63647Y27559D02*
X62335D01*
Y26575D01*
X62991Y26903D01*
X63319D01*
X63647Y26575D01*
Y25919D01*
X63319Y25591D01*
X62663D01*
X62335Y25919D01*
X3938Y118274D02*
X3282D01*
X3610D01*
Y116634D01*
X3282Y116306D01*
X2954D01*
X2626Y116634D01*
X5906Y118274D02*
X4594D01*
Y117290D01*
X5250Y117618D01*
X5578D01*
X5906Y117290D01*
Y116634D01*
X5578Y116306D01*
X4922D01*
X4594Y116634D01*
X6561Y115978D02*
X7873D01*
X8529Y116306D02*
X9185D01*
X8857D01*
Y118274D01*
X8529Y117946D01*
X187665Y160597D02*
X187009D01*
X187337D01*
Y158957D01*
X187009Y158629D01*
X186681D01*
X186353Y158957D01*
X189633Y160597D02*
X188321D01*
Y159613D01*
X188977Y159941D01*
X189305D01*
X189633Y159613D01*
Y158957D01*
X189305Y158629D01*
X188649D01*
X188321Y158957D01*
X190289Y158301D02*
X191601D01*
X193568Y158629D02*
X192256D01*
X193568Y159941D01*
Y160269D01*
X193240Y160597D01*
X192584D01*
X192256Y160269D01*
X29366Y124179D02*
Y122212D01*
X30349D01*
X30677Y122539D01*
Y123851D01*
X30349Y124179D01*
X29366D01*
X31333Y122212D02*
Y124179D01*
X32645Y122212D01*
Y124179D01*
X33301Y122212D02*
Y124179D01*
X34285D01*
X34613Y123851D01*
Y123196D01*
X34285Y122868D01*
X33301D01*
X35269Y122212D02*
X35925D01*
X35597D01*
Y124179D01*
X35269Y123851D01*
X36909D02*
X37237Y124179D01*
X37893D01*
X38221Y123851D01*
Y122539D01*
X37893Y122212D01*
X37237D01*
X36909Y122539D01*
Y123851D01*
X38877Y121884D02*
X40189D01*
X40845Y122212D02*
X41501D01*
X41173D01*
Y124179D01*
X40845Y123851D01*
X155022Y109416D02*
Y107448D01*
X156006D01*
X156334Y107776D01*
Y109088D01*
X156006Y109416D01*
X155022D01*
X156990Y107448D02*
Y109416D01*
X158301Y107448D01*
Y109416D01*
X158958Y107448D02*
Y109416D01*
X159941D01*
X160269Y109088D01*
Y108432D01*
X159941Y108104D01*
X158958D01*
X160925Y107448D02*
X161581D01*
X161253D01*
Y109416D01*
X160925Y109088D01*
X162565D02*
X162893Y109416D01*
X163549D01*
X163877Y109088D01*
Y107776D01*
X163549Y107448D01*
X162893D01*
X162565Y107776D01*
Y109088D01*
X164533Y107120D02*
X165845D01*
X167813Y107448D02*
X166501D01*
X167813Y108760D01*
Y109088D01*
X167485Y109416D01*
X166829D01*
X166501Y109088D01*
X60697Y74967D02*
Y72999D01*
X61681D01*
X62009Y73327D01*
Y74639D01*
X61681Y74967D01*
X60697D01*
X62665Y72999D02*
Y74967D01*
X63977Y72999D01*
Y74967D01*
X64633Y72999D02*
Y74967D01*
X65617D01*
X65945Y74639D01*
Y73983D01*
X65617Y73655D01*
X64633D01*
X66601Y73327D02*
X66929Y72999D01*
X67585D01*
X67913Y73327D01*
Y74639D01*
X67585Y74967D01*
X66929D01*
X66601Y74639D01*
Y74311D01*
X66929Y73983D01*
X67913D01*
X68569Y72671D02*
X69881D01*
X70537Y72999D02*
X71193D01*
X70864D01*
Y74967D01*
X70537Y74639D01*
X130251Y158628D02*
Y156660D01*
X131235D01*
X131563Y156988D01*
Y158300D01*
X131235Y158628D01*
X130251D01*
X132219Y156660D02*
Y158628D01*
X133531Y156660D01*
Y158628D01*
X134187Y156660D02*
Y158628D01*
X135171D01*
X135499Y158300D01*
Y157644D01*
X135171Y157316D01*
X134187D01*
X136155Y156988D02*
X136483Y156660D01*
X137139D01*
X137467Y156988D01*
Y158300D01*
X137139Y158628D01*
X136483D01*
X136155Y158300D01*
Y157972D01*
X136483Y157644D01*
X137467D01*
X138123Y156332D02*
X139435D01*
X141402Y156660D02*
X140091D01*
X141402Y157972D01*
Y158300D01*
X141074Y158628D01*
X140419D01*
X140091Y158300D01*
X51838Y80873D02*
Y82841D01*
X52822D01*
X53150Y82513D01*
Y81857D01*
X52822Y81529D01*
X51838D01*
X52494D02*
X53150Y80873D01*
X54790D02*
Y82841D01*
X53806Y81857D01*
X55118D01*
X55774Y80545D02*
X57086D01*
X57742Y80873D02*
X58398D01*
X58070D01*
Y82841D01*
X57742Y82513D01*
X136156Y148786D02*
Y150754D01*
X137140D01*
X137468Y150426D01*
Y149770D01*
X137140Y149442D01*
X136156D01*
X136812D02*
X137468Y148786D01*
X139108D02*
Y150754D01*
X138124Y149770D01*
X139436D01*
X140092Y148458D02*
X141404D01*
X143371Y148786D02*
X142060D01*
X143371Y150098D01*
Y150426D01*
X143044Y150754D01*
X142388D01*
X142060Y150426D01*
X25919Y3937D02*
X27231D01*
X26575D01*
Y1969D01*
X27887Y3937D02*
Y1969D01*
Y2953D01*
X29199D01*
Y3937D01*
Y1969D01*
X30839D02*
Y3937D01*
X29855Y2953D01*
X31167D01*
X164699Y4921D02*
X166011D01*
X165355D01*
Y2953D01*
X166667Y4921D02*
Y2953D01*
Y3937D01*
X167979D01*
Y4921D01*
Y2953D01*
X168635Y4593D02*
X168963Y4921D01*
X169619D01*
X169947Y4593D01*
Y4265D01*
X169619Y3937D01*
X169291D01*
X169619D01*
X169947Y3609D01*
Y3281D01*
X169619Y2953D01*
X168963D01*
X168635Y3281D01*
X166667Y194882D02*
X167979D01*
X167324D01*
Y192914D01*
X168635Y194882D02*
Y192914D01*
Y193898D01*
X169947D01*
Y194882D01*
Y192914D01*
X171915D02*
X170603D01*
X171915Y194226D01*
Y194554D01*
X171587Y194882D01*
X170931D01*
X170603Y194554D01*
X26248Y194882D02*
X27559D01*
X26903D01*
Y192914D01*
X28215Y194882D02*
Y192914D01*
Y193898D01*
X29527D01*
Y194882D01*
Y192914D01*
X30183D02*
X30839D01*
X30511D01*
Y194882D01*
X30183Y194554D01*
X70210Y37402D02*
Y39370D01*
X71194D01*
X71522Y39042D01*
Y38386D01*
X71194Y38058D01*
X70210D01*
X70867D02*
X71522Y37402D01*
X73490D02*
X72178D01*
X73490Y38714D01*
Y39042D01*
X73162Y39370D01*
X72506D01*
X72178Y39042D01*
X98098Y44292D02*
Y46259D01*
X99081D01*
X99410Y45932D01*
Y45276D01*
X99081Y44948D01*
X98098D01*
X98753D02*
X99410Y44292D01*
X100065D02*
X100721D01*
X100393D01*
Y46259D01*
X100065Y45932D01*
X92192Y183071D02*
X91536D01*
X91864D01*
Y181431D01*
X91536Y181103D01*
X91208D01*
X90880Y181431D01*
X93832Y181103D02*
Y183071D01*
X92848Y182087D01*
X94160D01*
X123688Y39370D02*
X123032D01*
X123360D01*
Y37730D01*
X123032Y37402D01*
X122704D01*
X122376Y37730D01*
X124344Y39042D02*
X124672Y39370D01*
X125328D01*
X125656Y39042D01*
Y38714D01*
X125328Y38386D01*
X125000D01*
X125328D01*
X125656Y38058D01*
Y37730D01*
X125328Y37402D01*
X124672D01*
X124344Y37730D01*
X149278Y183071D02*
X148622D01*
X148950D01*
Y181431D01*
X148622Y181103D01*
X148294D01*
X147966Y181431D01*
X151246Y181103D02*
X149934D01*
X151246Y182415D01*
Y182743D01*
X150918Y183071D01*
X150262D01*
X149934Y182743D01*
X42085Y13713D02*
Y13057D01*
Y13385D01*
X43725D01*
X44053Y13057D01*
Y12729D01*
X43725Y12401D01*
X44053Y14368D02*
Y15024D01*
Y14696D01*
X42085D01*
X42413Y14368D01*
X149279Y166995D02*
X148951Y167323D01*
X148295D01*
X147967Y166995D01*
Y165683D01*
X148295Y165355D01*
X148951D01*
X149279Y165683D01*
Y166339D01*
X148623D01*
X149935Y165355D02*
Y167323D01*
X151247Y165355D01*
Y167323D01*
X151903D02*
Y165355D01*
X152887D01*
X153215Y165683D01*
Y166995D01*
X152887Y167323D01*
X151903D01*
X154855Y165355D02*
Y167323D01*
X153871Y166339D01*
X155183D01*
X48885Y46916D02*
X48557Y47244D01*
X47901D01*
X47573Y46916D01*
Y45604D01*
X47901Y45276D01*
X48557D01*
X48885Y45604D01*
Y46260D01*
X48229D01*
X49541Y45276D02*
Y47244D01*
X50853Y45276D01*
Y47244D01*
X51509D02*
Y45276D01*
X52493D01*
X52821Y45604D01*
Y46916D01*
X52493Y47244D01*
X51509D01*
X53477Y46916D02*
X53805Y47244D01*
X54461D01*
X54789Y46916D01*
Y46588D01*
X54461Y46260D01*
X54133D01*
X54461D01*
X54789Y45932D01*
Y45604D01*
X54461Y45276D01*
X53805D01*
X53477Y45604D01*
X7547Y164042D02*
X7219Y164370D01*
X6563D01*
X6235Y164042D01*
Y162730D01*
X6563Y162402D01*
X7219D01*
X7547Y162730D01*
Y163386D01*
X6891D01*
X8203Y162402D02*
Y164370D01*
X9515Y162402D01*
Y164370D01*
X10170D02*
Y162402D01*
X11154D01*
X11482Y162730D01*
Y164042D01*
X11154Y164370D01*
X10170D01*
X13450Y162402D02*
X12138D01*
X13450Y163714D01*
Y164042D01*
X13122Y164370D01*
X12466D01*
X12138Y164042D01*
X188977Y76443D02*
X188649Y76771D01*
X187993D01*
X187665Y76443D01*
Y75131D01*
X187993Y74804D01*
X188649D01*
X188977Y75131D01*
Y75787D01*
X188321D01*
X189633Y74804D02*
Y76771D01*
X190945Y74804D01*
Y76771D01*
X191601D02*
Y74804D01*
X192585D01*
X192913Y75131D01*
Y76443D01*
X192585Y76771D01*
X191601D01*
X193569Y74804D02*
X194225D01*
X193897D01*
Y76771D01*
X193569Y76443D01*
X4266Y42322D02*
Y40355D01*
X5250D01*
X5578Y40683D01*
Y41995D01*
X5250Y42322D01*
X4266D01*
X6234Y40355D02*
Y42322D01*
X7546Y40355D01*
Y42322D01*
X8202Y40355D02*
Y42322D01*
X9186D01*
X9514Y41995D01*
Y41339D01*
X9186Y41011D01*
X8202D01*
X11154Y40355D02*
Y42322D01*
X10170Y41339D01*
X11482D01*
X169621Y42322D02*
Y40355D01*
X170605D01*
X170932Y40683D01*
Y41995D01*
X170605Y42322D01*
X169621D01*
X171589Y40355D02*
Y42322D01*
X172900Y40355D01*
Y42322D01*
X173556Y40355D02*
Y42322D01*
X174540D01*
X174868Y41995D01*
Y41339D01*
X174540Y41011D01*
X173556D01*
X175524Y41995D02*
X175852Y42322D01*
X176508D01*
X176836Y41995D01*
Y41667D01*
X176508Y41339D01*
X176180D01*
X176508D01*
X176836Y41011D01*
Y40683D01*
X176508Y40355D01*
X175852D01*
X175524Y40683D01*
X155841Y185039D02*
Y183071D01*
X156825D01*
X157153Y183399D01*
Y184711D01*
X156825Y185039D01*
X155841D01*
X157809Y183071D02*
Y185039D01*
X159121Y183071D01*
Y185039D01*
X159777Y183071D02*
Y185039D01*
X160761D01*
X161089Y184711D01*
Y184055D01*
X160761Y183727D01*
X159777D01*
X163057Y183071D02*
X161745D01*
X163057Y184383D01*
Y184711D01*
X162729Y185039D01*
X162073D01*
X161745Y184711D01*
X34122Y185039D02*
Y183071D01*
X35106D01*
X35434Y183399D01*
Y184711D01*
X35106Y185039D01*
X34122D01*
X36090Y183071D02*
Y185039D01*
X37402Y183071D01*
Y185039D01*
X38058Y183071D02*
Y185039D01*
X39042D01*
X39369Y184711D01*
Y184055D01*
X39042Y183727D01*
X38058D01*
X40025Y183071D02*
X40681D01*
X40353D01*
Y185039D01*
X40025Y184711D01*
X51510Y29527D02*
Y27559D01*
X52494D01*
X52822Y27887D01*
Y29199D01*
X52494Y29527D01*
X51510D01*
X54461Y27559D02*
Y29527D01*
X53478Y28543D01*
X54790D01*
X74147Y46259D02*
Y44292D01*
X75131D01*
X75459Y44620D01*
Y45932D01*
X75131Y46259D01*
X74147D01*
X76115Y45932D02*
X76443Y46259D01*
X77099D01*
X77427Y45932D01*
Y45604D01*
X77099Y45276D01*
X76771D01*
X77099D01*
X77427Y44948D01*
Y44620D01*
X77099Y44292D01*
X76443D01*
X76115Y44620D01*
X131234Y53149D02*
Y51181D01*
X132218D01*
X132546Y51509D01*
Y52821D01*
X132218Y53149D01*
X131234D01*
X134514Y51181D02*
X133202D01*
X134514Y52493D01*
Y52821D01*
X134186Y53149D01*
X133530D01*
X133202Y52821D01*
X74804Y117946D02*
X74476Y118274D01*
X73820D01*
X73492Y117946D01*
Y116634D01*
X73820Y116306D01*
X74476D01*
X74804Y116634D01*
X75460Y117946D02*
X75788Y118274D01*
X76444D01*
X76772Y117946D01*
Y117618D01*
X76444Y117290D01*
X76116D01*
X76444D01*
X76772Y116962D01*
Y116634D01*
X76444Y116306D01*
X75788D01*
X75460Y116634D01*
X77428Y115978D02*
X78740D01*
X79396Y116306D02*
X80051D01*
X79724D01*
Y118274D01*
X79396Y117946D01*
X116799Y114993D02*
X116471Y115321D01*
X115815D01*
X115487Y114993D01*
Y113681D01*
X115815Y113353D01*
X116471D01*
X116799Y113681D01*
X117455Y114993D02*
X117783Y115321D01*
X118438D01*
X118766Y114993D01*
Y114665D01*
X118438Y114337D01*
X118111D01*
X118438D01*
X118766Y114009D01*
Y113681D01*
X118438Y113353D01*
X117783D01*
X117455Y113681D01*
X119422Y113025D02*
X120734D01*
X122702Y113353D02*
X121390D01*
X122702Y114665D01*
Y114993D01*
X122374Y115321D01*
X121718D01*
X121390Y114993D01*
X36418Y117946D02*
X36090Y118274D01*
X35434D01*
X35106Y117946D01*
Y116634D01*
X35434Y116306D01*
X36090D01*
X36418Y116634D01*
X38386Y116306D02*
X37074D01*
X38386Y117618D01*
Y117946D01*
X38058Y118274D01*
X37402D01*
X37074Y117946D01*
X39042Y115978D02*
X40354D01*
X41010Y116306D02*
X41666D01*
X41338D01*
Y118274D01*
X41010Y117946D01*
X156169Y114993D02*
X155841Y115321D01*
X155185D01*
X154857Y114993D01*
Y113681D01*
X155185Y113353D01*
X155841D01*
X156169Y113681D01*
X158137Y113353D02*
X156825D01*
X158137Y114665D01*
Y114993D01*
X157809Y115321D01*
X157153D01*
X156825Y114993D01*
X158793Y113025D02*
X160105D01*
X162072Y113353D02*
X160760D01*
X162072Y114665D01*
Y114993D01*
X161744Y115321D01*
X161088D01*
X160760Y114993D01*
X25755Y143536D02*
X25427Y143865D01*
X24771D01*
X24443Y143536D01*
Y142225D01*
X24771Y141897D01*
X25427D01*
X25755Y142225D01*
X26411Y141897D02*
X27067D01*
X26739D01*
Y143865D01*
X26411Y143536D01*
X28051Y141569D02*
X29363D01*
X30019Y141897D02*
X30675D01*
X30347D01*
Y143865D01*
X30019Y143536D01*
X167159Y88418D02*
X166832Y88746D01*
X166176D01*
X165848Y88418D01*
Y87107D01*
X166176Y86778D01*
X166832D01*
X167159Y87107D01*
X167815Y86778D02*
X168471D01*
X168143D01*
Y88746D01*
X167815Y88418D01*
X169455Y86450D02*
X170767D01*
X172735Y86778D02*
X171423D01*
X172735Y88090D01*
Y88418D01*
X172407Y88746D01*
X171751D01*
X171423Y88418D01*
X19358Y147638D02*
X20670D01*
X20014Y148294D02*
Y146982D01*
X21326Y146654D02*
X21982D01*
X21654D01*
Y148622D01*
X21326Y148294D01*
X22966Y146654D02*
X23622D01*
X23294D01*
Y148622D01*
X22966Y148294D01*
X24606Y148622D02*
Y147310D01*
X25262Y146654D01*
X25918Y147310D01*
Y148622D01*
X27886Y146654D02*
X26574D01*
X27886Y147966D01*
Y148294D01*
X27558Y148622D01*
X26902D01*
X26574Y148294D01*
X166340Y61024D02*
X167652D01*
X166996Y61680D02*
Y60368D01*
X168308Y60040D02*
X168964D01*
X168636D01*
Y62008D01*
X168308Y61680D01*
X169948Y60040D02*
X170604D01*
X170276D01*
Y62008D01*
X169948Y61680D01*
X171588Y62008D02*
Y60696D01*
X172243Y60040D01*
X172899Y60696D01*
Y62008D01*
X173555Y60040D02*
X174211D01*
X173883D01*
Y62008D01*
X173555Y61680D01*
X63650Y61188D02*
X64962D01*
X64306Y61844D02*
Y60532D01*
X65618Y61844D02*
X65946Y62172D01*
X66602D01*
X66930Y61844D01*
Y61516D01*
X66602Y61188D01*
X66274D01*
X66602D01*
X66930Y60860D01*
Y60532D01*
X66602Y60204D01*
X65946D01*
X65618Y60532D01*
X67586Y62172D02*
Y60860D01*
X68242Y60204D01*
X68898Y60860D01*
Y62172D01*
X69554Y61844D02*
X69882Y62172D01*
X70538D01*
X70865Y61844D01*
Y61516D01*
X70538Y61188D01*
X70210D01*
X70538D01*
X70865Y60860D01*
Y60532D01*
X70538Y60204D01*
X69882D01*
X69554Y60532D01*
X71522Y59876D02*
X72833D01*
X73489Y60204D02*
X74145D01*
X73817D01*
Y62172D01*
X73489Y61844D01*
D17*
X74803Y88354D02*
X71471Y91687D01*
X74803D02*
X71471Y88354D01*
X74803Y90021D02*
X71471D01*
X73137Y91687D02*
Y88354D01*
X121365Y142414D02*
X124698Y139082D01*
X121365D02*
X124698Y142414D01*
X121365Y140748D02*
X124698D01*
X123031Y139082D02*
Y142414D01*
M02*
