G04*
G04 #@! TF.GenerationSoftware,Altium Limited,Altium Designer,26.2.0 (7)*
G04*
G04 Layer_Physical_Order=4*
G04 Layer_Color=16711680*
%FSLAX25Y25*%
%MOIN*%
G70*
G04*
G04 #@! TF.SameCoordinates,411507BF-F166-4A87-A089-D605349E98DF*
G04*
G04*
G04 #@! TF.FilePolarity,Positive*
G04*
G01*
G75*
%ADD19R,0.03150X0.03543*%
%ADD35C,0.03937*%
%ADD37C,0.01000*%
%ADD39R,0.05709X0.05709*%
%ADD40C,0.05709*%
%ADD41C,0.05906*%
%ADD42C,0.05150*%
%ADD43C,0.07677*%
%ADD44C,0.15748*%
%ADD45C,0.02362*%
G04:AMPARAMS|DCode=46|XSize=35.43mil|YSize=31.5mil|CornerRadius=0mil|HoleSize=0mil|Usage=FLASHONLY|Rotation=135.000|XOffset=0mil|YOffset=0mil|HoleType=Round|Shape=Rectangle|*
%AMROTATEDRECTD46*
4,1,4,0.02366,-0.00139,0.00139,-0.02366,-0.02366,0.00139,-0.00139,0.02366,0.02366,-0.00139,0.0*
%
%ADD46ROTATEDRECTD46*%

G36*
X195646Y1204D02*
X97460D01*
Y23206D01*
X98841Y24587D01*
X112205D01*
X112589Y24663D01*
X112914Y24881D01*
X135552Y47519D01*
X135770Y47844D01*
X135846Y48228D01*
X135846Y107876D01*
X135846Y107876D01*
Y108659D01*
X135846Y108659D01*
Y112205D01*
X135770Y112589D01*
X135552Y112914D01*
X134568Y113899D01*
X134242Y114116D01*
X133858Y114192D01*
X122047D01*
X121663Y114116D01*
X121338Y113899D01*
X118385Y110946D01*
X118167Y110620D01*
X118091Y110236D01*
Y98425D01*
X118167Y98041D01*
X118385Y97716D01*
X121044Y95057D01*
Y53565D01*
X105884Y38405D01*
X92935D01*
X83681Y47660D01*
Y55118D01*
X83604Y55502D01*
X83387Y55828D01*
X72854Y66360D01*
Y110816D01*
X73248Y110976D01*
X73688Y110536D01*
X74412Y110236D01*
X75195D01*
X75918Y110536D01*
X76472Y111090D01*
X76772Y111813D01*
Y112596D01*
X76472Y113320D01*
X76116Y113676D01*
Y121591D01*
X76495Y121810D01*
X77008Y122324D01*
X77371Y122952D01*
X77559Y123653D01*
Y124379D01*
X77371Y125080D01*
X77008Y125708D01*
X76495Y126221D01*
X75867Y126584D01*
X75166Y126772D01*
X74440D01*
X74017Y126658D01*
X67257Y133418D01*
Y153543D01*
X67158Y154046D01*
X66873Y154472D01*
X56431Y164914D01*
Y169685D01*
X57480D01*
Y174803D01*
X56431D01*
Y179429D01*
X58760D01*
Y186713D01*
X51476D01*
Y179429D01*
X53806D01*
Y174803D01*
X52756D01*
Y169685D01*
X53806D01*
Y164370D01*
X53905Y163868D01*
X54190Y163442D01*
X64632Y153000D01*
Y132874D01*
X64732Y132372D01*
X65017Y131946D01*
X68597Y128366D01*
X68434Y127972D01*
X63976Y127972D01*
X63592Y127896D01*
X63267Y127678D01*
X62283Y126694D01*
X62283Y126694D01*
X60314Y124725D01*
X60097Y124400D01*
X60020Y124016D01*
Y117126D01*
X60097Y116742D01*
X60314Y116416D01*
X61989Y114742D01*
Y61439D01*
X58346Y57796D01*
X58128Y57471D01*
X58052Y57087D01*
Y49213D01*
X58128Y48829D01*
X58346Y48503D01*
X69863Y36986D01*
X69863Y1204D01*
X1204D01*
Y195646D01*
X195646D01*
Y1204D01*
D02*
G37*
G36*
X68898Y126969D02*
X72047Y123819D01*
Y123653D01*
X72235Y122952D01*
X72598Y122324D01*
X72835Y122087D01*
Y114173D01*
X71850Y113189D01*
Y65945D01*
X82677Y55118D01*
Y47244D01*
X92520Y37402D01*
X106299D01*
X122047Y53150D01*
Y95472D01*
X119095Y98425D01*
Y110236D01*
X122047Y113189D01*
X133858D01*
X134843Y112205D01*
Y108659D01*
X134843Y108659D01*
Y107876D01*
X134843Y107876D01*
X134843Y48228D01*
X112205Y25591D01*
X98425D01*
X96457Y23622D01*
Y1204D01*
X70866D01*
X70866Y37402D01*
X59055Y49213D01*
Y57087D01*
X62992Y61024D01*
Y115157D01*
X61024Y117126D01*
Y124016D01*
X62992Y125984D01*
X63976Y126969D01*
X68898Y126969D01*
D02*
G37*
%LPC*%
G36*
X132240Y186925D02*
X132232D01*
Y183571D01*
X135587D01*
Y183578D01*
X135324Y184559D01*
X134817Y185438D01*
X134099Y186155D01*
X133220Y186662D01*
X132240Y186925D01*
D02*
G37*
G36*
X131232D02*
X131225D01*
X130245Y186662D01*
X129366Y186155D01*
X128648Y185438D01*
X128141Y184559D01*
X127878Y183578D01*
Y183571D01*
X131232D01*
Y186925D01*
D02*
G37*
G36*
X75625D02*
X75618D01*
Y183571D01*
X78973D01*
Y183578D01*
X78710Y184559D01*
X78202Y185438D01*
X77485Y186155D01*
X76606Y186662D01*
X75625Y186925D01*
D02*
G37*
G36*
X74618D02*
X74611D01*
X73630Y186662D01*
X72751Y186155D01*
X72034Y185438D01*
X71526Y184559D01*
X71264Y183578D01*
Y183571D01*
X74618D01*
Y186925D01*
D02*
G37*
G36*
X135587Y182571D02*
X132232D01*
Y179217D01*
X132240D01*
X133220Y179479D01*
X134099Y179987D01*
X134817Y180704D01*
X135324Y181583D01*
X135587Y182563D01*
Y182571D01*
D02*
G37*
G36*
X131232D02*
X127878D01*
Y182563D01*
X128141Y181583D01*
X128648Y180704D01*
X129366Y179987D01*
X130245Y179479D01*
X131225Y179217D01*
X131232D01*
Y182571D01*
D02*
G37*
G36*
X78973D02*
X75618D01*
Y179217D01*
X75625D01*
X76606Y179479D01*
X77485Y179987D01*
X78202Y180704D01*
X78710Y181583D01*
X78973Y182563D01*
Y182571D01*
D02*
G37*
G36*
X74618D02*
X71264D01*
Y182563D01*
X71526Y181583D01*
X72034Y180704D01*
X72751Y179987D01*
X73630Y179479D01*
X74611Y179217D01*
X74618D01*
Y182571D01*
D02*
G37*
G36*
X73047Y175016D02*
X70972D01*
Y172744D01*
X73047D01*
Y175016D01*
D02*
G37*
G36*
X69972D02*
X67898D01*
Y172744D01*
X69972D01*
Y175016D01*
D02*
G37*
G36*
X158985Y176197D02*
X158965D01*
Y172744D01*
X162417D01*
Y172765D01*
X162148Y173770D01*
X161628Y174671D01*
X160892Y175407D01*
X159990Y175927D01*
X158985Y176197D01*
D02*
G37*
G36*
X157965D02*
X157944D01*
X156939Y175927D01*
X156037Y175407D01*
X155302Y174671D01*
X154781Y173770D01*
X154512Y172765D01*
Y172744D01*
X157965D01*
Y176197D01*
D02*
G37*
G36*
X127181Y175016D02*
X125106D01*
Y172744D01*
X127181D01*
Y175016D01*
D02*
G37*
G36*
X106315D02*
X104240D01*
Y172744D01*
X106315D01*
Y175016D01*
D02*
G37*
G36*
X52181D02*
X50106D01*
Y172744D01*
X52181D01*
Y175016D01*
D02*
G37*
G36*
X103240D02*
X101165D01*
Y172744D01*
X103240D01*
Y175016D01*
D02*
G37*
G36*
X49106D02*
X47032D01*
Y172744D01*
X49106D01*
Y175016D01*
D02*
G37*
G36*
X124106D02*
X122031D01*
Y172744D01*
X124106D01*
Y175016D01*
D02*
G37*
G36*
X181102Y191765D02*
X179434Y191634D01*
X177807Y191243D01*
X176262Y190603D01*
X174835Y189729D01*
X173563Y188642D01*
X172476Y187370D01*
X171602Y185943D01*
X170961Y184397D01*
X170571Y182770D01*
X170440Y181102D01*
X170571Y179434D01*
X170961Y177807D01*
X171602Y176262D01*
X172476Y174835D01*
X173563Y173563D01*
X174835Y172476D01*
X176262Y171602D01*
X177807Y170961D01*
X179434Y170571D01*
X181102Y170440D01*
X182770Y170571D01*
X184397Y170961D01*
X185943Y171602D01*
X187370Y172476D01*
X188642Y173563D01*
X189729Y174835D01*
X190603Y176262D01*
X191243Y177807D01*
X191634Y179434D01*
X191765Y181102D01*
X191634Y182770D01*
X191243Y184397D01*
X190603Y185943D01*
X189729Y187370D01*
X188642Y188642D01*
X187370Y189729D01*
X185943Y190603D01*
X184397Y191243D01*
X182770Y191634D01*
X181102Y191765D01*
D02*
G37*
G36*
X15748D02*
X14080Y191634D01*
X12453Y191243D01*
X10907Y190603D01*
X9481Y189729D01*
X8208Y188642D01*
X7122Y187370D01*
X6247Y185943D01*
X5607Y184397D01*
X5217Y182770D01*
X5085Y181102D01*
X5217Y179434D01*
X5607Y177807D01*
X6247Y176262D01*
X7122Y174835D01*
X8208Y173563D01*
X9481Y172476D01*
X10907Y171602D01*
X12453Y170961D01*
X14080Y170571D01*
X15748Y170440D01*
X17416Y170571D01*
X19043Y170961D01*
X20589Y171602D01*
X22016Y172476D01*
X23288Y173563D01*
X24374Y174835D01*
X25249Y176262D01*
X25889Y177807D01*
X26280Y179434D01*
X26411Y181102D01*
X26280Y182770D01*
X25889Y184397D01*
X25249Y185943D01*
X24374Y187370D01*
X23288Y188642D01*
X22016Y189729D01*
X20589Y190603D01*
X19043Y191243D01*
X17416Y191634D01*
X15748Y191765D01*
D02*
G37*
G36*
X73047Y171744D02*
X70972D01*
Y169473D01*
X73047D01*
Y171744D01*
D02*
G37*
G36*
X69972D02*
X67898D01*
Y169473D01*
X69972D01*
Y171744D01*
D02*
G37*
G36*
X127181Y171744D02*
X125106D01*
Y169472D01*
X127181D01*
Y171744D01*
D02*
G37*
G36*
X124106D02*
X122031D01*
Y169472D01*
X124106D01*
Y171744D01*
D02*
G37*
G36*
X106315D02*
X104240D01*
Y169472D01*
X106315D01*
Y171744D01*
D02*
G37*
G36*
X103240D02*
X101165D01*
Y169472D01*
X103240D01*
Y171744D01*
D02*
G37*
G36*
X52181D02*
X50106D01*
Y169472D01*
X52181D01*
Y171744D01*
D02*
G37*
G36*
X49106D02*
X47032D01*
Y169472D01*
X49106D01*
Y171744D01*
D02*
G37*
G36*
X142212Y186713D02*
X141253D01*
X140327Y186464D01*
X139496Y185985D01*
X138818Y185307D01*
X138339Y184476D01*
X138091Y183550D01*
Y182591D01*
X138339Y181665D01*
X138818Y180835D01*
X139496Y180157D01*
X140327Y179677D01*
X140420Y179652D01*
Y173772D01*
X135545Y168897D01*
X134664Y169779D01*
X131323Y166438D01*
X134942Y162819D01*
X138283Y166160D01*
X137401Y167041D01*
X142660Y172300D01*
X142945Y172726D01*
X143045Y173228D01*
Y179652D01*
X143138Y179677D01*
X143968Y180157D01*
X144646Y180835D01*
X145126Y181665D01*
X145374Y182591D01*
Y183550D01*
X145126Y184476D01*
X144646Y185307D01*
X143968Y185985D01*
X143138Y186464D01*
X142212Y186713D01*
D02*
G37*
G36*
X162417Y171744D02*
X158965D01*
Y168291D01*
X158985D01*
X159990Y168561D01*
X160892Y169081D01*
X161628Y169817D01*
X162148Y170718D01*
X162417Y171724D01*
Y171744D01*
D02*
G37*
G36*
X157965D02*
X154512D01*
Y171724D01*
X154781Y170718D01*
X155302Y169817D01*
X156037Y169081D01*
X156939Y168561D01*
X157944Y168291D01*
X157965D01*
Y171744D01*
D02*
G37*
G36*
X130766Y165881D02*
X127426Y162541D01*
X128307Y161659D01*
X126301Y159653D01*
X126016Y159228D01*
X126014Y159216D01*
X125853Y159149D01*
X125300Y158595D01*
X125000Y157872D01*
Y157089D01*
X125300Y156365D01*
X125853Y155812D01*
X126577Y155512D01*
X127360D01*
X128084Y155812D01*
X128637Y156365D01*
X128937Y157089D01*
Y157872D01*
X128731Y158370D01*
X130163Y159803D01*
X131045Y158922D01*
X134385Y162262D01*
X130766Y165881D01*
D02*
G37*
G36*
X10363Y159465D02*
X10343D01*
Y156012D01*
X13795D01*
Y156032D01*
X13526Y157037D01*
X13005Y157939D01*
X12270Y158675D01*
X11368Y159195D01*
X10363Y159465D01*
D02*
G37*
G36*
X9342D02*
X9322D01*
X8317Y159195D01*
X7416Y158675D01*
X6679Y157939D01*
X6159Y157037D01*
X5890Y156032D01*
Y156012D01*
X9342D01*
Y159465D01*
D02*
G37*
G36*
X24114Y159252D02*
X23130D01*
X22178Y158997D01*
X21326Y158505D01*
X20629Y157808D01*
X20137Y156955D01*
X19882Y156004D01*
Y155019D01*
X20137Y154068D01*
X20629Y153215D01*
X21326Y152519D01*
X22178Y152026D01*
X23130Y151772D01*
X24114D01*
X25066Y152026D01*
X25918Y152519D01*
X26615Y153215D01*
X27107Y154068D01*
X27362Y155019D01*
Y156004D01*
X27107Y156955D01*
X26615Y157808D01*
X25918Y158505D01*
X25066Y158997D01*
X24114Y159252D01*
D02*
G37*
G36*
X13795Y155012D02*
X10343D01*
Y151559D01*
X10363D01*
X11368Y151828D01*
X12270Y152349D01*
X13005Y153085D01*
X13526Y153986D01*
X13795Y154991D01*
Y155012D01*
D02*
G37*
G36*
X9342D02*
X5890D01*
Y154991D01*
X6159Y153986D01*
X6679Y153085D01*
X7416Y152349D01*
X8317Y151828D01*
X9322Y151559D01*
X9342D01*
Y155012D01*
D02*
G37*
G36*
X55618Y147268D02*
Y144201D01*
X58685D01*
X58449Y145081D01*
X57979Y145896D01*
X57313Y146561D01*
X56498Y147032D01*
X55618Y147268D01*
D02*
G37*
G36*
X54618D02*
X53738Y147032D01*
X52923Y146561D01*
X52258Y145896D01*
X51787Y145081D01*
X51551Y144201D01*
X54618D01*
Y147268D01*
D02*
G37*
G36*
X180727Y151279D02*
X179509D01*
X178332Y150964D01*
X177278Y150355D01*
X176416Y149494D01*
X175807Y148439D01*
X175492Y147263D01*
Y146045D01*
X175807Y144868D01*
X176416Y143813D01*
X177278Y142952D01*
X178332Y142343D01*
X179509Y142028D01*
X180727D01*
X181904Y142343D01*
X182958Y142952D01*
X183820Y143813D01*
X184429Y144868D01*
X184744Y146045D01*
Y147263D01*
X184429Y148439D01*
X183820Y149494D01*
X182958Y150355D01*
X181904Y150964D01*
X180727Y151279D01*
D02*
G37*
G36*
X41781Y147063D02*
X40896D01*
X40041Y146834D01*
X39274Y146391D01*
X38648Y145765D01*
X38206Y144999D01*
X37976Y144143D01*
Y143258D01*
X38206Y142403D01*
X38648Y141636D01*
X39274Y141010D01*
X40041Y140568D01*
X40896Y140339D01*
X41781D01*
X42636Y140568D01*
X43403Y141010D01*
X44029Y141636D01*
X44472Y142403D01*
X44701Y143258D01*
Y144143D01*
X44472Y144999D01*
X44029Y145765D01*
X43403Y146391D01*
X42636Y146834D01*
X41781Y147063D01*
D02*
G37*
G36*
X58685Y143201D02*
X55618D01*
Y140134D01*
X56498Y140370D01*
X57313Y140840D01*
X57979Y141506D01*
X58449Y142321D01*
X58685Y143201D01*
D02*
G37*
G36*
X54618D02*
X51551D01*
X51787Y142321D01*
X52258Y141506D01*
X52923Y140840D01*
X53738Y140370D01*
X54618Y140134D01*
Y143201D01*
D02*
G37*
G36*
X122212Y186713D02*
X121253D01*
X120327Y186464D01*
X119496Y185985D01*
X118818Y185307D01*
X118339Y184476D01*
X118091Y183550D01*
Y182591D01*
X118339Y181665D01*
X118818Y180835D01*
X119496Y180157D01*
X120286Y179701D01*
X120329Y179481D01*
X120331Y179274D01*
X118166Y177109D01*
X117882Y176683D01*
X117782Y176181D01*
Y174803D01*
X116732D01*
Y169685D01*
X117782D01*
Y166882D01*
X110292Y159393D01*
X110008Y158967D01*
X109908Y158465D01*
Y136283D01*
X109528Y136064D01*
X109015Y135550D01*
X108652Y134922D01*
X108465Y134221D01*
Y133495D01*
X108652Y132794D01*
X109015Y132166D01*
X109528Y131653D01*
X110157Y131290D01*
X110858Y131102D01*
X111583D01*
X112007Y131216D01*
X112261Y130962D01*
X112687Y130677D01*
X113189Y130577D01*
X116639D01*
X116995Y130221D01*
X117719Y129921D01*
X118502D01*
X119225Y130221D01*
X119779Y130775D01*
X120079Y131498D01*
Y132281D01*
X119779Y133005D01*
X119225Y133559D01*
X118502Y133858D01*
X117719D01*
X116995Y133559D01*
X116639Y133202D01*
X114201D01*
X113976Y133495D01*
Y134221D01*
X113789Y134922D01*
X113426Y135550D01*
X112913Y136064D01*
X112533Y136283D01*
Y157921D01*
X120023Y165410D01*
X120307Y165836D01*
X120407Y166339D01*
Y169685D01*
X121457D01*
Y174803D01*
X120407D01*
Y175637D01*
X122660Y177891D01*
X122945Y178317D01*
X123045Y178819D01*
Y179652D01*
X123138Y179677D01*
X123968Y180157D01*
X124646Y180835D01*
X125126Y181665D01*
X125374Y182591D01*
Y183550D01*
X125126Y184476D01*
X124646Y185307D01*
X123968Y185985D01*
X123138Y186464D01*
X122212Y186713D01*
D02*
G37*
G36*
X115374D02*
X108091D01*
Y179429D01*
X110087D01*
X110250Y179035D01*
X108324Y177109D01*
X108039Y176683D01*
X107939Y176181D01*
Y174803D01*
X106890D01*
Y169685D01*
X107939D01*
Y165898D01*
X103402Y161361D01*
X103118Y160935D01*
X103018Y160433D01*
Y134314D01*
X102639Y134095D01*
X102125Y133582D01*
X101763Y132954D01*
X101575Y132253D01*
Y131527D01*
X101763Y130826D01*
X102125Y130198D01*
X102639Y129684D01*
X103267Y129322D01*
X103968Y129134D01*
X104693D01*
X105117Y129247D01*
X108324Y126040D01*
X108750Y125756D01*
X109252Y125656D01*
X116639D01*
X116995Y125300D01*
X117719Y125000D01*
X118502D01*
X119225Y125300D01*
X119779Y125853D01*
X120079Y126577D01*
Y127360D01*
X119779Y128084D01*
X119225Y128637D01*
X118502Y128937D01*
X117719D01*
X116995Y128637D01*
X116639Y128281D01*
X109796D01*
X106973Y131104D01*
X107087Y131527D01*
Y132253D01*
X106899Y132954D01*
X106536Y133582D01*
X106023Y134095D01*
X105643Y134314D01*
Y159889D01*
X110180Y164426D01*
X110465Y164852D01*
X110565Y165354D01*
Y169685D01*
X111614D01*
Y174803D01*
X110565D01*
Y175637D01*
X112660Y177733D01*
X112945Y178159D01*
X113045Y178661D01*
Y179429D01*
X115374D01*
Y186713D01*
D02*
G37*
G36*
X180727Y131595D02*
X179509D01*
X178332Y131279D01*
X177278Y130670D01*
X176416Y129809D01*
X175807Y128754D01*
X175492Y127577D01*
Y126359D01*
X175807Y125183D01*
X176416Y124128D01*
X177278Y123267D01*
X178332Y122658D01*
X179509Y122343D01*
X180727D01*
X181904Y122658D01*
X182958Y123267D01*
X183820Y124128D01*
X184429Y125183D01*
X184744Y126359D01*
Y127577D01*
X184429Y128754D01*
X183820Y129809D01*
X182958Y130670D01*
X181904Y131279D01*
X180727Y131595D01*
D02*
G37*
G36*
X65598Y186713D02*
X64639D01*
X63713Y186464D01*
X62882Y185985D01*
X62204Y185307D01*
X61725Y184476D01*
X61476Y183550D01*
Y182591D01*
X61725Y181665D01*
X62204Y180835D01*
X62882Y180157D01*
X63713Y179677D01*
X63806Y179652D01*
Y174803D01*
X62598D01*
Y169685D01*
X63648D01*
Y162402D01*
X63748Y161899D01*
X64033Y161473D01*
X71522Y153984D01*
Y134843D01*
X71622Y134340D01*
X71907Y133914D01*
X77082Y128739D01*
X76968Y128316D01*
Y127590D01*
X77156Y126889D01*
X77519Y126261D01*
X78032Y125748D01*
X78412Y125528D01*
Y113676D01*
X78056Y113320D01*
X77756Y112596D01*
Y111813D01*
X78056Y111090D01*
X78609Y110536D01*
X79333Y110236D01*
X80116D01*
X80840Y110536D01*
X81393Y111090D01*
X81693Y111813D01*
Y112596D01*
X81393Y113320D01*
X81037Y113676D01*
Y125528D01*
X81417Y125748D01*
X81930Y126261D01*
X82292Y126889D01*
X82480Y127590D01*
Y128316D01*
X82292Y129016D01*
X81930Y129645D01*
X81417Y130158D01*
X80788Y130521D01*
X80087Y130709D01*
X79362D01*
X78938Y130595D01*
X74147Y135386D01*
Y154527D01*
X74047Y155030D01*
X73763Y155456D01*
X66273Y162945D01*
Y169685D01*
X67323D01*
Y174803D01*
X66431D01*
Y179652D01*
X66524Y179677D01*
X67354Y180157D01*
X68032Y180835D01*
X68512Y181665D01*
X68760Y182591D01*
Y183550D01*
X68512Y184476D01*
X68032Y185307D01*
X67354Y185985D01*
X66524Y186464D01*
X65598Y186713D01*
D02*
G37*
G36*
X17341Y108957D02*
X16123D01*
X14947Y108641D01*
X13892Y108032D01*
X13031Y107171D01*
X12422Y106116D01*
X12106Y104940D01*
Y103722D01*
X12422Y102545D01*
X13031Y101490D01*
X13892Y100629D01*
X14947Y100020D01*
X16123Y99705D01*
X17341D01*
X18518Y100020D01*
X19573Y100629D01*
X20434Y101490D01*
X21043Y102545D01*
X21358Y103722D01*
Y104940D01*
X21043Y106116D01*
X20434Y107171D01*
X19573Y108032D01*
X18518Y108641D01*
X17341Y108957D01*
D02*
G37*
G36*
X141248Y91165D02*
Y88098D01*
X144315D01*
X144079Y88978D01*
X143609Y89793D01*
X142943Y90459D01*
X142128Y90930D01*
X141248Y91165D01*
D02*
G37*
G36*
X140248D02*
X139368Y90930D01*
X138553Y90459D01*
X137888Y89793D01*
X137417Y88978D01*
X137181Y88098D01*
X140248D01*
Y91165D01*
D02*
G37*
G36*
X85598Y186713D02*
X84639D01*
X83713Y186464D01*
X82882Y185985D01*
X82204Y185307D01*
X81725Y184476D01*
X81476Y183550D01*
Y182591D01*
X81725Y181665D01*
X82204Y180835D01*
X82882Y180157D01*
X83713Y179677D01*
X84639Y179429D01*
X85598D01*
X85623Y179436D01*
X88254Y176804D01*
Y88142D01*
X86332Y86220D01*
X85451Y87102D01*
X82111Y83761D01*
X85729Y80142D01*
X89070Y83483D01*
X88189Y84364D01*
X90495Y86670D01*
X90780Y87096D01*
X90879Y87598D01*
Y177348D01*
X90780Y177850D01*
X90495Y178276D01*
X87984Y180787D01*
X88032Y180835D01*
X88512Y181665D01*
X88760Y182591D01*
Y183550D01*
X88512Y184476D01*
X88032Y185307D01*
X87354Y185985D01*
X86524Y186464D01*
X85598Y186713D01*
D02*
G37*
G36*
X154970Y90961D02*
X154085D01*
X153230Y90732D01*
X152463Y90289D01*
X151837Y89663D01*
X151394Y88896D01*
X151165Y88041D01*
Y87156D01*
X151394Y86301D01*
X151837Y85534D01*
X152463Y84908D01*
X153230Y84465D01*
X154085Y84236D01*
X154970D01*
X155825Y84465D01*
X156592Y84908D01*
X157218Y85534D01*
X157661Y86301D01*
X157890Y87156D01*
Y88041D01*
X157661Y88896D01*
X157218Y89663D01*
X156592Y90289D01*
X155825Y90732D01*
X154970Y90961D01*
D02*
G37*
G36*
X144315Y87098D02*
X141248D01*
Y84031D01*
X142128Y84267D01*
X142943Y84738D01*
X143609Y85403D01*
X144079Y86219D01*
X144315Y87098D01*
D02*
G37*
G36*
X140248D02*
X137181D01*
X137417Y86219D01*
X137888Y85403D01*
X138553Y84738D01*
X139368Y84267D01*
X140248Y84031D01*
Y87098D01*
D02*
G37*
G36*
X17341Y89272D02*
X16123D01*
X14947Y88956D01*
X13892Y88347D01*
X13031Y87486D01*
X12422Y86431D01*
X12106Y85255D01*
Y84037D01*
X12422Y82860D01*
X13031Y81805D01*
X13892Y80944D01*
X14947Y80335D01*
X16123Y80020D01*
X17341D01*
X18518Y80335D01*
X19573Y80944D01*
X20434Y81805D01*
X21043Y82860D01*
X21358Y84037D01*
Y85255D01*
X21043Y86431D01*
X20434Y87486D01*
X19573Y88347D01*
X18518Y88956D01*
X17341Y89272D01*
D02*
G37*
G36*
X81554Y83204D02*
X78213Y79864D01*
X79094Y78982D01*
X76677Y76565D01*
X76179Y76772D01*
X75396D01*
X74672Y76472D01*
X74119Y75918D01*
X73819Y75195D01*
Y74412D01*
X74119Y73688D01*
X74672Y73134D01*
X75396Y72835D01*
X76179D01*
X76903Y73134D01*
X77456Y73688D01*
X77523Y73849D01*
X77535Y73851D01*
X77960Y74136D01*
X80951Y77126D01*
X81832Y76245D01*
X85173Y79585D01*
X81554Y83204D01*
D02*
G37*
G36*
X184575Y72850D02*
X184555D01*
Y69398D01*
X188008D01*
Y69418D01*
X187739Y70423D01*
X187218Y71325D01*
X186482Y72061D01*
X185581Y72581D01*
X184575Y72850D01*
D02*
G37*
G36*
X183555D02*
X183535D01*
X182529Y72581D01*
X181628Y72061D01*
X180892Y71325D01*
X180372Y70423D01*
X180102Y69418D01*
Y69398D01*
X183555D01*
Y72850D01*
D02*
G37*
G36*
X170768Y72638D02*
X169783D01*
X168832Y72383D01*
X167979Y71890D01*
X167283Y71194D01*
X166790Y70341D01*
X166535Y69390D01*
Y68405D01*
X166790Y67454D01*
X167283Y66601D01*
X167979Y65905D01*
X168832Y65412D01*
X169783Y65158D01*
X170768D01*
X171719Y65412D01*
X172572Y65905D01*
X173268Y66601D01*
X173761Y67454D01*
X174016Y68405D01*
Y69390D01*
X173761Y70341D01*
X173268Y71194D01*
X172572Y71890D01*
X171719Y72383D01*
X170768Y72638D01*
D02*
G37*
G36*
X188008Y68398D02*
X184555D01*
Y64945D01*
X184575D01*
X185581Y65214D01*
X186482Y65735D01*
X187218Y66471D01*
X187739Y67372D01*
X188008Y68377D01*
Y68398D01*
D02*
G37*
G36*
X183555D02*
X180102D01*
Y68377D01*
X180372Y67372D01*
X180892Y66471D01*
X181628Y65735D01*
X182529Y65214D01*
X183535Y64945D01*
X183555D01*
Y68398D01*
D02*
G37*
G36*
X51701Y57102D02*
X51681D01*
Y53650D01*
X55134D01*
Y53670D01*
X54865Y54675D01*
X54344Y55577D01*
X53608Y56313D01*
X52707Y56833D01*
X51701Y57102D01*
D02*
G37*
G36*
X50681D02*
X50661D01*
X49655Y56833D01*
X48754Y56313D01*
X48018Y55577D01*
X47498Y54675D01*
X47228Y53670D01*
Y53650D01*
X50681D01*
Y57102D01*
D02*
G37*
G36*
X55134Y52650D02*
X51681D01*
Y49197D01*
X51701D01*
X52707Y49466D01*
X53608Y49987D01*
X54344Y50723D01*
X54865Y51624D01*
X55134Y52629D01*
Y52650D01*
D02*
G37*
G36*
X50681D02*
X47228D01*
Y52629D01*
X47498Y51624D01*
X48018Y50723D01*
X48754Y49987D01*
X49655Y49466D01*
X50661Y49197D01*
X50681D01*
Y52650D01*
D02*
G37*
G36*
X152756Y26346D02*
Y22835D01*
X156268D01*
X156084Y23521D01*
X155447Y24624D01*
X154546Y25525D01*
X153442Y26162D01*
X152756Y26346D01*
D02*
G37*
G36*
X150394D02*
X149707Y26162D01*
X148604Y25525D01*
X147703Y24624D01*
X147066Y23521D01*
X146882Y22835D01*
X150394D01*
Y26346D01*
D02*
G37*
G36*
X132499Y26280D02*
X131281D01*
X130104Y25964D01*
X129049Y25355D01*
X128188Y24494D01*
X127579Y23439D01*
X127264Y22263D01*
Y21045D01*
X127579Y19868D01*
X128188Y18813D01*
X129049Y17952D01*
X130104Y17343D01*
X131281Y17028D01*
X132499D01*
X133675Y17343D01*
X134730Y17952D01*
X135591Y18813D01*
X136200Y19868D01*
X136516Y21045D01*
Y22263D01*
X136200Y23439D01*
X135591Y24494D01*
X134730Y25355D01*
X133675Y25964D01*
X132499Y26280D01*
D02*
G37*
G36*
X156268Y20472D02*
X152756D01*
Y16961D01*
X153442Y17145D01*
X154546Y17782D01*
X155447Y18683D01*
X156084Y19786D01*
X156268Y20472D01*
D02*
G37*
G36*
X150394D02*
X146882D01*
X147066Y19786D01*
X147703Y18683D01*
X148604Y17782D01*
X149707Y17145D01*
X150394Y16961D01*
Y20472D01*
D02*
G37*
G36*
X55625Y18618D02*
X55618D01*
Y15264D01*
X58972D01*
Y15271D01*
X58710Y16251D01*
X58202Y17130D01*
X57485Y17848D01*
X56606Y18355D01*
X55625Y18618D01*
D02*
G37*
G36*
X65626D02*
X65618D01*
Y15264D01*
X68972D01*
Y15271D01*
X68710Y16251D01*
X68202Y17130D01*
X67485Y17848D01*
X66606Y18355D01*
X65626Y18618D01*
D02*
G37*
G36*
X54618D02*
X54611D01*
X53630Y18355D01*
X52751Y17848D01*
X52034Y17130D01*
X51526Y16251D01*
X51264Y15271D01*
Y15264D01*
X54618D01*
Y18618D01*
D02*
G37*
G36*
X64618D02*
X64611D01*
X63630Y18355D01*
X62752Y17848D01*
X62034Y17130D01*
X61526Y16251D01*
X61264Y15271D01*
Y15264D01*
X64618D01*
Y18618D01*
D02*
G37*
G36*
X68972Y14264D02*
X65618D01*
Y10909D01*
X65626D01*
X66606Y11172D01*
X67485Y11680D01*
X68202Y12397D01*
X68710Y13276D01*
X68972Y14256D01*
Y14264D01*
D02*
G37*
G36*
X64618D02*
X61264D01*
Y14256D01*
X61526Y13276D01*
X62034Y12397D01*
X62752Y11680D01*
X63630Y11172D01*
X64611Y10909D01*
X64618D01*
Y14264D01*
D02*
G37*
G36*
X58972D02*
X55618D01*
Y10909D01*
X55625D01*
X56606Y11172D01*
X57485Y11680D01*
X58202Y12397D01*
X58710Y13276D01*
X58972Y14256D01*
Y14264D01*
D02*
G37*
G36*
X54618D02*
X51264D01*
Y14256D01*
X51526Y13276D01*
X52034Y12397D01*
X52751Y11680D01*
X53630Y11172D01*
X54611Y10909D01*
X54618D01*
Y14264D01*
D02*
G37*
G36*
X181102Y26411D02*
X179434Y26280D01*
X177807Y25889D01*
X176262Y25249D01*
X174835Y24374D01*
X173563Y23288D01*
X172476Y22016D01*
X171602Y20589D01*
X170961Y19043D01*
X170571Y17416D01*
X170440Y15748D01*
X170571Y14080D01*
X170961Y12453D01*
X171602Y10907D01*
X172476Y9481D01*
X173563Y8208D01*
X174835Y7122D01*
X176262Y6247D01*
X177807Y5607D01*
X179434Y5217D01*
X181102Y5085D01*
X182770Y5217D01*
X184397Y5607D01*
X185943Y6247D01*
X187370Y7122D01*
X188642Y8208D01*
X189729Y9481D01*
X190603Y10907D01*
X191243Y12453D01*
X191634Y14080D01*
X191765Y15748D01*
X191634Y17416D01*
X191243Y19043D01*
X190603Y20589D01*
X189729Y22016D01*
X188642Y23288D01*
X187370Y24374D01*
X185943Y25249D01*
X184397Y25889D01*
X182770Y26280D01*
X181102Y26411D01*
D02*
G37*
G36*
X15748D02*
X14080Y26280D01*
X12453Y25889D01*
X10907Y25249D01*
X9481Y24374D01*
X8208Y23288D01*
X7122Y22016D01*
X6247Y20589D01*
X5607Y19043D01*
X5217Y17416D01*
X5085Y15748D01*
X5217Y14080D01*
X5607Y12453D01*
X6247Y10907D01*
X7122Y9481D01*
X8208Y8208D01*
X9481Y7122D01*
X10907Y6247D01*
X12453Y5607D01*
X14080Y5217D01*
X15748Y5085D01*
X17416Y5217D01*
X19043Y5607D01*
X20589Y6247D01*
X22016Y7122D01*
X23288Y8208D01*
X24374Y9481D01*
X25249Y10907D01*
X25889Y12453D01*
X26280Y14080D01*
X26411Y15748D01*
X26280Y17416D01*
X25889Y19043D01*
X25249Y20589D01*
X24374Y22016D01*
X23288Y23288D01*
X22016Y24374D01*
X20589Y25249D01*
X19043Y25889D01*
X17416Y26280D01*
X15748Y26411D01*
D02*
G37*
G36*
X65746Y123819D02*
X64963D01*
X64239Y123519D01*
X63686Y122966D01*
X63386Y122242D01*
Y121459D01*
X63686Y120735D01*
X64239Y120182D01*
X64963Y119882D01*
X65746D01*
X66469Y120182D01*
X67023Y120735D01*
X67323Y121459D01*
Y122242D01*
X67023Y122966D01*
X66469Y123519D01*
X65746Y123819D01*
D02*
G37*
G36*
X131888Y111417D02*
X131105D01*
X130381Y111118D01*
X129827Y110564D01*
X129528Y109840D01*
Y109057D01*
X129827Y108334D01*
X130381Y107780D01*
X131105Y107480D01*
X131888D01*
X132611Y107780D01*
X133165Y108334D01*
X133465Y109057D01*
Y109840D01*
X133165Y110564D01*
X132611Y111118D01*
X131888Y111417D01*
D02*
G37*
G36*
X65481Y57102D02*
X65461D01*
Y53650D01*
X68913D01*
Y53670D01*
X68644Y54675D01*
X68124Y55577D01*
X67388Y56313D01*
X66486Y56833D01*
X65481Y57102D01*
D02*
G37*
G36*
X64461D02*
X64440D01*
X63435Y56833D01*
X62534Y56313D01*
X61798Y55577D01*
X61277Y54675D01*
X61008Y53670D01*
Y53650D01*
X64461D01*
Y57102D01*
D02*
G37*
G36*
X68913Y52650D02*
X65461D01*
Y49197D01*
X65481D01*
X66486Y49466D01*
X67388Y49987D01*
X68124Y50723D01*
X68644Y51624D01*
X68913Y52629D01*
Y52650D01*
D02*
G37*
G36*
X64461D02*
X61008D01*
Y52629D01*
X61277Y51624D01*
X61798Y50723D01*
X62534Y49987D01*
X63435Y49466D01*
X64440Y49197D01*
X64461D01*
Y52650D01*
D02*
G37*
G36*
X88972Y18618D02*
X85618D01*
Y15264D01*
X88972D01*
Y18618D01*
D02*
G37*
G36*
X75625D02*
X75618D01*
Y15264D01*
X78972D01*
Y15271D01*
X78710Y16251D01*
X78202Y17130D01*
X77485Y17848D01*
X76606Y18355D01*
X75625Y18618D01*
D02*
G37*
G36*
X84618D02*
X81264D01*
Y15264D01*
X84618D01*
Y18618D01*
D02*
G37*
G36*
X74618D02*
X74611D01*
X73630Y18355D01*
X72751Y17848D01*
X72034Y17130D01*
X71526Y16251D01*
X71264Y15271D01*
Y15264D01*
X74618D01*
Y18618D01*
D02*
G37*
G36*
X88972Y14264D02*
X85618D01*
Y10909D01*
X88972D01*
Y14264D01*
D02*
G37*
G36*
X84618D02*
X81264D01*
Y10909D01*
X84618D01*
Y14264D01*
D02*
G37*
G36*
X78972D02*
X75618D01*
Y10909D01*
X75625D01*
X76606Y11172D01*
X77485Y11680D01*
X78202Y12397D01*
X78710Y13276D01*
X78972Y14256D01*
Y14264D01*
D02*
G37*
G36*
X74618D02*
X71264D01*
Y14256D01*
X71526Y13276D01*
X72034Y12397D01*
X72751Y11680D01*
X73630Y11172D01*
X74611Y10909D01*
X74618D01*
Y14264D01*
D02*
G37*
%LPD*%
D19*
X109252Y172244D02*
D03*
X64961D02*
D03*
X70472Y172244D02*
D03*
X119095Y172244D02*
D03*
X124606D02*
D03*
X49606D02*
D03*
X103740D02*
D03*
X55118D02*
D03*
D35*
X111221Y133858D02*
D03*
X104331Y131890D02*
D03*
X74803Y124016D02*
D03*
X79724Y127953D02*
D03*
D37*
Y112205D02*
Y127953D01*
X72835Y134843D02*
X79724Y127953D01*
X72835Y134843D02*
Y154527D01*
X65945Y132874D02*
Y153543D01*
Y132874D02*
X74803Y124016D01*
X55118Y164370D02*
X65945Y153543D01*
X104331Y160433D02*
X109252Y165354D01*
X104331Y131890D02*
Y160433D01*
X109252Y165354D02*
Y172244D01*
Y126969D02*
X118110D01*
X104331Y131890D02*
X109252Y126969D01*
Y176181D02*
X111732Y178661D01*
Y183071D01*
X109252Y172244D02*
Y176181D01*
X85118Y181797D02*
Y183071D01*
X89567Y87598D02*
Y177348D01*
X85590Y83622D02*
X89567Y87598D01*
X85118Y181797D02*
X89567Y177348D01*
X126969Y157480D02*
X127229Y157741D01*
Y158725D01*
X130905Y162402D01*
Y162402D01*
X75787Y74803D02*
X76048Y75064D01*
X77032D01*
X81693Y79724D01*
X81693D01*
X113189Y131890D02*
X118110D01*
X111221Y133858D02*
X113189Y131890D01*
X119095Y172244D02*
Y176181D01*
X121732Y178819D01*
Y183071D01*
X111221Y133858D02*
Y158465D01*
X119095Y166339D01*
Y172244D01*
X134803Y166299D02*
Y166299D01*
X141732Y173228D01*
Y183071D01*
X74803Y112205D02*
Y124016D01*
X55118Y164370D02*
Y172244D01*
Y183071D01*
X64961Y173228D02*
X65118Y173386D01*
Y172402D02*
Y183071D01*
X64961Y162402D02*
X72835Y154527D01*
X64961Y162402D02*
Y172244D01*
D39*
X111732Y183071D02*
D03*
X85118Y14764D02*
D03*
X55118Y183071D02*
D03*
D40*
Y14764D02*
D03*
X65118D02*
D03*
X75118Y183071D02*
D03*
X131732D02*
D03*
X75118Y14764D02*
D03*
X85118Y183071D02*
D03*
X121732D02*
D03*
X141732D02*
D03*
X65118D02*
D03*
D41*
X51181Y53150D02*
D03*
X9843Y155512D02*
D03*
X184055Y68898D02*
D03*
X158465Y172244D02*
D03*
X170276Y68898D02*
D03*
X23622Y155512D02*
D03*
X64961Y53150D02*
D03*
D42*
X55118Y143701D02*
D03*
X140748Y87598D02*
D03*
X154528D02*
D03*
X41339Y143701D02*
D03*
D43*
X151575Y21654D02*
D03*
X16732Y84646D02*
D03*
Y104331D02*
D03*
X180118Y146653D02*
D03*
Y126969D02*
D03*
X131890Y21654D02*
D03*
D44*
X15748Y15748D02*
D03*
X181102D02*
D03*
Y181102D02*
D03*
X15748D02*
D03*
D45*
X118110Y126969D02*
D03*
X75787Y74803D02*
D03*
X128937Y177165D02*
D03*
X99410D02*
D03*
X74803D02*
D03*
X45276D02*
D03*
X15748Y49213D02*
D03*
X74803Y94488D02*
D03*
X24016Y25921D02*
D03*
X148031Y155842D02*
D03*
X142126Y96787D02*
D03*
X183465D02*
D03*
X35827Y61354D02*
D03*
Y49543D02*
D03*
X47638Y37732D02*
D03*
X150984Y161748D02*
D03*
X139173D02*
D03*
X35827Y14110D02*
D03*
X9252Y67260D02*
D03*
X50590Y43638D02*
D03*
X162795Y8205D02*
D03*
X47638Y73165D02*
D03*
X44685Y43638D02*
D03*
X26969Y31827D02*
D03*
X189370Y25921D02*
D03*
X156890Y8205D02*
D03*
X74212Y79071D02*
D03*
X50590Y31827D02*
D03*
X44685D02*
D03*
X21063D02*
D03*
X32874Y43638D02*
D03*
X41732Y25921D02*
D03*
X59449Y61354D02*
D03*
X44685Y20016D02*
D03*
X38780Y43638D02*
D03*
X47638Y61354D02*
D03*
X9252Y138126D02*
D03*
X139173Y79071D02*
D03*
X189370Y61354D02*
D03*
X15157Y126315D02*
D03*
X165748Y179464D02*
D03*
X150984Y8205D02*
D03*
X38780Y55449D02*
D03*
X180512Y102693D02*
D03*
X29921Y37732D02*
D03*
X26969Y55449D02*
D03*
X168701Y8205D02*
D03*
X6299Y61354D02*
D03*
X186417Y79071D02*
D03*
X165748Y25921D02*
D03*
X168701Y20016D02*
D03*
X50590Y67260D02*
D03*
X91929Y185370D02*
D03*
X35827Y37732D02*
D03*
X56496Y67260D02*
D03*
X24016Y37732D02*
D03*
X21063Y67260D02*
D03*
X32874Y31827D02*
D03*
X189370Y84976D02*
D03*
X44685Y8205D02*
D03*
X12205Y132220D02*
D03*
X41732Y61354D02*
D03*
X29921D02*
D03*
X186417Y31827D02*
D03*
X32874Y8205D02*
D03*
X41732Y14110D02*
D03*
X192323Y90882D02*
D03*
X41732Y49543D02*
D03*
X53543Y61354D02*
D03*
X192323Y67260D02*
D03*
X44685D02*
D03*
X192323Y31827D02*
D03*
X168701Y173559D02*
D03*
X148031Y179464D02*
D03*
X32874Y67260D02*
D03*
X12205Y144031D02*
D03*
X38780Y8205D02*
D03*
X47638Y25921D02*
D03*
X145079Y161748D02*
D03*
X192323Y102693D02*
D03*
X165748Y14110D02*
D03*
X38780Y31827D02*
D03*
X168701D02*
D03*
X142126Y167654D02*
D03*
X24016Y61354D02*
D03*
X159842Y14110D02*
D03*
X183465Y108598D02*
D03*
X6299Y37732D02*
D03*
X26969Y8205D02*
D03*
X153937Y179464D02*
D03*
X171653Y167654D02*
D03*
X97835Y185370D02*
D03*
X189370Y37732D02*
D03*
X35827Y179464D02*
D03*
X177559Y108598D02*
D03*
X183465Y84976D02*
D03*
X15157Y55449D02*
D03*
X32874D02*
D03*
X6299Y49543D02*
D03*
X74212Y67260D02*
D03*
X53543Y73165D02*
D03*
X162795Y43638D02*
D03*
X168701D02*
D03*
X189370Y49543D02*
D03*
X192323Y8205D02*
D03*
X156890Y31827D02*
D03*
X171653Y37732D02*
D03*
X53543Y25921D02*
D03*
X32874Y20016D02*
D03*
X24016Y49543D02*
D03*
X189370Y108598D02*
D03*
X186417Y55449D02*
D03*
X180512Y90882D02*
D03*
X35827Y25921D02*
D03*
X15157Y67260D02*
D03*
X53543Y132220D02*
D03*
X159842Y25921D02*
D03*
X180512Y55449D02*
D03*
X6299Y144031D02*
D03*
X9252Y126315D02*
D03*
X171653Y25921D02*
D03*
X29921Y49543D02*
D03*
X186417Y90882D02*
D03*
X192323Y55449D02*
D03*
X38780Y20016D02*
D03*
X41732Y37732D02*
D03*
X18110Y61354D02*
D03*
X180512Y79071D02*
D03*
X174606Y31827D02*
D03*
X26969Y67260D02*
D03*
X9252Y55449D02*
D03*
X29921Y14110D02*
D03*
X26969Y43638D02*
D03*
X186417Y102693D02*
D03*
X12205Y61354D02*
D03*
X103740Y185370D02*
D03*
X162795Y31827D02*
D03*
X168701Y185370D02*
D03*
X192323Y79071D02*
D03*
X165748Y49543D02*
D03*
Y37732D02*
D03*
X41732Y179464D02*
D03*
X38780Y67260D02*
D03*
X171653Y49543D02*
D03*
X21063Y55449D02*
D03*
X162795Y20016D02*
D03*
X6299Y132220D02*
D03*
X192323Y43638D02*
D03*
X189370Y96787D02*
D03*
X165748Y167654D02*
D03*
X62401Y138126D02*
D03*
X29921Y25921D02*
D03*
X120079Y117126D02*
D03*
X122047Y163386D02*
D03*
Y157480D02*
D03*
Y150591D02*
D03*
Y143701D02*
D03*
Y137795D02*
D03*
X92520Y44291D02*
D03*
X15748Y45276D02*
D03*
X44291Y188976D02*
D03*
X65354Y121850D02*
D03*
X131496Y109449D02*
D03*
X152559Y188976D02*
D03*
X181102Y45276D02*
D03*
X32283Y94488D02*
D03*
X14173D02*
D03*
X26378D02*
D03*
X20472D02*
D03*
X37402Y95472D02*
D03*
X2362Y94488D02*
D03*
X8268D02*
D03*
X194488Y136811D02*
D03*
X188583D02*
D03*
X182677D02*
D03*
X176378D02*
D03*
X170473D02*
D03*
X159449Y135827D02*
D03*
X164567Y136811D02*
D03*
X64961Y26575D02*
D03*
X147638Y52165D02*
D03*
Y36417D02*
D03*
X155512Y48228D02*
D03*
Y40354D02*
D03*
X140748Y114173D02*
D03*
Y108268D02*
D03*
X136811Y152559D02*
D03*
Y146653D02*
D03*
X58071Y84646D02*
D03*
Y78740D02*
D03*
X55118Y117126D02*
D03*
Y123031D02*
D03*
X53150Y97441D02*
D03*
X57087D02*
D03*
X61024D02*
D03*
X53150Y101378D02*
D03*
X57087D02*
D03*
X61024D02*
D03*
X53150Y105315D02*
D03*
X57087D02*
D03*
X61024D02*
D03*
X135827Y125000D02*
D03*
X139764D02*
D03*
X143701D02*
D03*
X135827Y128937D02*
D03*
Y132874D02*
D03*
X139764Y128937D02*
D03*
Y132874D02*
D03*
X143701Y128937D02*
D03*
Y132874D02*
D03*
X59055Y117126D02*
D03*
Y123031D02*
D03*
X53150Y89567D02*
D03*
X58071D02*
D03*
X136811Y114173D02*
D03*
Y108268D02*
D03*
X53150Y84646D02*
D03*
X136811Y141732D02*
D03*
X141732D02*
D03*
Y146653D02*
D03*
X62008Y148622D02*
D03*
X100394Y5906D02*
D03*
X98425Y39370D02*
D03*
X100394Y22638D02*
D03*
Y13780D02*
D03*
X6890Y30512D02*
D03*
X192913Y167323D02*
D03*
X182087Y164370D02*
D03*
X148622Y171260D02*
D03*
X158465Y164370D02*
D03*
X4921Y168307D02*
D03*
Y163386D02*
D03*
X15748D02*
D03*
X82677Y103347D02*
D03*
Y116142D02*
D03*
X63976Y129921D02*
D03*
X120079Y123031D02*
D03*
X136811Y177165D02*
D03*
X114173D02*
D03*
X80709D02*
D03*
X60039D02*
D03*
X76772Y40354D02*
D03*
X82677D02*
D03*
X82677Y34449D02*
D03*
X88583D02*
D03*
X82677Y21654D02*
D03*
X88583D02*
D03*
X82677Y27559D02*
D03*
X88583D02*
D03*
X127953Y109449D02*
D03*
X68898Y121850D02*
D03*
X126969Y157480D02*
D03*
X118110Y131890D02*
D03*
X74803Y112205D02*
D03*
X79724D02*
D03*
D46*
X130905Y162402D02*
D03*
X134803Y166299D02*
D03*
X85590Y83622D02*
D03*
X81693Y79724D02*
D03*
M02*
