M48
;Layer_Color=9474304
;FILE_FORMAT=2:5
INCH
;TYPE=PLATED
T01F00S00C0.01181
T02F00S00C0.03150
T03F00S00C0.03937
T04F00S00C0.04331
T05F00S00C0.05118
T06F00S00C0.12598
%
T01
X0126969Y0108205
X0132874
X0138779
X0144685
X0141732Y0114110
X0135827
X0129921
X0132874Y0120016
X0138779
X0144685
X0141732Y0125921
X0147638
X0153543
X0150591Y0131827
X0144685
X0138779
X0132874
X0126969
X0121063
X0124016Y0125921
X0129921
X0135827
Y0137732
X0129921
X0124016
X0126969Y0143638
X0132874
X0138779
X0144685
X0150591
X0147638Y0137732
X0141732
Y0149543
X0135827
X0129921
X0124016
X0115748Y0149213
Y0145276
X0115157Y0155449
X0109252
X0106299Y0149543
Y0137732
X0106890Y0130512
X0121063Y0155449
X0126969
X0132874
X0138779
X0176772Y0140354
X0182677
X0182677Y0134449
X0188583
Y0127559
Y0121653
X0182677
Y0127559
X0164961Y0126575
X0200394Y0122638
Y0113779
Y0105905
X0198425Y0139370
X0192520Y0144291
X0247638Y0152165
X0255512Y0148228
Y0140354
X0256890Y0131827
X0262795
X0268701
X0274606
X0271654Y0137732
X0265748
X0268701Y0143638
X0262795
X0265748Y0149543
X0271654
X0281102Y0145276
X0280512Y0155449
X0286417
X0292323
X0289370Y0149543
X0292323Y0143638
X0289370Y0137732
X0292323Y0131827
X0286417
X0289370Y0125921
X0271654
X0265748
X0259842
X0262795Y0120016
X0268701
X0265748Y0114110
X0259842
X0262795Y0108205
X0256890
X0250984
X0268701
X0292323
X0247638Y0136417
X0239173Y0179071
X0242126Y0196787
X0240748Y0208268
X0236811
Y0214173
X0240748
X0239764Y0225000
X0235827
Y0228937
Y0232874
X0239764
Y0228937
X0243701
Y0225000
Y0232874
X0241732Y0241732
X0236811
Y0246654
X0241732
X0236811Y0252559
X0239173Y0261748
X0245079
X0250984
X0248031Y0255842
X0248622Y0271260
X0248031Y0279465
X0253937
X0252559Y0288976
X0268701Y0285370
X0265748Y0279465
X0268701Y0273559
X0265748Y0267653
X0271654
X0282087Y0264370
X0292913Y0267323
X0294488Y0236811
X0288583
X0282677
X0276378
X0270472
X0264567
X0259449Y0235827
X0258465Y0264370
X0242126Y0267653
X0236811Y0277165
X0228937
X0214173
X0199409
X0197835Y0285370
X0191929
X0203740
X0180709Y0277165
X0174803
X0160039
X0162008Y0248622
X0162401Y0238126
X0163976Y0229921
X0165354Y0221850
X0168898Y0221850
X0159055Y0223031
Y0217126
X0161024Y0205315
Y0201378
Y0197441
X0157087
Y0201378
Y0205315
X0158071Y0189567
Y0184646
Y0178740
X0156496Y0167260
X0159449Y0161354
X0174213Y0167260
X0175787Y0174803
X0174213Y0179071
X0174803Y0194488
X0182677Y0203346
X0179724Y0212205
X0174803
X0182677Y0216142
X0220079Y0217126
Y0223031
X0218110Y0226969
Y0231890
X0222047Y0237795
Y0243701
Y0250590
Y0257480
X0226969
X0222047Y0263386
X0227953Y0209449
X0231496
X0277559Y0208598
X0283465
X0289370
X0292323Y0202693
X0286417
X0280512
X0283465Y0196787
X0289370
X0292323Y0190882
X0286417
X0280512
X0283465Y0184976
X0289370
X0292323Y0179071
X0286417
X0280512
X0292323Y0167260
X0289370Y0161354
X0153543
X0147638
X0141732
X0135827
X0129921
X0124016
X0118110
X0112205
X0106299
X0109252Y0167260
X0115157
X0121063
X0126969
X0132874
X0138779
X0144685
X0150591
X0147638Y0173165
X0153543
X0153150Y0184646
Y0189567
X0153150Y0197441
Y0201378
Y0205315
X0155118Y0217126
Y0223031
X0153543Y0232220
X0112205
X0106299
X0109252Y0238126
X0106299Y0244031
X0112205
X0115157Y0226315
X0109252
X0108268Y0194488
X0114173
X0120472
X0126378
X0132283
X0137402Y0195472
X0102362Y0194488
X0104921Y0263386
Y0268307
X0115748Y0263386
X0135827Y0279465
X0141732
X0145276Y0277165
X0144291Y0288976
T02
X0240748Y0187598
X0254528
X0155118Y0243701
X0141339Y0243701
T03
X0151181Y0153150
X0164961
X0270276Y0168898
X0284055
X0258465Y0272244
X0123622Y0255512
X0109843
T04
X0155118Y0114764
X0165118
X0175118
X0185118
Y0283071
X0175118
X0165118
X0211732
X0221732
X0231732
X0241732
X0155118
T05
X0231890Y0121653
X0251575
X0280118Y0226969
Y0246654
X0116732Y0204331
Y0184646
T06
X0115748Y0115748
X0281102
Y0281102
X0115748
M30
