%TF.GenerationSoftware,Altium Limited,Altium Designer,26.2.0 (7)*%
G04 Layer_Color=0*
%FSLAX45Y45*%
%MOMM*%
%TF.SameCoordinates,E7199F77-2B10-486C-9E1B-3672863A5405*%
%TF.FilePolarity,Positive*%
%TF.FileFunction,Plated,1,4,PTH,Drill*%
%TF.Part,Single*%
G01*
G75*
%TA.AperFunction,ComponentDrill*%
%ADD66C,1.00000*%
%ADD67C,1.10000*%
%ADD68C,1.30000*%
%ADD69C,1.00000*%
%ADD70C,0.80000*%
%ADD71C,1.60000*%
%ADD72C,3.20000*%
%TA.AperFunction,ViaDrill,NotFilled*%
%ADD73C,0.30000*%
D66*
X875000Y1875000D02*
D03*
X1175000Y1575000D02*
D03*
X4500000Y3450000D02*
D03*
X4350000Y975000D02*
D03*
X200000Y3250000D02*
D03*
X4200000Y3450000D02*
D03*
X1850000Y1150000D02*
D03*
X1175000Y1875000D02*
D03*
X200000Y2950000D02*
D03*
D67*
X1013000Y4750000D02*
D03*
X1521000D02*
D03*
X2987000Y1100000D02*
D03*
X2733000D02*
D03*
X2150000Y4750000D02*
D03*
X2404000D02*
D03*
X1521000Y4450000D02*
D03*
X1013000D02*
D03*
X2150000D02*
D03*
X2404000D02*
D03*
X2658000Y4750000D02*
D03*
X2912000D02*
D03*
Y4450000D02*
D03*
X2658000D02*
D03*
X2225000Y1100000D02*
D03*
X2479000D02*
D03*
X1267000Y4750000D02*
D03*
X1267000Y4450000D02*
D03*
X1775000Y4750000D02*
D03*
Y4450000D02*
D03*
D68*
X1100000Y550000D02*
D03*
X3950000Y4475000D02*
D03*
X3450000D02*
D03*
X1600000Y550000D02*
D03*
D69*
X650000Y1150000D02*
D03*
X4050000Y975000D02*
D03*
D70*
X4325000Y2825000D02*
D03*
X3975000D02*
D03*
D71*
X3392000Y650000D02*
D03*
Y310000D02*
D03*
X2400000Y650000D02*
D03*
Y310000D02*
D03*
D72*
X4600000Y400000D02*
D03*
X4600000Y4600000D02*
D03*
X400000Y400000D02*
D03*
Y4600000D02*
D03*
D73*
X675000Y1600000D02*
D03*
X200000Y1358402D02*
D03*
X860002Y1500000D02*
D03*
X1500000Y4125000D02*
D03*
X1170000Y3550000D02*
D03*
X1800000Y3375000D02*
D03*
X3050000Y3550000D02*
D03*
X2625000Y3750000D02*
D03*
X2500000Y3875000D02*
D03*
X2725000Y1750000D02*
D03*
X200000Y1125000D02*
D03*
X4800000D02*
D03*
Y3875000D02*
D03*
X200000D02*
D03*
X4325000Y4000000D02*
D03*
X4500000Y3625000D02*
D03*
X4375000Y2200000D02*
D03*
X3125000Y1675000D02*
D03*
Y1275000D02*
D03*
X450000Y3300000D02*
D03*
X1400000Y3150000D02*
D03*
X1100000Y3250000D02*
D03*
X1075000Y1350000D02*
D03*
Y950000D02*
D03*
X2325000Y4125000D02*
D03*
X4250000Y2450000D02*
D03*
X2250000Y3125000D02*
D03*
Y3000000D02*
D03*
X2650000D02*
D03*
Y3125000D02*
D03*
X2518750Y3000000D02*
D03*
Y3125000D02*
D03*
X2381250Y3000000D02*
D03*
Y3125000D02*
D03*
X2850000Y3050000D02*
D03*
X3050000Y3075000D02*
D03*
X2000000Y3150000D02*
D03*
X3275000Y3075000D02*
D03*
X3450000Y2925000D02*
D03*
X260002Y3558403D02*
D03*
X460002Y958402D02*
D03*
Y1158402D02*
D03*
Y1358402D02*
D03*
Y3558403D02*
D03*
Y3758403D02*
D03*
X660002Y758402D02*
D03*
Y958402D02*
D03*
Y1358402D02*
D03*
Y3758403D02*
D03*
X860002Y158402D02*
D03*
Y358402D02*
D03*
Y558402D02*
D03*
Y758402D02*
D03*
Y958402D02*
D03*
Y1358402D02*
D03*
Y2158403D02*
D03*
Y4158404D02*
D03*
Y4358404D02*
D03*
Y4558404D02*
D03*
X1060002Y158402D02*
D03*
Y358402D02*
D03*
Y758402D02*
D03*
X1260002Y158402D02*
D03*
Y358402D02*
D03*
Y758402D02*
D03*
X1460002Y1558402D02*
D03*
Y3358403D02*
D03*
Y3558403D02*
D03*
Y3758403D02*
D03*
Y3958404D02*
D03*
X1660002Y1558402D02*
D03*
X1860002D02*
D03*
X2060002D02*
D03*
X2260003D02*
D03*
Y3958404D02*
D03*
X2460003Y1558402D02*
D03*
X2660003D02*
D03*
Y1958402D02*
D03*
Y2158403D02*
D03*
Y3958404D02*
D03*
X2860003Y158402D02*
D03*
Y358402D02*
D03*
Y558402D02*
D03*
Y758402D02*
D03*
Y958402D02*
D03*
Y1558402D02*
D03*
Y2158403D02*
D03*
Y3758403D02*
D03*
X3060003Y958402D02*
D03*
Y3758403D02*
D03*
X3260003Y3558403D02*
D03*
X3460003Y3158403D02*
D03*
Y3358403D02*
D03*
X4260004Y3158403D02*
D03*
Y4158404D02*
D03*
Y4358404D02*
D03*
X4460004Y1158402D02*
D03*
Y2358403D02*
D03*
Y2558403D02*
D03*
Y2758403D02*
D03*
Y2958403D02*
D03*
Y3158403D02*
D03*
Y4158404D02*
D03*
X4660004Y958402D02*
D03*
Y1358402D02*
D03*
Y1558402D02*
D03*
Y1758402D02*
D03*
Y1958402D02*
D03*
Y2158403D02*
D03*
Y2358403D02*
D03*
Y2558403D02*
D03*
Y2758403D02*
D03*
Y2958403D02*
D03*
Y3158403D02*
D03*
Y3758403D02*
D03*
X3950000Y4775000D02*
D03*
X4175000D02*
D03*
X775000Y4750000D02*
D03*
X2850000Y3175000D02*
D03*
X3050000Y3225000D02*
D03*
X3275000D02*
D03*
X1800000Y3150000D02*
D03*
X2550000Y4125000D02*
D03*
X250000Y3758403D02*
D03*
X750000Y3200000D02*
D03*
Y3350000D02*
D03*
X625000D02*
D03*
X850000Y2350000D02*
D03*
X750000Y3875000D02*
D03*
Y4225000D02*
D03*
X375000Y4200000D02*
D03*
X400000Y3875000D02*
D03*
X2800000Y1350000D02*
D03*
X2975000D02*
D03*
X3925000Y2025000D02*
D03*
Y2200000D02*
D03*
X3325000D02*
D03*
Y2050000D02*
D03*
X3525000Y2200000D02*
D03*
X3650000D02*
D03*
X3775000D02*
D03*
X3050000Y3400000D02*
D03*
X4075000Y2450000D02*
D03*
X2850000Y2600000D02*
D03*
X3325000Y2350000D02*
D03*
X3075000D02*
D03*
X3535002D02*
D03*
X3760002D02*
D03*
X3985002Y3208402D02*
D03*
X3310002Y4783402D02*
D03*
X3760002Y3433402D02*
D03*
Y3883402D02*
D03*
Y2758401D02*
D03*
X3535002Y3883402D02*
D03*
X2860001Y4108402D02*
D03*
X3760002D02*
D03*
Y3658402D02*
D03*
Y3208402D02*
D03*
X3310002Y4108402D02*
D03*
Y3883402D02*
D03*
X3985002Y3433402D02*
D03*
X3535002Y4108402D02*
D03*
Y4783402D02*
D03*
X3985002Y2983401D02*
D03*
X3085001Y2533401D02*
D03*
X3535002D02*
D03*
X3760002Y2983401D02*
D03*
X3310002Y2533401D02*
D03*
X3760002D02*
D03*
X3450000Y2750000D02*
D03*
X2875000Y2450000D02*
D03*
X3125000Y2075000D02*
D03*
X3120000Y4520000D02*
D03*
X3700000Y4475000D02*
D03*
X3120000Y4650000D02*
D03*
X3535002Y3658402D02*
D03*
X4125000Y1650000D02*
D03*
X4000000D02*
D03*
X3275000Y1675000D02*
D03*
X3650000Y1600000D02*
D03*
X3475000D02*
D03*
X3800000Y1475000D02*
D03*
X3475000D02*
D03*
X3210000Y358400D02*
D03*
Y608400D02*
D03*
Y858400D02*
D03*
X3460000D02*
D03*
Y1108400D02*
D03*
X3710000Y358400D02*
D03*
Y608400D02*
D03*
Y858400D02*
D03*
Y1108400D02*
D03*
X3960000Y358400D02*
D03*
Y608400D02*
D03*
Y858400D02*
D03*
Y1358400D02*
D03*
X3275000Y1275000D02*
D03*
X3650000Y1475000D02*
D03*
X1075000Y3855000D02*
D03*
X1220000Y4000000D02*
D03*
X1075000D02*
D03*
Y4145000D02*
D03*
X1220000Y3855000D02*
D03*
Y4145000D02*
D03*
X260002Y2158403D02*
D03*
Y2358403D02*
D03*
Y2558403D02*
D03*
Y2758403D02*
D03*
X460002Y2158403D02*
D03*
Y2358403D02*
D03*
Y2558403D02*
D03*
Y2758403D02*
D03*
X660002Y2158403D02*
D03*
Y2358403D02*
D03*
Y2558403D02*
D03*
Y2758403D02*
D03*
X1400000Y2975000D02*
D03*
X2350000Y950000D02*
D03*
X1600000Y2958403D02*
D03*
X2260003Y158402D02*
D03*
X2060002Y958402D02*
D03*
Y758402D02*
D03*
Y558402D02*
D03*
Y358402D02*
D03*
Y158402D02*
D03*
X1860002Y958402D02*
D03*
Y758402D02*
D03*
Y558402D02*
D03*
Y358402D02*
D03*
Y158402D02*
D03*
X1660002Y1158402D02*
D03*
Y958402D02*
D03*
Y758402D02*
D03*
Y358402D02*
D03*
Y158402D02*
D03*
X1460002Y958402D02*
D03*
Y758402D02*
D03*
Y358402D02*
D03*
Y158402D02*
D03*
X1939999Y4358399D02*
D03*
Y3938399D02*
D03*
Y3798399D02*
D03*
X1799999Y4078399D02*
D03*
Y3938399D02*
D03*
Y3798399D02*
D03*
X1659999Y4078399D02*
D03*
Y3938399D02*
D03*
Y3798399D02*
D03*
X1460002Y2758403D02*
D03*
Y2558403D02*
D03*
Y2358403D02*
D03*
Y2158403D02*
D03*
Y1958402D02*
D03*
X1260002Y2758403D02*
D03*
Y2558403D02*
D03*
Y2358403D02*
D03*
Y2158403D02*
D03*
X1060002Y2758403D02*
D03*
Y2558403D02*
D03*
Y2358403D02*
D03*
Y2158403D02*
D03*
X1200000Y3375000D02*
D03*
X4550000Y2052853D02*
D03*
Y1675000D02*
D03*
X2075000Y3600000D02*
D03*
X4250000Y1425000D02*
D03*
X3800000Y1650000D02*
D03*
%TF.MD5,1ec0fc27446d9b48a790bca50be90d41*%
M02*
