%TF.GenerationSoftware,Altium Limited,Altium Designer,26.2.0 (7)*%
G04 Layer_Physical_Order=2*
G04 Layer_Color=36540*
%FSLAX45Y45*%
%MOMM*%
%TF.SameCoordinates,E7199F77-2B10-486C-9E1B-3672863A5405*%
%TF.FilePolarity,Positive*%
%TF.FileFunction,Copper,L2,Inr,Signal*%
%TF.Part,Single*%
G01*
G75*
%TA.AperFunction,ComponentPad*%
%ADD32C,1.50000*%
%ADD33C,1.45000*%
%ADD34C,1.95000*%
%ADD35C,1.30800*%
%ADD37C,2.40000*%
%ADD38C,4.00000*%
%TA.AperFunction,ViaPad*%
%ADD39C,0.60000*%
G36*
X4925000Y75000D02*
X75000D01*
Y4925000D01*
X4925000D01*
Y75000D01*
D02*
G37*
%LPC*%
G36*
X2170000Y4845994D02*
Y4770000D01*
X2245994D01*
X2241228Y4787788D01*
X2228339Y4810112D01*
X2210112Y4828339D01*
X2187788Y4841228D01*
X2170000Y4845994D01*
D02*
G37*
G36*
X1033000D02*
Y4770000D01*
X1108994D01*
X1104228Y4787788D01*
X1091339Y4810112D01*
X1073112Y4828339D01*
X1050788Y4841228D01*
X1033000Y4845994D01*
D02*
G37*
G36*
X2424000D02*
Y4770000D01*
X2499994D01*
X2495228Y4787788D01*
X2482339Y4810112D01*
X2464112Y4828339D01*
X2441788Y4841228D01*
X2424000Y4845994D01*
D02*
G37*
G36*
X1541000D02*
Y4770000D01*
X1616994D01*
X1612228Y4787788D01*
X1599339Y4810112D01*
X1581112Y4828339D01*
X1558788Y4841228D01*
X1541000Y4845994D01*
D02*
G37*
G36*
X993000D02*
X975212Y4841228D01*
X952888Y4828339D01*
X934661Y4810112D01*
X921772Y4787788D01*
X917006Y4770000D01*
X993000D01*
Y4845994D01*
D02*
G37*
G36*
X2384000D02*
X2366212Y4841228D01*
X2343888Y4828339D01*
X2325660Y4810112D01*
X2312772Y4787788D01*
X2308005Y4770000D01*
X2384000D01*
Y4845994D01*
D02*
G37*
G36*
X1501000D02*
X1483212Y4841228D01*
X1460888Y4828339D01*
X1442661Y4810112D01*
X1429772Y4787788D01*
X1425006Y4770000D01*
X1501000D01*
Y4845994D01*
D02*
G37*
G36*
X2130001Y4845995D02*
X2112212Y4841228D01*
X2089888Y4828339D01*
X2071661Y4810112D01*
X2058772Y4787788D01*
X2054006Y4770000D01*
X2130001D01*
Y4845995D01*
D02*
G37*
G36*
X3544947Y4833402D02*
X3525056D01*
X3506679Y4825790D01*
X3492614Y4811725D01*
X3485002Y4793348D01*
Y4773456D01*
X3492614Y4755079D01*
X3506679Y4741014D01*
X3525056Y4733402D01*
X3544947D01*
X3563324Y4741014D01*
X3577390Y4755079D01*
X3585001Y4773456D01*
Y4793348D01*
X3577390Y4811725D01*
X3563324Y4825790D01*
X3544947Y4833402D01*
D02*
G37*
G36*
X3319947D02*
X3300056D01*
X3281679Y4825790D01*
X3267613Y4811725D01*
X3260002Y4793348D01*
Y4773456D01*
X3267613Y4755079D01*
X3281679Y4741014D01*
X3300056Y4733402D01*
X3319947D01*
X3338324Y4741014D01*
X3352390Y4755079D01*
X3360001Y4773456D01*
Y4793348D01*
X3352390Y4811725D01*
X3338324Y4825790D01*
X3319947Y4833402D01*
D02*
G37*
G36*
X2924178Y4842500D02*
X2899822D01*
X2876297Y4836196D01*
X2855204Y4824018D01*
X2837982Y4806796D01*
X2825804Y4785703D01*
X2819500Y4762178D01*
Y4737822D01*
X2825804Y4714296D01*
X2837982Y4693204D01*
X2855204Y4675982D01*
X2876297Y4663804D01*
X2899822Y4657500D01*
X2924178D01*
X2947704Y4663804D01*
X2968796Y4675982D01*
X2986018Y4693204D01*
X2998196Y4714296D01*
X3004500Y4737822D01*
Y4762178D01*
X2998196Y4785703D01*
X2986018Y4806796D01*
X2968796Y4824018D01*
X2947704Y4836196D01*
X2924178Y4842500D01*
D02*
G37*
G36*
X2670178D02*
X2645822D01*
X2622297Y4836196D01*
X2601204Y4824018D01*
X2583982Y4806796D01*
X2571804Y4785703D01*
X2565500Y4762178D01*
Y4737822D01*
X2571804Y4714296D01*
X2583982Y4693204D01*
X2601204Y4675982D01*
X2622297Y4663804D01*
X2645822Y4657500D01*
X2670178D01*
X2693704Y4663804D01*
X2714796Y4675982D01*
X2732018Y4693204D01*
X2744196Y4714296D01*
X2750500Y4737822D01*
Y4762178D01*
X2744196Y4785703D01*
X2732018Y4806796D01*
X2714796Y4824018D01*
X2693704Y4836196D01*
X2670178Y4842500D01*
D02*
G37*
G36*
X1787178D02*
X1762822D01*
X1739296Y4836196D01*
X1718204Y4824018D01*
X1700982Y4806796D01*
X1688804Y4785703D01*
X1682500Y4762178D01*
Y4737822D01*
X1688804Y4714296D01*
X1700982Y4693204D01*
X1718204Y4675982D01*
X1739296Y4663804D01*
X1762822Y4657500D01*
X1787178D01*
X1810704Y4663804D01*
X1831796Y4675982D01*
X1849018Y4693204D01*
X1861196Y4714296D01*
X1867500Y4737822D01*
Y4762178D01*
X1861196Y4785703D01*
X1849018Y4806796D01*
X1831796Y4824018D01*
X1810704Y4836196D01*
X1787178Y4842500D01*
D02*
G37*
G36*
X1279178D02*
X1254822D01*
X1231296Y4836196D01*
X1210204Y4824018D01*
X1192981Y4806796D01*
X1180804Y4785703D01*
X1174500Y4762178D01*
Y4737822D01*
X1180804Y4714296D01*
X1192981Y4693204D01*
X1210204Y4675982D01*
X1231296Y4663804D01*
X1254822Y4657500D01*
X1279178D01*
X1302703Y4663804D01*
X1323796Y4675982D01*
X1341018Y4693204D01*
X1353196Y4714296D01*
X1359500Y4737822D01*
Y4762178D01*
X1353196Y4785703D01*
X1341018Y4806796D01*
X1323796Y4824018D01*
X1302703Y4836196D01*
X1279178Y4842500D01*
D02*
G37*
G36*
X2245995Y4730000D02*
X2170000D01*
Y4654005D01*
X2187788Y4658772D01*
X2210112Y4671660D01*
X2228339Y4689888D01*
X2241228Y4712212D01*
X2245995Y4730000D01*
D02*
G37*
G36*
X2499994D02*
X2424000D01*
Y4654005D01*
X2441788Y4658772D01*
X2464112Y4671660D01*
X2482339Y4689888D01*
X2495228Y4712212D01*
X2499994Y4730000D01*
D02*
G37*
G36*
X1616995D02*
X1541000D01*
Y4654005D01*
X1558788Y4658772D01*
X1581112Y4671660D01*
X1599339Y4689888D01*
X1612228Y4712212D01*
X1616995Y4730000D01*
D02*
G37*
G36*
X1108995D02*
X1033000D01*
Y4654005D01*
X1050788Y4658772D01*
X1073112Y4671660D01*
X1091339Y4689888D01*
X1104228Y4712212D01*
X1108995Y4730000D01*
D02*
G37*
G36*
X1501000D02*
X1425005D01*
X1429772Y4712212D01*
X1442661Y4689888D01*
X1460888Y4671660D01*
X1483212Y4658772D01*
X1501000Y4654005D01*
Y4730000D01*
D02*
G37*
G36*
X993000D02*
X917005D01*
X921772Y4712212D01*
X934661Y4689888D01*
X952888Y4671660D01*
X975212Y4658772D01*
X993000Y4654005D01*
Y4730000D01*
D02*
G37*
G36*
X2384000D02*
X2308005D01*
X2312772Y4712212D01*
X2325660Y4689888D01*
X2343888Y4671660D01*
X2366212Y4658772D01*
X2384000Y4654005D01*
Y4730000D01*
D02*
G37*
G36*
X2130001D02*
X2054005D01*
X2058772Y4712212D01*
X2071661Y4689888D01*
X2089888Y4671660D01*
X2112212Y4658772D01*
X2130001Y4654005D01*
Y4730000D01*
D02*
G37*
G36*
X3129946Y4700000D02*
X3110054D01*
X3091677Y4692388D01*
X3077612Y4678323D01*
X3070000Y4659946D01*
Y4640054D01*
X3077612Y4621677D01*
X3091677Y4607612D01*
X3110054Y4600000D01*
X3129946D01*
X3148323Y4607612D01*
X3162388Y4621677D01*
X3170000Y4640054D01*
Y4659946D01*
X3162388Y4678323D01*
X3148323Y4692388D01*
X3129946Y4700000D01*
D02*
G37*
G36*
X3980000Y4594197D02*
Y4505000D01*
X4069197D01*
X4064525Y4522437D01*
X4048345Y4550462D01*
X4025463Y4573344D01*
X3997438Y4589524D01*
X3980000Y4594197D01*
D02*
G37*
G36*
X3920000D02*
X3902563Y4589524D01*
X3874538Y4573344D01*
X3851656Y4550462D01*
X3835476Y4522437D01*
X3830803Y4505000D01*
X3920000D01*
Y4594197D01*
D02*
G37*
G36*
X3129946Y4570000D02*
X3110054D01*
X3091677Y4562388D01*
X3077612Y4548323D01*
X3070000Y4529946D01*
Y4510054D01*
X3077612Y4491677D01*
X3091677Y4477612D01*
X3110054Y4470000D01*
X3129946D01*
X3148323Y4477612D01*
X3162388Y4491677D01*
X3170000Y4510054D01*
Y4529946D01*
X3162388Y4548323D01*
X3148323Y4562388D01*
X3129946Y4570000D01*
D02*
G37*
G36*
X2170000Y4545994D02*
Y4469999D01*
X2245995D01*
X2241228Y4487788D01*
X2228339Y4510112D01*
X2210112Y4528339D01*
X2187788Y4541228D01*
X2170000Y4545994D01*
D02*
G37*
G36*
X1033000D02*
Y4469999D01*
X1108995D01*
X1104228Y4487788D01*
X1091339Y4510112D01*
X1073112Y4528339D01*
X1050788Y4541228D01*
X1033000Y4545994D01*
D02*
G37*
G36*
X2424000D02*
Y4469999D01*
X2499994D01*
X2495228Y4487788D01*
X2482339Y4510112D01*
X2464112Y4528339D01*
X2441788Y4541228D01*
X2424000Y4545994D01*
D02*
G37*
G36*
X1541000D02*
Y4469999D01*
X1616995D01*
X1612228Y4487788D01*
X1599339Y4510112D01*
X1581112Y4528339D01*
X1558788Y4541228D01*
X1541000Y4545994D01*
D02*
G37*
G36*
X993000D02*
X975212Y4541228D01*
X952888Y4528339D01*
X934661Y4510112D01*
X921772Y4487788D01*
X917005Y4469999D01*
X993000D01*
Y4545994D01*
D02*
G37*
G36*
X2384000D02*
X2366212Y4541228D01*
X2343888Y4528339D01*
X2325660Y4510112D01*
X2312772Y4487788D01*
X2308005Y4469999D01*
X2384000D01*
Y4545994D01*
D02*
G37*
G36*
X1501000D02*
X1483212Y4541228D01*
X1460888Y4528339D01*
X1442661Y4510112D01*
X1429772Y4487788D01*
X1425005Y4469999D01*
X1501000D01*
Y4545994D01*
D02*
G37*
G36*
X2130001Y4545995D02*
X2112212Y4541228D01*
X2089888Y4528339D01*
X2071661Y4510112D01*
X2058772Y4487788D01*
X2054005Y4469999D01*
X2130001D01*
Y4545995D01*
D02*
G37*
G36*
X3709946Y4525000D02*
X3690054D01*
X3671677Y4517388D01*
X3657612Y4503323D01*
X3650000Y4484946D01*
Y4465054D01*
X3657612Y4446677D01*
X3671677Y4432612D01*
X3690054Y4425000D01*
X3709946D01*
X3728323Y4432612D01*
X3742388Y4446677D01*
X3750000Y4465054D01*
Y4484946D01*
X3742388Y4503323D01*
X3728323Y4517388D01*
X3709946Y4525000D01*
D02*
G37*
G36*
X3465469Y4592500D02*
X3434531D01*
X3404647Y4584492D01*
X3377853Y4569023D01*
X3355977Y4547147D01*
X3340507Y4520353D01*
X3332500Y4490469D01*
Y4459531D01*
X3340507Y4429647D01*
X3355977Y4402853D01*
X3377853Y4380977D01*
X3404647Y4365507D01*
X3434531Y4357500D01*
X3465469D01*
X3495353Y4365507D01*
X3522147Y4380977D01*
X3544023Y4402853D01*
X3559493Y4429647D01*
X3567500Y4459531D01*
Y4490469D01*
X3559493Y4520353D01*
X3544023Y4547147D01*
X3522147Y4569023D01*
X3495353Y4584492D01*
X3465469Y4592500D01*
D02*
G37*
G36*
X2924178Y4542500D02*
X2899822D01*
X2876297Y4536196D01*
X2855204Y4524018D01*
X2837982Y4506796D01*
X2825804Y4485703D01*
X2819500Y4462178D01*
Y4437822D01*
X2825804Y4414296D01*
X2837982Y4393204D01*
X2855204Y4375982D01*
X2876297Y4363804D01*
X2899822Y4357500D01*
X2924178D01*
X2947704Y4363804D01*
X2968796Y4375982D01*
X2986018Y4393204D01*
X2998196Y4414296D01*
X3004500Y4437822D01*
Y4462178D01*
X2998196Y4485703D01*
X2986018Y4506796D01*
X2968796Y4524018D01*
X2947704Y4536196D01*
X2924178Y4542500D01*
D02*
G37*
G36*
X2670178D02*
X2645822D01*
X2622297Y4536196D01*
X2601204Y4524018D01*
X2583982Y4506796D01*
X2571804Y4485703D01*
X2565500Y4462178D01*
Y4437822D01*
X2571804Y4414296D01*
X2583982Y4393204D01*
X2601204Y4375982D01*
X2622297Y4363804D01*
X2645822Y4357500D01*
X2670178D01*
X2693704Y4363804D01*
X2714796Y4375982D01*
X2732018Y4393204D01*
X2744196Y4414296D01*
X2750500Y4437822D01*
Y4462178D01*
X2744196Y4485703D01*
X2732018Y4506796D01*
X2714796Y4524018D01*
X2693704Y4536196D01*
X2670178Y4542500D01*
D02*
G37*
G36*
X1787178D02*
X1762822D01*
X1739296Y4536196D01*
X1718204Y4524018D01*
X1700982Y4506796D01*
X1688804Y4485703D01*
X1682500Y4462178D01*
Y4437822D01*
X1688804Y4414296D01*
X1700982Y4393204D01*
X1718204Y4375982D01*
X1739296Y4363804D01*
X1762822Y4357500D01*
X1787178D01*
X1810704Y4363804D01*
X1831796Y4375982D01*
X1849018Y4393204D01*
X1861196Y4414296D01*
X1867500Y4437822D01*
Y4462178D01*
X1861196Y4485703D01*
X1849018Y4506796D01*
X1831796Y4524018D01*
X1810704Y4536196D01*
X1787178Y4542500D01*
D02*
G37*
G36*
X1279178D02*
X1254822D01*
X1231296Y4536196D01*
X1210204Y4524018D01*
X1192982Y4506796D01*
X1180804Y4485703D01*
X1174500Y4462178D01*
Y4437822D01*
X1180804Y4414296D01*
X1192982Y4393204D01*
X1210204Y4375982D01*
X1231296Y4363804D01*
X1254822Y4357500D01*
X1279178D01*
X1302704Y4363804D01*
X1323796Y4375982D01*
X1341018Y4393204D01*
X1353196Y4414296D01*
X1359500Y4437822D01*
Y4462178D01*
X1353196Y4485703D01*
X1341018Y4506796D01*
X1323796Y4524018D01*
X1302704Y4536196D01*
X1279178Y4542500D01*
D02*
G37*
G36*
X4069197Y4445000D02*
X3980000D01*
Y4355803D01*
X3997438Y4360475D01*
X4025463Y4376655D01*
X4048345Y4399538D01*
X4064525Y4427562D01*
X4069197Y4445000D01*
D02*
G37*
G36*
X3920000D02*
X3830803D01*
X3835476Y4427562D01*
X3851656Y4399538D01*
X3874538Y4376655D01*
X3902563Y4360475D01*
X3920000Y4355803D01*
Y4445000D01*
D02*
G37*
G36*
X2245994Y4430000D02*
X2170000D01*
Y4354006D01*
X2187788Y4358772D01*
X2210112Y4371661D01*
X2228339Y4389888D01*
X2241228Y4412212D01*
X2245994Y4430000D01*
D02*
G37*
G36*
X2499994D02*
X2424000D01*
Y4354006D01*
X2441788Y4358772D01*
X2464112Y4371661D01*
X2482339Y4389888D01*
X2495228Y4412212D01*
X2499994Y4430000D01*
D02*
G37*
G36*
X1616994D02*
X1541000D01*
Y4354006D01*
X1558788Y4358772D01*
X1581112Y4371661D01*
X1599339Y4389888D01*
X1612228Y4412212D01*
X1616994Y4430000D01*
D02*
G37*
G36*
X1108994D02*
X1033000D01*
Y4354006D01*
X1050788Y4358772D01*
X1073112Y4371661D01*
X1091339Y4389888D01*
X1104228Y4412212D01*
X1108994Y4430000D01*
D02*
G37*
G36*
X1501000D02*
X1425006D01*
X1429772Y4412212D01*
X1442661Y4389888D01*
X1460888Y4371661D01*
X1483212Y4358772D01*
X1501000Y4354006D01*
Y4430000D01*
D02*
G37*
G36*
X993000D02*
X917006D01*
X921772Y4412212D01*
X934661Y4389888D01*
X952888Y4371661D01*
X975212Y4358772D01*
X993000Y4354006D01*
Y4430000D01*
D02*
G37*
G36*
X2384000D02*
X2308005D01*
X2312772Y4412212D01*
X2325660Y4389888D01*
X2343888Y4371661D01*
X2366212Y4358772D01*
X2384000Y4354006D01*
Y4430000D01*
D02*
G37*
G36*
X2130001D02*
X2054006D01*
X2058772Y4412212D01*
X2071661Y4389888D01*
X2089888Y4371661D01*
X2112212Y4358772D01*
X2130001Y4354005D01*
Y4430000D01*
D02*
G37*
G36*
X4600000Y4870835D02*
X4557632Y4867500D01*
X4516307Y4857579D01*
X4477043Y4841316D01*
X4440807Y4819110D01*
X4408491Y4791509D01*
X4380890Y4759193D01*
X4358684Y4722957D01*
X4342420Y4683692D01*
X4332499Y4642368D01*
X4329165Y4600000D01*
X4332499Y4557632D01*
X4342420Y4516307D01*
X4358684Y4477043D01*
X4380890Y4440807D01*
X4408491Y4408491D01*
X4440807Y4380890D01*
X4477043Y4358684D01*
X4516307Y4342421D01*
X4557632Y4332500D01*
X4600000Y4329165D01*
X4642368Y4332500D01*
X4683692Y4342421D01*
X4722956Y4358684D01*
X4759192Y4380890D01*
X4791509Y4408491D01*
X4819110Y4440807D01*
X4841315Y4477043D01*
X4857579Y4516307D01*
X4867500Y4557632D01*
X4870835Y4600000D01*
X4867500Y4642368D01*
X4857579Y4683692D01*
X4841315Y4722957D01*
X4819110Y4759193D01*
X4791509Y4791509D01*
X4759192Y4819110D01*
X4722956Y4841316D01*
X4683692Y4857579D01*
X4642368Y4867500D01*
X4600000Y4870835D01*
D02*
G37*
G36*
X400000D02*
X357632Y4867500D01*
X316307Y4857579D01*
X277043Y4841316D01*
X240807Y4819110D01*
X208491Y4791509D01*
X180890Y4759193D01*
X158684Y4722957D01*
X142421Y4683692D01*
X132500Y4642368D01*
X129165Y4600000D01*
X132500Y4557632D01*
X142421Y4516307D01*
X158684Y4477043D01*
X180890Y4440807D01*
X208491Y4408491D01*
X240807Y4380890D01*
X277043Y4358684D01*
X316307Y4342421D01*
X357632Y4332500D01*
X400000Y4329165D01*
X442368Y4332500D01*
X483692Y4342421D01*
X522957Y4358684D01*
X559193Y4380890D01*
X591509Y4408491D01*
X619110Y4440807D01*
X641316Y4477043D01*
X657579Y4516307D01*
X667500Y4557632D01*
X670835Y4600000D01*
X667500Y4642368D01*
X657579Y4683692D01*
X641316Y4722957D01*
X619110Y4759193D01*
X591509Y4791509D01*
X559193Y4819110D01*
X522957Y4841316D01*
X483692Y4857579D01*
X442368Y4867500D01*
X400000Y4870835D01*
D02*
G37*
G36*
X1949945Y4408399D02*
X1930054D01*
X1911676Y4400787D01*
X1897611Y4386721D01*
X1889999Y4368344D01*
Y4348453D01*
X1897611Y4330076D01*
X1911676Y4316011D01*
X1930054Y4308399D01*
X1949945D01*
X1968322Y4316011D01*
X1982387Y4330076D01*
X1989999Y4348453D01*
Y4368344D01*
X1982387Y4386721D01*
X1968322Y4400787D01*
X1949945Y4408399D01*
D02*
G37*
G36*
X1229945Y4195000D02*
X1210054D01*
X1191677Y4187388D01*
X1177612Y4173323D01*
X1170000Y4154945D01*
Y4135054D01*
X1177612Y4116677D01*
X1191677Y4102612D01*
X1210054Y4095000D01*
X1229945D01*
X1248323Y4102612D01*
X1262388Y4116677D01*
X1270000Y4135054D01*
Y4154945D01*
X1262388Y4173323D01*
X1248323Y4187388D01*
X1229945Y4195000D01*
D02*
G37*
G36*
X1084946D02*
X1065054D01*
X1046677Y4187388D01*
X1032612Y4173323D01*
X1025000Y4154945D01*
Y4135054D01*
X1032612Y4116677D01*
X1046677Y4102612D01*
X1065054Y4095000D01*
X1084946D01*
X1103323Y4102612D01*
X1117388Y4116677D01*
X1125000Y4135054D01*
Y4154945D01*
X1117388Y4173323D01*
X1103323Y4187388D01*
X1084946Y4195000D01*
D02*
G37*
G36*
X3769947Y4158402D02*
X3750056D01*
X3731679Y4150790D01*
X3717614Y4136725D01*
X3710002Y4118347D01*
Y4098456D01*
X3717614Y4080079D01*
X3731679Y4066014D01*
X3750056Y4058402D01*
X3769947D01*
X3788324Y4066014D01*
X3802390Y4080079D01*
X3810002Y4098456D01*
Y4118347D01*
X3802390Y4136725D01*
X3788324Y4150790D01*
X3769947Y4158402D01*
D02*
G37*
G36*
X3544947D02*
X3525056D01*
X3506679Y4150790D01*
X3492614Y4136725D01*
X3485002Y4118347D01*
Y4098456D01*
X3492614Y4080079D01*
X3506679Y4066014D01*
X3525056Y4058402D01*
X3544947D01*
X3563324Y4066014D01*
X3577390Y4080079D01*
X3585001Y4098456D01*
Y4118347D01*
X3577390Y4136725D01*
X3563324Y4150790D01*
X3544947Y4158402D01*
D02*
G37*
G36*
X3319947D02*
X3300056D01*
X3281679Y4150790D01*
X3267613Y4136725D01*
X3260002Y4118347D01*
Y4098456D01*
X3267613Y4080079D01*
X3281679Y4066014D01*
X3300056Y4058402D01*
X3319947D01*
X3338324Y4066014D01*
X3352390Y4080079D01*
X3360001Y4098456D01*
Y4118347D01*
X3352390Y4136725D01*
X3338324Y4150790D01*
X3319947Y4158402D01*
D02*
G37*
G36*
X2869947D02*
X2850056D01*
X2831679Y4150790D01*
X2817613Y4136725D01*
X2810001Y4118347D01*
Y4098456D01*
X2817613Y4080079D01*
X2831679Y4066014D01*
X2850056Y4058402D01*
X2869947D01*
X2888324Y4066014D01*
X2902389Y4080079D01*
X2910001Y4098456D01*
Y4118347D01*
X2902389Y4136725D01*
X2888324Y4150790D01*
X2869947Y4158402D01*
D02*
G37*
G36*
X1809945Y4128399D02*
X1790054D01*
X1771676Y4120787D01*
X1757611Y4106722D01*
X1749999Y4088344D01*
Y4068453D01*
X1757611Y4050076D01*
X1771676Y4036011D01*
X1790054Y4028399D01*
X1809945D01*
X1828322Y4036011D01*
X1842387Y4050076D01*
X1849999Y4068453D01*
Y4088344D01*
X1842387Y4106722D01*
X1828322Y4120787D01*
X1809945Y4128399D01*
D02*
G37*
G36*
X1669945D02*
X1650054D01*
X1631676Y4120787D01*
X1617611Y4106722D01*
X1609999Y4088344D01*
Y4068453D01*
X1617611Y4050076D01*
X1631676Y4036011D01*
X1650054Y4028399D01*
X1669945D01*
X1688322Y4036011D01*
X1702387Y4050076D01*
X1709999Y4068453D01*
Y4088344D01*
X1702387Y4106722D01*
X1688322Y4120787D01*
X1669945Y4128399D01*
D02*
G37*
G36*
X1229945Y4050000D02*
X1210054D01*
X1191677Y4042388D01*
X1177612Y4028323D01*
X1170000Y4009945D01*
Y3990054D01*
X1177612Y3971677D01*
X1191677Y3957612D01*
X1210054Y3950000D01*
X1229945D01*
X1248323Y3957612D01*
X1262388Y3971677D01*
X1270000Y3990054D01*
Y4009945D01*
X1262388Y4028323D01*
X1248323Y4042388D01*
X1229945Y4050000D01*
D02*
G37*
G36*
X1084946D02*
X1065054D01*
X1046677Y4042388D01*
X1032612Y4028323D01*
X1025000Y4009945D01*
Y3990054D01*
X1032612Y3971677D01*
X1046677Y3957612D01*
X1065054Y3950000D01*
X1084946D01*
X1103323Y3957612D01*
X1117388Y3971677D01*
X1125000Y3990054D01*
Y4009945D01*
X1117388Y4028323D01*
X1103323Y4042388D01*
X1084946Y4050000D01*
D02*
G37*
G36*
X1949945Y3988399D02*
X1930054D01*
X1911676Y3980787D01*
X1897611Y3966722D01*
X1889999Y3948344D01*
Y3928453D01*
X1897611Y3910076D01*
X1911676Y3896011D01*
X1930054Y3888399D01*
X1949945D01*
X1968322Y3896011D01*
X1982387Y3910076D01*
X1989999Y3928453D01*
Y3948344D01*
X1982387Y3966722D01*
X1968322Y3980787D01*
X1949945Y3988399D01*
D02*
G37*
G36*
X1809945D02*
X1790054D01*
X1771676Y3980787D01*
X1757611Y3966722D01*
X1749999Y3948344D01*
Y3928453D01*
X1757611Y3910076D01*
X1771676Y3896011D01*
X1790054Y3888399D01*
X1809945D01*
X1828322Y3896011D01*
X1842387Y3910076D01*
X1849999Y3928453D01*
Y3948344D01*
X1842387Y3966722D01*
X1828322Y3980787D01*
X1809945Y3988399D01*
D02*
G37*
G36*
X1669945D02*
X1650054D01*
X1631676Y3980787D01*
X1617611Y3966722D01*
X1609999Y3948344D01*
Y3928453D01*
X1617611Y3910076D01*
X1631676Y3896011D01*
X1650054Y3888399D01*
X1669945D01*
X1688322Y3896011D01*
X1702387Y3910076D01*
X1709999Y3928453D01*
Y3948344D01*
X1702387Y3966722D01*
X1688322Y3980787D01*
X1669945Y3988399D01*
D02*
G37*
G36*
X3769947Y3933402D02*
X3750056D01*
X3731679Y3925790D01*
X3717614Y3911724D01*
X3710002Y3893347D01*
Y3873456D01*
X3717614Y3855079D01*
X3731679Y3841014D01*
X3750056Y3833402D01*
X3769947D01*
X3788324Y3841014D01*
X3802390Y3855079D01*
X3810002Y3873456D01*
Y3893347D01*
X3802390Y3911724D01*
X3788324Y3925790D01*
X3769947Y3933402D01*
D02*
G37*
G36*
X3544947D02*
X3525056D01*
X3506679Y3925790D01*
X3492614Y3911724D01*
X3485002Y3893347D01*
Y3873456D01*
X3492614Y3855079D01*
X3506679Y3841014D01*
X3525056Y3833402D01*
X3544947D01*
X3563324Y3841014D01*
X3577390Y3855079D01*
X3585001Y3873456D01*
Y3893347D01*
X3577390Y3911724D01*
X3563324Y3925790D01*
X3544947Y3933402D01*
D02*
G37*
G36*
X3319947D02*
X3300056D01*
X3281679Y3925790D01*
X3267613Y3911724D01*
X3260002Y3893347D01*
Y3873456D01*
X3267613Y3855079D01*
X3281679Y3841014D01*
X3300056Y3833402D01*
X3319947D01*
X3338324Y3841014D01*
X3352390Y3855079D01*
X3360001Y3873456D01*
Y3893347D01*
X3352390Y3911724D01*
X3338324Y3925790D01*
X3319947Y3933402D01*
D02*
G37*
G36*
X1229945Y3905000D02*
X1210054D01*
X1191677Y3897388D01*
X1177612Y3883323D01*
X1170000Y3864946D01*
Y3845054D01*
X1177612Y3826677D01*
X1191677Y3812612D01*
X1210054Y3805000D01*
X1229945D01*
X1248323Y3812612D01*
X1262388Y3826677D01*
X1270000Y3845054D01*
Y3864946D01*
X1262388Y3883323D01*
X1248323Y3897388D01*
X1229945Y3905000D01*
D02*
G37*
G36*
X1084946D02*
X1065054D01*
X1046677Y3897388D01*
X1032612Y3883323D01*
X1025000Y3864946D01*
Y3845054D01*
X1032612Y3826677D01*
X1046677Y3812612D01*
X1065054Y3805000D01*
X1084946D01*
X1103323Y3812612D01*
X1117388Y3826677D01*
X1125000Y3845054D01*
Y3864946D01*
X1117388Y3883323D01*
X1103323Y3897388D01*
X1084946Y3905000D01*
D02*
G37*
G36*
X1949945Y3848399D02*
X1930054D01*
X1911676Y3840787D01*
X1897611Y3826722D01*
X1889999Y3808344D01*
Y3788453D01*
X1897611Y3770076D01*
X1911676Y3756011D01*
X1930054Y3748399D01*
X1949945D01*
X1968322Y3756011D01*
X1982387Y3770076D01*
X1989999Y3788453D01*
Y3808344D01*
X1982387Y3826722D01*
X1968322Y3840787D01*
X1949945Y3848399D01*
D02*
G37*
G36*
X1809945D02*
X1790054D01*
X1771676Y3840787D01*
X1757611Y3826722D01*
X1749999Y3808344D01*
Y3788453D01*
X1757611Y3770076D01*
X1771676Y3756011D01*
X1790054Y3748399D01*
X1809945D01*
X1828322Y3756011D01*
X1842387Y3770076D01*
X1849999Y3788453D01*
Y3808344D01*
X1842387Y3826722D01*
X1828322Y3840787D01*
X1809945Y3848399D01*
D02*
G37*
G36*
X1669945D02*
X1650054D01*
X1631676Y3840787D01*
X1617611Y3826722D01*
X1609999Y3808344D01*
Y3788453D01*
X1617611Y3770076D01*
X1631676Y3756011D01*
X1650054Y3748399D01*
X1669945D01*
X1688322Y3756011D01*
X1702387Y3770076D01*
X1709999Y3788453D01*
Y3808344D01*
X1702387Y3826722D01*
X1688322Y3840787D01*
X1669945Y3848399D01*
D02*
G37*
G36*
X3769947Y3708402D02*
X3750056D01*
X3731679Y3700790D01*
X3717614Y3686724D01*
X3710002Y3668347D01*
Y3648456D01*
X3717614Y3630079D01*
X3731679Y3616014D01*
X3750056Y3608402D01*
X3769947D01*
X3788324Y3616014D01*
X3802390Y3630079D01*
X3810002Y3648456D01*
Y3668347D01*
X3802390Y3686724D01*
X3788324Y3700790D01*
X3769947Y3708402D01*
D02*
G37*
G36*
X3544947D02*
X3525056D01*
X3506679Y3700790D01*
X3492614Y3686724D01*
X3485002Y3668347D01*
Y3648456D01*
X3492614Y3630079D01*
X3506679Y3616014D01*
X3525056Y3608402D01*
X3544947D01*
X3563324Y3616014D01*
X3577390Y3630079D01*
X3585001Y3648456D01*
Y3668347D01*
X3577390Y3686724D01*
X3563324Y3700790D01*
X3544947Y3708402D01*
D02*
G37*
G36*
X2075000Y3678169D02*
X2054768Y3675505D01*
X2035916Y3667696D01*
X2019726Y3655274D01*
X2007304Y3639084D01*
X1999495Y3620232D01*
X1996831Y3600000D01*
X1999495Y3579768D01*
X2007304Y3560915D01*
X2019726Y3544726D01*
X2035916Y3532304D01*
X2054768Y3524495D01*
X2075000Y3521831D01*
X2095232Y3524495D01*
X2114084Y3532304D01*
X2130274Y3544726D01*
X2142696Y3560915D01*
X2150505Y3579768D01*
X2153169Y3600000D01*
X2150505Y3620232D01*
X2142696Y3639084D01*
X2130274Y3655274D01*
X2114084Y3667696D01*
X2095232Y3675505D01*
X2075000Y3678169D01*
D02*
G37*
G36*
X4515240Y3549858D02*
Y3465239D01*
X4599858D01*
X4593558Y3488753D01*
X4580340Y3511647D01*
X4561647Y3530340D01*
X4538753Y3543558D01*
X4515240Y3549858D01*
D02*
G37*
G36*
X4484760D02*
X4461247Y3543558D01*
X4438353Y3530340D01*
X4419660Y3511647D01*
X4406442Y3488753D01*
X4400142Y3465239D01*
X4484760D01*
Y3549858D01*
D02*
G37*
G36*
X3994947Y3483401D02*
X3975056D01*
X3956679Y3475790D01*
X3942614Y3461724D01*
X3935002Y3443347D01*
Y3423456D01*
X3942614Y3405079D01*
X3956679Y3391014D01*
X3975056Y3383402D01*
X3994947D01*
X4013324Y3391014D01*
X4027390Y3405079D01*
X4035002Y3423456D01*
Y3443347D01*
X4027390Y3461724D01*
X4013324Y3475790D01*
X3994947Y3483401D01*
D02*
G37*
G36*
X3769947D02*
X3750056D01*
X3731679Y3475790D01*
X3717614Y3461724D01*
X3710002Y3443347D01*
Y3423456D01*
X3717614Y3405079D01*
X3731679Y3391014D01*
X3750056Y3383402D01*
X3769947D01*
X3788324Y3391014D01*
X3802390Y3405079D01*
X3810002Y3423456D01*
Y3443347D01*
X3802390Y3461724D01*
X3788324Y3475790D01*
X3769947Y3483401D01*
D02*
G37*
G36*
X4212507Y3545000D02*
X4187493D01*
X4163332Y3538526D01*
X4141669Y3526019D01*
X4123981Y3508331D01*
X4111474Y3486668D01*
X4105000Y3462507D01*
Y3437493D01*
X4111474Y3413332D01*
X4123981Y3391669D01*
X4141669Y3373981D01*
X4163332Y3361474D01*
X4187493Y3355000D01*
X4212507D01*
X4236668Y3361474D01*
X4258331Y3373981D01*
X4276019Y3391669D01*
X4288526Y3413332D01*
X4295000Y3437493D01*
Y3462507D01*
X4288526Y3486668D01*
X4276019Y3508331D01*
X4258331Y3526019D01*
X4236668Y3538526D01*
X4212507Y3545000D01*
D02*
G37*
G36*
X4599858Y3434759D02*
X4515240D01*
Y3350142D01*
X4538753Y3356442D01*
X4561647Y3369660D01*
X4580340Y3388353D01*
X4593558Y3411247D01*
X4599858Y3434759D01*
D02*
G37*
G36*
X4484760D02*
X4400142D01*
X4406442Y3411247D01*
X4419660Y3388353D01*
X4438353Y3369660D01*
X4461247Y3356442D01*
X4484760Y3350142D01*
Y3434759D01*
D02*
G37*
G36*
X3059946Y3450000D02*
X3040054D01*
X3021677Y3442388D01*
X3007612Y3428323D01*
X3000000Y3409946D01*
Y3390054D01*
X3007612Y3371677D01*
X3021677Y3357612D01*
X3040054Y3350000D01*
X3059946D01*
X3078323Y3357612D01*
X3092388Y3371677D01*
X3100000Y3390054D01*
Y3409946D01*
X3092388Y3428323D01*
X3078323Y3442388D01*
X3059946Y3450000D01*
D02*
G37*
G36*
X1209946Y3425000D02*
X1190054D01*
X1171677Y3417388D01*
X1157612Y3403323D01*
X1150000Y3384946D01*
Y3365054D01*
X1157612Y3346677D01*
X1171677Y3332612D01*
X1190054Y3325000D01*
X1209946D01*
X1228323Y3332612D01*
X1242388Y3346677D01*
X1250000Y3365054D01*
Y3384946D01*
X1242388Y3403323D01*
X1228323Y3417388D01*
X1209946Y3425000D01*
D02*
G37*
G36*
X215240Y3349858D02*
Y3265240D01*
X299858D01*
X293558Y3288753D01*
X280340Y3311647D01*
X261647Y3330340D01*
X238753Y3343558D01*
X215240Y3349858D01*
D02*
G37*
G36*
X184760D02*
X161247Y3343558D01*
X138353Y3330340D01*
X119660Y3311647D01*
X106442Y3288753D01*
X100142Y3265240D01*
X184760D01*
Y3349858D01*
D02*
G37*
G36*
X3994947Y3258401D02*
X3975056D01*
X3956679Y3250790D01*
X3942614Y3236724D01*
X3935002Y3218347D01*
Y3198456D01*
X3942614Y3180079D01*
X3956679Y3166013D01*
X3975056Y3158402D01*
X3994947D01*
X4013324Y3166013D01*
X4027390Y3180079D01*
X4035002Y3198456D01*
Y3218347D01*
X4027390Y3236724D01*
X4013324Y3250790D01*
X3994947Y3258401D01*
D02*
G37*
G36*
X3769947D02*
X3750056D01*
X3731679Y3250790D01*
X3717614Y3236724D01*
X3710002Y3218347D01*
Y3198456D01*
X3717614Y3180079D01*
X3731679Y3166013D01*
X3750056Y3158402D01*
X3769947D01*
X3788324Y3166013D01*
X3802390Y3180079D01*
X3810002Y3198456D01*
Y3218347D01*
X3802390Y3236724D01*
X3788324Y3250790D01*
X3769947Y3258401D01*
D02*
G37*
G36*
X184760Y3234760D02*
X100142D01*
X106442Y3211247D01*
X119660Y3188353D01*
X138353Y3169660D01*
X161247Y3156442D01*
X184760Y3150142D01*
Y3234760D01*
D02*
G37*
G36*
X299858D02*
X215240D01*
Y3150142D01*
X238753Y3156442D01*
X261647Y3169660D01*
X280340Y3188353D01*
X293558Y3211247D01*
X299858Y3234760D01*
D02*
G37*
G36*
X3994947Y3033401D02*
X3975056D01*
X3956679Y3025789D01*
X3942614Y3011724D01*
X3935002Y2993347D01*
Y2973456D01*
X3942614Y2955079D01*
X3956679Y2941013D01*
X3975056Y2933402D01*
X3994947D01*
X4013324Y2941013D01*
X4027390Y2955079D01*
X4035002Y2973456D01*
Y2993347D01*
X4027390Y3011724D01*
X4013324Y3025789D01*
X3994947Y3033401D01*
D02*
G37*
G36*
X3769947D02*
X3750056D01*
X3731679Y3025789D01*
X3717614Y3011724D01*
X3710002Y2993347D01*
Y2973456D01*
X3717614Y2955079D01*
X3731679Y2941013D01*
X3750056Y2933402D01*
X3769947D01*
X3788324Y2941013D01*
X3802390Y2955079D01*
X3810002Y2973456D01*
Y2993347D01*
X3802390Y3011724D01*
X3788324Y3025789D01*
X3769947Y3033401D01*
D02*
G37*
G36*
X1409946Y3025000D02*
X1390054D01*
X1371677Y3017388D01*
X1357612Y3003323D01*
X1350000Y2984946D01*
Y2965054D01*
X1357612Y2946677D01*
X1371677Y2932612D01*
X1390054Y2925000D01*
X1409946D01*
X1428323Y2932612D01*
X1442388Y2946677D01*
X1450000Y2965054D01*
Y2984946D01*
X1442388Y3003323D01*
X1428323Y3017388D01*
X1409946Y3025000D01*
D02*
G37*
G36*
X1609946Y3008403D02*
X1590054D01*
X1571677Y3000791D01*
X1557612Y2986726D01*
X1550000Y2968349D01*
Y2948457D01*
X1557612Y2930080D01*
X1571677Y2916015D01*
X1590054Y2908403D01*
X1609946D01*
X1628323Y2916015D01*
X1642388Y2930080D01*
X1650000Y2948457D01*
Y2968349D01*
X1642388Y2986726D01*
X1628323Y3000791D01*
X1609946Y3008403D01*
D02*
G37*
G36*
X212507Y3045000D02*
X187493D01*
X163332Y3038526D01*
X141669Y3026019D01*
X123981Y3008331D01*
X111475Y2986668D01*
X105000Y2962507D01*
Y2937493D01*
X111475Y2913331D01*
X123981Y2891669D01*
X141669Y2873981D01*
X163332Y2861474D01*
X187493Y2855000D01*
X212507D01*
X236669Y2861474D01*
X258331Y2873981D01*
X276019Y2891669D01*
X288526Y2913331D01*
X295000Y2937493D01*
Y2962507D01*
X288526Y2986668D01*
X276019Y3008331D01*
X258331Y3026019D01*
X236669Y3038526D01*
X212507Y3045000D01*
D02*
G37*
G36*
X4340240Y2914919D02*
Y2840240D01*
X4414920D01*
X4409613Y2860047D01*
X4397658Y2880752D01*
X4380753Y2897658D01*
X4360048Y2909612D01*
X4340240Y2914919D01*
D02*
G37*
G36*
X4309760Y2914919D02*
X4289953Y2909612D01*
X4269248Y2897658D01*
X4252343Y2880752D01*
X4240388Y2860047D01*
X4235081Y2840240D01*
X4309760D01*
Y2914919D01*
D02*
G37*
G36*
X3986243Y2910400D02*
X3963757D01*
X3942037Y2904580D01*
X3922563Y2893337D01*
X3906663Y2877437D01*
X3895420Y2857963D01*
X3889600Y2836243D01*
Y2813757D01*
X3895420Y2792037D01*
X3906663Y2772563D01*
X3922563Y2756663D01*
X3942037Y2745420D01*
X3963757Y2739600D01*
X3986243D01*
X4007963Y2745420D01*
X4027437Y2756663D01*
X4043337Y2772563D01*
X4054580Y2792037D01*
X4060400Y2813757D01*
Y2836243D01*
X4054580Y2857963D01*
X4043337Y2877437D01*
X4027437Y2893337D01*
X4007963Y2904580D01*
X3986243Y2910400D01*
D02*
G37*
G36*
X4309760Y2809760D02*
X4235081D01*
X4240388Y2789953D01*
X4252343Y2769247D01*
X4269248Y2752342D01*
X4289953Y2740388D01*
X4309760Y2735081D01*
Y2809760D01*
D02*
G37*
G36*
X4414920D02*
X4340240D01*
Y2735080D01*
X4360048Y2740388D01*
X4380753Y2752342D01*
X4397658Y2769247D01*
X4409613Y2789953D01*
X4414920Y2809760D01*
D02*
G37*
G36*
X1469948Y2808403D02*
X1450057D01*
X1431679Y2800791D01*
X1417614Y2786726D01*
X1410002Y2768349D01*
Y2748457D01*
X1417614Y2730080D01*
X1431679Y2716015D01*
X1450057Y2708403D01*
X1469948D01*
X1488325Y2716015D01*
X1502390Y2730080D01*
X1510002Y2748457D01*
Y2768349D01*
X1502390Y2786726D01*
X1488325Y2800791D01*
X1469948Y2808403D01*
D02*
G37*
G36*
X1269948D02*
X1250056D01*
X1231679Y2800791D01*
X1217614Y2786726D01*
X1210002Y2768349D01*
Y2748457D01*
X1217614Y2730080D01*
X1231679Y2716015D01*
X1250056Y2708403D01*
X1269948D01*
X1288325Y2716015D01*
X1302390Y2730080D01*
X1310002Y2748457D01*
Y2768349D01*
X1302390Y2786726D01*
X1288325Y2800791D01*
X1269948Y2808403D01*
D02*
G37*
G36*
X1069948D02*
X1050056D01*
X1031679Y2800791D01*
X1017614Y2786726D01*
X1010002Y2768349D01*
Y2748457D01*
X1017614Y2730080D01*
X1031679Y2716015D01*
X1050056Y2708403D01*
X1069948D01*
X1088325Y2716015D01*
X1102390Y2730080D01*
X1110002Y2748457D01*
Y2768349D01*
X1102390Y2786726D01*
X1088325Y2800791D01*
X1069948Y2808403D01*
D02*
G37*
G36*
X669947D02*
X650056D01*
X631679Y2800791D01*
X617614Y2786726D01*
X610002Y2768349D01*
Y2748457D01*
X617614Y2730080D01*
X631679Y2716015D01*
X650056Y2708403D01*
X669947D01*
X688325Y2716015D01*
X702390Y2730080D01*
X710002Y2748457D01*
Y2768349D01*
X702390Y2786726D01*
X688325Y2800791D01*
X669947Y2808403D01*
D02*
G37*
G36*
X469947D02*
X450056D01*
X431679Y2800791D01*
X417614Y2786726D01*
X410002Y2768349D01*
Y2748457D01*
X417614Y2730080D01*
X431679Y2716015D01*
X450056Y2708403D01*
X469947D01*
X488324Y2716015D01*
X502390Y2730080D01*
X510002Y2748457D01*
Y2768349D01*
X502390Y2786726D01*
X488324Y2800791D01*
X469947Y2808403D01*
D02*
G37*
G36*
X269947D02*
X250056D01*
X231679Y2800791D01*
X217613Y2786726D01*
X210002Y2768349D01*
Y2748457D01*
X217613Y2730080D01*
X231679Y2716015D01*
X250056Y2708403D01*
X269947D01*
X288324Y2716015D01*
X302390Y2730080D01*
X310001Y2748457D01*
Y2768349D01*
X302390Y2786726D01*
X288324Y2800791D01*
X269947Y2808403D01*
D02*
G37*
G36*
X3769947Y2808401D02*
X3750056D01*
X3731679Y2800789D01*
X3717614Y2786724D01*
X3710002Y2768347D01*
Y2748456D01*
X3717614Y2730079D01*
X3731679Y2716013D01*
X3750056Y2708401D01*
X3769947D01*
X3788324Y2716013D01*
X3802390Y2730079D01*
X3810002Y2748456D01*
Y2768347D01*
X3802390Y2786724D01*
X3788324Y2800789D01*
X3769947Y2808401D01*
D02*
G37*
G36*
X3459946Y2800000D02*
X3440054D01*
X3421677Y2792388D01*
X3407612Y2778323D01*
X3400000Y2759946D01*
Y2740054D01*
X3407612Y2721677D01*
X3421677Y2707612D01*
X3440054Y2700000D01*
X3459946D01*
X3478323Y2707612D01*
X3492388Y2721677D01*
X3500000Y2740054D01*
Y2759946D01*
X3492388Y2778323D01*
X3478323Y2792388D01*
X3459946Y2800000D01*
D02*
G37*
G36*
X2859946Y2650000D02*
X2840054D01*
X2821677Y2642388D01*
X2807612Y2628323D01*
X2800000Y2609946D01*
Y2590054D01*
X2807612Y2571677D01*
X2821677Y2557612D01*
X2840054Y2550000D01*
X2859946D01*
X2878323Y2557612D01*
X2892388Y2571677D01*
X2900000Y2590054D01*
Y2609946D01*
X2892388Y2628323D01*
X2878323Y2642388D01*
X2859946Y2650000D01*
D02*
G37*
G36*
X1469948Y2608403D02*
X1450057D01*
X1431679Y2600791D01*
X1417614Y2586726D01*
X1410002Y2568348D01*
Y2548457D01*
X1417614Y2530080D01*
X1431679Y2516015D01*
X1450057Y2508403D01*
X1469948D01*
X1488325Y2516015D01*
X1502390Y2530080D01*
X1510002Y2548457D01*
Y2568348D01*
X1502390Y2586726D01*
X1488325Y2600791D01*
X1469948Y2608403D01*
D02*
G37*
G36*
X1269948D02*
X1250056D01*
X1231679Y2600791D01*
X1217614Y2586726D01*
X1210002Y2568348D01*
Y2548457D01*
X1217614Y2530080D01*
X1231679Y2516015D01*
X1250056Y2508403D01*
X1269948D01*
X1288325Y2516015D01*
X1302390Y2530080D01*
X1310002Y2548457D01*
Y2568348D01*
X1302390Y2586726D01*
X1288325Y2600791D01*
X1269948Y2608403D01*
D02*
G37*
G36*
X1069948D02*
X1050056D01*
X1031679Y2600791D01*
X1017614Y2586726D01*
X1010002Y2568348D01*
Y2548457D01*
X1017614Y2530080D01*
X1031679Y2516015D01*
X1050056Y2508403D01*
X1069948D01*
X1088325Y2516015D01*
X1102390Y2530080D01*
X1110002Y2548457D01*
Y2568348D01*
X1102390Y2586726D01*
X1088325Y2600791D01*
X1069948Y2608403D01*
D02*
G37*
G36*
X669947D02*
X650056D01*
X631679Y2600791D01*
X617614Y2586726D01*
X610002Y2568348D01*
Y2548457D01*
X617614Y2530080D01*
X631679Y2516015D01*
X650056Y2508403D01*
X669947D01*
X688325Y2516015D01*
X702390Y2530080D01*
X710002Y2548457D01*
Y2568348D01*
X702390Y2586726D01*
X688325Y2600791D01*
X669947Y2608403D01*
D02*
G37*
G36*
X469947D02*
X450056D01*
X431679Y2600791D01*
X417614Y2586726D01*
X410002Y2568348D01*
Y2548457D01*
X417614Y2530080D01*
X431679Y2516015D01*
X450056Y2508403D01*
X469947D01*
X488324Y2516015D01*
X502390Y2530080D01*
X510002Y2548457D01*
Y2568348D01*
X502390Y2586726D01*
X488324Y2600791D01*
X469947Y2608403D01*
D02*
G37*
G36*
X269947D02*
X250056D01*
X231679Y2600791D01*
X217613Y2586726D01*
X210002Y2568348D01*
Y2548457D01*
X217613Y2530080D01*
X231679Y2516015D01*
X250056Y2508403D01*
X269947D01*
X288324Y2516015D01*
X302390Y2530080D01*
X310001Y2548457D01*
Y2568348D01*
X302390Y2586726D01*
X288324Y2600791D01*
X269947Y2608403D01*
D02*
G37*
G36*
X3769947Y2583401D02*
X3750056D01*
X3731679Y2575789D01*
X3717614Y2561724D01*
X3710002Y2543347D01*
Y2523456D01*
X3717614Y2505079D01*
X3731679Y2491013D01*
X3750056Y2483401D01*
X3769947D01*
X3788324Y2491013D01*
X3802390Y2505079D01*
X3810002Y2523456D01*
Y2543347D01*
X3802390Y2561724D01*
X3788324Y2575789D01*
X3769947Y2583401D01*
D02*
G37*
G36*
X3544947D02*
X3525056D01*
X3506679Y2575789D01*
X3492614Y2561724D01*
X3485002Y2543347D01*
Y2523456D01*
X3492614Y2505079D01*
X3506679Y2491013D01*
X3525056Y2483401D01*
X3544947D01*
X3563324Y2491013D01*
X3577390Y2505079D01*
X3585001Y2523456D01*
Y2543347D01*
X3577390Y2561724D01*
X3563324Y2575789D01*
X3544947Y2583401D01*
D02*
G37*
G36*
X3319947D02*
X3300056D01*
X3281679Y2575789D01*
X3267613Y2561724D01*
X3260002Y2543347D01*
Y2523456D01*
X3267613Y2505079D01*
X3281679Y2491013D01*
X3300056Y2483401D01*
X3319947D01*
X3338324Y2491013D01*
X3352390Y2505079D01*
X3360001Y2523456D01*
Y2543347D01*
X3352390Y2561724D01*
X3338324Y2575789D01*
X3319947Y2583401D01*
D02*
G37*
G36*
X3094947D02*
X3075056D01*
X3056679Y2575789D01*
X3042613Y2561724D01*
X3035002Y2543347D01*
Y2523456D01*
X3042613Y2505079D01*
X3056679Y2491013D01*
X3075056Y2483401D01*
X3094947D01*
X3113324Y2491013D01*
X3127389Y2505079D01*
X3135001Y2523456D01*
Y2543347D01*
X3127389Y2561724D01*
X3113324Y2575789D01*
X3094947Y2583401D01*
D02*
G37*
G36*
X4084946Y2500000D02*
X4065054D01*
X4046677Y2492388D01*
X4032612Y2478323D01*
X4025000Y2459946D01*
Y2440054D01*
X4032612Y2421677D01*
X4046677Y2407612D01*
X4065054Y2400000D01*
X4084946D01*
X4103323Y2407612D01*
X4117388Y2421677D01*
X4125000Y2440054D01*
Y2459946D01*
X4117388Y2478323D01*
X4103323Y2492388D01*
X4084946Y2500000D01*
D02*
G37*
G36*
X2884946D02*
X2865054D01*
X2846677Y2492388D01*
X2832612Y2478323D01*
X2825000Y2459946D01*
Y2440054D01*
X2832612Y2421677D01*
X2846677Y2407612D01*
X2865054Y2400000D01*
X2884946D01*
X2903323Y2407612D01*
X2917388Y2421677D01*
X2925000Y2440054D01*
Y2459946D01*
X2917388Y2478323D01*
X2903323Y2492388D01*
X2884946Y2500000D01*
D02*
G37*
G36*
X1469948Y2408403D02*
X1450057D01*
X1431679Y2400791D01*
X1417614Y2386725D01*
X1410002Y2368348D01*
Y2348457D01*
X1417614Y2330080D01*
X1431679Y2316015D01*
X1450057Y2308403D01*
X1469948D01*
X1488325Y2316015D01*
X1502390Y2330080D01*
X1510002Y2348457D01*
Y2368348D01*
X1502390Y2386725D01*
X1488325Y2400791D01*
X1469948Y2408403D01*
D02*
G37*
G36*
X1269948D02*
X1250056D01*
X1231679Y2400791D01*
X1217614Y2386725D01*
X1210002Y2368348D01*
Y2348457D01*
X1217614Y2330080D01*
X1231679Y2316015D01*
X1250056Y2308403D01*
X1269948D01*
X1288325Y2316015D01*
X1302390Y2330080D01*
X1310002Y2348457D01*
Y2368348D01*
X1302390Y2386725D01*
X1288325Y2400791D01*
X1269948Y2408403D01*
D02*
G37*
G36*
X1069948D02*
X1050056D01*
X1031679Y2400791D01*
X1017614Y2386725D01*
X1010002Y2368348D01*
Y2348457D01*
X1017614Y2330080D01*
X1031679Y2316015D01*
X1050056Y2308403D01*
X1069948D01*
X1088325Y2316015D01*
X1102390Y2330080D01*
X1110002Y2348457D01*
Y2368348D01*
X1102390Y2386725D01*
X1088325Y2400791D01*
X1069948Y2408403D01*
D02*
G37*
G36*
X669947D02*
X650056D01*
X631679Y2400791D01*
X617614Y2386725D01*
X610002Y2368348D01*
Y2348457D01*
X617614Y2330080D01*
X631679Y2316015D01*
X650056Y2308403D01*
X669947D01*
X688325Y2316015D01*
X702390Y2330080D01*
X710002Y2348457D01*
Y2368348D01*
X702390Y2386725D01*
X688325Y2400791D01*
X669947Y2408403D01*
D02*
G37*
G36*
X469947D02*
X450056D01*
X431679Y2400791D01*
X417614Y2386725D01*
X410002Y2368348D01*
Y2348457D01*
X417614Y2330080D01*
X431679Y2316015D01*
X450056Y2308403D01*
X469947D01*
X488324Y2316015D01*
X502390Y2330080D01*
X510002Y2348457D01*
Y2368348D01*
X502390Y2386725D01*
X488324Y2400791D01*
X469947Y2408403D01*
D02*
G37*
G36*
X269947D02*
X250056D01*
X231679Y2400791D01*
X217613Y2386725D01*
X210002Y2368348D01*
Y2348457D01*
X217613Y2330080D01*
X231679Y2316015D01*
X250056Y2308403D01*
X269947D01*
X288324Y2316015D01*
X302390Y2330080D01*
X310001Y2348457D01*
Y2368348D01*
X302390Y2386725D01*
X288324Y2400791D01*
X269947Y2408403D01*
D02*
G37*
G36*
X3769947Y2400000D02*
X3750056D01*
X3731679Y2392388D01*
X3717614Y2378323D01*
X3710002Y2359946D01*
Y2340055D01*
X3717614Y2321677D01*
X3731679Y2307612D01*
X3750056Y2300000D01*
X3769947D01*
X3788324Y2307612D01*
X3802390Y2321677D01*
X3810002Y2340055D01*
Y2359946D01*
X3802390Y2378323D01*
X3788324Y2392388D01*
X3769947Y2400000D01*
D02*
G37*
G36*
X3544947D02*
X3525056D01*
X3506679Y2392388D01*
X3492614Y2378323D01*
X3485002Y2359946D01*
Y2340055D01*
X3492614Y2321677D01*
X3506679Y2307612D01*
X3525056Y2300000D01*
X3544947D01*
X3563324Y2307612D01*
X3577390Y2321677D01*
X3585001Y2340055D01*
Y2359946D01*
X3577390Y2378323D01*
X3563324Y2392388D01*
X3544947Y2400000D01*
D02*
G37*
G36*
X3334946D02*
X3315054D01*
X3296677Y2392388D01*
X3282612Y2378323D01*
X3275000Y2359946D01*
Y2340055D01*
X3282612Y2321677D01*
X3296677Y2307612D01*
X3315054Y2300000D01*
X3334946D01*
X3353323Y2307612D01*
X3367388Y2321677D01*
X3375000Y2340055D01*
Y2359946D01*
X3367388Y2378323D01*
X3353323Y2392388D01*
X3334946Y2400000D01*
D02*
G37*
G36*
X3084946D02*
X3065054D01*
X3046677Y2392388D01*
X3032612Y2378323D01*
X3025000Y2359946D01*
Y2340055D01*
X3032612Y2321677D01*
X3046677Y2307612D01*
X3065054Y2300000D01*
X3084946D01*
X3103323Y2307612D01*
X3117388Y2321677D01*
X3125000Y2340055D01*
Y2359946D01*
X3117388Y2378323D01*
X3103323Y2392388D01*
X3084946Y2400000D01*
D02*
G37*
G36*
X3934946Y2250000D02*
X3915054D01*
X3896677Y2242388D01*
X3882612Y2228323D01*
X3875000Y2209946D01*
Y2190054D01*
X3882612Y2171677D01*
X3896677Y2157612D01*
X3915054Y2150000D01*
X3934946D01*
X3953323Y2157612D01*
X3967388Y2171677D01*
X3975000Y2190054D01*
Y2209946D01*
X3967388Y2228323D01*
X3953323Y2242388D01*
X3934946Y2250000D01*
D02*
G37*
G36*
X3784946D02*
X3765054D01*
X3746677Y2242388D01*
X3732612Y2228323D01*
X3725000Y2209946D01*
Y2190054D01*
X3732612Y2171677D01*
X3746677Y2157612D01*
X3765054Y2150000D01*
X3784946D01*
X3803323Y2157612D01*
X3817388Y2171677D01*
X3825000Y2190054D01*
Y2209946D01*
X3817388Y2228323D01*
X3803323Y2242388D01*
X3784946Y2250000D01*
D02*
G37*
G36*
X3659946D02*
X3640054D01*
X3621677Y2242388D01*
X3607612Y2228323D01*
X3600000Y2209946D01*
Y2190054D01*
X3607612Y2171677D01*
X3621677Y2157612D01*
X3640054Y2150000D01*
X3659946D01*
X3678323Y2157612D01*
X3692388Y2171677D01*
X3700000Y2190054D01*
Y2209946D01*
X3692388Y2228323D01*
X3678323Y2242388D01*
X3659946Y2250000D01*
D02*
G37*
G36*
X3534946D02*
X3515054D01*
X3496677Y2242388D01*
X3482612Y2228323D01*
X3475000Y2209946D01*
Y2190054D01*
X3482612Y2171677D01*
X3496677Y2157612D01*
X3515054Y2150000D01*
X3534946D01*
X3553323Y2157612D01*
X3567388Y2171677D01*
X3575000Y2190054D01*
Y2209946D01*
X3567388Y2228323D01*
X3553323Y2242388D01*
X3534946Y2250000D01*
D02*
G37*
G36*
X3334946D02*
X3315054D01*
X3296677Y2242388D01*
X3282612Y2228323D01*
X3275000Y2209946D01*
Y2190054D01*
X3282612Y2171677D01*
X3296677Y2157612D01*
X3315054Y2150000D01*
X3334946D01*
X3353323Y2157612D01*
X3367388Y2171677D01*
X3375000Y2190054D01*
Y2209946D01*
X3367388Y2228323D01*
X3353323Y2242388D01*
X3334946Y2250000D01*
D02*
G37*
G36*
X1469948Y2208402D02*
X1450057D01*
X1431679Y2200791D01*
X1417614Y2186725D01*
X1410002Y2168348D01*
Y2148457D01*
X1417614Y2130080D01*
X1431679Y2116015D01*
X1450057Y2108403D01*
X1469948D01*
X1488325Y2116015D01*
X1502390Y2130080D01*
X1510002Y2148457D01*
Y2168348D01*
X1502390Y2186725D01*
X1488325Y2200791D01*
X1469948Y2208402D01*
D02*
G37*
G36*
X1269948D02*
X1250056D01*
X1231679Y2200791D01*
X1217614Y2186725D01*
X1210002Y2168348D01*
Y2148457D01*
X1217614Y2130080D01*
X1231679Y2116015D01*
X1250056Y2108403D01*
X1269948D01*
X1288325Y2116015D01*
X1302390Y2130080D01*
X1310002Y2148457D01*
Y2168348D01*
X1302390Y2186725D01*
X1288325Y2200791D01*
X1269948Y2208402D01*
D02*
G37*
G36*
X1069948D02*
X1050056D01*
X1031679Y2200791D01*
X1017614Y2186725D01*
X1010002Y2168348D01*
Y2148457D01*
X1017614Y2130080D01*
X1031679Y2116015D01*
X1050056Y2108403D01*
X1069948D01*
X1088325Y2116015D01*
X1102390Y2130080D01*
X1110002Y2148457D01*
Y2168348D01*
X1102390Y2186725D01*
X1088325Y2200791D01*
X1069948Y2208402D01*
D02*
G37*
G36*
X669947D02*
X650056D01*
X631679Y2200791D01*
X617614Y2186725D01*
X610002Y2168348D01*
Y2148457D01*
X617614Y2130080D01*
X631679Y2116015D01*
X650056Y2108403D01*
X669947D01*
X688325Y2116015D01*
X702390Y2130080D01*
X710002Y2148457D01*
Y2168348D01*
X702390Y2186725D01*
X688325Y2200791D01*
X669947Y2208402D01*
D02*
G37*
G36*
X469947D02*
X450056D01*
X431679Y2200791D01*
X417614Y2186725D01*
X410002Y2168348D01*
Y2148457D01*
X417614Y2130080D01*
X431679Y2116015D01*
X450056Y2108403D01*
X469947D01*
X488324Y2116015D01*
X502390Y2130080D01*
X510002Y2148457D01*
Y2168348D01*
X502390Y2186725D01*
X488324Y2200791D01*
X469947Y2208402D01*
D02*
G37*
G36*
X269947D02*
X250056D01*
X231679Y2200791D01*
X217613Y2186725D01*
X210002Y2168348D01*
Y2148457D01*
X217613Y2130080D01*
X231679Y2116015D01*
X250056Y2108403D01*
X269947D01*
X288324Y2116015D01*
X302390Y2130080D01*
X310001Y2148457D01*
Y2168348D01*
X302390Y2186725D01*
X288324Y2200791D01*
X269947Y2208402D01*
D02*
G37*
G36*
X3134946Y2125000D02*
X3115054D01*
X3096677Y2117388D01*
X3082612Y2103323D01*
X3075000Y2084946D01*
Y2065054D01*
X3082612Y2046677D01*
X3096677Y2032612D01*
X3115054Y2025000D01*
X3134946D01*
X3153323Y2032612D01*
X3167388Y2046677D01*
X3175000Y2065054D01*
Y2084946D01*
X3167388Y2103323D01*
X3153323Y2117388D01*
X3134946Y2125000D01*
D02*
G37*
G36*
X4559946Y2102853D02*
X4540054D01*
X4521677Y2095241D01*
X4507612Y2081176D01*
X4500000Y2062799D01*
Y2042907D01*
X4507612Y2024530D01*
X4521677Y2010465D01*
X4540054Y2002853D01*
X4559946D01*
X4578323Y2010465D01*
X4592388Y2024530D01*
X4600000Y2042907D01*
Y2062799D01*
X4592388Y2081176D01*
X4578323Y2095241D01*
X4559946Y2102853D01*
D02*
G37*
G36*
X3334946Y2100000D02*
X3315054D01*
X3296677Y2092388D01*
X3282612Y2078323D01*
X3275000Y2059946D01*
Y2040054D01*
X3282612Y2021677D01*
X3296677Y2007612D01*
X3315054Y2000000D01*
X3334946D01*
X3353323Y2007612D01*
X3367388Y2021677D01*
X3375000Y2040054D01*
Y2059946D01*
X3367388Y2078323D01*
X3353323Y2092388D01*
X3334946Y2100000D01*
D02*
G37*
G36*
X3934946Y2075000D02*
X3915054D01*
X3896677Y2067388D01*
X3882612Y2053323D01*
X3875000Y2034946D01*
Y2015054D01*
X3882612Y1996677D01*
X3896677Y1982612D01*
X3915054Y1975000D01*
X3934946D01*
X3953323Y1982612D01*
X3967388Y1996677D01*
X3975000Y2015054D01*
Y2034946D01*
X3967388Y2053323D01*
X3953323Y2067388D01*
X3934946Y2075000D01*
D02*
G37*
G36*
X1469948Y2008402D02*
X1450057D01*
X1431679Y2000791D01*
X1417614Y1986725D01*
X1410002Y1968348D01*
Y1948457D01*
X1417614Y1930080D01*
X1431679Y1916014D01*
X1450057Y1908403D01*
X1469948D01*
X1488325Y1916014D01*
X1502390Y1930080D01*
X1510002Y1948457D01*
Y1968348D01*
X1502390Y1986725D01*
X1488325Y2000791D01*
X1469948Y2008402D01*
D02*
G37*
G36*
X890240Y1974858D02*
Y1890240D01*
X974858D01*
X968558Y1913753D01*
X955340Y1936647D01*
X936647Y1955340D01*
X913753Y1968558D01*
X890240Y1974858D01*
D02*
G37*
G36*
X859760D02*
X836247Y1968558D01*
X813353Y1955340D01*
X794660Y1936647D01*
X781442Y1913753D01*
X775142Y1890240D01*
X859760D01*
Y1974858D01*
D02*
G37*
G36*
X1187507Y1970000D02*
X1162493D01*
X1138332Y1963526D01*
X1116669Y1951019D01*
X1098982Y1933331D01*
X1086475Y1911669D01*
X1080000Y1887507D01*
Y1862493D01*
X1086475Y1838332D01*
X1098982Y1816669D01*
X1116669Y1798981D01*
X1138332Y1786474D01*
X1162493Y1780000D01*
X1187507D01*
X1211669Y1786474D01*
X1233331Y1798981D01*
X1251019Y1816669D01*
X1263526Y1838332D01*
X1270000Y1862493D01*
Y1887507D01*
X1263526Y1911669D01*
X1251019Y1933331D01*
X1233331Y1951019D01*
X1211669Y1963526D01*
X1187507Y1970000D01*
D02*
G37*
G36*
X974858Y1859760D02*
X890240D01*
Y1775142D01*
X913753Y1781442D01*
X936647Y1794660D01*
X955340Y1813353D01*
X968558Y1836247D01*
X974858Y1859760D01*
D02*
G37*
G36*
X859760D02*
X775142D01*
X781442Y1836247D01*
X794660Y1813353D01*
X813353Y1794660D01*
X836247Y1781442D01*
X859760Y1775142D01*
Y1859760D01*
D02*
G37*
G36*
X4559946Y1725000D02*
X4540054D01*
X4521677Y1717388D01*
X4507612Y1703323D01*
X4500000Y1684946D01*
Y1665054D01*
X4507612Y1646677D01*
X4521677Y1632612D01*
X4540054Y1625000D01*
X4559946D01*
X4578323Y1632612D01*
X4592388Y1646677D01*
X4600000Y1665054D01*
Y1684946D01*
X4592388Y1703323D01*
X4578323Y1717388D01*
X4559946Y1725000D01*
D02*
G37*
G36*
X3284946D02*
X3265054D01*
X3246677Y1717388D01*
X3232612Y1703323D01*
X3225000Y1684946D01*
Y1665054D01*
X3232612Y1646677D01*
X3246677Y1632612D01*
X3265054Y1625000D01*
X3284946D01*
X3303323Y1632612D01*
X3317388Y1646677D01*
X3325000Y1665054D01*
Y1684946D01*
X3317388Y1703323D01*
X3303323Y1717388D01*
X3284946Y1725000D01*
D02*
G37*
G36*
X4134946Y1700000D02*
X4115054D01*
X4096677Y1692388D01*
X4082612Y1678323D01*
X4075000Y1659946D01*
Y1640054D01*
X4082612Y1621677D01*
X4096677Y1607612D01*
X4115054Y1600000D01*
X4134946D01*
X4153323Y1607612D01*
X4167388Y1621677D01*
X4175000Y1640054D01*
Y1659946D01*
X4167388Y1678323D01*
X4153323Y1692388D01*
X4134946Y1700000D01*
D02*
G37*
G36*
X4009945D02*
X3990054D01*
X3971677Y1692388D01*
X3957612Y1678323D01*
X3950000Y1659946D01*
Y1640054D01*
X3957612Y1621677D01*
X3971677Y1607612D01*
X3990054Y1600000D01*
X4009945D01*
X4028322Y1607612D01*
X4042388Y1621677D01*
X4050000Y1640054D01*
Y1659946D01*
X4042388Y1678323D01*
X4028322Y1692388D01*
X4009945Y1700000D01*
D02*
G37*
G36*
X3809946D02*
X3790054D01*
X3771677Y1692388D01*
X3757612Y1678323D01*
X3750000Y1659946D01*
Y1640054D01*
X3757612Y1621677D01*
X3771677Y1607612D01*
X3790054Y1600000D01*
X3809946D01*
X3828323Y1607612D01*
X3842388Y1621677D01*
X3850000Y1640054D01*
Y1659946D01*
X3842388Y1678323D01*
X3828323Y1692388D01*
X3809946Y1700000D01*
D02*
G37*
G36*
X1190240Y1674858D02*
Y1590240D01*
X1274858D01*
X1268558Y1613753D01*
X1255340Y1636647D01*
X1236647Y1655340D01*
X1213753Y1668558D01*
X1190240Y1674858D01*
D02*
G37*
G36*
X1159760D02*
X1136247Y1668558D01*
X1113353Y1655340D01*
X1094660Y1636647D01*
X1081442Y1613753D01*
X1075142Y1590240D01*
X1159760D01*
Y1674858D01*
D02*
G37*
G36*
X3659946Y1650000D02*
X3640054D01*
X3621677Y1642388D01*
X3607612Y1628323D01*
X3600000Y1609946D01*
Y1590054D01*
X3607612Y1571677D01*
X3621677Y1557612D01*
X3640054Y1550000D01*
X3659946D01*
X3678323Y1557612D01*
X3692388Y1571677D01*
X3700000Y1590054D01*
Y1609946D01*
X3692388Y1628323D01*
X3678323Y1642388D01*
X3659946Y1650000D01*
D02*
G37*
G36*
X3484946D02*
X3465054D01*
X3446677Y1642388D01*
X3432612Y1628323D01*
X3425000Y1609946D01*
Y1590054D01*
X3432612Y1571677D01*
X3446677Y1557612D01*
X3465054Y1550000D01*
X3484946D01*
X3503323Y1557612D01*
X3517388Y1571677D01*
X3525000Y1590054D01*
Y1609946D01*
X3517388Y1628323D01*
X3503323Y1642388D01*
X3484946Y1650000D01*
D02*
G37*
G36*
X684946D02*
X665054D01*
X646677Y1642388D01*
X632612Y1628323D01*
X625000Y1609946D01*
Y1590054D01*
X632612Y1571677D01*
X646677Y1557612D01*
X665054Y1550000D01*
X684946D01*
X703323Y1557612D01*
X717388Y1571677D01*
X725000Y1590054D01*
Y1609946D01*
X717388Y1628323D01*
X703323Y1642388D01*
X684946Y1650000D01*
D02*
G37*
G36*
X1274858Y1559760D02*
X1190240D01*
Y1475142D01*
X1213753Y1481442D01*
X1236647Y1494660D01*
X1255340Y1513353D01*
X1268558Y1536247D01*
X1274858Y1559760D01*
D02*
G37*
G36*
X1159760D02*
X1075142D01*
X1081442Y1536247D01*
X1094660Y1513353D01*
X1113353Y1494660D01*
X1136247Y1481442D01*
X1159760Y1475142D01*
Y1559760D01*
D02*
G37*
G36*
X3809946Y1525000D02*
X3790054D01*
X3771677Y1517388D01*
X3757612Y1503323D01*
X3750000Y1484946D01*
Y1465054D01*
X3757612Y1446677D01*
X3771677Y1432612D01*
X3790054Y1425000D01*
X3809946D01*
X3828323Y1432612D01*
X3842388Y1446677D01*
X3850000Y1465054D01*
Y1484946D01*
X3842388Y1503323D01*
X3828323Y1517388D01*
X3809946Y1525000D01*
D02*
G37*
G36*
X3659946D02*
X3640054D01*
X3621677Y1517388D01*
X3607612Y1503323D01*
X3600000Y1484946D01*
Y1465054D01*
X3607612Y1446677D01*
X3621677Y1432612D01*
X3640054Y1425000D01*
X3659946D01*
X3678323Y1432612D01*
X3692388Y1446677D01*
X3700000Y1465054D01*
Y1484946D01*
X3692388Y1503323D01*
X3678323Y1517388D01*
X3659946Y1525000D01*
D02*
G37*
G36*
X3484946D02*
X3465054D01*
X3446677Y1517388D01*
X3432612Y1503323D01*
X3425000Y1484946D01*
Y1465054D01*
X3432612Y1446677D01*
X3446677Y1432612D01*
X3465054Y1425000D01*
X3484946D01*
X3503323Y1432612D01*
X3517388Y1446677D01*
X3525000Y1465054D01*
Y1484946D01*
X3517388Y1503323D01*
X3503323Y1517388D01*
X3484946Y1525000D01*
D02*
G37*
G36*
X4259946Y1475000D02*
X4240054D01*
X4221677Y1467388D01*
X4207612Y1453323D01*
X4200000Y1434946D01*
Y1415054D01*
X4207612Y1396677D01*
X4221677Y1382612D01*
X4240054Y1375000D01*
X4259946D01*
X4278323Y1382612D01*
X4292388Y1396677D01*
X4300000Y1415054D01*
Y1434946D01*
X4292388Y1453323D01*
X4278323Y1467388D01*
X4259946Y1475000D01*
D02*
G37*
G36*
X3969946Y1408400D02*
X3950055D01*
X3931677Y1400788D01*
X3917612Y1386723D01*
X3910000Y1368346D01*
Y1348455D01*
X3917612Y1330077D01*
X3931677Y1316012D01*
X3950055Y1308400D01*
X3969946D01*
X3988323Y1316012D01*
X4002388Y1330077D01*
X4010000Y1348455D01*
Y1368346D01*
X4002388Y1386723D01*
X3988323Y1400788D01*
X3969946Y1408400D01*
D02*
G37*
G36*
X3284946Y1325000D02*
X3265054D01*
X3246677Y1317388D01*
X3232612Y1303323D01*
X3225000Y1284946D01*
Y1265054D01*
X3232612Y1246677D01*
X3246677Y1232612D01*
X3265054Y1225000D01*
X3284946D01*
X3303323Y1232612D01*
X3317388Y1246677D01*
X3325000Y1265054D01*
Y1284946D01*
X3317388Y1303323D01*
X3303323Y1317388D01*
X3284946Y1325000D01*
D02*
G37*
G36*
X665240Y1249858D02*
Y1165240D01*
X749858D01*
X743558Y1188753D01*
X730340Y1211647D01*
X711647Y1230340D01*
X688753Y1243558D01*
X665240Y1249858D01*
D02*
G37*
G36*
X634760D02*
X611247Y1243558D01*
X588353Y1230340D01*
X569660Y1211647D01*
X556442Y1188753D01*
X550142Y1165240D01*
X634760D01*
Y1249858D01*
D02*
G37*
G36*
X3007000Y1195994D02*
Y1120000D01*
X3082995D01*
X3078229Y1137788D01*
X3065340Y1160112D01*
X3047112Y1178339D01*
X3024788Y1191228D01*
X3007000Y1195994D01*
D02*
G37*
G36*
X2967000D02*
X2949212Y1191228D01*
X2926888Y1178339D01*
X2908661Y1160112D01*
X2895772Y1137788D01*
X2891006Y1120000D01*
X2967000D01*
Y1195994D01*
D02*
G37*
G36*
X2753000D02*
Y1120000D01*
X2828995D01*
X2824228Y1137788D01*
X2811340Y1160112D01*
X2793112Y1178339D01*
X2770788Y1191228D01*
X2753000Y1195994D01*
D02*
G37*
G36*
X2713000D02*
X2695212Y1191228D01*
X2672888Y1178339D01*
X2654661Y1160112D01*
X2641772Y1137788D01*
X2637006Y1120000D01*
X2713000D01*
Y1195994D01*
D02*
G37*
G36*
X1669948Y1208402D02*
X1650057D01*
X1631679Y1200790D01*
X1617614Y1186725D01*
X1610002Y1168348D01*
Y1148456D01*
X1617614Y1130079D01*
X1631679Y1116014D01*
X1650057Y1108402D01*
X1669948D01*
X1688325Y1116014D01*
X1702390Y1130079D01*
X1710002Y1148456D01*
Y1168348D01*
X1702390Y1186725D01*
X1688325Y1200790D01*
X1669948Y1208402D01*
D02*
G37*
G36*
X3719946Y1158400D02*
X3700055D01*
X3681677Y1150788D01*
X3667612Y1136723D01*
X3660000Y1118346D01*
Y1098454D01*
X3667612Y1080077D01*
X3681677Y1066012D01*
X3700055Y1058400D01*
X3719946D01*
X3738323Y1066012D01*
X3752388Y1080077D01*
X3760000Y1098454D01*
Y1118346D01*
X3752388Y1136723D01*
X3738323Y1150788D01*
X3719946Y1158400D01*
D02*
G37*
G36*
X3469946D02*
X3450055D01*
X3431677Y1150788D01*
X3417612Y1136723D01*
X3410000Y1118346D01*
Y1098454D01*
X3417612Y1080077D01*
X3431677Y1066012D01*
X3450055Y1058400D01*
X3469946D01*
X3488323Y1066012D01*
X3502388Y1080077D01*
X3510000Y1098454D01*
Y1118346D01*
X3502388Y1136723D01*
X3488323Y1150788D01*
X3469946Y1158400D01*
D02*
G37*
G36*
X1862507Y1245000D02*
X1837493D01*
X1813332Y1238525D01*
X1791669Y1226018D01*
X1773981Y1208331D01*
X1761475Y1186668D01*
X1755000Y1162507D01*
Y1137493D01*
X1761475Y1113331D01*
X1773981Y1091669D01*
X1791669Y1073981D01*
X1813332Y1061474D01*
X1837493Y1055000D01*
X1862507D01*
X1886669Y1061474D01*
X1908331Y1073981D01*
X1926019Y1091669D01*
X1938526Y1113331D01*
X1945000Y1137493D01*
Y1162507D01*
X1938526Y1186668D01*
X1926019Y1208331D01*
X1908331Y1226018D01*
X1886669Y1238525D01*
X1862507Y1245000D01*
D02*
G37*
G36*
X749858Y1134760D02*
X665240D01*
Y1050142D01*
X688753Y1056442D01*
X711647Y1069660D01*
X730340Y1088353D01*
X743558Y1111247D01*
X749858Y1134760D01*
D02*
G37*
G36*
X634760D02*
X550142D01*
X556442Y1111247D01*
X569660Y1088353D01*
X588353Y1069660D01*
X611247Y1056442D01*
X634760Y1050142D01*
Y1134760D01*
D02*
G37*
G36*
X2491178Y1192500D02*
X2466822D01*
X2443297Y1186196D01*
X2422204Y1174018D01*
X2404982Y1156796D01*
X2392804Y1135703D01*
X2386500Y1112178D01*
Y1087822D01*
X2392804Y1064296D01*
X2404982Y1043204D01*
X2422204Y1025981D01*
X2443297Y1013804D01*
X2466822Y1007500D01*
X2491178D01*
X2514704Y1013804D01*
X2535796Y1025981D01*
X2553019Y1043204D01*
X2565196Y1064296D01*
X2571500Y1087822D01*
Y1112178D01*
X2565196Y1135703D01*
X2553019Y1156796D01*
X2535796Y1174018D01*
X2514704Y1186196D01*
X2491178Y1192500D01*
D02*
G37*
G36*
X2237178D02*
X2212822D01*
X2189297Y1186196D01*
X2168204Y1174018D01*
X2150982Y1156796D01*
X2138804Y1135703D01*
X2132500Y1112178D01*
Y1087822D01*
X2138804Y1064296D01*
X2150982Y1043204D01*
X2168204Y1025981D01*
X2189297Y1013804D01*
X2212822Y1007500D01*
X2237178D01*
X2260704Y1013804D01*
X2281796Y1025981D01*
X2299019Y1043204D01*
X2311196Y1064296D01*
X2317500Y1087822D01*
Y1112178D01*
X2311196Y1135703D01*
X2299019Y1156796D01*
X2281796Y1174018D01*
X2260704Y1186196D01*
X2237178Y1192500D01*
D02*
G37*
G36*
X3082995Y1080000D02*
X3007000D01*
Y1004005D01*
X3024788Y1008772D01*
X3047112Y1021660D01*
X3065340Y1039888D01*
X3078229Y1062212D01*
X3082995Y1080000D01*
D02*
G37*
G36*
X2967000D02*
X2891006D01*
X2895772Y1062212D01*
X2908661Y1039888D01*
X2926888Y1021660D01*
X2949212Y1008772D01*
X2967000Y1004005D01*
Y1080000D01*
D02*
G37*
G36*
X2828995D02*
X2753000D01*
Y1004005D01*
X2770788Y1008772D01*
X2793112Y1021660D01*
X2811340Y1039888D01*
X2824228Y1062212D01*
X2828995Y1080000D01*
D02*
G37*
G36*
X2713000D02*
X2637006D01*
X2641772Y1062212D01*
X2654661Y1039888D01*
X2672888Y1021660D01*
X2695212Y1008772D01*
X2713000Y1004005D01*
Y1080000D01*
D02*
G37*
G36*
X4365240Y1074858D02*
Y990240D01*
X4449858D01*
X4443558Y1013753D01*
X4430340Y1036647D01*
X4411647Y1055340D01*
X4388753Y1068558D01*
X4365240Y1074858D01*
D02*
G37*
G36*
X4334760D02*
X4311247Y1068558D01*
X4288353Y1055340D01*
X4269660Y1036647D01*
X4256442Y1013753D01*
X4250142Y990240D01*
X4334760D01*
Y1074858D01*
D02*
G37*
G36*
X2069948Y1008402D02*
X2050057D01*
X2031680Y1000790D01*
X2017614Y986725D01*
X2010003Y968348D01*
Y948456D01*
X2017614Y930079D01*
X2031680Y916014D01*
X2050057Y908402D01*
X2069948D01*
X2088325Y916014D01*
X2102391Y930079D01*
X2110002Y948456D01*
Y968348D01*
X2102391Y986725D01*
X2088325Y1000790D01*
X2069948Y1008402D01*
D02*
G37*
G36*
X1869948D02*
X1850057D01*
X1831680Y1000790D01*
X1817614Y986725D01*
X1810002Y968348D01*
Y948456D01*
X1817614Y930079D01*
X1831680Y916014D01*
X1850057Y908402D01*
X1869948D01*
X1888325Y916014D01*
X1902390Y930079D01*
X1910002Y948456D01*
Y968348D01*
X1902390Y986725D01*
X1888325Y1000790D01*
X1869948Y1008402D01*
D02*
G37*
G36*
X1669948D02*
X1650057D01*
X1631679Y1000790D01*
X1617614Y986725D01*
X1610002Y968348D01*
Y948456D01*
X1617614Y930079D01*
X1631679Y916014D01*
X1650057Y908402D01*
X1669948D01*
X1688325Y916014D01*
X1702390Y930079D01*
X1710002Y948456D01*
Y968348D01*
X1702390Y986725D01*
X1688325Y1000790D01*
X1669948Y1008402D01*
D02*
G37*
G36*
X1469948D02*
X1450057D01*
X1431679Y1000790D01*
X1417614Y986725D01*
X1410002Y968348D01*
Y948456D01*
X1417614Y930079D01*
X1431679Y916014D01*
X1450057Y908402D01*
X1469948D01*
X1488325Y916014D01*
X1502390Y930079D01*
X1510002Y948456D01*
Y968348D01*
X1502390Y986725D01*
X1488325Y1000790D01*
X1469948Y1008402D01*
D02*
G37*
G36*
X2359946Y1000000D02*
X2340055D01*
X2321677Y992388D01*
X2307612Y978323D01*
X2300000Y959946D01*
Y940054D01*
X2307612Y921677D01*
X2321677Y907612D01*
X2340055Y900000D01*
X2359946D01*
X2378323Y907612D01*
X2392388Y921677D01*
X2400000Y940054D01*
Y959946D01*
X2392388Y978323D01*
X2378323Y992388D01*
X2359946Y1000000D01*
D02*
G37*
G36*
X4062507Y1070000D02*
X4037493D01*
X4013332Y1063526D01*
X3991669Y1051019D01*
X3973981Y1033331D01*
X3961474Y1011669D01*
X3955000Y987507D01*
Y962493D01*
X3961474Y938332D01*
X3973422Y917639D01*
X3972015Y913901D01*
X3968108Y908400D01*
X3950055D01*
X3931677Y900788D01*
X3917612Y886723D01*
X3910000Y868346D01*
Y848454D01*
X3917612Y830077D01*
X3931677Y816012D01*
X3950055Y808400D01*
X3969946D01*
X3988323Y816012D01*
X4002388Y830077D01*
X4010000Y848454D01*
Y868346D01*
X4005370Y879524D01*
X4013310Y886487D01*
X4013332Y886475D01*
X4037493Y880001D01*
X4062507D01*
X4086668Y886475D01*
X4108331Y898982D01*
X4126019Y916669D01*
X4138526Y938332D01*
X4145000Y962493D01*
Y987507D01*
X4138526Y1011669D01*
X4126019Y1033331D01*
X4108331Y1051019D01*
X4086668Y1063526D01*
X4062507Y1070000D01*
D02*
G37*
G36*
X4449858Y959760D02*
X4365240D01*
Y875142D01*
X4388753Y881442D01*
X4411647Y894660D01*
X4430340Y913353D01*
X4443558Y936247D01*
X4449858Y959760D01*
D02*
G37*
G36*
X4334760D02*
X4250142D01*
X4256442Y936247D01*
X4269660Y913353D01*
X4288353Y894660D01*
X4311247Y881442D01*
X4334760Y875142D01*
Y959760D01*
D02*
G37*
G36*
X3719946Y908400D02*
X3700055D01*
X3681677Y900788D01*
X3667612Y886723D01*
X3660000Y868346D01*
Y848454D01*
X3667612Y830077D01*
X3681677Y816012D01*
X3700055Y808400D01*
X3719946D01*
X3738323Y816012D01*
X3752388Y830077D01*
X3760000Y848454D01*
Y868346D01*
X3752388Y886723D01*
X3738323Y900788D01*
X3719946Y908400D01*
D02*
G37*
G36*
X3469946D02*
X3450055D01*
X3431677Y900788D01*
X3417612Y886723D01*
X3410000Y868346D01*
Y848454D01*
X3417612Y830077D01*
X3431677Y816012D01*
X3450055Y808400D01*
X3469946D01*
X3488323Y816012D01*
X3502388Y830077D01*
X3510000Y848454D01*
Y868346D01*
X3502388Y886723D01*
X3488323Y900788D01*
X3469946Y908400D01*
D02*
G37*
G36*
X3219946D02*
X3200055D01*
X3181677Y900788D01*
X3167612Y886723D01*
X3160000Y868346D01*
Y848454D01*
X3167612Y830077D01*
X3181677Y816012D01*
X3200055Y808400D01*
X3219946D01*
X3238323Y816012D01*
X3252388Y830077D01*
X3260000Y848454D01*
Y868346D01*
X3252388Y886723D01*
X3238323Y900788D01*
X3219946Y908400D01*
D02*
G37*
G36*
X2069948Y808402D02*
X2050057D01*
X2031680Y800790D01*
X2017614Y786725D01*
X2010003Y768347D01*
Y748456D01*
X2017614Y730079D01*
X2031680Y716014D01*
X2050057Y708402D01*
X2069948D01*
X2088325Y716014D01*
X2102391Y730079D01*
X2110002Y748456D01*
Y768347D01*
X2102391Y786725D01*
X2088325Y800790D01*
X2069948Y808402D01*
D02*
G37*
G36*
X1869948D02*
X1850057D01*
X1831680Y800790D01*
X1817614Y786725D01*
X1810002Y768347D01*
Y748456D01*
X1817614Y730079D01*
X1831680Y716014D01*
X1850057Y708402D01*
X1869948D01*
X1888325Y716014D01*
X1902390Y730079D01*
X1910002Y748456D01*
Y768347D01*
X1902390Y786725D01*
X1888325Y800790D01*
X1869948Y808402D01*
D02*
G37*
G36*
X1669948D02*
X1650057D01*
X1631679Y800790D01*
X1617614Y786725D01*
X1610002Y768347D01*
Y748456D01*
X1617614Y730079D01*
X1631679Y716014D01*
X1650057Y708402D01*
X1669948D01*
X1688325Y716014D01*
X1702390Y730079D01*
X1710002Y748456D01*
Y768347D01*
X1702390Y786725D01*
X1688325Y800790D01*
X1669948Y808402D01*
D02*
G37*
G36*
X1469948D02*
X1450057D01*
X1431679Y800790D01*
X1417614Y786725D01*
X1410002Y768347D01*
Y748456D01*
X1417614Y730079D01*
X1431679Y716014D01*
X1450057Y708402D01*
X1469948D01*
X1488325Y716014D01*
X1502390Y730079D01*
X1510002Y748456D01*
Y768347D01*
X1502390Y786725D01*
X1488325Y800790D01*
X1469948Y808402D01*
D02*
G37*
G36*
X3410431Y790000D02*
X3373569D01*
X3337962Y780459D01*
X3306038Y762028D01*
X3279972Y735962D01*
X3261541Y704038D01*
X3252000Y668431D01*
Y650177D01*
X3242761Y646350D01*
X3238323Y650788D01*
X3219946Y658400D01*
X3200055D01*
X3181677Y650788D01*
X3167612Y636723D01*
X3160000Y618346D01*
Y598454D01*
X3167612Y580077D01*
X3181677Y566012D01*
X3200055Y558400D01*
X3219946D01*
X3238323Y566012D01*
X3252388Y580077D01*
X3255219Y586912D01*
X3266345Y587641D01*
X3279972Y564038D01*
X3306038Y537972D01*
X3337962Y519541D01*
X3373569Y510000D01*
X3410431D01*
X3446038Y519541D01*
X3477962Y537972D01*
X3504028Y564038D01*
X3522459Y595962D01*
X3532000Y631569D01*
Y668431D01*
X3522459Y704038D01*
X3504028Y735962D01*
X3477962Y762028D01*
X3446038Y780459D01*
X3410431Y790000D01*
D02*
G37*
G36*
X1130000Y669197D02*
Y580000D01*
X1219197D01*
X1214525Y597437D01*
X1198345Y625462D01*
X1175462Y648344D01*
X1147438Y664524D01*
X1130000Y669197D01*
D02*
G37*
G36*
X1070000D02*
X1052563Y664524D01*
X1024538Y648344D01*
X1001656Y625462D01*
X985476Y597437D01*
X980803Y580000D01*
X1070000D01*
Y669197D01*
D02*
G37*
G36*
X3969946Y658400D02*
X3950055D01*
X3931677Y650788D01*
X3917612Y636723D01*
X3910000Y618346D01*
Y598454D01*
X3917612Y580077D01*
X3931677Y566012D01*
X3950055Y558400D01*
X3969946D01*
X3988323Y566012D01*
X4002388Y580077D01*
X4010000Y598454D01*
Y618346D01*
X4002388Y636723D01*
X3988323Y650788D01*
X3969946Y658400D01*
D02*
G37*
G36*
X3719946D02*
X3700055D01*
X3681677Y650788D01*
X3667612Y636723D01*
X3660000Y618346D01*
Y598454D01*
X3667612Y580077D01*
X3681677Y566012D01*
X3700055Y558400D01*
X3719946D01*
X3738323Y566012D01*
X3752388Y580077D01*
X3760000Y598454D01*
Y618346D01*
X3752388Y636723D01*
X3738323Y650788D01*
X3719946Y658400D01*
D02*
G37*
G36*
X2418431Y790000D02*
X2381569D01*
X2345962Y780459D01*
X2314038Y762028D01*
X2287972Y735962D01*
X2269541Y704038D01*
X2260000Y668431D01*
Y631569D01*
X2269541Y595962D01*
X2287972Y564038D01*
X2314038Y537972D01*
X2345962Y519541D01*
X2381569Y510000D01*
X2418431D01*
X2454038Y519541D01*
X2485962Y537972D01*
X2512028Y564038D01*
X2530459Y595962D01*
X2540000Y631569D01*
Y668431D01*
X2530459Y704038D01*
X2512028Y735962D01*
X2485962Y762028D01*
X2454038Y780459D01*
X2418431Y790000D01*
D02*
G37*
G36*
X2069948Y608402D02*
X2050057D01*
X2031680Y600790D01*
X2017614Y586725D01*
X2010003Y568347D01*
Y548456D01*
X2017614Y530079D01*
X2031680Y516014D01*
X2050057Y508402D01*
X2069948D01*
X2088325Y516014D01*
X2102391Y530079D01*
X2110002Y548456D01*
Y568347D01*
X2102391Y586725D01*
X2088325Y600790D01*
X2069948Y608402D01*
D02*
G37*
G36*
X1869948D02*
X1850057D01*
X1831680Y600790D01*
X1817614Y586725D01*
X1810002Y568347D01*
Y548456D01*
X1817614Y530079D01*
X1831680Y516014D01*
X1850057Y508402D01*
X1869948D01*
X1888325Y516014D01*
X1902390Y530079D01*
X1910002Y548456D01*
Y568347D01*
X1902390Y586725D01*
X1888325Y600790D01*
X1869948Y608402D01*
D02*
G37*
G36*
X1615469Y667500D02*
X1584531D01*
X1554647Y659492D01*
X1527853Y644023D01*
X1505977Y622147D01*
X1490508Y595353D01*
X1482500Y565469D01*
Y534531D01*
X1490508Y504647D01*
X1505977Y477853D01*
X1527853Y455976D01*
X1554647Y440507D01*
X1584531Y432500D01*
X1615469D01*
X1645353Y440507D01*
X1672147Y455976D01*
X1694024Y477853D01*
X1709493Y504647D01*
X1717500Y534531D01*
Y565469D01*
X1709493Y595353D01*
X1694024Y622147D01*
X1672147Y644023D01*
X1645353Y659492D01*
X1615469Y667500D01*
D02*
G37*
G36*
X1219197Y520000D02*
X1130000D01*
Y430803D01*
X1147438Y435475D01*
X1175462Y451655D01*
X1198345Y474538D01*
X1214525Y502562D01*
X1219197Y520000D01*
D02*
G37*
G36*
X1070000D02*
X980803D01*
X985476Y502562D01*
X1001656Y474538D01*
X1024538Y451655D01*
X1052563Y435475D01*
X1070000Y430803D01*
Y520000D01*
D02*
G37*
G36*
X3410431Y450000D02*
X3373569D01*
X3337962Y440460D01*
X3306038Y422028D01*
X3279972Y395962D01*
X3267985Y375200D01*
X3256859Y375929D01*
X3252388Y386723D01*
X3238323Y400788D01*
X3219946Y408400D01*
X3200055D01*
X3181677Y400788D01*
X3167612Y386723D01*
X3160000Y368346D01*
Y348454D01*
X3167612Y330077D01*
X3181677Y316012D01*
X3200055Y308400D01*
X3219946D01*
X3238323Y316012D01*
X3242000Y319689D01*
X3252000Y315547D01*
Y291569D01*
X3261541Y255962D01*
X3279972Y224038D01*
X3306038Y197973D01*
X3337962Y179541D01*
X3373569Y170000D01*
X3410431D01*
X3446038Y179541D01*
X3477962Y197973D01*
X3504028Y224038D01*
X3522459Y255962D01*
X3532000Y291569D01*
Y328432D01*
X3522459Y364038D01*
X3504028Y395962D01*
X3477962Y422028D01*
X3446038Y440460D01*
X3410431Y450000D01*
D02*
G37*
G36*
X2069948Y408402D02*
X2050057D01*
X2031680Y400790D01*
X2017614Y386724D01*
X2010003Y368347D01*
Y348456D01*
X2017614Y330079D01*
X2031680Y316014D01*
X2050057Y308402D01*
X2069948D01*
X2088325Y316014D01*
X2102391Y330079D01*
X2110002Y348456D01*
Y368347D01*
X2102391Y386724D01*
X2088325Y400790D01*
X2069948Y408402D01*
D02*
G37*
G36*
X1869948D02*
X1850057D01*
X1831680Y400790D01*
X1817614Y386724D01*
X1810002Y368347D01*
Y348456D01*
X1817614Y330079D01*
X1831680Y316014D01*
X1850057Y308402D01*
X1869948D01*
X1888325Y316014D01*
X1902390Y330079D01*
X1910002Y348456D01*
Y368347D01*
X1902390Y386724D01*
X1888325Y400790D01*
X1869948Y408402D01*
D02*
G37*
G36*
X1669948D02*
X1650057D01*
X1631679Y400790D01*
X1617614Y386724D01*
X1610002Y368347D01*
Y348456D01*
X1617614Y330079D01*
X1631679Y316014D01*
X1650057Y308402D01*
X1669948D01*
X1688325Y316014D01*
X1702390Y330079D01*
X1710002Y348456D01*
Y368347D01*
X1702390Y386724D01*
X1688325Y400790D01*
X1669948Y408402D01*
D02*
G37*
G36*
X1469948D02*
X1450057D01*
X1431679Y400790D01*
X1417614Y386724D01*
X1410002Y368347D01*
Y348456D01*
X1417614Y330079D01*
X1431679Y316014D01*
X1450057Y308402D01*
X1469948D01*
X1488325Y316014D01*
X1502390Y330079D01*
X1510002Y348456D01*
Y368347D01*
X1502390Y386724D01*
X1488325Y400790D01*
X1469948Y408402D01*
D02*
G37*
G36*
X3969946Y408400D02*
X3950055D01*
X3931677Y400788D01*
X3917612Y386723D01*
X3910000Y368346D01*
Y348454D01*
X3917612Y330077D01*
X3931677Y316012D01*
X3950055Y308400D01*
X3969946D01*
X3988323Y316012D01*
X4002388Y330077D01*
X4010000Y348454D01*
Y368346D01*
X4002388Y386723D01*
X3988323Y400788D01*
X3969946Y408400D01*
D02*
G37*
G36*
X3719946D02*
X3700055D01*
X3681677Y400788D01*
X3667612Y386723D01*
X3660000Y368346D01*
Y348454D01*
X3667612Y330077D01*
X3681677Y316012D01*
X3700055Y308400D01*
X3719946D01*
X3738323Y316012D01*
X3752388Y330077D01*
X3760000Y348454D01*
Y368346D01*
X3752388Y386723D01*
X3738323Y400788D01*
X3719946Y408400D01*
D02*
G37*
G36*
X2418431Y450000D02*
X2381569D01*
X2345962Y440460D01*
X2314038Y422028D01*
X2287972Y395962D01*
X2269541Y364038D01*
X2260000Y328432D01*
Y291569D01*
X2269541Y255962D01*
X2287972Y224038D01*
X2314038Y197973D01*
X2345962Y179541D01*
X2381569Y170000D01*
X2418431D01*
X2454038Y179541D01*
X2485962Y197973D01*
X2512028Y224038D01*
X2530459Y255962D01*
X2540000Y291569D01*
Y328432D01*
X2530459Y364038D01*
X2512028Y395962D01*
X2485962Y422028D01*
X2454038Y440460D01*
X2418431Y450000D01*
D02*
G37*
G36*
X4600000Y670835D02*
X4557632Y667500D01*
X4516307Y657579D01*
X4477043Y641316D01*
X4440807Y619110D01*
X4408491Y591509D01*
X4380890Y559193D01*
X4358684Y522957D01*
X4342421Y483692D01*
X4332500Y442368D01*
X4329165Y400000D01*
X4332500Y357632D01*
X4342421Y316307D01*
X4358684Y277043D01*
X4380890Y240807D01*
X4408491Y208491D01*
X4440807Y180890D01*
X4477043Y158684D01*
X4516307Y142421D01*
X4557632Y132500D01*
X4600000Y129165D01*
X4642368Y132500D01*
X4683692Y142421D01*
X4722957Y158684D01*
X4759193Y180890D01*
X4791509Y208491D01*
X4819110Y240807D01*
X4841316Y277043D01*
X4857579Y316307D01*
X4867500Y357632D01*
X4870835Y400000D01*
X4867500Y442368D01*
X4857579Y483692D01*
X4841316Y522957D01*
X4819110Y559193D01*
X4791509Y591509D01*
X4759193Y619110D01*
X4722957Y641316D01*
X4683692Y657579D01*
X4642368Y667500D01*
X4600000Y670835D01*
D02*
G37*
G36*
X400000D02*
X357632Y667500D01*
X316307Y657579D01*
X277043Y641316D01*
X240807Y619110D01*
X208491Y591509D01*
X180890Y559193D01*
X158684Y522957D01*
X142421Y483692D01*
X132500Y442368D01*
X129165Y400000D01*
X132500Y357632D01*
X142421Y316307D01*
X158684Y277043D01*
X180890Y240807D01*
X208491Y208491D01*
X240807Y180890D01*
X277043Y158684D01*
X316307Y142421D01*
X357632Y132500D01*
X400000Y129165D01*
X442368Y132500D01*
X483692Y142421D01*
X522957Y158684D01*
X559193Y180890D01*
X591509Y208491D01*
X619110Y240807D01*
X641316Y277043D01*
X657579Y316307D01*
X667500Y357632D01*
X670835Y400000D01*
X667500Y442368D01*
X657579Y483692D01*
X641316Y522957D01*
X619110Y559193D01*
X591509Y591509D01*
X559193Y619110D01*
X522957Y641316D01*
X483692Y657579D01*
X442368Y667500D01*
X400000Y670835D01*
D02*
G37*
G36*
X2269948Y208401D02*
X2250057D01*
X2231680Y200790D01*
X2217615Y186724D01*
X2210003Y168347D01*
Y148456D01*
X2217615Y130079D01*
X2231680Y116013D01*
X2250057Y108402D01*
X2269948D01*
X2288325Y116013D01*
X2302391Y130079D01*
X2310002Y148456D01*
Y168347D01*
X2302391Y186724D01*
X2288325Y200790D01*
X2269948Y208401D01*
D02*
G37*
G36*
X2069948D02*
X2050057D01*
X2031680Y200790D01*
X2017614Y186724D01*
X2010003Y168347D01*
Y148456D01*
X2017614Y130079D01*
X2031680Y116013D01*
X2050057Y108402D01*
X2069948D01*
X2088325Y116013D01*
X2102391Y130079D01*
X2110002Y148456D01*
Y168347D01*
X2102391Y186724D01*
X2088325Y200790D01*
X2069948Y208401D01*
D02*
G37*
G36*
X1869948D02*
X1850057D01*
X1831680Y200790D01*
X1817614Y186724D01*
X1810002Y168347D01*
Y148456D01*
X1817614Y130079D01*
X1831680Y116013D01*
X1850057Y108402D01*
X1869948D01*
X1888325Y116013D01*
X1902390Y130079D01*
X1910002Y148456D01*
Y168347D01*
X1902390Y186724D01*
X1888325Y200790D01*
X1869948Y208401D01*
D02*
G37*
G36*
X1669948D02*
X1650057D01*
X1631679Y200790D01*
X1617614Y186724D01*
X1610002Y168347D01*
Y148456D01*
X1617614Y130079D01*
X1631679Y116013D01*
X1650057Y108402D01*
X1669948D01*
X1688325Y116013D01*
X1702390Y130079D01*
X1710002Y148456D01*
Y168347D01*
X1702390Y186724D01*
X1688325Y200790D01*
X1669948Y208401D01*
D02*
G37*
G36*
X1469948D02*
X1450057D01*
X1431679Y200790D01*
X1417614Y186724D01*
X1410002Y168347D01*
Y148456D01*
X1417614Y130079D01*
X1431679Y116013D01*
X1450057Y108402D01*
X1469948D01*
X1488325Y116013D01*
X1502390Y130079D01*
X1510002Y148456D01*
Y168347D01*
X1502390Y186724D01*
X1488325Y200790D01*
X1469948Y208401D01*
D02*
G37*
%LPD*%
D32*
X875000Y1875000D02*
D03*
X1175000Y1575000D02*
D03*
X650000Y1150000D02*
D03*
X4500000Y3450000D02*
D03*
X4350000Y975000D02*
D03*
X200000Y3250000D02*
D03*
X4200000Y3450000D02*
D03*
X1850000Y1150000D02*
D03*
X4050000Y975000D02*
D03*
X1175000Y1875000D02*
D03*
X200000Y2950000D02*
D03*
D33*
X1013000Y4750000D02*
D03*
X1521000D02*
D03*
X2987000Y1100000D02*
D03*
X2733000D02*
D03*
X2150000Y4750000D02*
D03*
X2404000D02*
D03*
X1521000Y4450000D02*
D03*
X1013000D02*
D03*
X2150000D02*
D03*
X2404000D02*
D03*
X2658000Y4750000D02*
D03*
X2912000D02*
D03*
Y4450000D02*
D03*
X2658000D02*
D03*
X2225000Y1100000D02*
D03*
X2479000D02*
D03*
X1267000Y4750000D02*
D03*
X1267000Y4450000D02*
D03*
X1775000Y4750000D02*
D03*
Y4450000D02*
D03*
D34*
X1100000Y550000D02*
D03*
X3950000Y4475000D02*
D03*
X3450000D02*
D03*
X1600000Y550000D02*
D03*
D35*
X4325000Y2825000D02*
D03*
X3975000D02*
D03*
D37*
X3392000Y650000D02*
D03*
Y310000D02*
D03*
X2400000Y650000D02*
D03*
Y310000D02*
D03*
D38*
X4600000Y400000D02*
D03*
X4600000Y4600000D02*
D03*
X400000Y400000D02*
D03*
Y4600000D02*
D03*
D39*
X675000Y1600000D02*
D03*
X200000Y1358402D02*
D03*
X860002Y1500000D02*
D03*
X1500000Y4125000D02*
D03*
X1170000Y3550000D02*
D03*
X1800000Y3375000D02*
D03*
X3050000Y3550000D02*
D03*
X2625000Y3750000D02*
D03*
X2500000Y3875000D02*
D03*
X2725000Y1750000D02*
D03*
X200000Y1125000D02*
D03*
X4800000D02*
D03*
Y3875000D02*
D03*
X200000D02*
D03*
X4325000Y4000000D02*
D03*
X4500000Y3625000D02*
D03*
X4375000Y2200000D02*
D03*
X3125000Y1675000D02*
D03*
Y1275000D02*
D03*
X450000Y3300000D02*
D03*
X1400000Y3150000D02*
D03*
X1100000Y3250000D02*
D03*
X1075000Y1350000D02*
D03*
Y950000D02*
D03*
X2325000Y4125000D02*
D03*
X4250000Y2450000D02*
D03*
X2250000Y3125000D02*
D03*
Y3000000D02*
D03*
X2650000D02*
D03*
Y3125000D02*
D03*
X2518750Y3000000D02*
D03*
Y3125000D02*
D03*
X2381250Y3000000D02*
D03*
Y3125000D02*
D03*
X2850000Y3050000D02*
D03*
X3050000Y3075000D02*
D03*
X2000000Y3150000D02*
D03*
X3275000Y3075000D02*
D03*
X3450000Y2925000D02*
D03*
X260002Y3558403D02*
D03*
X460002Y958402D02*
D03*
Y1158402D02*
D03*
Y1358402D02*
D03*
Y3558403D02*
D03*
Y3758403D02*
D03*
X660002Y758402D02*
D03*
Y958402D02*
D03*
Y1358402D02*
D03*
Y3758403D02*
D03*
X860002Y158402D02*
D03*
Y358402D02*
D03*
Y558402D02*
D03*
Y758402D02*
D03*
Y958402D02*
D03*
Y1358402D02*
D03*
Y2158403D02*
D03*
Y4158404D02*
D03*
Y4358404D02*
D03*
Y4558404D02*
D03*
X1060002Y158402D02*
D03*
Y358402D02*
D03*
Y758402D02*
D03*
X1260002Y158402D02*
D03*
Y358402D02*
D03*
Y758402D02*
D03*
X1460002Y1558402D02*
D03*
Y3358403D02*
D03*
Y3558403D02*
D03*
Y3758403D02*
D03*
Y3958404D02*
D03*
X1660002Y1558402D02*
D03*
X1860002D02*
D03*
X2060002D02*
D03*
X2260003D02*
D03*
Y3958404D02*
D03*
X2460003Y1558402D02*
D03*
X2660003D02*
D03*
Y1958402D02*
D03*
Y2158403D02*
D03*
Y3958404D02*
D03*
X2860003Y158402D02*
D03*
Y358402D02*
D03*
Y558402D02*
D03*
Y758402D02*
D03*
Y958402D02*
D03*
Y1558402D02*
D03*
Y2158403D02*
D03*
Y3758403D02*
D03*
X3060003Y958402D02*
D03*
Y3758403D02*
D03*
X3260003Y3558403D02*
D03*
X3460003Y3158403D02*
D03*
Y3358403D02*
D03*
X4260004Y3158403D02*
D03*
Y4158404D02*
D03*
Y4358404D02*
D03*
X4460004Y1158402D02*
D03*
Y2358403D02*
D03*
Y2558403D02*
D03*
Y2758403D02*
D03*
Y2958403D02*
D03*
Y3158403D02*
D03*
Y4158404D02*
D03*
X4660004Y958402D02*
D03*
Y1358402D02*
D03*
Y1558402D02*
D03*
Y1758402D02*
D03*
Y1958402D02*
D03*
Y2158403D02*
D03*
Y2358403D02*
D03*
Y2558403D02*
D03*
Y2758403D02*
D03*
Y2958403D02*
D03*
Y3158403D02*
D03*
Y3758403D02*
D03*
X3950000Y4775000D02*
D03*
X4175000D02*
D03*
X775000Y4750000D02*
D03*
X2850000Y3175000D02*
D03*
X3050000Y3225000D02*
D03*
X3275000D02*
D03*
X1800000Y3150000D02*
D03*
X2550000Y4125000D02*
D03*
X250000Y3758403D02*
D03*
X750000Y3200000D02*
D03*
Y3350000D02*
D03*
X625000D02*
D03*
X850000Y2350000D02*
D03*
X750000Y3875000D02*
D03*
Y4225000D02*
D03*
X375000Y4200000D02*
D03*
X400000Y3875000D02*
D03*
X2800000Y1350000D02*
D03*
X2975000D02*
D03*
X3925000Y2025000D02*
D03*
Y2200000D02*
D03*
X3325000D02*
D03*
Y2050000D02*
D03*
X3525000Y2200000D02*
D03*
X3650000D02*
D03*
X3775000D02*
D03*
X3050000Y3400000D02*
D03*
X4075000Y2450000D02*
D03*
X2850000Y2600000D02*
D03*
X3325000Y2350000D02*
D03*
X3075000D02*
D03*
X3535002D02*
D03*
X3760002D02*
D03*
X3985002Y3208402D02*
D03*
X3310002Y4783402D02*
D03*
X3760002Y3433402D02*
D03*
Y3883402D02*
D03*
Y2758401D02*
D03*
X3535002Y3883402D02*
D03*
X2860001Y4108402D02*
D03*
X3760002D02*
D03*
Y3658402D02*
D03*
Y3208402D02*
D03*
X3310002Y4108402D02*
D03*
Y3883402D02*
D03*
X3985002Y3433402D02*
D03*
X3535002Y4108402D02*
D03*
Y4783402D02*
D03*
X3985002Y2983401D02*
D03*
X3085001Y2533401D02*
D03*
X3535002D02*
D03*
X3760002Y2983401D02*
D03*
X3310002Y2533401D02*
D03*
X3760002D02*
D03*
X3450000Y2750000D02*
D03*
X2875000Y2450000D02*
D03*
X3125000Y2075000D02*
D03*
X3120000Y4520000D02*
D03*
X3700000Y4475000D02*
D03*
X3120000Y4650000D02*
D03*
X3535002Y3658402D02*
D03*
X4125000Y1650000D02*
D03*
X4000000D02*
D03*
X3275000Y1675000D02*
D03*
X3650000Y1600000D02*
D03*
X3475000D02*
D03*
X3800000Y1475000D02*
D03*
X3475000D02*
D03*
X3210000Y358400D02*
D03*
Y608400D02*
D03*
Y858400D02*
D03*
X3460000D02*
D03*
Y1108400D02*
D03*
X3710000Y358400D02*
D03*
Y608400D02*
D03*
Y858400D02*
D03*
Y1108400D02*
D03*
X3960000Y358400D02*
D03*
Y608400D02*
D03*
Y858400D02*
D03*
Y1358400D02*
D03*
X3275000Y1275000D02*
D03*
X3650000Y1475000D02*
D03*
X1075000Y3855000D02*
D03*
X1220000Y4000000D02*
D03*
X1075000D02*
D03*
Y4145000D02*
D03*
X1220000Y3855000D02*
D03*
Y4145000D02*
D03*
X260002Y2158403D02*
D03*
Y2358403D02*
D03*
Y2558403D02*
D03*
Y2758403D02*
D03*
X460002Y2158403D02*
D03*
Y2358403D02*
D03*
Y2558403D02*
D03*
Y2758403D02*
D03*
X660002Y2158403D02*
D03*
Y2358403D02*
D03*
Y2558403D02*
D03*
Y2758403D02*
D03*
X1400000Y2975000D02*
D03*
X2350000Y950000D02*
D03*
X1600000Y2958403D02*
D03*
X2260003Y158402D02*
D03*
X2060002Y958402D02*
D03*
Y758402D02*
D03*
Y558402D02*
D03*
Y358402D02*
D03*
Y158402D02*
D03*
X1860002Y958402D02*
D03*
Y758402D02*
D03*
Y558402D02*
D03*
Y358402D02*
D03*
Y158402D02*
D03*
X1660002Y1158402D02*
D03*
Y958402D02*
D03*
Y758402D02*
D03*
Y358402D02*
D03*
Y158402D02*
D03*
X1460002Y958402D02*
D03*
Y758402D02*
D03*
Y358402D02*
D03*
Y158402D02*
D03*
X1939999Y4358399D02*
D03*
Y3938399D02*
D03*
Y3798399D02*
D03*
X1799999Y4078399D02*
D03*
Y3938399D02*
D03*
Y3798399D02*
D03*
X1659999Y4078399D02*
D03*
Y3938399D02*
D03*
Y3798399D02*
D03*
X1460002Y2758403D02*
D03*
Y2558403D02*
D03*
Y2358403D02*
D03*
Y2158403D02*
D03*
Y1958402D02*
D03*
X1260002Y2758403D02*
D03*
Y2558403D02*
D03*
Y2358403D02*
D03*
Y2158403D02*
D03*
X1060002Y2758403D02*
D03*
Y2558403D02*
D03*
Y2358403D02*
D03*
Y2158403D02*
D03*
X1200000Y3375000D02*
D03*
X4550000Y2052853D02*
D03*
Y1675000D02*
D03*
X2075000Y3600000D02*
D03*
X4250000Y1425000D02*
D03*
X3800000Y1650000D02*
D03*
%TF.MD5,9dbe92cc7b7410aaa60751633340fbea*%
M02*
