%TF.GenerationSoftware,Altium Limited,Altium Designer,26.2.0 (7)*%
G04 Layer_Color=16711935*
%FSLAX45Y45*%
%MOMM*%
%TF.SameCoordinates,E7199F77-2B10-486C-9E1B-3672863A5405*%
%TF.FilePolarity,Negative*%
%TF.FileFunction,Soldermask,Bot*%
%TF.Part,Single*%
G01*
G75*
%TA.AperFunction,ComponentPad*%
%ADD57C,1.60160*%
%ADD58C,1.55160*%
%ADD59C,2.05160*%
%ADD60C,1.40960*%
%ADD61R,1.55160X1.55160*%
%ADD62C,2.50160*%
%ADD63C,4.10160*%
D57*
X875000Y1875000D02*
D03*
X1175000Y1575000D02*
D03*
X650000Y1150000D02*
D03*
X4500000Y3450000D02*
D03*
X4350000Y975000D02*
D03*
X200000Y3250000D02*
D03*
X4200000Y3450000D02*
D03*
X1850000Y1150000D02*
D03*
X4050000Y975000D02*
D03*
X1175000Y1875000D02*
D03*
X200000Y2950000D02*
D03*
D58*
X1013000Y4750000D02*
D03*
X1521000D02*
D03*
X2987000Y1100000D02*
D03*
X2733000D02*
D03*
X2150000Y4750000D02*
D03*
X2404000D02*
D03*
X1521000Y4450000D02*
D03*
X1013000D02*
D03*
X2150000D02*
D03*
X2404000D02*
D03*
X2658000Y4750000D02*
D03*
Y4450000D02*
D03*
X2479000Y1100000D02*
D03*
X1267000Y4750000D02*
D03*
X1267000Y4450000D02*
D03*
D59*
X1100000Y550000D02*
D03*
X3950000Y4475000D02*
D03*
X3450000D02*
D03*
X1600000Y550000D02*
D03*
D60*
X4325000Y2825000D02*
D03*
X3975000D02*
D03*
D61*
X2912000Y4750000D02*
D03*
Y4450000D02*
D03*
X2225000Y1100000D02*
D03*
X1775000Y4750000D02*
D03*
Y4450000D02*
D03*
D62*
X3392000Y650000D02*
D03*
Y310000D02*
D03*
X2400000Y650000D02*
D03*
Y310000D02*
D03*
D63*
X4600000Y400000D02*
D03*
X4600000Y4600000D02*
D03*
X400000Y400000D02*
D03*
Y4600000D02*
D03*
%TF.MD5,daad410c9d89083c14ca903f836bdb1e*%
M02*
