M48
;Layer_Color=9474304
;FILE_FORMAT=4:4
METRIC,LZ
;TYPE=PLATED
T01F00S00C0.3000
T02F00S00C0.8000
T03F00S00C1.0000
T04F00S00C1.1000
T05F00S00C1.3000
T06F00S00C1.6000
T07F00S00C3.2000
%
T01
X00086Y0001584
Y0003584
Y0005584
Y0007584
X00066
Y0009584
X00046
Y0011584
Y0013584
X00066
X00086
X001075Y00135
Y00095
X00106Y0007584
X00126
Y0003584
X00106
Y0001584
X00126
X00086Y0009584
X0002Y001125
Y0013584
X00166Y0011584
Y0009584
X00186
X00206
Y0007584
Y0005584
Y0003584
Y0001584
X00226
X00186
Y0003584
Y0005584
Y0007584
X00166
X00146
Y0009584
Y0003584
X00166
Y0001584
X00146
X00286
Y0003584
Y0005584
Y0007584
Y0009584
X00306
X00321Y0008584
Y0006084
Y0003584
X00371
Y0006084
Y0008584
X00346
Y0011084
X00371
X00396Y0008584
Y0006084
Y0003584
Y0013584
X00425Y001425
X00446Y0011584
X0048Y001125
X00466Y0009584
Y0013584
X003275Y001275
X003125
X002975Y00135
X0028
X00235Y00095
X00226Y0015584
X00206
X00186
X00166
X00146
Y0019584
Y0021584
Y0023584
Y0025584
Y0027584
X0016Y0029584
X0018Y00315
X002
X00225Y003125
Y003
X00238125
Y003125
X00251875
Y003
X00265
Y003125
X00285Y003175
Y00305
X00305Y003075
Y003225
Y0034
Y00355
X00306Y0037584
X00286
X002625Y00375
X00266Y0039584
X0025Y003875
X00255Y004125
X002325
X00226Y0039584
X00194Y0039384
Y0037984
X0018
Y0039384
Y0040784
X00166
Y0039384
Y0037984
X00146Y0037584
Y0035584
Y0033584
X0018Y003375
X002075Y0036
X00194Y0043584
X0015Y004125
X00146Y0039584
X00286Y0041084
X00331
Y0038834
X003535
X00376
Y0041084
X003535
Y0036584
X00376
Y0034334
Y0032084
X003985
Y0034334
Y0029834
X00376
Y0027584
Y0025334
Y00235
X003775Y0022
X00365
X003525
X003535Y00235
Y0025334
X00331
X003325Y00235
Y0022
Y00205
X003125Y002075
X003075Y00235
X003085Y0025334
X002875Y00245
X00285Y0026
X00286Y0021584
X00266
Y0019584
X002725Y00175
X00266Y0015584
X00246
X00286
X003125Y001675
X003275
X003475Y0016
Y001475
X00365
Y0016
X0038Y00165
Y001475
X004Y00165
X004125
X00455Y001675
X00466Y0017584
Y0015584
Y0019584
Y0021584
Y0023584
X00446
Y0025584
Y0027584
Y0029584
Y0031584
X00426
X00466
Y0029584
Y0027584
Y0025584
X00425Y00245
X004075
X003925Y0022
Y002025
X004375Y0022
X00455Y00205285
X0045Y003625
X00466Y0037584
X0048Y003875
X004325Y004
X00426Y0041584
Y0043584
X00446Y0041584
X004175Y004775
X00395
X003535Y0047834
X00331
X00312Y00465
Y00452
X0037Y004475
X00326Y0035584
X003275Y003225
Y003075
X00346Y0031584
Y0033584
X00345Y002925
Y00275
X00126Y0027584
Y0025584
Y0023584
Y0021584
X00106
X00086
X00066
X00046
X00026
Y0023584
Y0025584
Y0027584
X00046
Y0025584
Y0023584
X00066
X00085Y00235
X00106Y0023584
Y0025584
Y0027584
X00066
Y0025584
X00075Y0032
Y00335
X000625
X00045Y0033
X00046Y0035584
X00026
X00025Y0037584
X0002Y003875
X0004
X00046Y0037584
X00066
X00075Y003875
X001075Y003855
Y004
X00122
Y003855
Y004145
X001075
X00086Y0041584
X00075Y004225
X00086Y0043584
Y0045584
X000775Y00475
X000375Y0042
X00117Y00355
X0012Y003375
X0011Y00325
X0014Y00315
Y002975
X00086Y0015
X000675Y0016
T02
X003975Y002825
X004325
T03
X00065Y00115
X00185
X00405Y000975
X00435Y000975
X0045Y00345
X0042
X0002Y00325
Y00295
X000875Y001875
X001175
Y001575
T04
X002225Y0011
X002479
X002733
X002987
X002912Y00445
X002658
X002404
X00215
Y00475
X002404
X002658
X002912
X001775
X001521
Y00445
X001775
X001267
X001013
Y00475
X001267
T05
X0011Y00055
X0016
X00345Y004475
X00395
T06
X0024Y00031
Y00065
X003392
Y00031
T07
X0004Y0004
X0046
X0046Y0046
X0004
M30
