G04*
G04 #@! TF.GenerationSoftware,Altium Limited,Altium Designer,26.2.0 (7)*
G04*
G04 Layer_Color=8421504*
%FSLAX25Y25*%
%MOIN*%
G70*
G04*
G04 #@! TF.SameCoordinates,A17541DE-411A-4C9E-BDE1-C10256C3B53C*
G04*
G04*
G04 #@! TF.FilePolarity,Positive*
G04*
G01*
G75*
%ADD18R,0.12205X0.09449*%
%ADD19R,0.01772X0.08465*%
%ADD20R,0.03150X0.03543*%
%ADD21R,0.08600X0.06500*%
%ADD22R,0.03543X0.03150*%
%ADD23R,0.04370X0.05787*%
%ADD24R,0.05787X0.04370*%
%ADD25R,0.01772X0.04134*%
%ADD26R,0.03200X0.03500*%
%ADD27R,0.04724X0.02559*%
%ADD28R,0.01100X0.02800*%
G04:AMPARAMS|DCode=29|XSize=35.43mil|YSize=31.5mil|CornerRadius=0mil|HoleSize=0mil|Usage=FLASHONLY|Rotation=135.000|XOffset=0mil|YOffset=0mil|HoleType=Round|Shape=Rectangle|*
%AMROTATEDRECTD29*
4,1,4,0.02366,-0.00139,0.00139,-0.02366,-0.02366,0.00139,-0.00139,0.02366,0.02366,-0.00139,0.0*
%
%ADD29ROTATEDRECTD29*%

%ADD30R,0.08700X0.31500*%
%ADD31R,0.07500X0.03500*%
G36*
X139251Y73433D02*
Y79733D01*
X148151D01*
Y73433D01*
X139251D01*
D02*
G37*
D18*
X96438Y119983D02*
D03*
D19*
X103940Y131300D02*
D03*
X98938Y131301D02*
D03*
X93940Y131300D02*
D03*
X88939Y131300D02*
D03*
X103935Y108660D02*
D03*
X98935D02*
D03*
X93936Y108659D02*
D03*
X88936D02*
D03*
D20*
X51181Y159449D02*
D03*
X56693D02*
D03*
X166339Y90551D02*
D03*
X98425Y147638D02*
D03*
X75787Y129921D02*
D03*
X75787Y135827D02*
D03*
X123425Y61024D02*
D03*
X115748Y133858D02*
D03*
X160827Y90551D02*
D03*
X128937Y61024D02*
D03*
X36417Y132874D02*
D03*
X41929D02*
D03*
X110236Y133858D02*
D03*
X92913Y141732D02*
D03*
X98425D02*
D03*
X81299Y135827D02*
D03*
Y129921D02*
D03*
X92913Y147638D02*
D03*
D21*
X42323Y45276D02*
D03*
X170086Y149606D02*
D03*
X156686D02*
D03*
X55723Y45276D02*
D03*
D22*
X18701Y67323D02*
D03*
X43898Y123031D02*
D03*
X17717Y125000D02*
D03*
X111417Y113976D02*
D03*
X111811Y69291D02*
D03*
X12795Y67323D02*
D03*
X111417Y108465D02*
D03*
X117717Y74803D02*
D03*
X6890Y67323D02*
D03*
Y72835D02*
D03*
X18701D02*
D03*
X161417Y72244D02*
D03*
X117717Y69291D02*
D03*
X17717Y119488D02*
D03*
X43898Y117520D02*
D03*
X12795Y72835D02*
D03*
X87205Y141535D02*
D03*
Y147047D02*
D03*
X24606Y72835D02*
D03*
X24606Y67323D02*
D03*
X111811Y74803D02*
D03*
X100394Y91929D02*
D03*
X161417Y77756D02*
D03*
X100394Y97441D02*
D03*
D23*
X78937Y116142D02*
D03*
X78937Y107087D02*
D03*
X71850Y107087D02*
D03*
X71850Y116142D02*
D03*
D24*
X128740Y114370D02*
D03*
X119685Y114370D02*
D03*
Y107283D02*
D03*
X128740D02*
D03*
D25*
X172441Y81102D02*
D03*
X167323Y70866D02*
D03*
X175000Y81102D02*
D03*
X169882D02*
D03*
X167323D02*
D03*
X169882Y70866D02*
D03*
X172441D02*
D03*
X175000D02*
D03*
D26*
X87374Y162402D02*
D03*
D27*
X36220Y123228D02*
D03*
Y119488D02*
D03*
Y126969D02*
D03*
X24606D02*
D03*
Y119488D02*
D03*
D28*
X139862Y68503D02*
D03*
X142421D02*
D03*
X144980D02*
D03*
X147539D02*
D03*
Y81103D02*
D03*
X144980D02*
D03*
X142421D02*
D03*
X139862D02*
D03*
D29*
X171280Y50217D02*
D03*
X175177Y54114D02*
D03*
D30*
X68898Y84646D02*
D03*
X91398D02*
D03*
D31*
X79724Y162402D02*
D03*
M02*
