G04*
G04 #@! TF.GenerationSoftware,Altium Limited,Altium Designer,26.2.0 (7)*
G04*
G04 Layer_Color=8388736*
%FSLAX25Y25*%
%MOIN*%
G70*
G04*
G04 #@! TF.SameCoordinates,A17541DE-411A-4C9E-BDE1-C10256C3B53C*
G04*
G04*
G04 #@! TF.FilePolarity,Negative*
G04*
G01*
G75*
%ADD18R,0.12205X0.09449*%
%ADD21R,0.08600X0.06500*%
%ADD25R,0.01772X0.04134*%
%ADD26R,0.03200X0.03500*%
%ADD27R,0.04724X0.02559*%
%ADD28R,0.01100X0.02800*%
%ADD30R,0.08700X0.31500*%
%ADD31R,0.07500X0.03500*%
%ADD32R,0.03550X0.03943*%
%ADD33R,0.03943X0.03550*%
%ADD34R,0.04770X0.06187*%
%ADD35R,0.06187X0.04770*%
%ADD36R,0.01968X0.08661*%
G04:AMPARAMS|DCode=37|XSize=39.43mil|YSize=35.5mil|CornerRadius=0mil|HoleSize=0mil|Usage=FLASHONLY|Rotation=135.000|XOffset=0mil|YOffset=0mil|HoleType=Round|Shape=Rectangle|*
%AMROTATEDRECTD37*
4,1,4,0.02649,-0.00139,0.00139,-0.02649,-0.02649,0.00139,-0.00139,0.02649,0.02649,-0.00139,0.0*
%
%ADD37ROTATEDRECTD37*%

%ADD38C,0.04337*%
%ADD39C,0.06306*%
%ADD40C,0.06109*%
%ADD41C,0.08077*%
%ADD42C,0.05550*%
%ADD43R,0.06109X0.06109*%
%ADD44C,0.09849*%
%ADD45C,0.16148*%
G36*
X139251Y73433D02*
Y79733D01*
X148151D01*
Y73433D01*
X139251D01*
D02*
G37*
D18*
X96438Y119983D02*
D03*
D21*
X42323Y45276D02*
D03*
X170086Y149606D02*
D03*
X156686D02*
D03*
X55723Y45276D02*
D03*
D25*
X172441Y81102D02*
D03*
X167323Y70866D02*
D03*
X175000Y81102D02*
D03*
X169882D02*
D03*
X167323D02*
D03*
X169882Y70866D02*
D03*
X172441D02*
D03*
X175000D02*
D03*
D26*
X87374Y162402D02*
D03*
D27*
X36220Y123228D02*
D03*
Y119488D02*
D03*
Y126969D02*
D03*
X24606D02*
D03*
Y119488D02*
D03*
D28*
X139862Y68503D02*
D03*
X142421D02*
D03*
X144980D02*
D03*
X147539D02*
D03*
Y81103D02*
D03*
X144980D02*
D03*
X142421D02*
D03*
X139862D02*
D03*
D30*
X68898Y84646D02*
D03*
X91398D02*
D03*
D31*
X79724Y162402D02*
D03*
D32*
X51181Y159449D02*
D03*
X56693D02*
D03*
X166339Y90551D02*
D03*
X41929Y139764D02*
D03*
X115748Y139764D02*
D03*
X98425Y147638D02*
D03*
X75787Y129921D02*
D03*
X75787Y135827D02*
D03*
X123425Y61024D02*
D03*
Y55118D02*
D03*
X115748Y133858D02*
D03*
X160827Y90551D02*
D03*
X128937Y61024D02*
D03*
Y55118D02*
D03*
X33169Y112795D02*
D03*
X27657D02*
D03*
X36417Y132874D02*
D03*
X41929D02*
D03*
X36417Y139764D02*
D03*
X110236Y133858D02*
D03*
Y139764D02*
D03*
X92913Y141732D02*
D03*
X98425D02*
D03*
X81299Y135827D02*
D03*
Y129921D02*
D03*
X92913Y147638D02*
D03*
D33*
X18701Y67323D02*
D03*
X7874Y39961D02*
D03*
Y156693D02*
D03*
X188976Y156890D02*
D03*
Y39961D02*
D03*
X43898Y123031D02*
D03*
X17717Y125000D02*
D03*
X49803Y123031D02*
D03*
X111417Y113976D02*
D03*
X111811Y69291D02*
D03*
X12795Y67323D02*
D03*
X111417Y108465D02*
D03*
X117717Y74803D02*
D03*
X6890Y67323D02*
D03*
Y72835D02*
D03*
X18701D02*
D03*
X7874Y34449D02*
D03*
X161417Y72244D02*
D03*
X117717Y69291D02*
D03*
X17717Y119488D02*
D03*
X43898Y117520D02*
D03*
X49803D02*
D03*
X12795Y72835D02*
D03*
X87205Y141535D02*
D03*
Y147047D02*
D03*
X24606Y72835D02*
D03*
X24606Y67323D02*
D03*
X111811Y74803D02*
D03*
X100394Y91929D02*
D03*
X161417Y77756D02*
D03*
X100394Y97441D02*
D03*
X188976Y34449D02*
D03*
Y162402D02*
D03*
X7874Y162205D02*
D03*
D34*
X78937Y116142D02*
D03*
X78937Y107087D02*
D03*
X71850Y107087D02*
D03*
X71850Y116142D02*
D03*
D35*
X128740Y114370D02*
D03*
X119685Y114370D02*
D03*
Y107283D02*
D03*
X128740D02*
D03*
D36*
X88937Y108661D02*
D03*
X103937D02*
D03*
X98937Y131299D02*
D03*
X93937Y131299D02*
D03*
X88937D02*
D03*
X98937Y108661D02*
D03*
X93937Y108661D02*
D03*
X103937Y131299D02*
D03*
D37*
X171280Y50217D02*
D03*
X175177Y54114D02*
D03*
D38*
X30512Y139764D02*
D03*
X104331D02*
D03*
X171260Y61024D02*
D03*
X178150D02*
D03*
D39*
X34449Y73819D02*
D03*
X46260Y62008D02*
D03*
X25591Y45276D02*
D03*
X177165Y135827D02*
D03*
X171260Y38386D02*
D03*
X7874Y127953D02*
D03*
X165354Y135827D02*
D03*
X72835Y45276D02*
D03*
X159449Y38386D02*
D03*
X46260Y73819D02*
D03*
X7874Y116142D02*
D03*
D40*
X39882Y187008D02*
D03*
X59882D02*
D03*
X117598Y43307D02*
D03*
X107598D02*
D03*
X84646Y187008D02*
D03*
X94646D02*
D03*
X59882Y175197D02*
D03*
X39882D02*
D03*
X84646D02*
D03*
X94646D02*
D03*
X104646Y187008D02*
D03*
Y175197D02*
D03*
X97598Y43307D02*
D03*
X49882Y187008D02*
D03*
X49882Y175197D02*
D03*
D41*
X43307Y21654D02*
D03*
X155512Y176181D02*
D03*
X135827D02*
D03*
X62992Y21654D02*
D03*
D42*
X170276Y111221D02*
D03*
X156496D02*
D03*
D43*
X114646Y187008D02*
D03*
Y175197D02*
D03*
X87598Y43307D02*
D03*
X69882Y187008D02*
D03*
Y175197D02*
D03*
D44*
X133543Y25591D02*
D03*
Y12205D02*
D03*
X94488Y25591D02*
D03*
Y12205D02*
D03*
D45*
X181102Y15748D02*
D03*
X181102Y181102D02*
D03*
X15748Y15748D02*
D03*
Y181102D02*
D03*
M02*
