G04*
G04 #@! TF.GenerationSoftware,Altium Limited,Altium Designer,26.2.0 (7)*
G04*
G04 Layer_Color=32896*
%FSLAX25Y25*%
%MOIN*%
G70*
G04*
G04 #@! TF.SameCoordinates,A17541DE-411A-4C9E-BDE1-C10256C3B53C*
G04*
G04*
G04 #@! TF.FilePolarity,Positive*
G04*
G01*
G75*
%ADD10C,0.00787*%
%ADD14C,0.00591*%
%ADD15C,0.00984*%
%ADD62C,0.00800*%
G36*
X189961Y142717D02*
X187008Y139764D01*
X192913D01*
X189961Y142717D01*
D02*
G37*
D10*
X194882Y181102D02*
G03*
X194882Y181102I-13780J0D01*
G01*
X29735Y159449D02*
G03*
X29735Y159449I-7097J0D01*
G01*
X29528Y181102D02*
G03*
X29528Y181102I-13780J0D01*
G01*
Y15748D02*
G03*
X29528Y15748I-13780J0D01*
G01*
X194882D02*
G03*
X194882Y15748I-13780J0D01*
G01*
X188779Y52559D02*
X190354Y54134D01*
X188779Y52559D02*
X191535D01*
X188649Y51180D02*
X189961D01*
X189305D01*
Y47901D01*
X189961Y47245D01*
X190617D01*
X191272Y47901D01*
X95144Y165682D02*
X95799Y166338D01*
X97111D01*
X97767Y165682D01*
Y163058D01*
X97111Y162402D01*
X95799D01*
X95144Y163058D01*
Y164370D01*
X96455D01*
X93832Y162402D02*
Y166338D01*
X91208Y162402D01*
Y166338D01*
X89896D02*
Y162402D01*
X87928D01*
X87272Y163058D01*
Y165682D01*
X87928Y166338D01*
X89896D01*
X100719Y54134D02*
X98095D01*
X99407Y55446D02*
Y52822D01*
X96783Y56102D02*
Y52166D01*
X94815D01*
X94159Y52822D01*
Y53478D01*
X94815Y54134D01*
X96783D01*
X94815D01*
X94159Y54790D01*
Y55446D01*
X94815Y56102D01*
X96783D01*
X92847Y52166D02*
Y54790D01*
X91535Y56102D01*
X90223Y54790D01*
Y52166D01*
Y54134D01*
X92847D01*
X88912Y56102D02*
X86288D01*
X87600D01*
Y52166D01*
X84976Y56102D02*
X82352D01*
X83664D01*
Y52166D01*
X112860Y55446D02*
X113516Y56102D01*
X114828D01*
X115484Y55446D01*
Y52822D01*
X114828Y52166D01*
X113516D01*
X112860Y52822D01*
Y54134D01*
X114172D01*
X111548Y52166D02*
Y56102D01*
X108924Y52166D01*
Y56102D01*
X107612D02*
Y52166D01*
X105645D01*
X104989Y52822D01*
Y55446D01*
X105645Y56102D01*
X107612D01*
X118764Y164370D02*
X116140D01*
X117452Y165682D02*
Y163058D01*
X114829Y162402D02*
X113517D01*
X114173D01*
Y166338D01*
X114829Y165682D01*
X111549Y162402D02*
X110237D01*
X110893D01*
Y166338D01*
X111549Y165682D01*
X108269Y166338D02*
Y163714D01*
X106957Y162402D01*
X105645Y163714D01*
Y166338D01*
X57412Y166339D02*
X54789D01*
X56100Y167650D02*
Y165027D01*
X53477Y167650D02*
X52821Y168306D01*
X51509D01*
X50853Y167650D01*
Y166995D01*
X51509Y166339D01*
X52165D01*
X51509D01*
X50853Y165683D01*
Y165027D01*
X51509Y164371D01*
X52821D01*
X53477Y165027D01*
X49541Y168306D02*
Y165683D01*
X48229Y164371D01*
X46917Y165683D01*
Y168306D01*
X45605Y167650D02*
X44949Y168306D01*
X43637D01*
X42981Y167650D01*
Y166995D01*
X43637Y166339D01*
X44293D01*
X43637D01*
X42981Y165683D01*
Y165027D01*
X43637Y164371D01*
X44949D01*
X45605Y165027D01*
X76114Y166339D02*
X73490D01*
X74802Y167650D02*
Y165027D01*
X69554Y168306D02*
X72178D01*
Y166339D01*
X70866Y166995D01*
X70210D01*
X69554Y166339D01*
Y165027D01*
X70210Y164371D01*
X71522D01*
X72178Y165027D01*
X68242Y168306D02*
Y165683D01*
X66930Y164371D01*
X65618Y165683D01*
Y168306D01*
X37074Y167650D02*
X37730Y168306D01*
X39042D01*
X39698Y167650D01*
Y165027D01*
X39042Y164371D01*
X37730D01*
X37074Y165027D01*
Y166339D01*
X38386D01*
X59712Y167650D02*
X60368Y168306D01*
X61680D01*
X62336Y167650D01*
Y165027D01*
X61680Y164371D01*
X60368D01*
X59712Y165027D01*
Y166339D01*
X61024D01*
X62205Y95473D02*
Y99409D01*
X60237D01*
X59581Y98753D01*
Y97441D01*
X60237Y96785D01*
X62205D01*
X57613Y95473D02*
X56301D01*
X55645Y96129D01*
Y97441D01*
X56301Y98097D01*
X57613D01*
X58269Y97441D01*
Y96129D01*
X57613Y95473D01*
X54333Y98097D02*
Y96129D01*
X53677Y95473D01*
X53021Y96129D01*
X52365Y95473D01*
X51709Y96129D01*
Y98097D01*
X48430Y95473D02*
X49742D01*
X50397Y96129D01*
Y97441D01*
X49742Y98097D01*
X48430D01*
X47774Y97441D01*
Y96785D01*
X50397D01*
X46462Y98097D02*
Y95473D01*
Y96785D01*
X45806Y97441D01*
X45150Y98097D01*
X44494D01*
X38590Y99409D02*
Y95473D01*
X36622D01*
X35967Y96129D01*
Y96785D01*
X36622Y97441D01*
X38590D01*
X36622D01*
X35967Y98097D01*
Y98753D01*
X36622Y99409D01*
X38590D01*
X33999Y95473D02*
X32687D01*
X32031Y96129D01*
Y97441D01*
X32687Y98097D01*
X33999D01*
X34655Y97441D01*
Y96129D01*
X33999Y95473D01*
X30063Y98097D02*
X28751D01*
X28095Y97441D01*
Y95473D01*
X30063D01*
X30719Y96129D01*
X30063Y96785D01*
X28095D01*
X26783Y98097D02*
Y95473D01*
Y96785D01*
X26127Y97441D01*
X25471Y98097D01*
X24815D01*
X20223Y99409D02*
Y95473D01*
X22191D01*
X22847Y96129D01*
Y97441D01*
X22191Y98097D01*
X20223D01*
X14976D02*
X13664Y95473D01*
X12352Y98097D01*
X11040Y95473D02*
X9728D01*
X10384D01*
Y99409D01*
X11040Y98753D01*
X7760Y95473D02*
Y96129D01*
X7104D01*
Y95473D01*
X7760D01*
X4481D02*
X3169D01*
X3825D01*
Y99409D01*
X4481Y98753D01*
X64960Y11811D02*
X61024D01*
X62992Y9843D02*
Y13779D01*
X45275Y11811D02*
X41339D01*
X153544Y184252D02*
X157480D01*
X133859D02*
X137795D01*
X135827Y186220D02*
Y182284D01*
X25262Y163385D02*
Y155513D01*
X21326D01*
X20014Y156825D01*
Y162073D01*
X21326Y163385D01*
X25262D01*
D14*
X62402Y87402D02*
Y90551D01*
X60827D01*
X60303Y90026D01*
Y88976D01*
X60827Y88452D01*
X62402D01*
X61352D02*
X60303Y87402D01*
X59253Y90551D02*
X57154D01*
Y90026D01*
X59253Y87927D01*
Y87402D01*
X57154D01*
D15*
X189961Y118110D02*
Y139764D01*
Y56102D02*
Y118110D01*
X104331Y50197D02*
X122047D01*
X82677D02*
X100394D01*
X79724Y168307D02*
X98032D01*
X101378D02*
X119095D01*
D62*
X166398Y167717D02*
X163774D01*
X165086Y169028D02*
Y166405D01*
X162462Y165749D02*
X161150D01*
X161806D01*
Y169684D01*
X162462Y169028D01*
X159182Y165749D02*
X157870D01*
X158526D01*
Y169684D01*
X159182Y169028D01*
X155902Y169684D02*
Y167061D01*
X154590Y165749D01*
X153279Y167061D01*
Y169684D01*
X146063D02*
X147375D01*
X148031Y169028D01*
Y166405D01*
X147375Y165749D01*
X146063D01*
X145407Y166405D01*
Y169028D01*
X146063Y169684D01*
X144095D02*
Y166405D01*
X143439Y165749D01*
X142127D01*
X141471Y166405D01*
Y169684D01*
X140159D02*
X137536D01*
X138847D01*
Y165749D01*
X136224D02*
Y169684D01*
X134256D01*
X133600Y169028D01*
Y167717D01*
X134256Y167061D01*
X136224D01*
X132288Y169684D02*
Y166405D01*
X131632Y165749D01*
X130320D01*
X129664Y166405D01*
Y169684D01*
X128352D02*
X125728D01*
X127040D01*
Y165749D01*
X73812Y33858D02*
X71188D01*
X72500Y35170D02*
Y32546D01*
X69876Y35826D02*
Y31890D01*
X67909D01*
X67253Y32546D01*
Y33202D01*
X67909Y33858D01*
X69876D01*
X67909D01*
X67253Y34514D01*
Y35170D01*
X67909Y35826D01*
X69876D01*
X65941Y31890D02*
Y34514D01*
X64629Y35826D01*
X63317Y34514D01*
Y31890D01*
Y33858D01*
X65941D01*
X62005Y35826D02*
X59381D01*
X60693D01*
Y31890D01*
X58069Y35826D02*
X55445D01*
X56757D01*
Y31890D01*
X50198Y35826D02*
X48886D01*
X49542D01*
Y31890D01*
X50198D01*
X48886D01*
X46918D02*
Y35826D01*
X44294Y31890D01*
Y35826D01*
X42982Y31890D02*
Y35826D01*
X41014D01*
X40358Y35170D01*
Y33858D01*
X41014Y33202D01*
X42982D01*
X39046Y35826D02*
Y32546D01*
X38390Y31890D01*
X37079D01*
X36423Y32546D01*
Y35826D01*
X35111D02*
X32487D01*
X33799D01*
Y31890D01*
M02*
