M48
;Layer_Color=9474304
;FILE_FORMAT=2:5
INCH
;TYPE=PLATED
T01F00S00C0.01181
T02F00S00C0.03150
T03F00S00C0.03937
T04F00S00C0.04331
T05F00S00C0.05118
T06F00S00C0.06299
T07F00S00C0.12598
%
T01
X0133858Y0106236
Y0114110
Y0121984
Y0129858
X0125984
Y0137732
X0118110
Y0145606
Y0153480
X0125984
X0133858
X0142323Y0153150
Y0137402
X0141732Y0129858
X0149606
Y0114110
X0141732
Y0106236
X0149606
X0133858Y0137732
X0107874Y0144291
Y0153480
X0165354Y0145606
Y0137732
X0173228
X0181103
Y0129858
Y0121984
Y0114110
Y0106236
X0188977
X0173228
Y0114110
Y0121984
Y0129858
X0165354
X0157480
Y0137732
Y0114110
X0165354
Y0106236
X0157480
X0212598
Y0114110
Y0121984
Y0129858
Y0137732
X0220473
X0226378Y0133795
Y0123953
Y0114110
X0246063
Y0123953
Y0133795
X0236221
Y0143638
X0246063
X0255906Y0133795
Y0123953
Y0114110
Y0153480
X0267323Y0156102
X0275591Y0145606
X0288976Y0144291
X0283465Y0137732
Y0153480
X0228937Y0150197
X0223031
X0217126Y0153150
X0210236
X0192520Y0137402
X0188977Y0161354
X0181103
X0173228
X0165354
X0157480
Y0177102
Y0184976
Y0192850
Y0200725
Y0208598
X0162992Y0216473
X0170866Y0224016
X0178740
X0188583Y0223031
Y0218110
X0193750
Y0223031
X0199163
Y0218110
X0204331
Y0223031
X0212205Y0225000
Y0220079
X0220079Y0221063
Y0226969
Y0233858
Y0239764
X0220473Y0247969
X0212598
X0203346Y0247638
X0204725Y0255843
X0198425Y0252559
X0200394Y0262402
X0191535
X0188977Y0255843
X0176378Y0255055
Y0249543
X0170866
Y0255055
Y0260567
X0165354
Y0255055
Y0249543
X0157480Y0247969
X0158071Y0252559
Y0264370
X0157480Y0240095
Y0232221
X0170866Y0232874
X0181693Y0241732
X0176378Y0271590
X0212598Y0261748
X0230315
Y0252890
X0239173
X0248032
Y0261748
X0239173
Y0244032
X0248032
Y0235173
Y0226315
X0256890
Y0235173
Y0217457
X0248032
Y0208598
Y0199740
Y0192520
X0248622Y0186614
X0243701
X0238779
X0239173Y0192520
Y0199740
X0230315
X0230906Y0192520
Y0186614
Y0180709
X0223031Y0181693
X0221063Y0192520
X0221457Y0199740
X0213189Y0196457
X0212205Y0202362
X0212598Y0184976
X0204725
Y0177102
X0207283Y0168898
X0204725Y0161354
X0196851
X0212598
X0223031Y0165945
X0228937
X0236811Y0162992
Y0158071
X0243701
Y0162992
X0249606Y0164961
Y0158071
X0257480Y0164961
X0262402
X0279134Y0165945
X0283465Y0169228
Y0161354
Y0177102
Y0184976
Y0192850
X0275591
Y0200725
Y0208598
Y0216473
Y0224347
X0267717
X0283465
Y0216473
Y0208598
Y0200725
X0267323Y0196457
X0260433
X0254528Y0186614
Y0179724
X0272244Y0186614
X0279134Y0180821
X0277165Y0242717
X0283465Y0247969
X0288976Y0252559
X0270276Y0257480
X0267717Y0263717
Y0271591
X0275591Y0263717
X0264370Y0287992
X0255512
X0239173Y0288323
X0230315
X0222835Y0283071
Y0277953
X0245669Y0276181
X0228347Y0240095
X0228937Y0226969
Y0221063
X0236221Y0224347
Y0232221
X0235827Y0215158
Y0208268
X0149606Y0208598
Y0200725
Y0192850
Y0184976
X0141732
X0133858
X0125984
X0118110
X0110236
Y0192850
Y0200725
Y0208598
X0118110
Y0200725
Y0192850
X0125984
X0133465Y0192520
X0141732Y0192850
Y0200725
Y0208598
X0125984
Y0200725
X0129528Y0225984
Y0231890
X0124606
X0117717Y0229921
X0118110Y0240095
X0110236
X0109843Y0247969
X0107874Y0252559
X0115748
X0118110Y0247969
X0125984
X0129528Y0252559
X0138386Y0254528
Y0260433
X0142323Y0263189
Y0257480
Y0251772
X0146260Y0254528
X0146063Y0239764
X0147244Y0232874
X0143307Y0227953
X0155118Y0224016
Y0217126
X0133858Y0263717
X0129528Y0266339
X0133858Y0271591
Y0279465
X0130512Y0287008
X0114764Y0265354
X0126575Y0162992
X0133858Y0159055
T02
X0256496Y0211221
X0270276
T03
X0125591Y0145276
X0172835
X0259449Y0138386
X0271260Y0138386
X0277165Y0235827
X0265354
X0107874Y0227953
Y0216142
X0134449Y0173819
X0146260
Y0162008
T04
X0187598Y0143307
X0197598
X0207598
X0217598
X0214646Y0275197
X0204646
X0194646
X0184646
Y0287008
X0194646
X0204646
X0214646
X0169882
X0159882
Y0275197
X0169882
X0149882
X0139882
Y0287008
X0149882
T05
X0143307Y0121653
X0162992
X0235827Y0276181
X0255512
T06
X0194488Y0112205
Y0125591
X0233543
Y0112205
T07
X0115748Y0115748
X0281102
X0281102Y0281102
X0115748
M30
