G04*
G04 #@! TF.GenerationSoftware,Altium Limited,Altium Designer,26.2.0 (7)*
G04*
G04 Layer_Color=16711935*
%FSLAX25Y25*%
%MOIN*%
G70*
G04*
G04 #@! TF.SameCoordinates,A17541DE-411A-4C9E-BDE1-C10256C3B53C*
G04*
G04*
G04 #@! TF.FilePolarity,Negative*
G04*
G01*
G75*
%ADD39C,0.06306*%
%ADD40C,0.06109*%
%ADD41C,0.08077*%
%ADD42C,0.05550*%
%ADD43R,0.06109X0.06109*%
%ADD44C,0.09849*%
%ADD45C,0.16148*%
D39*
X34449Y73819D02*
D03*
X46260Y62008D02*
D03*
X25591Y45276D02*
D03*
X177165Y135827D02*
D03*
X171260Y38386D02*
D03*
X7874Y127953D02*
D03*
X165354Y135827D02*
D03*
X72835Y45276D02*
D03*
X159449Y38386D02*
D03*
X46260Y73819D02*
D03*
X7874Y116142D02*
D03*
D40*
X39882Y187008D02*
D03*
X59882D02*
D03*
X117598Y43307D02*
D03*
X107598D02*
D03*
X84646Y187008D02*
D03*
X94646D02*
D03*
X59882Y175197D02*
D03*
X39882D02*
D03*
X84646D02*
D03*
X94646D02*
D03*
X104646Y187008D02*
D03*
Y175197D02*
D03*
X97598Y43307D02*
D03*
X49882Y187008D02*
D03*
X49882Y175197D02*
D03*
D41*
X43307Y21654D02*
D03*
X155512Y176181D02*
D03*
X135827D02*
D03*
X62992Y21654D02*
D03*
D42*
X170276Y111221D02*
D03*
X156496D02*
D03*
D43*
X114646Y187008D02*
D03*
Y175197D02*
D03*
X87598Y43307D02*
D03*
X69882Y187008D02*
D03*
Y175197D02*
D03*
D44*
X133543Y25591D02*
D03*
Y12205D02*
D03*
X94488Y25591D02*
D03*
Y12205D02*
D03*
D45*
X181102Y15748D02*
D03*
X181102Y181102D02*
D03*
X15748Y15748D02*
D03*
Y181102D02*
D03*
M02*
