G04*
G04 #@! TF.GenerationSoftware,Altium Limited,Altium Designer,26.2.0 (7)*
G04*
G04 Layer_Physical_Order=4*
G04 Layer_Color=16711680*
%FSLAX25Y25*%
%MOIN*%
G70*
G04*
G04 #@! TF.SameCoordinates,F614A745-3F37-49C4-9740-4EE86F791CEA*
G04*
G04*
G04 #@! TF.FilePolarity,Positive*
G04*
G01*
G75*
%ADD50C,0.01000*%
%ADD52C,0.01600*%
%ADD56C,0.05906*%
%ADD57C,0.05709*%
%ADD58C,0.07677*%
%ADD59C,0.05150*%
%ADD60R,0.05709X0.05709*%
%ADD61C,0.09449*%
%ADD62C,0.15748*%
%ADD63C,0.02362*%
G36*
X193898Y2953D02*
X2953D01*
Y193898D01*
X193898D01*
Y2953D01*
D02*
G37*
%LPC*%
G36*
X85433Y190787D02*
Y187795D01*
X88425D01*
X88237Y188496D01*
X87730Y189374D01*
X87012Y190092D01*
X86133Y190600D01*
X85433Y190787D01*
D02*
G37*
G36*
X40669D02*
Y187795D01*
X43661D01*
X43474Y188496D01*
X42966Y189374D01*
X42248Y190092D01*
X41370Y190600D01*
X40669Y190787D01*
D02*
G37*
G36*
X95433D02*
Y187795D01*
X98425D01*
X98237Y188496D01*
X97730Y189374D01*
X97012Y190092D01*
X96133Y190600D01*
X95433Y190787D01*
D02*
G37*
G36*
X60669D02*
Y187795D01*
X63661D01*
X63474Y188496D01*
X62966Y189374D01*
X62248Y190092D01*
X61370Y190600D01*
X60669Y190787D01*
D02*
G37*
G36*
X39094D02*
X38394Y190600D01*
X37515Y190092D01*
X36798Y189374D01*
X36290Y188496D01*
X36103Y187795D01*
X39094D01*
Y190787D01*
D02*
G37*
G36*
X93858D02*
X93158Y190600D01*
X92279Y190092D01*
X91561Y189374D01*
X91054Y188496D01*
X90866Y187795D01*
X93858D01*
Y190787D01*
D02*
G37*
G36*
X59095D02*
X58394Y190600D01*
X57515Y190092D01*
X56798Y189374D01*
X56290Y188496D01*
X56103Y187795D01*
X59095D01*
Y190787D01*
D02*
G37*
G36*
X83858Y190787D02*
X83158Y190600D01*
X82279Y190092D01*
X81561Y189374D01*
X81054Y188496D01*
X80866Y187795D01*
X83858D01*
Y190787D01*
D02*
G37*
G36*
X139527Y190102D02*
X138819D01*
X138165Y189831D01*
X137665Y189331D01*
X137394Y188677D01*
Y187969D01*
X137665Y187315D01*
X138165Y186814D01*
X138819Y186543D01*
X139527D01*
X140181Y186814D01*
X140682Y187315D01*
X140953Y187969D01*
Y188677D01*
X140682Y189331D01*
X140181Y189831D01*
X139527Y190102D01*
D02*
G37*
G36*
X130669D02*
X129961D01*
X129307Y189831D01*
X128806Y189331D01*
X128535Y188677D01*
Y187969D01*
X128806Y187315D01*
X129307Y186814D01*
X129961Y186543D01*
X130669D01*
X131323Y186814D01*
X131824Y187315D01*
X132095Y187969D01*
Y188677D01*
X131824Y189331D01*
X131323Y189831D01*
X130669Y190102D01*
D02*
G37*
G36*
X118098Y190461D02*
X111193D01*
Y183555D01*
X118098D01*
Y190461D01*
D02*
G37*
G36*
X105100D02*
X104191D01*
X103313Y190225D01*
X102526Y189771D01*
X101883Y189128D01*
X101428Y188341D01*
X101193Y187462D01*
Y186553D01*
X101428Y185675D01*
X101883Y184888D01*
X102526Y184245D01*
X103313Y183790D01*
X104191Y183555D01*
X105100D01*
X105978Y183790D01*
X106766Y184245D01*
X107409Y184888D01*
X107863Y185675D01*
X108098Y186553D01*
Y187462D01*
X107863Y188341D01*
X107409Y189128D01*
X106766Y189771D01*
X105978Y190225D01*
X105100Y190461D01*
D02*
G37*
G36*
X73335D02*
X66429D01*
Y183555D01*
X73335D01*
Y190461D01*
D02*
G37*
G36*
X50336D02*
X49427D01*
X48549Y190225D01*
X47762Y189771D01*
X47119Y189128D01*
X46664Y188341D01*
X46429Y187462D01*
Y186553D01*
X46664Y185675D01*
X47119Y184888D01*
X47762Y184245D01*
X48549Y183790D01*
X49427Y183555D01*
X50336D01*
X51215Y183790D01*
X52002Y184245D01*
X52645Y184888D01*
X53099Y185675D01*
X53335Y186553D01*
Y187462D01*
X53099Y188341D01*
X52645Y189128D01*
X52002Y189771D01*
X51215Y190225D01*
X50336Y190461D01*
D02*
G37*
G36*
X88425Y186221D02*
X85433D01*
Y183229D01*
X86133Y183416D01*
X87012Y183924D01*
X87730Y184641D01*
X88237Y185520D01*
X88425Y186221D01*
D02*
G37*
G36*
X98425D02*
X95433D01*
Y183229D01*
X96133Y183416D01*
X97012Y183924D01*
X97730Y184641D01*
X98237Y185520D01*
X98425Y186221D01*
D02*
G37*
G36*
X63661D02*
X60669D01*
Y183229D01*
X61370Y183416D01*
X62248Y183924D01*
X62966Y184641D01*
X63474Y185520D01*
X63661Y186221D01*
D02*
G37*
G36*
X43661D02*
X40669D01*
Y183229D01*
X41370Y183416D01*
X42248Y183924D01*
X42966Y184641D01*
X43474Y185520D01*
X43661Y186221D01*
D02*
G37*
G36*
X59095D02*
X56103D01*
X56290Y185520D01*
X56798Y184641D01*
X57515Y183924D01*
X58394Y183416D01*
X59095Y183229D01*
Y186221D01*
D02*
G37*
G36*
X39094D02*
X36103D01*
X36290Y185520D01*
X36798Y184641D01*
X37515Y183924D01*
X38394Y183416D01*
X39094Y183229D01*
Y186221D01*
D02*
G37*
G36*
X93858D02*
X90866D01*
X91054Y185520D01*
X91561Y184641D01*
X92279Y183924D01*
X93158Y183416D01*
X93858Y183229D01*
Y186221D01*
D02*
G37*
G36*
X83858D02*
X80866D01*
X81054Y185520D01*
X81561Y184641D01*
X82279Y183924D01*
X83158Y183416D01*
X83858Y183229D01*
Y186221D01*
D02*
G37*
G36*
X123189Y184850D02*
X122481D01*
X121827Y184580D01*
X121326Y184079D01*
X121055Y183425D01*
Y182717D01*
X121326Y182063D01*
X121827Y181562D01*
X122481Y181291D01*
X123189D01*
X123843Y181562D01*
X124343Y182063D01*
X124614Y182717D01*
Y183425D01*
X124343Y184079D01*
X123843Y184580D01*
X123189Y184850D01*
D02*
G37*
G36*
X156693Y180874D02*
Y177362D01*
X160205D01*
X160021Y178049D01*
X159384Y179152D01*
X158483Y180053D01*
X157379Y180690D01*
X156693Y180874D01*
D02*
G37*
G36*
X154331D02*
X153644Y180690D01*
X152541Y180053D01*
X151640Y179152D01*
X151003Y178049D01*
X150819Y177362D01*
X154331D01*
Y180874D01*
D02*
G37*
G36*
X123189Y179732D02*
X122481D01*
X121827Y179461D01*
X121326Y178961D01*
X121055Y178307D01*
Y177599D01*
X121326Y176945D01*
X121827Y176444D01*
X122481Y176173D01*
X123189D01*
X123843Y176444D01*
X124343Y176945D01*
X124614Y177599D01*
Y178307D01*
X124343Y178961D01*
X123843Y179461D01*
X123189Y179732D01*
D02*
G37*
G36*
X85433Y178976D02*
Y175984D01*
X88425D01*
X88237Y176685D01*
X87730Y177564D01*
X87012Y178281D01*
X86133Y178788D01*
X85433Y178976D01*
D02*
G37*
G36*
X40669D02*
Y175984D01*
X43661D01*
X43474Y176685D01*
X42966Y177564D01*
X42248Y178281D01*
X41370Y178788D01*
X40669Y178976D01*
D02*
G37*
G36*
X95433D02*
Y175984D01*
X98425D01*
X98237Y176685D01*
X97730Y177564D01*
X97012Y178281D01*
X96133Y178788D01*
X95433Y178976D01*
D02*
G37*
G36*
X60669D02*
Y175984D01*
X63661D01*
X63474Y176685D01*
X62966Y177564D01*
X62248Y178281D01*
X61370Y178788D01*
X60669Y178976D01*
D02*
G37*
G36*
X39094D02*
X38394Y178788D01*
X37515Y178281D01*
X36798Y177564D01*
X36290Y176685D01*
X36103Y175984D01*
X39094D01*
Y178976D01*
D02*
G37*
G36*
X93858D02*
X93158Y178788D01*
X92279Y178281D01*
X91561Y177564D01*
X91054Y176685D01*
X90866Y175984D01*
X93858D01*
Y178976D01*
D02*
G37*
G36*
X59095D02*
X58394Y178788D01*
X57515Y178281D01*
X56798Y177564D01*
X56290Y176685D01*
X56103Y175984D01*
X59095D01*
Y178976D01*
D02*
G37*
G36*
X83858Y178976D02*
X83158Y178788D01*
X82279Y178281D01*
X81561Y177564D01*
X81054Y176685D01*
X80866Y175984D01*
X83858D01*
Y178976D01*
D02*
G37*
G36*
X146023Y177961D02*
X145315D01*
X144661Y177690D01*
X144161Y177189D01*
X143890Y176535D01*
Y175827D01*
X144161Y175173D01*
X144661Y174672D01*
X145315Y174402D01*
X146023D01*
X146677Y174672D01*
X147178Y175173D01*
X147449Y175827D01*
Y176535D01*
X147178Y177189D01*
X146677Y177690D01*
X146023Y177961D01*
D02*
G37*
G36*
X136411Y180618D02*
X135243D01*
X134114Y180316D01*
X133102Y179732D01*
X132276Y178905D01*
X131692Y177894D01*
X131390Y176765D01*
Y175597D01*
X131692Y174469D01*
X132276Y173457D01*
X133102Y172631D01*
X134114Y172046D01*
X135243Y171744D01*
X136411D01*
X137539Y172046D01*
X138551Y172631D01*
X139377Y173457D01*
X139961Y174469D01*
X140264Y175597D01*
Y176765D01*
X139961Y177894D01*
X139377Y178905D01*
X138551Y179732D01*
X137539Y180316D01*
X136411Y180618D01*
D02*
G37*
G36*
X118098Y178650D02*
X111193D01*
Y171744D01*
X118098D01*
Y178650D01*
D02*
G37*
G36*
X105100D02*
X104191D01*
X103313Y178414D01*
X102526Y177960D01*
X101883Y177317D01*
X101428Y176530D01*
X101193Y175651D01*
Y174742D01*
X101428Y173864D01*
X101883Y173077D01*
X102526Y172434D01*
X103313Y171979D01*
X104191Y171744D01*
X105100D01*
X105978Y171979D01*
X106766Y172434D01*
X107409Y173077D01*
X107863Y173864D01*
X108098Y174742D01*
Y175651D01*
X107863Y176530D01*
X107409Y177317D01*
X106766Y177960D01*
X105978Y178414D01*
X105100Y178650D01*
D02*
G37*
G36*
X73335D02*
X66429D01*
Y171744D01*
X73335D01*
Y178650D01*
D02*
G37*
G36*
X50336D02*
X49427D01*
X48549Y178414D01*
X47762Y177960D01*
X47119Y177317D01*
X46664Y176530D01*
X46429Y175651D01*
Y174742D01*
X46664Y173864D01*
X47119Y173077D01*
X47762Y172434D01*
X48549Y171979D01*
X49427Y171744D01*
X50336D01*
X51215Y171979D01*
X52002Y172434D01*
X52645Y173077D01*
X53099Y173864D01*
X53335Y174742D01*
Y175651D01*
X53099Y176530D01*
X52645Y177317D01*
X52002Y177960D01*
X51215Y178414D01*
X50336Y178650D01*
D02*
G37*
G36*
X160205Y175000D02*
X156693D01*
Y171488D01*
X157379Y171672D01*
X158483Y172309D01*
X159384Y173210D01*
X160021Y174313D01*
X160205Y175000D01*
D02*
G37*
G36*
X154331D02*
X150819D01*
X151003Y174313D01*
X151640Y173210D01*
X152541Y172309D01*
X153644Y171672D01*
X154331Y171488D01*
Y175000D01*
D02*
G37*
G36*
X88425Y174409D02*
X85433D01*
Y171417D01*
X86133Y171605D01*
X87012Y172113D01*
X87730Y172830D01*
X88237Y173709D01*
X88425Y174409D01*
D02*
G37*
G36*
X98425D02*
X95433D01*
Y171417D01*
X96133Y171605D01*
X97012Y172113D01*
X97730Y172830D01*
X98237Y173709D01*
X98425Y174409D01*
D02*
G37*
G36*
X63661D02*
X60669D01*
Y171417D01*
X61370Y171605D01*
X62248Y172113D01*
X62966Y172830D01*
X63474Y173709D01*
X63661Y174409D01*
D02*
G37*
G36*
X43661D02*
X40669D01*
Y171417D01*
X41370Y171605D01*
X42248Y172113D01*
X42966Y172830D01*
X43474Y173709D01*
X43661Y174409D01*
D02*
G37*
G36*
X59095D02*
X56103D01*
X56290Y173709D01*
X56798Y172830D01*
X57515Y172113D01*
X58394Y171605D01*
X59095Y171417D01*
Y174409D01*
D02*
G37*
G36*
X39094D02*
X36103D01*
X36290Y173709D01*
X36798Y172830D01*
X37515Y172113D01*
X38394Y171605D01*
X39094Y171417D01*
Y174409D01*
D02*
G37*
G36*
X93858D02*
X90866D01*
X91054Y173709D01*
X91561Y172830D01*
X92279Y172113D01*
X93158Y171605D01*
X93858Y171417D01*
Y174409D01*
D02*
G37*
G36*
X83858D02*
X80866D01*
X81054Y173709D01*
X81561Y172830D01*
X82279Y172113D01*
X83158Y171605D01*
X83858Y171417D01*
Y174409D01*
D02*
G37*
G36*
X181102Y190992D02*
X179173Y190803D01*
X177318Y190240D01*
X175608Y189326D01*
X174109Y188096D01*
X172879Y186597D01*
X171965Y184887D01*
X171402Y183032D01*
X171212Y181102D01*
X171402Y179173D01*
X171965Y177318D01*
X172879Y175608D01*
X174109Y174109D01*
X175608Y172879D01*
X177318Y171965D01*
X179173Y171402D01*
X181102Y171212D01*
X183032Y171402D01*
X184887Y171965D01*
X186597Y172879D01*
X188096Y174109D01*
X189326Y175608D01*
X190240Y177318D01*
X190802Y179173D01*
X190992Y181102D01*
X190802Y183032D01*
X190240Y184887D01*
X189326Y186597D01*
X188096Y188096D01*
X186597Y189326D01*
X184887Y190240D01*
X183032Y190803D01*
X181102Y190992D01*
D02*
G37*
G36*
X15748D02*
X13819Y190803D01*
X11963Y190240D01*
X10253Y189326D01*
X8755Y188096D01*
X7525Y186597D01*
X6611Y184887D01*
X6048Y183032D01*
X5858Y181102D01*
X6048Y179173D01*
X6611Y177318D01*
X7525Y175608D01*
X8755Y174109D01*
X10253Y172879D01*
X11963Y171965D01*
X13819Y171402D01*
X15748Y171212D01*
X17677Y171402D01*
X19533Y171965D01*
X21243Y172879D01*
X22741Y174109D01*
X23971Y175608D01*
X24885Y177318D01*
X25448Y179173D01*
X25638Y181102D01*
X25448Y183032D01*
X24885Y184887D01*
X23971Y186597D01*
X22741Y188096D01*
X21243Y189326D01*
X19533Y190240D01*
X17677Y190803D01*
X15748Y190992D01*
D02*
G37*
G36*
X76732Y173370D02*
X76024D01*
X75370Y173099D01*
X74869Y172599D01*
X74598Y171944D01*
Y171237D01*
X74869Y170582D01*
X75370Y170082D01*
X76024Y169811D01*
X76732D01*
X77386Y170082D01*
X77886Y170582D01*
X78157Y171237D01*
Y171944D01*
X77886Y172599D01*
X77386Y173099D01*
X76732Y173370D01*
D02*
G37*
G36*
X48386Y164969D02*
X47677D01*
X47023Y164698D01*
X46523Y164197D01*
X46252Y163543D01*
Y162835D01*
X46523Y162181D01*
X47023Y161680D01*
X47677Y161409D01*
X48386D01*
X49040Y161680D01*
X49540Y162181D01*
X49811Y162835D01*
Y163543D01*
X49540Y164197D01*
X49040Y164698D01*
X48386Y164969D01*
D02*
G37*
G36*
X42677D02*
X41969D01*
X41315Y164698D01*
X40814Y164197D01*
X40543Y163543D01*
Y162835D01*
X40814Y162181D01*
X41315Y161680D01*
X41969Y161409D01*
X42677D01*
X43331Y161680D01*
X43831Y162181D01*
X44102Y162835D01*
Y163543D01*
X43831Y164197D01*
X43331Y164698D01*
X42677Y164969D01*
D02*
G37*
G36*
X148386Y163528D02*
X147678D01*
X147023Y163257D01*
X146523Y162756D01*
X146252Y162102D01*
Y161394D01*
X146523Y160740D01*
X147023Y160240D01*
X147678Y159969D01*
X148386D01*
X149040Y160240D01*
X149540Y160740D01*
X149811Y161394D01*
Y162102D01*
X149540Y162756D01*
X149040Y163257D01*
X148386Y163528D01*
D02*
G37*
G36*
X139527D02*
X138819D01*
X138165Y163257D01*
X137665Y162756D01*
X137394Y162102D01*
Y161394D01*
X137665Y160740D01*
X138165Y160240D01*
X138819Y159969D01*
X139527D01*
X140181Y160240D01*
X140682Y160740D01*
X140953Y161394D01*
Y162102D01*
X140682Y162756D01*
X140181Y163257D01*
X139527Y163528D01*
D02*
G37*
G36*
X130669D02*
X129961D01*
X129307Y163257D01*
X128806Y162756D01*
X128535Y162102D01*
Y161394D01*
X128806Y160740D01*
X129307Y160240D01*
X129961Y159969D01*
X130669D01*
X131323Y160240D01*
X131824Y160740D01*
X132095Y161394D01*
Y162102D01*
X131824Y162756D01*
X131323Y163257D01*
X130669Y163528D01*
D02*
G37*
G36*
X112952D02*
X112244D01*
X111591Y163257D01*
X111090Y162756D01*
X110819Y162102D01*
Y161394D01*
X111090Y160740D01*
X111591Y160240D01*
X112244Y159969D01*
X112952D01*
X113607Y160240D01*
X114107Y160740D01*
X114378Y161394D01*
Y162102D01*
X114107Y162756D01*
X113607Y163257D01*
X112952Y163528D01*
D02*
G37*
G36*
X71220Y162346D02*
X70512D01*
X69858Y162075D01*
X69358Y161575D01*
X69087Y160921D01*
Y160213D01*
X69358Y159559D01*
X69858Y159058D01*
X70512Y158787D01*
X71220D01*
X71874Y159058D01*
X72375Y159559D01*
X72646Y160213D01*
Y160921D01*
X72375Y161575D01*
X71874Y162075D01*
X71220Y162346D01*
D02*
G37*
G36*
X65708D02*
X65000D01*
X64346Y162075D01*
X63846Y161575D01*
X63575Y160921D01*
Y160213D01*
X63846Y159559D01*
X64346Y159058D01*
X65000Y158787D01*
X65708D01*
X66362Y159058D01*
X66863Y159559D01*
X67134Y160213D01*
Y160921D01*
X66863Y161575D01*
X66362Y162075D01*
X65708Y162346D01*
D02*
G37*
G36*
X48386Y159260D02*
X47677D01*
X47023Y158989D01*
X46523Y158488D01*
X46252Y157834D01*
Y157126D01*
X46523Y156472D01*
X47023Y155972D01*
X47677Y155701D01*
X48386D01*
X49040Y155972D01*
X49540Y156472D01*
X49811Y157126D01*
Y157834D01*
X49540Y158488D01*
X49040Y158989D01*
X48386Y159260D01*
D02*
G37*
G36*
X42677D02*
X41969D01*
X41315Y158989D01*
X40814Y158488D01*
X40543Y157834D01*
Y157126D01*
X40814Y156472D01*
X41315Y155972D01*
X41969Y155701D01*
X42677D01*
X43331Y155972D01*
X43831Y156472D01*
X44102Y157126D01*
Y157834D01*
X43831Y158488D01*
X43331Y158989D01*
X42677Y159260D01*
D02*
G37*
G36*
X76732Y156835D02*
X76024D01*
X75370Y156564D01*
X74869Y156063D01*
X74598Y155409D01*
Y154701D01*
X74869Y154047D01*
X75370Y153547D01*
X76024Y153276D01*
X76732D01*
X77386Y153547D01*
X77886Y154047D01*
X78157Y154701D01*
Y155409D01*
X77886Y156063D01*
X77386Y156564D01*
X76732Y156835D01*
D02*
G37*
G36*
X71220D02*
X70512D01*
X69858Y156564D01*
X69358Y156063D01*
X69087Y155409D01*
Y154701D01*
X69358Y154047D01*
X69858Y153547D01*
X70512Y153276D01*
X71220D01*
X71874Y153547D01*
X72375Y154047D01*
X72646Y154701D01*
Y155409D01*
X72375Y156063D01*
X71874Y156564D01*
X71220Y156835D01*
D02*
G37*
G36*
X65708D02*
X65000D01*
X64346Y156564D01*
X63846Y156063D01*
X63575Y155409D01*
Y154701D01*
X63846Y154047D01*
X64346Y153547D01*
X65000Y153276D01*
X65708D01*
X66362Y153547D01*
X66863Y154047D01*
X67134Y154701D01*
Y155409D01*
X66863Y156063D01*
X66362Y156564D01*
X65708Y156835D01*
D02*
G37*
G36*
X148386Y154669D02*
X147678D01*
X147023Y154398D01*
X146523Y153898D01*
X146252Y153244D01*
Y152536D01*
X146523Y151882D01*
X147023Y151381D01*
X147678Y151110D01*
X148386D01*
X149040Y151381D01*
X149540Y151882D01*
X149811Y152536D01*
Y153244D01*
X149540Y153898D01*
X149040Y154398D01*
X148386Y154669D01*
D02*
G37*
G36*
X139527D02*
X138819D01*
X138165Y154398D01*
X137665Y153898D01*
X137394Y153244D01*
Y152536D01*
X137665Y151882D01*
X138165Y151381D01*
X138819Y151110D01*
X139527D01*
X140181Y151381D01*
X140682Y151882D01*
X140953Y152536D01*
Y153244D01*
X140682Y153898D01*
X140181Y154398D01*
X139527Y154669D01*
D02*
G37*
G36*
X130669D02*
X129961D01*
X129307Y154398D01*
X128806Y153898D01*
X128535Y153244D01*
Y152536D01*
X128806Y151882D01*
X129307Y151381D01*
X129961Y151110D01*
X130669D01*
X131323Y151381D01*
X131824Y151882D01*
X132095Y152536D01*
Y153244D01*
X131824Y153898D01*
X131323Y154398D01*
X130669Y154669D01*
D02*
G37*
G36*
X48386Y153551D02*
X47677D01*
X47023Y153280D01*
X46523Y152780D01*
X46252Y152126D01*
Y151418D01*
X46523Y150764D01*
X47023Y150263D01*
X47677Y149992D01*
X48386D01*
X49040Y150263D01*
X49540Y150764D01*
X49811Y151418D01*
Y152126D01*
X49540Y152780D01*
X49040Y153280D01*
X48386Y153551D01*
D02*
G37*
G36*
X42677D02*
X41969D01*
X41315Y153280D01*
X40814Y152780D01*
X40543Y152126D01*
Y151418D01*
X40814Y150764D01*
X41315Y150263D01*
X41969Y149992D01*
X42677D01*
X43331Y150263D01*
X43831Y150764D01*
X44102Y151418D01*
Y152126D01*
X43831Y152780D01*
X43331Y153280D01*
X42677Y153551D01*
D02*
G37*
G36*
X76732Y151323D02*
X76024D01*
X75370Y151052D01*
X74869Y150551D01*
X74598Y149897D01*
Y149189D01*
X74869Y148535D01*
X75370Y148035D01*
X76024Y147764D01*
X76732D01*
X77386Y148035D01*
X77886Y148535D01*
X78157Y149189D01*
Y149897D01*
X77886Y150551D01*
X77386Y151052D01*
X76732Y151323D01*
D02*
G37*
G36*
X71220D02*
X70512D01*
X69858Y151052D01*
X69358Y150551D01*
X69087Y149897D01*
Y149189D01*
X69358Y148535D01*
X69858Y148035D01*
X70512Y147764D01*
X71220D01*
X71874Y148035D01*
X72375Y148535D01*
X72646Y149189D01*
Y149897D01*
X72375Y150551D01*
X71874Y151052D01*
X71220Y151323D01*
D02*
G37*
G36*
X65708D02*
X65000D01*
X64346Y151052D01*
X63846Y150551D01*
X63575Y149897D01*
Y149189D01*
X63846Y148535D01*
X64346Y148035D01*
X65000Y147764D01*
X65708D01*
X66362Y148035D01*
X66863Y148535D01*
X67134Y149189D01*
Y149897D01*
X66863Y150551D01*
X66362Y151052D01*
X65708Y151323D01*
D02*
G37*
G36*
X148386Y145811D02*
X147678D01*
X147023Y145540D01*
X146523Y145040D01*
X146252Y144386D01*
Y143678D01*
X146523Y143024D01*
X147023Y142523D01*
X147678Y142252D01*
X148386D01*
X149040Y142523D01*
X149540Y143024D01*
X149811Y143678D01*
Y144386D01*
X149540Y145040D01*
X149040Y145540D01*
X148386Y145811D01*
D02*
G37*
G36*
X139527D02*
X138819D01*
X138165Y145540D01*
X137665Y145040D01*
X137394Y144386D01*
Y143678D01*
X137665Y143024D01*
X138165Y142523D01*
X138819Y142252D01*
X139527D01*
X140181Y142523D01*
X140682Y143024D01*
X140953Y143678D01*
Y144386D01*
X140682Y145040D01*
X140181Y145540D01*
X139527Y145811D01*
D02*
G37*
G36*
X82047Y143512D02*
X81339D01*
X80685Y143241D01*
X80296Y142852D01*
X72835D01*
X72406Y142767D01*
X72043Y142524D01*
X62200Y132682D01*
X61957Y132318D01*
X61872Y131890D01*
Y117869D01*
X61484Y117481D01*
X61213Y116826D01*
Y116119D01*
X61484Y115464D01*
X61984Y114964D01*
X62638Y114693D01*
X63346D01*
X64000Y114964D01*
X64501Y115464D01*
X64772Y116119D01*
Y116826D01*
X64501Y117481D01*
X64112Y117869D01*
Y131426D01*
X73299Y140612D01*
X80296D01*
X80685Y140224D01*
X81339Y139953D01*
X82047D01*
X82701Y140224D01*
X83201Y140724D01*
X83472Y141378D01*
Y142086D01*
X83201Y142740D01*
X82701Y143241D01*
X82047Y143512D01*
D02*
G37*
G36*
X177765Y139758D02*
Y136427D01*
X181097D01*
X180849Y137353D01*
X180328Y138254D01*
X179592Y138990D01*
X178691Y139510D01*
X177765Y139758D01*
D02*
G37*
G36*
X176565D02*
X175640Y139510D01*
X174738Y138990D01*
X174002Y138254D01*
X173482Y137353D01*
X173234Y136427D01*
X176565D01*
Y139758D01*
D02*
G37*
G36*
X157244Y136953D02*
X156536D01*
X155882Y136682D01*
X155381Y136181D01*
X155110Y135527D01*
Y134819D01*
X155381Y134165D01*
X155882Y133665D01*
X156536Y133394D01*
X157244D01*
X157898Y133665D01*
X158398Y134165D01*
X158669Y134819D01*
Y135527D01*
X158398Y136181D01*
X157898Y136682D01*
X157244Y136953D01*
D02*
G37*
G36*
X148386D02*
X147678D01*
X147023Y136682D01*
X146523Y136181D01*
X146252Y135527D01*
Y134819D01*
X146523Y134165D01*
X147023Y133665D01*
X147678Y133394D01*
X148386D01*
X149040Y133665D01*
X149540Y134165D01*
X149811Y134819D01*
Y135527D01*
X149540Y136181D01*
X149040Y136682D01*
X148386Y136953D01*
D02*
G37*
G36*
X165822Y139378D02*
X164887D01*
X163984Y139136D01*
X163174Y138668D01*
X162513Y138007D01*
X162045Y137197D01*
X161803Y136294D01*
Y135359D01*
X162045Y134456D01*
X162513Y133646D01*
X163174Y132985D01*
X163984Y132518D01*
X164887Y132276D01*
X165822D01*
X166725Y132518D01*
X167535Y132985D01*
X168196Y133646D01*
X168664Y134456D01*
X168905Y135359D01*
Y136294D01*
X168664Y137197D01*
X168196Y138007D01*
X167535Y138668D01*
X166725Y139136D01*
X165822Y139378D01*
D02*
G37*
G36*
X120433Y135638D02*
X119725D01*
X119071Y135367D01*
X118570Y134866D01*
X118299Y134212D01*
Y133504D01*
X118570Y132850D01*
X119071Y132350D01*
X119725Y132079D01*
X120433D01*
X121087Y132350D01*
X121587Y132850D01*
X121858Y133504D01*
Y134212D01*
X121587Y134866D01*
X121087Y135367D01*
X120433Y135638D01*
D02*
G37*
G36*
X181097Y135227D02*
X177765D01*
Y131895D01*
X178691Y132143D01*
X179592Y132664D01*
X180328Y133400D01*
X180849Y134301D01*
X181097Y135227D01*
D02*
G37*
G36*
X176565D02*
X173234D01*
X173482Y134301D01*
X174002Y133400D01*
X174738Y132664D01*
X175640Y132143D01*
X176565Y131895D01*
Y135227D01*
D02*
G37*
G36*
X47598Y134653D02*
X46890D01*
X46236Y134383D01*
X45735Y133882D01*
X45465Y133228D01*
Y132520D01*
X45735Y131866D01*
X46236Y131365D01*
X46890Y131095D01*
X47598D01*
X48252Y131365D01*
X48753Y131866D01*
X49024Y132520D01*
Y133228D01*
X48753Y133882D01*
X48252Y134383D01*
X47598Y134653D01*
D02*
G37*
G36*
X8474Y131884D02*
Y128553D01*
X11805D01*
X11557Y129479D01*
X11037Y130380D01*
X10301Y131116D01*
X9400Y131636D01*
X8474Y131884D01*
D02*
G37*
G36*
X7274D02*
X6348Y131636D01*
X5447Y131116D01*
X4711Y130380D01*
X4191Y129479D01*
X3943Y128553D01*
X7274D01*
Y131884D01*
D02*
G37*
G36*
X157244Y128095D02*
X156536D01*
X155882Y127824D01*
X155381Y127323D01*
X155110Y126669D01*
Y125961D01*
X155381Y125307D01*
X155882Y124806D01*
X156536Y124536D01*
X157244D01*
X157898Y124806D01*
X158398Y125307D01*
X158669Y125961D01*
Y126669D01*
X158398Y127323D01*
X157898Y127824D01*
X157244Y128095D01*
D02*
G37*
G36*
X148386D02*
X147678D01*
X147023Y127824D01*
X146523Y127323D01*
X146252Y126669D01*
Y125961D01*
X146523Y125307D01*
X147023Y124806D01*
X147678Y124536D01*
X148386D01*
X149040Y124806D01*
X149540Y125307D01*
X149811Y125961D01*
Y126669D01*
X149540Y127323D01*
X149040Y127824D01*
X148386Y128095D01*
D02*
G37*
G36*
X7274Y127353D02*
X3943D01*
X4191Y126427D01*
X4711Y125526D01*
X5447Y124790D01*
X6348Y124269D01*
X7274Y124021D01*
Y127353D01*
D02*
G37*
G36*
X11805D02*
X8474D01*
Y124021D01*
X9400Y124269D01*
X10301Y124790D01*
X11037Y125526D01*
X11557Y126427D01*
X11805Y127353D01*
D02*
G37*
G36*
X157244Y119236D02*
X156536D01*
X155882Y118965D01*
X155381Y118465D01*
X155110Y117811D01*
Y117103D01*
X155381Y116449D01*
X155882Y115948D01*
X156536Y115677D01*
X157244D01*
X157898Y115948D01*
X158398Y116449D01*
X158669Y117103D01*
Y117811D01*
X158398Y118465D01*
X157898Y118965D01*
X157244Y119236D01*
D02*
G37*
G36*
X148386D02*
X147678D01*
X147023Y118965D01*
X146523Y118465D01*
X146252Y117811D01*
Y117103D01*
X146523Y116449D01*
X147023Y115948D01*
X147678Y115677D01*
X148386D01*
X149040Y115948D01*
X149540Y116449D01*
X149811Y117103D01*
Y117811D01*
X149540Y118465D01*
X149040Y118965D01*
X148386Y119236D01*
D02*
G37*
G36*
X55472Y118905D02*
X54764D01*
X54110Y118635D01*
X53610Y118134D01*
X53339Y117480D01*
Y116772D01*
X53610Y116118D01*
X54110Y115617D01*
X54764Y115347D01*
X55472D01*
X56126Y115617D01*
X56627Y116118D01*
X56898Y116772D01*
Y117480D01*
X56627Y118134D01*
X56126Y118635D01*
X55472Y118905D01*
D02*
G37*
G36*
X8342Y119693D02*
X7406D01*
X6503Y119451D01*
X5694Y118983D01*
X5032Y118322D01*
X4565Y117512D01*
X4323Y116609D01*
Y115674D01*
X4565Y114771D01*
X5032Y113961D01*
X5694Y113300D01*
X6503Y112833D01*
X7406Y112591D01*
X8342D01*
X9245Y112833D01*
X10054Y113300D01*
X10716Y113961D01*
X11183Y114771D01*
X11425Y115674D01*
Y116609D01*
X11183Y117512D01*
X10716Y118322D01*
X10054Y118983D01*
X9245Y119451D01*
X8342Y119693D01*
D02*
G37*
G36*
X170876Y114761D02*
Y111820D01*
X173816D01*
X173607Y112600D01*
X173136Y113416D01*
X172471Y114081D01*
X171655Y114552D01*
X170876Y114761D01*
D02*
G37*
G36*
X169676Y114761D02*
X168896Y114552D01*
X168081Y114081D01*
X167415Y113416D01*
X166944Y112600D01*
X166735Y111820D01*
X169676D01*
Y114761D01*
D02*
G37*
G36*
X156914Y114394D02*
X156078D01*
X155271Y114177D01*
X154548Y113760D01*
X153957Y113169D01*
X153539Y112445D01*
X153323Y111638D01*
Y110803D01*
X153539Y109996D01*
X153957Y109272D01*
X154548Y108681D01*
X155271Y108264D01*
X156078Y108047D01*
X156914D01*
X157721Y108264D01*
X158444Y108681D01*
X159035Y109272D01*
X159453Y109996D01*
X159669Y110803D01*
Y111638D01*
X159453Y112445D01*
X159035Y113169D01*
X158444Y113760D01*
X157721Y114177D01*
X156914Y114394D01*
D02*
G37*
G36*
X169676Y110620D02*
X166735D01*
X166944Y109841D01*
X167415Y109026D01*
X168081Y108360D01*
X168896Y107889D01*
X169676Y107680D01*
Y110620D01*
D02*
G37*
G36*
X173816D02*
X170876D01*
Y107680D01*
X171655Y107889D01*
X172471Y108360D01*
X173136Y109026D01*
X173607Y109841D01*
X173816Y110620D01*
D02*
G37*
G36*
X57834Y110378D02*
X57126D01*
X56472Y110107D01*
X55972Y109607D01*
X55701Y108952D01*
Y108245D01*
X55972Y107590D01*
X56472Y107090D01*
X57126Y106819D01*
X57834D01*
X58488Y107090D01*
X58989Y107590D01*
X59260Y108245D01*
Y108952D01*
X58989Y109607D01*
X58488Y110107D01*
X57834Y110378D01*
D02*
G37*
G36*
X49960D02*
X49252D01*
X48598Y110107D01*
X48098Y109607D01*
X47827Y108952D01*
Y108245D01*
X48098Y107590D01*
X48598Y107090D01*
X49252Y106819D01*
X49960D01*
X50614Y107090D01*
X51115Y107590D01*
X51386Y108245D01*
Y108952D01*
X51115Y109607D01*
X50614Y110107D01*
X49960Y110378D01*
D02*
G37*
G36*
X42086D02*
X41378D01*
X40724Y110107D01*
X40224Y109607D01*
X39953Y108952D01*
Y108245D01*
X40224Y107590D01*
X40724Y107090D01*
X41378Y106819D01*
X42086D01*
X42740Y107090D01*
X43241Y107590D01*
X43512Y108245D01*
Y108952D01*
X43241Y109607D01*
X42740Y110107D01*
X42086Y110378D01*
D02*
G37*
G36*
X26338D02*
X25630D01*
X24976Y110107D01*
X24476Y109607D01*
X24205Y108952D01*
Y108245D01*
X24476Y107590D01*
X24976Y107090D01*
X25630Y106819D01*
X26338D01*
X26992Y107090D01*
X27493Y107590D01*
X27764Y108245D01*
Y108952D01*
X27493Y109607D01*
X26992Y110107D01*
X26338Y110378D01*
D02*
G37*
G36*
X18464D02*
X17756D01*
X17102Y110107D01*
X16602Y109607D01*
X16331Y108952D01*
Y108245D01*
X16602Y107590D01*
X17102Y107090D01*
X17756Y106819D01*
X18464D01*
X19118Y107090D01*
X19619Y107590D01*
X19890Y108245D01*
Y108952D01*
X19619Y109607D01*
X19118Y110107D01*
X18464Y110378D01*
D02*
G37*
G36*
X10590D02*
X9882D01*
X9228Y110107D01*
X8728Y109607D01*
X8457Y108952D01*
Y108245D01*
X8728Y107590D01*
X9228Y107090D01*
X9882Y106819D01*
X10590D01*
X11244Y107090D01*
X11745Y107590D01*
X12016Y108245D01*
Y108952D01*
X11745Y109607D01*
X11244Y110107D01*
X10590Y110378D01*
D02*
G37*
G36*
X148386Y110378D02*
X147678D01*
X147023Y110107D01*
X146523Y109607D01*
X146252Y108952D01*
Y108245D01*
X146523Y107590D01*
X147023Y107090D01*
X147678Y106819D01*
X148386D01*
X149040Y107090D01*
X149540Y107590D01*
X149811Y108245D01*
Y108952D01*
X149540Y109607D01*
X149040Y110107D01*
X148386Y110378D01*
D02*
G37*
G36*
X136181Y110047D02*
X135473D01*
X134819Y109776D01*
X134318Y109276D01*
X134047Y108622D01*
Y107914D01*
X134318Y107260D01*
X134819Y106759D01*
X135473Y106488D01*
X136181D01*
X136835Y106759D01*
X137335Y107260D01*
X137606Y107914D01*
Y108622D01*
X137335Y109276D01*
X136835Y109776D01*
X136181Y110047D01*
D02*
G37*
G36*
X112559Y104142D02*
X111851D01*
X111197Y103871D01*
X110696Y103370D01*
X110425Y102716D01*
Y102008D01*
X110696Y101354D01*
X111197Y100854D01*
X111851Y100583D01*
X112559D01*
X113213Y100854D01*
X113713Y101354D01*
X113984Y102008D01*
Y102716D01*
X113713Y103370D01*
X113213Y103871D01*
X112559Y104142D01*
D02*
G37*
G36*
X57834Y102504D02*
X57126D01*
X56472Y102233D01*
X55972Y101733D01*
X55701Y101078D01*
Y100371D01*
X55972Y99717D01*
X56472Y99216D01*
X57126Y98945D01*
X57834D01*
X58488Y99216D01*
X58989Y99717D01*
X59260Y100371D01*
Y101078D01*
X58989Y101733D01*
X58488Y102233D01*
X57834Y102504D01*
D02*
G37*
G36*
X49960D02*
X49252D01*
X48598Y102233D01*
X48098Y101733D01*
X47827Y101078D01*
Y100371D01*
X48098Y99717D01*
X48598Y99216D01*
X49252Y98945D01*
X49960D01*
X50614Y99216D01*
X51115Y99717D01*
X51386Y100371D01*
Y101078D01*
X51115Y101733D01*
X50614Y102233D01*
X49960Y102504D01*
D02*
G37*
G36*
X42086D02*
X41378D01*
X40724Y102233D01*
X40224Y101733D01*
X39953Y101078D01*
Y100371D01*
X40224Y99717D01*
X40724Y99216D01*
X41378Y98945D01*
X42086D01*
X42740Y99216D01*
X43241Y99717D01*
X43512Y100371D01*
Y101078D01*
X43241Y101733D01*
X42740Y102233D01*
X42086Y102504D01*
D02*
G37*
G36*
X26338D02*
X25630D01*
X24976Y102233D01*
X24476Y101733D01*
X24205Y101078D01*
Y100371D01*
X24476Y99717D01*
X24976Y99216D01*
X25630Y98945D01*
X26338D01*
X26992Y99216D01*
X27493Y99717D01*
X27764Y100371D01*
Y101078D01*
X27493Y101733D01*
X26992Y102233D01*
X26338Y102504D01*
D02*
G37*
G36*
X18464D02*
X17756D01*
X17102Y102233D01*
X16602Y101733D01*
X16331Y101078D01*
Y100371D01*
X16602Y99717D01*
X17102Y99216D01*
X17756Y98945D01*
X18464D01*
X19118Y99216D01*
X19619Y99717D01*
X19890Y100371D01*
Y101078D01*
X19619Y101733D01*
X19118Y102233D01*
X18464Y102504D01*
D02*
G37*
G36*
X10590D02*
X9882D01*
X9228Y102233D01*
X8728Y101733D01*
X8457Y101078D01*
Y100371D01*
X8728Y99717D01*
X9228Y99216D01*
X9882Y98945D01*
X10590D01*
X11244Y99216D01*
X11745Y99717D01*
X12016Y100371D01*
Y101078D01*
X11745Y101733D01*
X11244Y102233D01*
X10590Y102504D01*
D02*
G37*
G36*
X148386Y101520D02*
X147678D01*
X147023Y101249D01*
X146523Y100748D01*
X146252Y100094D01*
Y99386D01*
X146523Y98732D01*
X147023Y98232D01*
X147678Y97961D01*
X148386D01*
X149040Y98232D01*
X149540Y98732D01*
X149811Y99386D01*
Y100094D01*
X149540Y100748D01*
X149040Y101249D01*
X148386Y101520D01*
D02*
G37*
G36*
X139527D02*
X138819D01*
X138165Y101249D01*
X137665Y100748D01*
X137394Y100094D01*
Y99386D01*
X137665Y98732D01*
X138165Y98232D01*
X138819Y97961D01*
X139527D01*
X140181Y98232D01*
X140682Y98732D01*
X140953Y99386D01*
Y100094D01*
X140682Y100748D01*
X140181Y101249D01*
X139527Y101520D01*
D02*
G37*
G36*
X130669D02*
X129961D01*
X129307Y101249D01*
X128806Y100748D01*
X128535Y100094D01*
Y99386D01*
X128806Y98732D01*
X129307Y98232D01*
X129961Y97961D01*
X130669D01*
X131323Y98232D01*
X131824Y98732D01*
X132095Y99386D01*
Y100094D01*
X131824Y100748D01*
X131323Y101249D01*
X130669Y101520D01*
D02*
G37*
G36*
X121811D02*
X121103D01*
X120449Y101249D01*
X119948Y100748D01*
X119677Y100094D01*
Y99386D01*
X119948Y98732D01*
X120449Y98232D01*
X121103Y97961D01*
X121811D01*
X122465Y98232D01*
X122965Y98732D01*
X123236Y99386D01*
Y100094D01*
X122965Y100748D01*
X122465Y101249D01*
X121811Y101520D01*
D02*
G37*
G36*
X160787Y98236D02*
X160079D01*
X159425Y97965D01*
X158924Y97465D01*
X158653Y96811D01*
Y96103D01*
X158924Y95449D01*
X159425Y94948D01*
X160079Y94677D01*
X160787D01*
X161441Y94948D01*
X161942Y95449D01*
X162213Y96103D01*
Y96811D01*
X161942Y97465D01*
X161441Y97965D01*
X160787Y98236D01*
D02*
G37*
G36*
X113543D02*
X112835D01*
X112181Y97965D01*
X111680Y97465D01*
X111409Y96811D01*
Y96103D01*
X111680Y95449D01*
X112181Y94948D01*
X112835Y94677D01*
X113543D01*
X114197Y94948D01*
X114698Y95449D01*
X114969Y96103D01*
Y96811D01*
X114698Y97465D01*
X114197Y97965D01*
X113543Y98236D01*
D02*
G37*
G36*
X57834Y94630D02*
X57126D01*
X56472Y94359D01*
X55972Y93858D01*
X55701Y93204D01*
Y92497D01*
X55972Y91843D01*
X56472Y91342D01*
X57126Y91071D01*
X57834D01*
X58488Y91342D01*
X58989Y91843D01*
X59260Y92497D01*
Y93204D01*
X58989Y93858D01*
X58488Y94359D01*
X57834Y94630D01*
D02*
G37*
G36*
X49960D02*
X49252D01*
X48598Y94359D01*
X48098Y93858D01*
X47827Y93204D01*
Y92497D01*
X48098Y91843D01*
X48598Y91342D01*
X49252Y91071D01*
X49960D01*
X50614Y91342D01*
X51115Y91843D01*
X51386Y92497D01*
Y93204D01*
X51115Y93858D01*
X50614Y94359D01*
X49960Y94630D01*
D02*
G37*
G36*
X42086D02*
X41378D01*
X40724Y94359D01*
X40224Y93858D01*
X39953Y93204D01*
Y92497D01*
X40224Y91843D01*
X40724Y91342D01*
X41378Y91071D01*
X42086D01*
X42740Y91342D01*
X43241Y91843D01*
X43512Y92497D01*
Y93204D01*
X43241Y93858D01*
X42740Y94359D01*
X42086Y94630D01*
D02*
G37*
G36*
X26338D02*
X25630D01*
X24976Y94359D01*
X24476Y93858D01*
X24205Y93204D01*
Y92497D01*
X24476Y91843D01*
X24976Y91342D01*
X25630Y91071D01*
X26338D01*
X26992Y91342D01*
X27493Y91843D01*
X27764Y92497D01*
Y93204D01*
X27493Y93858D01*
X26992Y94359D01*
X26338Y94630D01*
D02*
G37*
G36*
X18464D02*
X17756D01*
X17102Y94359D01*
X16602Y93858D01*
X16331Y93204D01*
Y92497D01*
X16602Y91843D01*
X17102Y91342D01*
X17756Y91071D01*
X18464D01*
X19118Y91342D01*
X19619Y91843D01*
X19890Y92497D01*
Y93204D01*
X19619Y93858D01*
X19118Y94359D01*
X18464Y94630D01*
D02*
G37*
G36*
X10590D02*
X9882D01*
X9228Y94359D01*
X8728Y93858D01*
X8457Y93204D01*
Y92497D01*
X8728Y91843D01*
X9228Y91342D01*
X9882Y91071D01*
X10590D01*
X11244Y91342D01*
X11745Y91843D01*
X12016Y92497D01*
Y93204D01*
X11745Y93858D01*
X11244Y94359D01*
X10590Y94630D01*
D02*
G37*
G36*
X148386Y94299D02*
X147678D01*
X147023Y94028D01*
X146523Y93528D01*
X146252Y92874D01*
Y92166D01*
X146523Y91512D01*
X147023Y91011D01*
X147678Y90740D01*
X148386D01*
X149040Y91011D01*
X149540Y91512D01*
X149811Y92166D01*
Y92874D01*
X149540Y93528D01*
X149040Y94028D01*
X148386Y94299D01*
D02*
G37*
G36*
X139527D02*
X138819D01*
X138165Y94028D01*
X137665Y93528D01*
X137394Y92874D01*
Y92166D01*
X137665Y91512D01*
X138165Y91011D01*
X138819Y90740D01*
X139527D01*
X140181Y91011D01*
X140682Y91512D01*
X140953Y92166D01*
Y92874D01*
X140682Y93528D01*
X140181Y94028D01*
X139527Y94299D01*
D02*
G37*
G36*
X131260D02*
X130552D01*
X129897Y94028D01*
X129397Y93528D01*
X129126Y92874D01*
Y92166D01*
X129397Y91512D01*
X129897Y91011D01*
X130552Y90740D01*
X131260D01*
X131913Y91011D01*
X132414Y91512D01*
X132685Y92166D01*
Y92874D01*
X132414Y93528D01*
X131913Y94028D01*
X131260Y94299D01*
D02*
G37*
G36*
X121417D02*
X120709D01*
X120055Y94028D01*
X119554Y93528D01*
X119283Y92874D01*
Y92166D01*
X119554Y91512D01*
X120055Y91011D01*
X120709Y90740D01*
X121417D01*
X122071Y91011D01*
X122572Y91512D01*
X122843Y92166D01*
Y92874D01*
X122572Y93528D01*
X122071Y94028D01*
X121417Y94299D01*
D02*
G37*
G36*
X154882Y88394D02*
X154174D01*
X153519Y88123D01*
X153019Y87622D01*
X152748Y86968D01*
Y86260D01*
X153019Y85606D01*
X153519Y85106D01*
X154174Y84835D01*
X154882D01*
X155536Y85106D01*
X156036Y85606D01*
X156307Y86260D01*
Y86968D01*
X156036Y87622D01*
X155536Y88123D01*
X154882Y88394D01*
D02*
G37*
G36*
X148976D02*
X148268D01*
X147614Y88123D01*
X147113Y87622D01*
X146843Y86968D01*
Y86260D01*
X147113Y85606D01*
X147614Y85106D01*
X148268Y84835D01*
X148976D01*
X149630Y85106D01*
X150131Y85606D01*
X150402Y86260D01*
Y86968D01*
X150131Y87622D01*
X149630Y88123D01*
X148976Y88394D01*
D02*
G37*
G36*
X144055D02*
X143347D01*
X142693Y88123D01*
X142192Y87622D01*
X141921Y86968D01*
Y86260D01*
X142192Y85606D01*
X142693Y85106D01*
X143347Y84835D01*
X144055D01*
X144709Y85106D01*
X145209Y85606D01*
X145480Y86260D01*
Y86968D01*
X145209Y87622D01*
X144709Y88123D01*
X144055Y88394D01*
D02*
G37*
G36*
X139134D02*
X138426D01*
X137771Y88123D01*
X137271Y87622D01*
X137000Y86968D01*
Y86260D01*
X137271Y85606D01*
X137771Y85106D01*
X138426Y84835D01*
X139134D01*
X139788Y85106D01*
X140288Y85606D01*
X140559Y86260D01*
Y86968D01*
X140288Y87622D01*
X139788Y88123D01*
X139134Y88394D01*
D02*
G37*
G36*
X131260D02*
X130552D01*
X129897Y88123D01*
X129397Y87622D01*
X129126Y86968D01*
Y86260D01*
X129397Y85606D01*
X129897Y85106D01*
X130552Y84835D01*
X131260D01*
X131913Y85106D01*
X132414Y85606D01*
X132685Y86260D01*
Y86968D01*
X132414Y87622D01*
X131913Y88123D01*
X131260Y88394D01*
D02*
G37*
G36*
X57834Y86756D02*
X57126D01*
X56472Y86485D01*
X55972Y85984D01*
X55701Y85330D01*
Y84623D01*
X55972Y83969D01*
X56472Y83468D01*
X57126Y83197D01*
X57834D01*
X58488Y83468D01*
X58989Y83969D01*
X59260Y84623D01*
Y85330D01*
X58989Y85984D01*
X58488Y86485D01*
X57834Y86756D01*
D02*
G37*
G36*
X49960D02*
X49252D01*
X48598Y86485D01*
X48098Y85984D01*
X47827Y85330D01*
Y84623D01*
X48098Y83969D01*
X48598Y83468D01*
X49252Y83197D01*
X49960D01*
X50614Y83468D01*
X51115Y83969D01*
X51386Y84623D01*
Y85330D01*
X51115Y85984D01*
X50614Y86485D01*
X49960Y86756D01*
D02*
G37*
G36*
X42086D02*
X41378D01*
X40724Y86485D01*
X40224Y85984D01*
X39953Y85330D01*
Y84623D01*
X40224Y83969D01*
X40724Y83468D01*
X41378Y83197D01*
X42086D01*
X42740Y83468D01*
X43241Y83969D01*
X43512Y84623D01*
Y85330D01*
X43241Y85984D01*
X42740Y86485D01*
X42086Y86756D01*
D02*
G37*
G36*
X26338D02*
X25630D01*
X24976Y86485D01*
X24476Y85984D01*
X24205Y85330D01*
Y84623D01*
X24476Y83969D01*
X24976Y83468D01*
X25630Y83197D01*
X26338D01*
X26992Y83468D01*
X27493Y83969D01*
X27764Y84623D01*
Y85330D01*
X27493Y85984D01*
X26992Y86485D01*
X26338Y86756D01*
D02*
G37*
G36*
X18464D02*
X17756D01*
X17102Y86485D01*
X16602Y85984D01*
X16331Y85330D01*
Y84623D01*
X16602Y83969D01*
X17102Y83468D01*
X17756Y83197D01*
X18464D01*
X19118Y83468D01*
X19619Y83969D01*
X19890Y84623D01*
Y85330D01*
X19619Y85984D01*
X19118Y86485D01*
X18464Y86756D01*
D02*
G37*
G36*
X10590D02*
X9882D01*
X9228Y86485D01*
X8728Y85984D01*
X8457Y85330D01*
Y84623D01*
X8728Y83969D01*
X9228Y83468D01*
X9882Y83197D01*
X10590D01*
X11244Y83468D01*
X11745Y83969D01*
X12016Y84623D01*
Y85330D01*
X11745Y85984D01*
X11244Y86485D01*
X10590Y86756D01*
D02*
G37*
G36*
X123386Y83472D02*
X122678D01*
X122023Y83201D01*
X121523Y82701D01*
X121252Y82047D01*
Y81339D01*
X121523Y80685D01*
X122023Y80184D01*
X122678Y79913D01*
X123386D01*
X124039Y80184D01*
X124540Y80685D01*
X124811Y81339D01*
Y82047D01*
X124540Y82701D01*
X124039Y83201D01*
X123386Y83472D01*
D02*
G37*
G36*
X131260Y82488D02*
X130552D01*
X129897Y82217D01*
X129397Y81717D01*
X129126Y81063D01*
Y80355D01*
X129397Y79701D01*
X129897Y79200D01*
X130552Y78929D01*
X131260D01*
X131913Y79200D01*
X132414Y79701D01*
X132685Y80355D01*
Y81063D01*
X132414Y81717D01*
X131913Y82217D01*
X131260Y82488D01*
D02*
G37*
G36*
X154882Y81504D02*
X154174D01*
X153519Y81233D01*
X153019Y80732D01*
X152748Y80078D01*
Y79370D01*
X153019Y78716D01*
X153519Y78216D01*
X154174Y77945D01*
X154882D01*
X155536Y78216D01*
X156036Y78716D01*
X156307Y79370D01*
Y80078D01*
X156036Y80732D01*
X155536Y81233D01*
X154882Y81504D01*
D02*
G37*
G36*
X57834Y78882D02*
X57126D01*
X56472Y78611D01*
X55972Y78110D01*
X55701Y77456D01*
Y76749D01*
X55972Y76094D01*
X56472Y75594D01*
X57126Y75323D01*
X57834D01*
X58488Y75594D01*
X58989Y76094D01*
X59260Y76749D01*
Y77456D01*
X58989Y78110D01*
X58488Y78611D01*
X57834Y78882D01*
D02*
G37*
G36*
X35049Y77750D02*
Y74419D01*
X38380D01*
X38132Y75345D01*
X37612Y76246D01*
X36876Y76982D01*
X35974Y77502D01*
X35049Y77750D01*
D02*
G37*
G36*
X33849D02*
X32923Y77502D01*
X32022Y76982D01*
X31286Y76246D01*
X30765Y75345D01*
X30517Y74419D01*
X33849D01*
Y77750D01*
D02*
G37*
G36*
X46727Y77370D02*
X45792D01*
X44889Y77128D01*
X44079Y76661D01*
X43418Y75999D01*
X42951Y75190D01*
X42709Y74286D01*
Y73351D01*
X42951Y72448D01*
X43080Y72223D01*
X34969Y64112D01*
X27972D01*
X27583Y64501D01*
X26929Y64772D01*
X26221D01*
X25567Y64501D01*
X25066Y64000D01*
X24795Y63346D01*
Y62638D01*
X25066Y61984D01*
X25567Y61484D01*
X26221Y61213D01*
X26929D01*
X27583Y61484D01*
X27972Y61872D01*
X35433D01*
X35862Y61957D01*
X36225Y62200D01*
X44664Y70639D01*
X44889Y70510D01*
X45792Y70268D01*
X46727D01*
X47631Y70510D01*
X48440Y70977D01*
X49101Y71638D01*
X49569Y72448D01*
X49811Y73351D01*
Y74286D01*
X49569Y75190D01*
X49101Y75999D01*
X48440Y76661D01*
X47631Y77128D01*
X46727Y77370D01*
D02*
G37*
G36*
X38380Y73219D02*
X35049D01*
Y69888D01*
X35974Y70135D01*
X36876Y70656D01*
X37612Y71392D01*
X38132Y72293D01*
X38380Y73219D01*
D02*
G37*
G36*
X33849D02*
X30517D01*
X30765Y72293D01*
X31286Y71392D01*
X32022Y70656D01*
X32923Y70135D01*
X33849Y69888D01*
Y73219D01*
D02*
G37*
G36*
X179488Y82600D02*
X178780D01*
X178126Y82330D01*
X177625Y81829D01*
X177354Y81175D01*
Y80467D01*
X177625Y79813D01*
X177708Y79730D01*
Y67036D01*
X177625Y66953D01*
X177354Y66299D01*
Y65591D01*
X177625Y64937D01*
X178126Y64436D01*
X178780Y64165D01*
X179488D01*
X180142Y64436D01*
X180642Y64937D01*
X180913Y65591D01*
Y66299D01*
X180642Y66953D01*
X180560Y67036D01*
Y79730D01*
X180642Y79813D01*
X180913Y80467D01*
Y81175D01*
X180642Y81829D01*
X180142Y82330D01*
X179488Y82600D01*
D02*
G37*
G36*
X129291Y67724D02*
X128583D01*
X127929Y67453D01*
X127428Y66953D01*
X127157Y66299D01*
Y65591D01*
X127428Y64937D01*
X127929Y64436D01*
X128583Y64165D01*
X129291D01*
X129945Y64436D01*
X130446Y64937D01*
X130717Y65591D01*
Y66299D01*
X130446Y66953D01*
X129945Y67453D01*
X129291Y67724D01*
D02*
G37*
G36*
X162756Y66740D02*
X162048D01*
X161394Y66469D01*
X160893Y65969D01*
X160622Y65315D01*
Y64607D01*
X160893Y63953D01*
X161394Y63452D01*
X162048Y63181D01*
X162756D01*
X163410Y63452D01*
X163910Y63953D01*
X164181Y64607D01*
Y65315D01*
X163910Y65969D01*
X163410Y66469D01*
X162756Y66740D01*
D02*
G37*
G36*
X157834D02*
X157126D01*
X156472Y66469D01*
X155972Y65969D01*
X155701Y65315D01*
Y64607D01*
X155972Y63953D01*
X156472Y63452D01*
X157126Y63181D01*
X157834D01*
X158488Y63452D01*
X158989Y63953D01*
X159260Y64607D01*
Y65315D01*
X158989Y65969D01*
X158488Y66469D01*
X157834Y66740D01*
D02*
G37*
G36*
X46860Y65939D02*
Y62608D01*
X50191D01*
X49943Y63534D01*
X49423Y64435D01*
X48687Y65171D01*
X47786Y65691D01*
X46860Y65939D01*
D02*
G37*
G36*
X45660D02*
X44734Y65691D01*
X43833Y65171D01*
X43097Y64435D01*
X42577Y63534D01*
X42328Y62608D01*
X45660D01*
Y65939D01*
D02*
G37*
G36*
X144055Y64772D02*
X143347D01*
X142693Y64501D01*
X142192Y64000D01*
X141921Y63346D01*
Y62638D01*
X142192Y61984D01*
X142693Y61484D01*
X143347Y61213D01*
X144055D01*
X144709Y61484D01*
X145209Y61984D01*
X145480Y62638D01*
Y63346D01*
X145209Y64000D01*
X144709Y64501D01*
X144055Y64772D01*
D02*
G37*
G36*
X137165D02*
X136457D01*
X135803Y64501D01*
X135302Y64000D01*
X135031Y63346D01*
Y62638D01*
X135302Y61984D01*
X135803Y61484D01*
X136457Y61213D01*
X137165D01*
X137819Y61484D01*
X138320Y61984D01*
X138591Y62638D01*
Y63346D01*
X138320Y64000D01*
X137819Y64501D01*
X137165Y64772D01*
D02*
G37*
G36*
X50191Y61408D02*
X46860D01*
Y58077D01*
X47786Y58324D01*
X48687Y58845D01*
X49423Y59581D01*
X49943Y60482D01*
X50191Y61408D01*
D02*
G37*
G36*
X45660D02*
X42328D01*
X42577Y60482D01*
X43097Y59581D01*
X43833Y58845D01*
X44734Y58324D01*
X45660Y58077D01*
Y61408D01*
D02*
G37*
G36*
X149960Y59850D02*
X149252D01*
X148598Y59579D01*
X148098Y59079D01*
X147827Y58425D01*
Y57717D01*
X148098Y57063D01*
X148598Y56562D01*
X149252Y56291D01*
X149960D01*
X150614Y56562D01*
X151115Y57063D01*
X151386Y57717D01*
Y58425D01*
X151115Y59079D01*
X150614Y59579D01*
X149960Y59850D01*
D02*
G37*
G36*
X144055D02*
X143347D01*
X142693Y59579D01*
X142192Y59079D01*
X141921Y58425D01*
Y57717D01*
X142192Y57063D01*
X142693Y56562D01*
X143347Y56291D01*
X144055D01*
X144709Y56562D01*
X145209Y57063D01*
X145480Y57717D01*
Y58425D01*
X145209Y59079D01*
X144709Y59579D01*
X144055Y59850D01*
D02*
G37*
G36*
X137165D02*
X136457D01*
X135803Y59579D01*
X135302Y59079D01*
X135031Y58425D01*
Y57717D01*
X135302Y57063D01*
X135803Y56562D01*
X136457Y56291D01*
X137165D01*
X137819Y56562D01*
X138320Y57063D01*
X138591Y57717D01*
Y58425D01*
X138320Y59079D01*
X137819Y59579D01*
X137165Y59850D01*
D02*
G37*
G36*
X149960Y66740D02*
X149252D01*
X148598Y66469D01*
X148098Y65969D01*
X147827Y65315D01*
Y64607D01*
X148098Y63953D01*
X148598Y63452D01*
X149252Y63181D01*
X149369D01*
X157456Y55094D01*
X157919Y54785D01*
X158465Y54677D01*
X166232D01*
X166315Y54594D01*
X166969Y54323D01*
X167677D01*
X168331Y54594D01*
X168831Y55094D01*
X169102Y55748D01*
Y56456D01*
X168831Y57110D01*
X168331Y57611D01*
X167677Y57882D01*
X166969D01*
X166315Y57611D01*
X166232Y57528D01*
X159055D01*
X151386Y65197D01*
Y65315D01*
X151115Y65969D01*
X150614Y66469D01*
X149960Y66740D01*
D02*
G37*
G36*
X156260Y55260D02*
X155552D01*
X154897Y54989D01*
X154397Y54488D01*
X154126Y53834D01*
Y53126D01*
X154397Y52472D01*
X154897Y51972D01*
X155552Y51701D01*
X156260D01*
X156913Y51972D01*
X157414Y52472D01*
X157685Y53126D01*
Y53834D01*
X157414Y54488D01*
X156913Y54989D01*
X156260Y55260D01*
D02*
G37*
G36*
X129291Y51976D02*
X128583D01*
X127929Y51705D01*
X127428Y51205D01*
X127157Y50551D01*
Y49843D01*
X127428Y49189D01*
X127929Y48688D01*
X128583Y48417D01*
X129291D01*
X129945Y48688D01*
X130446Y49189D01*
X130717Y49843D01*
Y50551D01*
X130446Y51205D01*
X129945Y51705D01*
X129291Y51976D01*
D02*
G37*
G36*
X26191Y49207D02*
Y45876D01*
X29522D01*
X29274Y46801D01*
X28754Y47703D01*
X28018Y48439D01*
X27116Y48959D01*
X26191Y49207D01*
D02*
G37*
G36*
X24991D02*
X24065Y48959D01*
X23164Y48439D01*
X22428Y47703D01*
X21907Y46801D01*
X21659Y45876D01*
X24991D01*
Y49207D01*
D02*
G37*
G36*
X118386Y47086D02*
Y44094D01*
X121378D01*
X121190Y44795D01*
X120683Y45674D01*
X119965Y46391D01*
X119086Y46899D01*
X118386Y47086D01*
D02*
G37*
G36*
X116811D02*
X116111Y46899D01*
X115232Y46391D01*
X114514Y45674D01*
X114007Y44795D01*
X113819Y44094D01*
X116811D01*
Y47086D01*
D02*
G37*
G36*
X108386D02*
Y44094D01*
X111378D01*
X111190Y44795D01*
X110683Y45674D01*
X109965Y46391D01*
X109086Y46899D01*
X108386Y47086D01*
D02*
G37*
G36*
X106811D02*
X106111Y46899D01*
X105232Y46391D01*
X104514Y45674D01*
X104007Y44795D01*
X103819Y44094D01*
X106811D01*
Y47086D01*
D02*
G37*
G36*
X65708Y47386D02*
X65000D01*
X64346Y47115D01*
X63846Y46614D01*
X63575Y45960D01*
Y45252D01*
X63846Y44598D01*
X64346Y44098D01*
X65000Y43827D01*
X65708D01*
X66362Y44098D01*
X66863Y44598D01*
X67134Y45252D01*
Y45960D01*
X66863Y46614D01*
X66362Y47115D01*
X65708Y47386D01*
D02*
G37*
G36*
X146417Y45417D02*
X145709D01*
X145055Y45146D01*
X144554Y44646D01*
X144283Y43992D01*
Y43284D01*
X144554Y42630D01*
X145055Y42129D01*
X145709Y41858D01*
X146417D01*
X147071Y42129D01*
X147572Y42630D01*
X147843Y43284D01*
Y43992D01*
X147572Y44646D01*
X147071Y45146D01*
X146417Y45417D01*
D02*
G37*
G36*
X136574D02*
X135866D01*
X135213Y45146D01*
X134712Y44646D01*
X134441Y43992D01*
Y43284D01*
X134712Y42630D01*
X135213Y42129D01*
X135866Y41858D01*
X136574D01*
X137229Y42129D01*
X137729Y42630D01*
X138000Y43284D01*
Y43992D01*
X137729Y44646D01*
X137229Y45146D01*
X136574Y45417D01*
D02*
G37*
G36*
X73302Y48827D02*
X72367D01*
X71464Y48585D01*
X70654Y48117D01*
X69993Y47456D01*
X69525Y46646D01*
X69283Y45743D01*
Y44808D01*
X69525Y43905D01*
X69993Y43095D01*
X70654Y42434D01*
X71464Y41966D01*
X72367Y41724D01*
X73302D01*
X74205Y41966D01*
X75015Y42434D01*
X75676Y43095D01*
X76144Y43905D01*
X76386Y44808D01*
Y45743D01*
X76144Y46646D01*
X75676Y47456D01*
X75015Y48117D01*
X74205Y48585D01*
X73302Y48827D01*
D02*
G37*
G36*
X29522Y44676D02*
X26191D01*
Y41344D01*
X27116Y41592D01*
X28018Y42113D01*
X28754Y42849D01*
X29274Y43750D01*
X29522Y44676D01*
D02*
G37*
G36*
X24991D02*
X21659D01*
X21907Y43750D01*
X22428Y42849D01*
X23164Y42113D01*
X24065Y41592D01*
X24991Y41344D01*
Y44676D01*
D02*
G37*
G36*
X98053Y46760D02*
X97144D01*
X96266Y46525D01*
X95478Y46070D01*
X94836Y45427D01*
X94381Y44640D01*
X94146Y43762D01*
Y42853D01*
X94381Y41974D01*
X94836Y41187D01*
X95478Y40544D01*
X96266Y40090D01*
X97144Y39854D01*
X98053D01*
X98931Y40090D01*
X99718Y40544D01*
X100361Y41187D01*
X100816Y41974D01*
X101051Y42853D01*
Y43762D01*
X100816Y44640D01*
X100361Y45427D01*
X99718Y46070D01*
X98931Y46525D01*
X98053Y46760D01*
D02*
G37*
G36*
X91051D02*
X84146D01*
Y39854D01*
X91051D01*
Y46760D01*
D02*
G37*
G36*
X121378Y42520D02*
X118386D01*
Y39528D01*
X119086Y39715D01*
X119965Y40223D01*
X120683Y40940D01*
X121190Y41819D01*
X121378Y42520D01*
D02*
G37*
G36*
X116811D02*
X113819D01*
X114007Y41819D01*
X114514Y40940D01*
X115232Y40223D01*
X116111Y39715D01*
X116811Y39528D01*
Y42520D01*
D02*
G37*
G36*
X111378D02*
X108386D01*
Y39528D01*
X109086Y39715D01*
X109965Y40223D01*
X110683Y40940D01*
X111190Y41819D01*
X111378Y42520D01*
D02*
G37*
G36*
X106811D02*
X103819D01*
X104007Y41819D01*
X104514Y40940D01*
X105232Y40223D01*
X106111Y39715D01*
X106811Y39528D01*
Y42520D01*
D02*
G37*
G36*
X171860Y42317D02*
Y38986D01*
X175191D01*
X174943Y39911D01*
X174423Y40813D01*
X173687Y41549D01*
X172785Y42069D01*
X171860Y42317D01*
D02*
G37*
G36*
X170660D02*
X169734Y42069D01*
X168833Y41549D01*
X168097Y40813D01*
X167577Y39911D01*
X167328Y38986D01*
X170660D01*
Y42317D01*
D02*
G37*
G36*
X81456Y39512D02*
X80748D01*
X80094Y39241D01*
X79594Y38740D01*
X79323Y38086D01*
Y37378D01*
X79594Y36724D01*
X80094Y36224D01*
X80748Y35953D01*
X81456D01*
X82111Y36224D01*
X82611Y36724D01*
X82882Y37378D01*
Y38086D01*
X82611Y38740D01*
X82111Y39241D01*
X81456Y39512D01*
D02*
G37*
G36*
X73582D02*
X72874D01*
X72220Y39241D01*
X71720Y38740D01*
X71449Y38086D01*
Y37378D01*
X71720Y36724D01*
X72220Y36224D01*
X72874Y35953D01*
X73582D01*
X74237Y36224D01*
X74737Y36724D01*
X75008Y37378D01*
Y38086D01*
X74737Y38740D01*
X74237Y39241D01*
X73582Y39512D01*
D02*
G37*
G36*
X65708D02*
X65000D01*
X64346Y39241D01*
X63846Y38740D01*
X63575Y38086D01*
Y37378D01*
X63846Y36724D01*
X64346Y36224D01*
X65000Y35953D01*
X65708D01*
X66362Y36224D01*
X66863Y36724D01*
X67134Y37378D01*
Y38086D01*
X66863Y38740D01*
X66362Y39241D01*
X65708Y39512D01*
D02*
G37*
G36*
X57834D02*
X57126D01*
X56472Y39241D01*
X55972Y38740D01*
X55701Y38086D01*
Y37378D01*
X55972Y36724D01*
X56472Y36224D01*
X57126Y35953D01*
X57834D01*
X58488Y36224D01*
X58989Y36724D01*
X59260Y37378D01*
Y38086D01*
X58989Y38740D01*
X58488Y39241D01*
X57834Y39512D01*
D02*
G37*
G36*
X92874Y39181D02*
X92166D01*
X91512Y38910D01*
X91011Y38410D01*
X90740Y37756D01*
Y37048D01*
X91011Y36393D01*
X91512Y35893D01*
X92166Y35622D01*
X92874D01*
X93528Y35893D01*
X94028Y36393D01*
X94299Y37048D01*
Y37756D01*
X94028Y38410D01*
X93528Y38910D01*
X92874Y39181D01*
D02*
G37*
G36*
X159916Y41937D02*
X158981D01*
X158078Y41695D01*
X157268Y41227D01*
X156607Y40566D01*
X156140Y39757D01*
X155898Y38853D01*
Y37918D01*
X156140Y37015D01*
X156607Y36205D01*
X157268Y35544D01*
X158078Y35077D01*
X158981Y34835D01*
X159916D01*
X160819Y35077D01*
X161629Y35544D01*
X162291Y36205D01*
X162758Y37015D01*
X163000Y37918D01*
Y38853D01*
X162758Y39757D01*
X162291Y40566D01*
X161629Y41227D01*
X160819Y41695D01*
X159916Y41937D01*
D02*
G37*
G36*
X175191Y37786D02*
X171860D01*
Y34454D01*
X172785Y34702D01*
X173687Y35223D01*
X174423Y35959D01*
X174943Y36860D01*
X175191Y37786D01*
D02*
G37*
G36*
X170660D02*
X167328D01*
X167577Y36860D01*
X168097Y35959D01*
X168833Y35223D01*
X169734Y34702D01*
X170660Y34454D01*
Y37786D01*
D02*
G37*
G36*
X156260Y35575D02*
X155552D01*
X154897Y35304D01*
X154397Y34803D01*
X154126Y34149D01*
Y33441D01*
X154397Y32787D01*
X154897Y32287D01*
X155552Y32016D01*
X156260D01*
X156913Y32287D01*
X157414Y32787D01*
X157685Y33441D01*
Y34149D01*
X157414Y34803D01*
X156913Y35304D01*
X156260Y35575D01*
D02*
G37*
G36*
X146417D02*
X145709D01*
X145055Y35304D01*
X144554Y34803D01*
X144283Y34149D01*
Y33441D01*
X144554Y32787D01*
X145055Y32287D01*
X145709Y32016D01*
X146417D01*
X147071Y32287D01*
X147572Y32787D01*
X147843Y33441D01*
Y34149D01*
X147572Y34803D01*
X147071Y35304D01*
X146417Y35575D01*
D02*
G37*
G36*
X136574D02*
X135866D01*
X135213Y35304D01*
X134712Y34803D01*
X134441Y34149D01*
Y33441D01*
X134712Y32787D01*
X135213Y32287D01*
X135866Y32016D01*
X136574D01*
X137229Y32287D01*
X137729Y32787D01*
X138000Y33441D01*
Y34149D01*
X137729Y34803D01*
X137229Y35304D01*
X136574Y35575D01*
D02*
G37*
G36*
X126732D02*
X126024D01*
X125370Y35304D01*
X124869Y34803D01*
X124598Y34149D01*
Y33441D01*
X124869Y32787D01*
X125370Y32287D01*
X126024Y32016D01*
X126732D01*
X127386Y32287D01*
X127887Y32787D01*
X128157Y33441D01*
Y34149D01*
X127887Y34803D01*
X127386Y35304D01*
X126732Y35575D01*
D02*
G37*
G36*
X81456Y31638D02*
X80748D01*
X80094Y31367D01*
X79594Y30866D01*
X79323Y30212D01*
Y29504D01*
X79594Y28850D01*
X80094Y28350D01*
X80748Y28079D01*
X81456D01*
X82111Y28350D01*
X82611Y28850D01*
X82882Y29504D01*
Y30212D01*
X82611Y30866D01*
X82111Y31367D01*
X81456Y31638D01*
D02*
G37*
G36*
X73582D02*
X72874D01*
X72220Y31367D01*
X71720Y30866D01*
X71449Y30212D01*
Y29504D01*
X71720Y28850D01*
X72220Y28350D01*
X72874Y28079D01*
X73582D01*
X74237Y28350D01*
X74737Y28850D01*
X75008Y29504D01*
Y30212D01*
X74737Y30866D01*
X74237Y31367D01*
X73582Y31638D01*
D02*
G37*
G36*
X65708D02*
X65000D01*
X64346Y31367D01*
X63846Y30866D01*
X63575Y30212D01*
Y29504D01*
X63846Y28850D01*
X64346Y28350D01*
X65000Y28079D01*
X65708D01*
X66362Y28350D01*
X66863Y28850D01*
X67134Y29504D01*
Y30212D01*
X66863Y30866D01*
X66362Y31367D01*
X65708Y31638D01*
D02*
G37*
G36*
X57834D02*
X57126D01*
X56472Y31367D01*
X55972Y30866D01*
X55701Y30212D01*
Y29504D01*
X55972Y28850D01*
X56472Y28350D01*
X57126Y28079D01*
X57834D01*
X58488Y28350D01*
X58989Y28850D01*
X59260Y29504D01*
Y30212D01*
X58989Y30866D01*
X58488Y31367D01*
X57834Y31638D01*
D02*
G37*
G36*
X134244Y30913D02*
X132843D01*
X131489Y30551D01*
X130275Y29850D01*
X129284Y28859D01*
X128583Y27645D01*
X128220Y26291D01*
Y25141D01*
X128110Y25081D01*
X127827Y25021D01*
X127386Y25461D01*
X126732Y25732D01*
X126024D01*
X125370Y25461D01*
X124869Y24961D01*
X124598Y24307D01*
Y23599D01*
X124869Y22945D01*
X125370Y22444D01*
X126024Y22173D01*
X126732D01*
X127386Y22444D01*
X127887Y22945D01*
X128157Y23599D01*
Y23604D01*
X128551Y23655D01*
X128583Y23536D01*
X129284Y22322D01*
X130275Y21331D01*
X131489Y20630D01*
X132843Y20268D01*
X134244D01*
X135598Y20630D01*
X136812Y21331D01*
X137803Y22322D01*
X138503Y23536D01*
X138866Y24890D01*
Y26291D01*
X138503Y27645D01*
X137803Y28859D01*
X136812Y29850D01*
X135598Y30551D01*
X134244Y30913D01*
D02*
G37*
G36*
X44488Y26346D02*
Y22835D01*
X48000D01*
X47816Y23521D01*
X47179Y24624D01*
X46278Y25525D01*
X45175Y26162D01*
X44488Y26346D01*
D02*
G37*
G36*
X42126D02*
X41440Y26162D01*
X40336Y25525D01*
X39435Y24624D01*
X38798Y23521D01*
X38614Y22835D01*
X42126D01*
Y26346D01*
D02*
G37*
G36*
X156260Y25732D02*
X155552D01*
X154897Y25461D01*
X154397Y24961D01*
X154126Y24307D01*
Y23599D01*
X154397Y22945D01*
X154897Y22444D01*
X155552Y22173D01*
X156260D01*
X156913Y22444D01*
X157414Y22945D01*
X157685Y23599D01*
Y24307D01*
X157414Y24961D01*
X156913Y25461D01*
X156260Y25732D01*
D02*
G37*
G36*
X146417D02*
X145709D01*
X145055Y25461D01*
X144554Y24961D01*
X144283Y24307D01*
Y23599D01*
X144554Y22945D01*
X145055Y22444D01*
X145709Y22173D01*
X146417D01*
X147071Y22444D01*
X147572Y22945D01*
X147843Y23599D01*
Y24307D01*
X147572Y24961D01*
X147071Y25461D01*
X146417Y25732D01*
D02*
G37*
G36*
X95189Y30913D02*
X93787D01*
X92434Y30551D01*
X91220Y29850D01*
X90229Y28859D01*
X89528Y27645D01*
X89165Y26291D01*
Y24890D01*
X89528Y23536D01*
X90229Y22322D01*
X91220Y21331D01*
X92434Y20630D01*
X93787Y20268D01*
X95189D01*
X96543Y20630D01*
X97756Y21331D01*
X98747Y22322D01*
X99448Y23536D01*
X99811Y24890D01*
Y26291D01*
X99448Y27645D01*
X98747Y28859D01*
X97756Y29850D01*
X96543Y30551D01*
X95189Y30913D01*
D02*
G37*
G36*
X81456Y23764D02*
X80748D01*
X80094Y23493D01*
X79594Y22992D01*
X79323Y22338D01*
Y21630D01*
X79594Y20976D01*
X80094Y20476D01*
X80748Y20205D01*
X81456D01*
X82111Y20476D01*
X82611Y20976D01*
X82882Y21630D01*
Y22338D01*
X82611Y22992D01*
X82111Y23493D01*
X81456Y23764D01*
D02*
G37*
G36*
X73582D02*
X72874D01*
X72220Y23493D01*
X71720Y22992D01*
X71449Y22338D01*
Y21630D01*
X71720Y20976D01*
X72220Y20476D01*
X72874Y20205D01*
X73582D01*
X74237Y20476D01*
X74737Y20976D01*
X75008Y21630D01*
Y22338D01*
X74737Y22992D01*
X74237Y23493D01*
X73582Y23764D01*
D02*
G37*
G36*
X63576Y26091D02*
X62408D01*
X61279Y25788D01*
X60268Y25204D01*
X59442Y24378D01*
X58858Y23366D01*
X58555Y22238D01*
Y21069D01*
X58858Y19941D01*
X59442Y18929D01*
X60268Y18103D01*
X61279Y17519D01*
X62408Y17217D01*
X63576D01*
X64705Y17519D01*
X65716Y18103D01*
X66543Y18929D01*
X67127Y19941D01*
X67429Y21069D01*
Y22238D01*
X67127Y23366D01*
X66543Y24378D01*
X65716Y25204D01*
X64705Y25788D01*
X63576Y26091D01*
D02*
G37*
G36*
X48000Y20472D02*
X44488D01*
Y16961D01*
X45175Y17145D01*
X46278Y17782D01*
X47179Y18683D01*
X47816Y19786D01*
X48000Y20472D01*
D02*
G37*
G36*
X42126D02*
X38614D01*
X38798Y19786D01*
X39435Y18683D01*
X40336Y17782D01*
X41440Y17145D01*
X42126Y16961D01*
Y20472D01*
D02*
G37*
G36*
X134244Y17528D02*
X132843D01*
X131489Y17165D01*
X130275Y16464D01*
X129284Y15473D01*
X128583Y14259D01*
X128551Y14140D01*
X128157Y14192D01*
Y14464D01*
X127887Y15118D01*
X127386Y15619D01*
X126732Y15890D01*
X126024D01*
X125370Y15619D01*
X124869Y15118D01*
X124598Y14464D01*
Y13756D01*
X124869Y13102D01*
X125370Y12602D01*
X126024Y12331D01*
X126732D01*
X127386Y12602D01*
X127858Y13074D01*
X127879Y13072D01*
X128220Y12905D01*
Y11504D01*
X128583Y10150D01*
X129284Y8936D01*
X130275Y7945D01*
X131489Y7245D01*
X132843Y6882D01*
X134244D01*
X135598Y7245D01*
X136812Y7945D01*
X137803Y8936D01*
X138503Y10150D01*
X138866Y11504D01*
Y12905D01*
X138503Y14259D01*
X137803Y15473D01*
X136812Y16464D01*
X135598Y17165D01*
X134244Y17528D01*
D02*
G37*
G36*
X81456Y15890D02*
X80748D01*
X80094Y15619D01*
X79594Y15118D01*
X79323Y14464D01*
Y13756D01*
X79594Y13102D01*
X80094Y12602D01*
X80748Y12331D01*
X81456D01*
X82111Y12602D01*
X82611Y13102D01*
X82882Y13756D01*
Y14464D01*
X82611Y15118D01*
X82111Y15619D01*
X81456Y15890D01*
D02*
G37*
G36*
X73582D02*
X72874D01*
X72220Y15619D01*
X71720Y15118D01*
X71449Y14464D01*
Y13756D01*
X71720Y13102D01*
X72220Y12602D01*
X72874Y12331D01*
X73582D01*
X74237Y12602D01*
X74737Y13102D01*
X75008Y13756D01*
Y14464D01*
X74737Y15118D01*
X74237Y15619D01*
X73582Y15890D01*
D02*
G37*
G36*
X65708D02*
X65000D01*
X64346Y15619D01*
X63846Y15118D01*
X63575Y14464D01*
Y13756D01*
X63846Y13102D01*
X64346Y12602D01*
X65000Y12331D01*
X65708D01*
X66362Y12602D01*
X66863Y13102D01*
X67134Y13756D01*
Y14464D01*
X66863Y15118D01*
X66362Y15619D01*
X65708Y15890D01*
D02*
G37*
G36*
X57834D02*
X57126D01*
X56472Y15619D01*
X55972Y15118D01*
X55701Y14464D01*
Y13756D01*
X55972Y13102D01*
X56472Y12602D01*
X57126Y12331D01*
X57834D01*
X58488Y12602D01*
X58989Y13102D01*
X59260Y13756D01*
Y14464D01*
X58989Y15118D01*
X58488Y15619D01*
X57834Y15890D01*
D02*
G37*
G36*
X156260Y15890D02*
X155552D01*
X154897Y15619D01*
X154397Y15118D01*
X154126Y14464D01*
Y13756D01*
X154397Y13102D01*
X154897Y12602D01*
X155552Y12331D01*
X156260D01*
X156913Y12602D01*
X157414Y13102D01*
X157685Y13756D01*
Y14464D01*
X157414Y15118D01*
X156913Y15619D01*
X156260Y15890D01*
D02*
G37*
G36*
X146417D02*
X145709D01*
X145055Y15619D01*
X144554Y15118D01*
X144283Y14464D01*
Y13756D01*
X144554Y13102D01*
X145055Y12602D01*
X145709Y12331D01*
X146417D01*
X147071Y12602D01*
X147572Y13102D01*
X147843Y13756D01*
Y14464D01*
X147572Y15118D01*
X147071Y15619D01*
X146417Y15890D01*
D02*
G37*
G36*
X95189Y17528D02*
X93787D01*
X92434Y17165D01*
X91220Y16464D01*
X90229Y15473D01*
X89528Y14259D01*
X89165Y12905D01*
Y11504D01*
X89528Y10150D01*
X90229Y8936D01*
X91220Y7945D01*
X92434Y7245D01*
X93787Y6882D01*
X95189D01*
X96543Y7245D01*
X97756Y7945D01*
X98747Y8936D01*
X99448Y10150D01*
X99811Y11504D01*
Y12905D01*
X99448Y14259D01*
X98747Y15473D01*
X97756Y16464D01*
X96543Y17165D01*
X95189Y17528D01*
D02*
G37*
G36*
X181102Y25638D02*
X179173Y25448D01*
X177318Y24885D01*
X175608Y23971D01*
X174109Y22741D01*
X172879Y21243D01*
X171965Y19533D01*
X171402Y17677D01*
X171212Y15748D01*
X171402Y13819D01*
X171965Y11963D01*
X172879Y10253D01*
X174109Y8755D01*
X175608Y7525D01*
X177318Y6611D01*
X179173Y6048D01*
X181102Y5858D01*
X183032Y6048D01*
X184887Y6611D01*
X186597Y7525D01*
X188096Y8755D01*
X189326Y10253D01*
X190240Y11963D01*
X190803Y13819D01*
X190992Y15748D01*
X190803Y17677D01*
X190240Y19533D01*
X189326Y21243D01*
X188096Y22741D01*
X186597Y23971D01*
X184887Y24885D01*
X183032Y25448D01*
X181102Y25638D01*
D02*
G37*
G36*
X15748D02*
X13819Y25448D01*
X11963Y24885D01*
X10253Y23971D01*
X8755Y22741D01*
X7525Y21243D01*
X6611Y19533D01*
X6048Y17677D01*
X5858Y15748D01*
X6048Y13819D01*
X6611Y11963D01*
X7525Y10253D01*
X8755Y8755D01*
X10253Y7525D01*
X11963Y6611D01*
X13819Y6048D01*
X15748Y5858D01*
X17677Y6048D01*
X19533Y6611D01*
X21243Y7525D01*
X22741Y8755D01*
X23971Y10253D01*
X24885Y11963D01*
X25448Y13819D01*
X25638Y15748D01*
X25448Y17677D01*
X24885Y19533D01*
X23971Y21243D01*
X22741Y22741D01*
X21243Y23971D01*
X19533Y24885D01*
X17677Y25448D01*
X15748Y25638D01*
D02*
G37*
G36*
X89330Y8016D02*
X88622D01*
X87968Y7745D01*
X87468Y7244D01*
X87197Y6590D01*
Y5882D01*
X87468Y5228D01*
X87968Y4728D01*
X88622Y4457D01*
X89330D01*
X89985Y4728D01*
X90485Y5228D01*
X90756Y5882D01*
Y6590D01*
X90485Y7244D01*
X89985Y7745D01*
X89330Y8016D01*
D02*
G37*
G36*
X81456D02*
X80748D01*
X80094Y7745D01*
X79594Y7244D01*
X79323Y6590D01*
Y5882D01*
X79594Y5228D01*
X80094Y4728D01*
X80748Y4457D01*
X81456D01*
X82111Y4728D01*
X82611Y5228D01*
X82882Y5882D01*
Y6590D01*
X82611Y7244D01*
X82111Y7745D01*
X81456Y8016D01*
D02*
G37*
G36*
X73582D02*
X72874D01*
X72220Y7745D01*
X71720Y7244D01*
X71449Y6590D01*
Y5882D01*
X71720Y5228D01*
X72220Y4728D01*
X72874Y4457D01*
X73582D01*
X74237Y4728D01*
X74737Y5228D01*
X75008Y5882D01*
Y6590D01*
X74737Y7244D01*
X74237Y7745D01*
X73582Y8016D01*
D02*
G37*
G36*
X65708D02*
X65000D01*
X64346Y7745D01*
X63846Y7244D01*
X63575Y6590D01*
Y5882D01*
X63846Y5228D01*
X64346Y4728D01*
X65000Y4457D01*
X65708D01*
X66362Y4728D01*
X66863Y5228D01*
X67134Y5882D01*
Y6590D01*
X66863Y7244D01*
X66362Y7745D01*
X65708Y8016D01*
D02*
G37*
G36*
X57834D02*
X57126D01*
X56472Y7745D01*
X55972Y7244D01*
X55701Y6590D01*
Y5882D01*
X55972Y5228D01*
X56472Y4728D01*
X57126Y4457D01*
X57834D01*
X58488Y4728D01*
X58989Y5228D01*
X59260Y5882D01*
Y6590D01*
X58989Y7244D01*
X58488Y7745D01*
X57834Y8016D01*
D02*
G37*
%LPD*%
D50*
X35433Y62992D02*
X46260Y73819D01*
X26575Y62992D02*
X35433D01*
X72835Y141732D02*
X81693D01*
X62992Y116473D02*
Y131890D01*
X72835Y141732D01*
D52*
X179134Y65945D02*
Y80821D01*
X158465Y56102D02*
X167323D01*
X149606Y64961D02*
X158465Y56102D01*
D56*
X34449Y73819D02*
D03*
X46260Y62008D02*
D03*
X25591Y45276D02*
D03*
X177165Y135827D02*
D03*
X171260Y38386D02*
D03*
X7874Y127953D02*
D03*
X165354Y135827D02*
D03*
X72835Y45276D02*
D03*
X159449Y38386D02*
D03*
X46260Y73819D02*
D03*
X7874Y116142D02*
D03*
D57*
X39882Y187008D02*
D03*
X59882D02*
D03*
X117598Y43307D02*
D03*
X107598D02*
D03*
X84646Y187008D02*
D03*
X94646D02*
D03*
X59882Y175197D02*
D03*
X39882D02*
D03*
X84646D02*
D03*
X94646D02*
D03*
X104646Y187008D02*
D03*
Y175197D02*
D03*
X97598Y43307D02*
D03*
X49882Y187008D02*
D03*
X49882Y175197D02*
D03*
D58*
X43307Y21654D02*
D03*
X155512Y176181D02*
D03*
X135827D02*
D03*
X62992Y21654D02*
D03*
D59*
X170276Y111221D02*
D03*
X156496D02*
D03*
D60*
X114646Y187008D02*
D03*
Y175197D02*
D03*
X87598Y43307D02*
D03*
X69882Y187008D02*
D03*
Y175197D02*
D03*
D61*
X133543Y25591D02*
D03*
Y12205D02*
D03*
X94488Y25591D02*
D03*
Y12205D02*
D03*
D62*
X181102Y15748D02*
D03*
X181102Y181102D02*
D03*
X15748Y15748D02*
D03*
Y181102D02*
D03*
D63*
X26575Y62992D02*
D03*
X7874Y53480D02*
D03*
X33858Y59055D02*
D03*
X59055Y162402D02*
D03*
X46063Y139764D02*
D03*
X70866Y132874D02*
D03*
X120079Y139764D02*
D03*
X103347Y147638D02*
D03*
X98425Y152559D02*
D03*
X107283Y68898D02*
D03*
X7874Y44291D02*
D03*
X188976D02*
D03*
Y152559D02*
D03*
X7874D02*
D03*
X170276Y157480D02*
D03*
X177165Y142717D02*
D03*
X172244Y86614D02*
D03*
X123031Y65945D02*
D03*
Y50197D02*
D03*
X17717Y129921D02*
D03*
X55118Y124016D02*
D03*
X43307Y127953D02*
D03*
X42323Y53150D02*
D03*
Y37402D02*
D03*
X91535Y162402D02*
D03*
X167323Y96457D02*
D03*
X88583Y123031D02*
D03*
Y118110D02*
D03*
X104331D02*
D03*
Y123031D02*
D03*
X99163Y118110D02*
D03*
Y123031D02*
D03*
X93750Y118110D02*
D03*
Y123031D02*
D03*
X112205Y120079D02*
D03*
X120079Y121063D02*
D03*
X78740Y124016D02*
D03*
X128937Y121063D02*
D03*
X135827Y115157D02*
D03*
X10236Y140095D02*
D03*
X18110Y37732D02*
D03*
Y45606D02*
D03*
Y53480D02*
D03*
Y140095D02*
D03*
Y147969D02*
D03*
X25984Y29858D02*
D03*
Y37732D02*
D03*
Y53480D02*
D03*
Y147969D02*
D03*
X33858Y6236D02*
D03*
Y14110D02*
D03*
Y21984D02*
D03*
Y29858D02*
D03*
Y37732D02*
D03*
Y53480D02*
D03*
Y84977D02*
D03*
Y163717D02*
D03*
Y171591D02*
D03*
Y179465D02*
D03*
X41732Y6236D02*
D03*
Y14110D02*
D03*
Y29858D02*
D03*
X49606Y6236D02*
D03*
Y14110D02*
D03*
Y29858D02*
D03*
X57480Y61354D02*
D03*
Y132221D02*
D03*
Y140095D02*
D03*
Y147969D02*
D03*
Y155843D02*
D03*
X65354Y61354D02*
D03*
X73228D02*
D03*
X81103D02*
D03*
X88977D02*
D03*
Y155843D02*
D03*
X96851Y61354D02*
D03*
X104725D02*
D03*
Y77103D02*
D03*
Y84977D02*
D03*
Y155843D02*
D03*
X112599Y6236D02*
D03*
Y14110D02*
D03*
Y21984D02*
D03*
Y29858D02*
D03*
Y37732D02*
D03*
Y61354D02*
D03*
Y84977D02*
D03*
Y147969D02*
D03*
X120473Y37732D02*
D03*
Y147969D02*
D03*
X128347Y140095D02*
D03*
X136221Y124347D02*
D03*
Y132221D02*
D03*
X167717Y124347D02*
D03*
Y163717D02*
D03*
Y171591D02*
D03*
X175591Y45606D02*
D03*
Y92851D02*
D03*
Y100724D02*
D03*
Y108598D02*
D03*
Y116473D02*
D03*
Y124347D02*
D03*
Y163717D02*
D03*
X183465Y37732D02*
D03*
Y53480D02*
D03*
Y61354D02*
D03*
Y69228D02*
D03*
Y77103D02*
D03*
Y84977D02*
D03*
Y92851D02*
D03*
Y100724D02*
D03*
Y108598D02*
D03*
Y116473D02*
D03*
Y124347D02*
D03*
Y147969D02*
D03*
X155512Y187992D02*
D03*
X164370D02*
D03*
X30512Y187008D02*
D03*
X112205Y125000D02*
D03*
X120079Y126969D02*
D03*
X128937D02*
D03*
X70866Y124016D02*
D03*
X100394Y162402D02*
D03*
X9843Y147969D02*
D03*
X29528Y125984D02*
D03*
Y131890D02*
D03*
X24606D02*
D03*
X33465Y92520D02*
D03*
X29528Y152559D02*
D03*
Y166339D02*
D03*
X14764Y165354D02*
D03*
X15748Y152559D02*
D03*
X110236Y53150D02*
D03*
X117126D02*
D03*
X154528Y79724D02*
D03*
Y86614D02*
D03*
X130905D02*
D03*
Y80709D02*
D03*
X138779Y86614D02*
D03*
X143701D02*
D03*
X148622D02*
D03*
X120079Y133858D02*
D03*
X160433Y96457D02*
D03*
X112205Y102362D02*
D03*
X130905Y92520D02*
D03*
X121063D02*
D03*
X139173D02*
D03*
X148032D02*
D03*
X156890Y126315D02*
D03*
X130315Y188323D02*
D03*
X148032Y135173D02*
D03*
Y152890D02*
D03*
Y108598D02*
D03*
X139173Y152890D02*
D03*
X112599Y161748D02*
D03*
X148032D02*
D03*
Y144032D02*
D03*
Y126315D02*
D03*
X130315Y161748D02*
D03*
Y152890D02*
D03*
X156890Y135173D02*
D03*
X139173Y161748D02*
D03*
Y188323D02*
D03*
X156890Y117457D02*
D03*
X121457Y99740D02*
D03*
X139173D02*
D03*
X148032Y117457D02*
D03*
X130315Y99740D02*
D03*
X148032D02*
D03*
X135827Y108268D02*
D03*
X113189Y96457D02*
D03*
X123031Y81693D02*
D03*
X122835Y177953D02*
D03*
X145669Y176181D02*
D03*
X122835Y183071D02*
D03*
X139173Y144032D02*
D03*
X162402Y64961D02*
D03*
X157480D02*
D03*
X128937Y65945D02*
D03*
X143701Y62992D02*
D03*
X136811D02*
D03*
X149606Y58071D02*
D03*
X136811D02*
D03*
X126378Y14110D02*
D03*
Y23953D02*
D03*
Y33795D02*
D03*
X136221D02*
D03*
Y43638D02*
D03*
X146063Y14110D02*
D03*
Y23953D02*
D03*
Y33795D02*
D03*
Y43638D02*
D03*
X155905Y14110D02*
D03*
Y23953D02*
D03*
Y33795D02*
D03*
Y53480D02*
D03*
X128937Y50197D02*
D03*
X143701Y58071D02*
D03*
X42323Y151772D02*
D03*
X48031Y157480D02*
D03*
X42323D02*
D03*
Y163189D02*
D03*
X48031Y151772D02*
D03*
Y163189D02*
D03*
X10236Y84977D02*
D03*
Y92851D02*
D03*
Y100724D02*
D03*
Y108598D02*
D03*
X18110Y84977D02*
D03*
Y92851D02*
D03*
Y100724D02*
D03*
Y108598D02*
D03*
X25984Y84977D02*
D03*
Y92851D02*
D03*
Y100724D02*
D03*
Y108598D02*
D03*
X55118Y117126D02*
D03*
X92520Y37402D02*
D03*
X62992Y116473D02*
D03*
X88977Y6236D02*
D03*
X81103Y37732D02*
D03*
Y29858D02*
D03*
Y21984D02*
D03*
Y14110D02*
D03*
Y6236D02*
D03*
X73228Y37732D02*
D03*
Y29858D02*
D03*
Y21984D02*
D03*
Y14110D02*
D03*
Y6236D02*
D03*
X65354Y45606D02*
D03*
Y37732D02*
D03*
Y29858D02*
D03*
Y14110D02*
D03*
Y6236D02*
D03*
X57480Y37732D02*
D03*
Y29858D02*
D03*
Y14110D02*
D03*
Y6236D02*
D03*
X76378Y171590D02*
D03*
Y155055D02*
D03*
Y149543D02*
D03*
X70866Y160567D02*
D03*
Y155055D02*
D03*
Y149543D02*
D03*
X65354Y160567D02*
D03*
Y155055D02*
D03*
Y149543D02*
D03*
X57480Y108598D02*
D03*
Y100724D02*
D03*
Y92851D02*
D03*
Y84977D02*
D03*
Y77103D02*
D03*
X49606Y108598D02*
D03*
Y100724D02*
D03*
Y92851D02*
D03*
Y84977D02*
D03*
X41732Y108598D02*
D03*
Y100724D02*
D03*
Y92851D02*
D03*
Y84977D02*
D03*
X47244Y132874D02*
D03*
X179134Y80821D02*
D03*
Y65945D02*
D03*
X81693Y141732D02*
D03*
X167323Y56102D02*
D03*
X149606Y64961D02*
D03*
M02*
