G04*
G04 #@! TF.GenerationSoftware,Altium Limited,Altium Designer,26.2.0 (7)*
G04*
G04 Layer_Physical_Order=1*
G04 Layer_Color=255*
%FSLAX25Y25*%
%MOIN*%
G70*
G04*
G04 #@! TF.SameCoordinates,F614A745-3F37-49C4-9740-4EE86F791CEA*
G04*
G04*
G04 #@! TF.FilePolarity,Positive*
G04*
G01*
G75*
%ADD20R,0.08600X0.06500*%
%ADD21R,0.03543X0.03150*%
%ADD22R,0.03150X0.03543*%
%ADD23R,0.04370X0.05787*%
%ADD24R,0.05787X0.04370*%
%ADD25R,0.01772X0.04134*%
%ADD26R,0.01400X0.02200*%
%ADD27R,0.03200X0.03500*%
%ADD28R,0.04724X0.02559*%
%ADD29R,0.01100X0.02800*%
G04:AMPARAMS|DCode=30|XSize=35.43mil|YSize=31.5mil|CornerRadius=0mil|HoleSize=0mil|Usage=FLASHONLY|Rotation=135.000|XOffset=0mil|YOffset=0mil|HoleType=Round|Shape=Rectangle|*
%AMROTATEDRECTD30*
4,1,4,0.02366,-0.00139,0.00139,-0.02366,-0.02366,0.00139,-0.00139,0.02366,0.02366,-0.00139,0.0*
%
%ADD30ROTATEDRECTD30*%

%ADD31R,0.08700X0.31500*%
%ADD32R,0.07500X0.03500*%
%ADD38R,0.01968X0.08661*%
%ADD48R,0.19291X0.11614*%
%ADD49C,0.03937*%
%ADD50C,0.01000*%
%ADD51C,0.01500*%
%ADD52C,0.01600*%
%ADD53C,0.00799*%
%ADD54C,0.01201*%
%ADD55C,0.01598*%
%ADD56C,0.05906*%
%ADD57C,0.05709*%
%ADD58C,0.07677*%
%ADD59C,0.05150*%
%ADD60R,0.05709X0.05709*%
%ADD61C,0.09449*%
%ADD62C,0.15748*%
%ADD63C,0.02362*%
G36*
X99648Y165354D02*
X99866Y164827D01*
X107740Y156953D01*
X108268Y156735D01*
X119770D01*
X139018Y137486D01*
Y112951D01*
X132634D01*
Y113870D01*
X124846D01*
Y112951D01*
X123579D01*
Y113870D01*
X115791D01*
Y112951D01*
X114189D01*
Y113476D01*
X108646D01*
Y112951D01*
X107045D01*
Y113189D01*
X106826Y113716D01*
X106299Y113935D01*
X101378D01*
X101263Y113887D01*
X100520Y113591D01*
X100520Y113591D01*
X97354D01*
Y113591D01*
X96536Y113705D01*
X96457Y113738D01*
X91535D01*
X91008Y113519D01*
X90790Y112992D01*
Y105192D01*
X89992Y104395D01*
X89953Y104299D01*
X89857Y104260D01*
X86593Y100996D01*
X75229D01*
X74898Y101796D01*
X76118Y103016D01*
X76336Y103543D01*
Y118504D01*
X76118Y119031D01*
X73559Y121590D01*
X73032Y121809D01*
X52575D01*
Y122531D01*
X49803D01*
Y123031D01*
X49303D01*
Y125606D01*
X47032D01*
Y125606D01*
X46669D01*
Y125606D01*
X44398D01*
Y123031D01*
X43898D01*
Y122531D01*
X41126D01*
Y121809D01*
X39583D01*
Y122728D01*
X32858D01*
Y121809D01*
X31482D01*
X30667Y122047D01*
X30449Y122575D01*
X29921Y122793D01*
X20488D01*
Y124500D01*
X14945D01*
Y122793D01*
X2953D01*
Y193898D01*
X43546D01*
Y189927D01*
X42745Y189595D01*
X41478Y190862D01*
X40669D01*
Y187008D01*
Y183153D01*
X41478D01*
X42745Y184421D01*
X43546Y184089D01*
Y178116D01*
X42745Y177784D01*
X41478Y179051D01*
X40669D01*
Y175197D01*
Y171343D01*
X41478D01*
X42745Y172609D01*
X43546Y172278D01*
Y170584D01*
X34906Y161945D01*
X34687Y161417D01*
Y152559D01*
X34906Y152032D01*
X37859Y149079D01*
X38386Y148861D01*
X51378D01*
X51905Y149079D01*
X54858Y152032D01*
X55076Y152559D01*
Y160105D01*
X55274D01*
Y162205D01*
Y164305D01*
X55076D01*
Y193898D01*
X64609D01*
Y166057D01*
X61481Y162929D01*
X61262Y162402D01*
X61262Y148622D01*
X61480Y148095D01*
X63449Y146126D01*
X63976Y145908D01*
X76772Y145908D01*
X77299Y146126D01*
X81236Y150063D01*
X81454Y150591D01*
Y159298D01*
X82154Y160053D01*
X83908D01*
X84073Y160053D01*
X84774Y159656D01*
Y159652D01*
X86874D01*
Y162402D01*
Y165152D01*
X84774D01*
Y165147D01*
X84073Y164750D01*
X83908Y164750D01*
X81723D01*
X81454Y165152D01*
Y167323D01*
X81236Y167850D01*
X79486Y169600D01*
Y193898D01*
X99648D01*
Y165354D01*
D02*
G37*
G36*
X54331Y164305D02*
X54174D01*
Y162205D01*
Y160105D01*
X54331D01*
Y152559D01*
X51378Y149606D01*
X38386D01*
X35433Y152559D01*
Y161417D01*
X44291Y170276D01*
Y193898D01*
X54331D01*
Y164305D01*
D02*
G37*
G36*
X78740Y169291D02*
X80709Y167323D01*
Y165152D01*
X80224D01*
Y162402D01*
Y159652D01*
X80709D01*
Y150591D01*
X76772Y146653D01*
X63976Y146653D01*
X62008Y148622D01*
X62008D01*
X62008Y162402D01*
X65354Y165748D01*
Y193898D01*
X78740D01*
Y169291D01*
D02*
G37*
G36*
X75590Y118504D02*
Y103543D01*
X73248Y101200D01*
Y69175D01*
X72969Y68897D01*
X41338Y68899D01*
X40354Y69882D01*
Y93504D01*
X38386Y95472D01*
X33071D01*
X30709Y97835D01*
Y110024D01*
X32669D01*
Y112795D01*
Y115567D01*
X30709D01*
Y121063D01*
X41528D01*
Y120858D01*
X46268D01*
Y121063D01*
X47433D01*
Y120858D01*
X52173D01*
Y121063D01*
X73032D01*
X75590Y118504D01*
D02*
G37*
G36*
X29921Y115567D02*
X28157D01*
Y112795D01*
Y110024D01*
X29921D01*
Y82480D01*
X27165Y79724D01*
X2953D01*
Y122047D01*
X14945D01*
Y119988D01*
X20488D01*
Y122047D01*
X29921D01*
Y115567D01*
D02*
G37*
G36*
X147638Y173228D02*
X152559Y168307D01*
X163583Y157283D01*
Y146553D01*
X171260Y138679D01*
Y132874D01*
X163583Y125197D01*
Y103543D01*
Y93642D01*
X163402Y93323D01*
X163189Y93323D01*
X161327D01*
Y90551D01*
Y87779D01*
X163010D01*
X163173Y87386D01*
X156496Y80709D01*
Y76772D01*
X153543Y73819D01*
X148151D01*
Y73433D01*
X139251D01*
Y73819D01*
X120488Y73819D01*
Y74303D01*
X117717D01*
Y74803D01*
X117217D01*
Y77378D01*
X116142D01*
Y89567D01*
X105315Y100394D01*
X102362D01*
X101750Y101006D01*
X101710Y101207D01*
X101401Y101669D01*
X101378Y101692D01*
Y113189D01*
X106299D01*
Y112205D01*
X109047D01*
Y111803D01*
X113787D01*
Y112205D01*
X116193D01*
Y111587D01*
X123177D01*
Y112205D01*
X125248D01*
Y111587D01*
X132232D01*
Y112205D01*
X139764D01*
Y137795D01*
X120079Y157480D01*
X108268D01*
X100394Y165354D01*
Y193898D01*
X147638D01*
Y173228D01*
D02*
G37*
G36*
X96457Y102362D02*
X95748Y101653D01*
Y96908D01*
X87048D01*
Y100396D01*
X90384Y103732D01*
X90520D01*
Y103868D01*
X91535Y104884D01*
Y112992D01*
X96457D01*
Y102362D01*
D02*
G37*
G36*
X97867Y101048D02*
X98435Y100480D01*
X98077Y99614D01*
X98024D01*
Y95268D01*
X102764D01*
Y98918D01*
X102764Y99614D01*
X103616Y99648D01*
X105006D01*
X115396Y89258D01*
Y77378D01*
X115480Y77176D01*
X115347Y76976D01*
X115347D01*
Y74920D01*
X114480Y74488D01*
X114181Y74713D01*
Y76976D01*
X109441D01*
Y72630D01*
X109441D01*
X109194Y71866D01*
X109039D01*
Y69791D01*
X111811D01*
Y69291D01*
X112311D01*
Y66716D01*
X114583D01*
Y66871D01*
X115347Y67118D01*
Y67118D01*
X120087D01*
Y71465D01*
X117429D01*
X117204Y71764D01*
X117637Y72630D01*
X120087D01*
Y72805D01*
X120488Y73073D01*
X125912D01*
X126270Y72207D01*
X125457Y71393D01*
X125239Y70866D01*
Y63833D01*
X125213Y63795D01*
X123925D01*
Y61024D01*
X123425D01*
Y60524D01*
X120850D01*
Y58252D01*
X120850D01*
Y57890D01*
X120850D01*
Y55618D01*
X123425D01*
Y55118D01*
X123925D01*
Y52346D01*
X125213D01*
X125239Y52308D01*
X125239Y39679D01*
X121520Y35960D01*
X121301Y35433D01*
Y2953D01*
X107045D01*
Y34449D01*
X106826Y34976D01*
X103108Y38695D01*
Y41155D01*
X103974Y41481D01*
X106002Y39453D01*
X106811D01*
Y43307D01*
Y47161D01*
X106002D01*
X103974Y45134D01*
X103108Y45459D01*
Y49213D01*
X102890Y49740D01*
X99937Y52693D01*
X99410Y52911D01*
X51181D01*
X50654Y52693D01*
X47701Y49740D01*
X47612Y49526D01*
X42823D01*
Y45276D01*
Y41026D01*
X47483D01*
Y39370D01*
X47701Y38843D01*
X52404Y34140D01*
Y2953D01*
X2953D01*
Y78979D01*
X5701D01*
Y75008D01*
X4520D01*
Y70661D01*
X6969D01*
X7402Y69795D01*
X7177Y69496D01*
X4520D01*
Y65150D01*
X9260D01*
Y65150D01*
X10024Y64903D01*
Y64748D01*
X12295D01*
Y67323D01*
X13295D01*
Y64748D01*
X15063D01*
X15567Y64748D01*
X16331Y64748D01*
X18201D01*
Y67323D01*
X19201D01*
Y64748D01*
X21472D01*
Y64903D01*
X22236Y65150D01*
X22339Y65150D01*
X23417D01*
Y64248D01*
X23766Y63407D01*
X24761Y62412D01*
X24795Y62398D01*
Y62255D01*
X25838Y61213D01*
X27312D01*
X28354Y62255D01*
Y63729D01*
X27559Y64525D01*
X26976Y65150D01*
Y69496D01*
X22339D01*
X22236Y69496D01*
X21472Y69743D01*
Y69898D01*
X21318D01*
X21071Y70661D01*
X21071Y70764D01*
Y71646D01*
X22236D01*
Y70661D01*
X26976D01*
Y75008D01*
X22236D01*
Y74024D01*
X21071D01*
Y75008D01*
X16331D01*
Y71081D01*
X15670Y70267D01*
X15293Y70267D01*
X15165Y70661D01*
Y75008D01*
X10425D01*
Y72744D01*
X10126Y72519D01*
X9260Y72952D01*
Y75008D01*
X8079D01*
Y78979D01*
X27165D01*
X27693Y79197D01*
X30449Y81953D01*
X30667Y82480D01*
Y95690D01*
X31467Y96021D01*
X32544Y94945D01*
X33071Y94727D01*
X38077D01*
X39609Y93195D01*
Y69882D01*
X39827Y69355D01*
X40810Y68371D01*
X41002Y68292D01*
X41337Y68153D01*
X72969Y68151D01*
X73319Y68296D01*
X87048D01*
Y68297D01*
X96346D01*
Y90416D01*
X98024D01*
Y89756D01*
X102764D01*
Y94102D01*
X98024D01*
Y93442D01*
X96346D01*
Y96552D01*
X96493Y96908D01*
Y100776D01*
X96909Y101155D01*
X97867Y101048D01*
D02*
G37*
G36*
X165437Y71366D02*
X167323D01*
Y70866D01*
X167823D01*
Y67799D01*
X168307D01*
X168307Y62008D01*
X165354Y59055D01*
X165354Y2953D01*
X122047D01*
Y35433D01*
X125984Y39370D01*
X125984Y52308D01*
X126378Y52346D01*
X128437D01*
Y55118D01*
X128937D01*
Y55618D01*
X131512D01*
Y57858D01*
X131512Y57890D01*
Y58252D01*
X131512Y58284D01*
Y60524D01*
X128937D01*
Y61024D01*
X128437D01*
Y63795D01*
X126378D01*
X126362Y63795D01*
X125984Y63833D01*
Y70866D01*
X127559Y72441D01*
X144095D01*
X145669Y70866D01*
Y62992D01*
X146653Y62008D01*
X151575D01*
X152559Y62992D01*
Y70866D01*
X154528Y72835D01*
X158646D01*
Y72744D01*
X164189D01*
Y72835D01*
X165437D01*
Y71366D01*
D02*
G37*
G36*
X193898Y2953D02*
X166100D01*
X166100Y48842D01*
X169581D01*
X171419Y47004D01*
X174492Y50077D01*
X171140Y53429D01*
X169581Y51869D01*
X166100D01*
Y53658D01*
X166966Y54323D01*
X168060D01*
X169102Y55365D01*
Y55741D01*
X171051Y57689D01*
X171368Y58457D01*
X172323D01*
X173827Y59960D01*
Y62087D01*
X172323Y63591D01*
X171494D01*
Y68201D01*
X176484D01*
Y73532D01*
X165839D01*
Y73532D01*
X165730Y73459D01*
X165437Y73580D01*
X164189D01*
X163787Y74352D01*
Y74417D01*
X159047D01*
Y74352D01*
X158646Y73580D01*
X155584D01*
X155226Y74446D01*
X157023Y76244D01*
X157242Y76772D01*
Y80400D01*
X163701Y86858D01*
X163757Y86996D01*
X163862Y87100D01*
Y87249D01*
X163919Y87386D01*
X164693Y87779D01*
X165839D01*
Y90551D01*
Y93323D01*
X165129D01*
X164328Y93642D01*
Y103543D01*
Y124888D01*
X171787Y132347D01*
X172006Y132874D01*
Y138679D01*
X171898Y138938D01*
X171794Y139199D01*
X166569Y144558D01*
X166905Y145356D01*
X169586D01*
Y149606D01*
Y153856D01*
X164786D01*
X164328Y154533D01*
Y157283D01*
X164110Y157811D01*
X153086Y168834D01*
X153086Y168834D01*
X148383Y173537D01*
Y193898D01*
X193898D01*
Y2953D01*
D02*
G37*
G36*
X102362Y49213D02*
Y38386D01*
X106299Y34449D01*
Y2953D01*
X53150D01*
Y34449D01*
X48228Y39370D01*
Y49213D01*
X51181Y52165D01*
X99410D01*
X102362Y49213D01*
D02*
G37*
%LPC*%
G36*
X86242Y190862D02*
X85433D01*
Y187795D01*
X88500D01*
Y188604D01*
X86242Y190862D01*
D02*
G37*
G36*
X96242D02*
X95433D01*
Y187795D01*
X98500D01*
Y188604D01*
X96242Y190862D01*
D02*
G37*
G36*
X61478D02*
X60669D01*
Y187795D01*
X63736D01*
Y188604D01*
X61478Y190862D01*
D02*
G37*
G36*
X39094D02*
X38285D01*
X36028Y188604D01*
Y187795D01*
X39094D01*
Y190862D01*
D02*
G37*
G36*
X93858D02*
X93049D01*
X90791Y188604D01*
Y187795D01*
X93858D01*
Y190862D01*
D02*
G37*
G36*
X59095D02*
X58285D01*
X56028Y188604D01*
Y187795D01*
X59095D01*
Y190862D01*
D02*
G37*
G36*
X83858D02*
X83049D01*
X80791Y188604D01*
Y187795D01*
X83858D01*
Y190862D01*
D02*
G37*
G36*
X98500Y186221D02*
X95433D01*
Y183153D01*
X96242D01*
X98500Y185411D01*
Y186221D01*
D02*
G37*
G36*
X93858D02*
X90791D01*
Y185411D01*
X93049Y183153D01*
X93858D01*
Y186221D01*
D02*
G37*
G36*
X88500D02*
X85433D01*
Y183153D01*
X86242D01*
X88500Y185411D01*
Y186221D01*
D02*
G37*
G36*
X83858D02*
X80791D01*
Y185411D01*
X83049Y183153D01*
X83858D01*
Y186221D01*
D02*
G37*
G36*
X63736D02*
X60669D01*
Y183153D01*
X61478D01*
X63736Y185411D01*
Y186221D01*
D02*
G37*
G36*
X59095D02*
X56028D01*
Y185411D01*
X58285Y183153D01*
X59095D01*
Y186221D01*
D02*
G37*
G36*
X39094D02*
X36028D01*
Y185411D01*
X38285Y183153D01*
X39094D01*
Y186221D01*
D02*
G37*
G36*
X86242Y179051D02*
X85433D01*
Y175984D01*
X88500D01*
Y176793D01*
X86242Y179051D01*
D02*
G37*
G36*
X96242D02*
X95433D01*
Y175984D01*
X98500D01*
Y176793D01*
X96242Y179051D01*
D02*
G37*
G36*
X61478D02*
X60669D01*
Y175984D01*
X63736D01*
Y176793D01*
X61478Y179051D01*
D02*
G37*
G36*
X39094D02*
X38285D01*
X36028Y176793D01*
Y175984D01*
X39094D01*
Y179051D01*
D02*
G37*
G36*
X93858D02*
X93049D01*
X90791Y176793D01*
Y175984D01*
X93858D01*
Y179051D01*
D02*
G37*
G36*
X59095D02*
X58285D01*
X56028Y176793D01*
Y175984D01*
X59095D01*
Y179051D01*
D02*
G37*
G36*
X83858D02*
X83049D01*
X80791Y176793D01*
Y175984D01*
X83858D01*
Y179051D01*
D02*
G37*
G36*
X98500Y174409D02*
X95433D01*
Y171343D01*
X96242D01*
X98500Y173600D01*
Y174409D01*
D02*
G37*
G36*
X93858D02*
X90791D01*
Y173600D01*
X93049Y171343D01*
X93858D01*
Y174409D01*
D02*
G37*
G36*
X88500D02*
X85433D01*
Y171343D01*
X86242D01*
X88500Y173600D01*
Y174409D01*
D02*
G37*
G36*
X83858D02*
X80791D01*
Y173600D01*
X83049Y171343D01*
X83858D01*
Y174409D01*
D02*
G37*
G36*
X63736D02*
X60669D01*
Y171343D01*
X61478D01*
X63736Y173600D01*
Y174409D01*
D02*
G37*
G36*
X59095D02*
X56028D01*
Y173600D01*
X58285Y171343D01*
X59095D01*
Y174409D01*
D02*
G37*
G36*
X39094D02*
X36028D01*
Y173600D01*
X38285Y171343D01*
X39094D01*
Y174409D01*
D02*
G37*
G36*
X15748Y191138D02*
X11908Y190374D01*
X8652Y188198D01*
X6477Y184943D01*
X5713Y181102D01*
X6477Y177262D01*
X7825Y175244D01*
X6842Y174260D01*
X6414Y173228D01*
Y164378D01*
X5504D01*
Y160134D01*
X5504Y160031D01*
X5257Y159268D01*
X5102D01*
Y157193D01*
X10646D01*
Y159268D01*
X10491D01*
X10244Y160031D01*
X10244Y160134D01*
Y164378D01*
X9334D01*
Y172571D01*
X10000Y173105D01*
X11908Y171831D01*
X15748Y171067D01*
X19588Y171831D01*
X22844Y174006D01*
X25019Y177262D01*
X25783Y181102D01*
X25019Y184943D01*
X22844Y188198D01*
X19588Y190374D01*
X15748Y191138D01*
D02*
G37*
G36*
X89974Y165152D02*
X87874D01*
Y162902D01*
X89974D01*
Y165152D01*
D02*
G37*
G36*
X57474Y164305D02*
X56274D01*
Y162705D01*
X57474D01*
Y164305D01*
D02*
G37*
G36*
Y161705D02*
X56274D01*
Y160105D01*
X57474D01*
Y161705D01*
D02*
G37*
G36*
X89974Y161902D02*
X87874D01*
Y159652D01*
X89974D01*
Y161902D01*
D02*
G37*
G36*
X10646Y156193D02*
X8374D01*
Y154118D01*
X10646D01*
Y156193D01*
D02*
G37*
G36*
X7374D02*
X5102D01*
Y154118D01*
X7374D01*
Y156193D01*
D02*
G37*
G36*
X97925Y150409D02*
X95850D01*
Y150255D01*
X95087Y150008D01*
Y150008D01*
X90740D01*
Y148827D01*
X89575D01*
Y149221D01*
X84835D01*
Y144874D01*
X89575D01*
Y146449D01*
X90740D01*
Y145268D01*
X93004D01*
X93229Y144968D01*
X92796Y144102D01*
X90740D01*
Y142921D01*
X89575D01*
Y143709D01*
X84835D01*
Y142921D01*
X83021D01*
X82430Y143512D01*
X80956D01*
X79913Y142469D01*
Y140995D01*
X80956Y139953D01*
X82430D01*
X83021Y140543D01*
X84835D01*
Y139362D01*
X86345D01*
X86518Y138496D01*
X86090Y138319D01*
X84896Y137124D01*
X83473D01*
Y138197D01*
X79228D01*
X79126Y138197D01*
X78362Y138444D01*
Y138598D01*
X76287D01*
Y135827D01*
X75787D01*
Y135327D01*
X73213D01*
Y133559D01*
X73213Y133055D01*
X73213Y132189D01*
Y130421D01*
X75787D01*
Y129921D01*
X76287D01*
Y127150D01*
X78362D01*
Y127304D01*
X79126Y127551D01*
X79228Y127551D01*
X83473D01*
Y128624D01*
X87354D01*
Y126370D01*
X90520D01*
Y135003D01*
X91386Y135362D01*
X92354Y134393D01*
Y126370D01*
X95520D01*
Y136228D01*
X94189D01*
X92098Y138319D01*
X91671Y138496D01*
X91843Y139362D01*
X95087D01*
Y141812D01*
X95953Y142244D01*
X96252Y142020D01*
Y139362D01*
X97492D01*
Y136228D01*
X97354D01*
Y126370D01*
X100520D01*
Y136228D01*
X99870D01*
Y139362D01*
X100598D01*
Y144102D01*
X100598D01*
X100846Y144866D01*
X101000D01*
Y147138D01*
X98425D01*
Y147638D01*
X97925D01*
Y150409D01*
D02*
G37*
G36*
X101000D02*
X98925D01*
Y148138D01*
X101000D01*
Y150409D01*
D02*
G37*
G36*
X115248Y142535D02*
X113173D01*
Y142381D01*
X112409Y142134D01*
X112307Y142134D01*
X108063D01*
Y140844D01*
X106881D01*
X105394Y142331D01*
X103268D01*
X101764Y140827D01*
Y138700D01*
X103054Y137411D01*
Y136228D01*
X102354D01*
Y126370D01*
X105520D01*
Y136228D01*
X105214D01*
Y137197D01*
X105394D01*
X106881Y138683D01*
X108063D01*
Y137394D01*
X109156D01*
Y136228D01*
X108063D01*
Y131488D01*
X112409D01*
Y136228D01*
X111317D01*
Y137394D01*
X112307D01*
X112409Y137394D01*
X113173Y137147D01*
Y136992D01*
X113328D01*
X113575Y136228D01*
X113575Y136126D01*
Y131488D01*
X117921D01*
Y132581D01*
X118787Y132633D01*
X119342Y132079D01*
X120816D01*
X121858Y133121D01*
Y134595D01*
X120816Y135638D01*
X119342D01*
X118787Y135084D01*
X117921Y135135D01*
Y136126D01*
X117921Y136228D01*
X118168Y136992D01*
X118323D01*
Y139264D01*
X115748D01*
Y139764D01*
X115248D01*
Y142535D01*
D02*
G37*
G36*
X44504Y142535D02*
X42429D01*
Y140264D01*
X44504D01*
Y142535D01*
D02*
G37*
G36*
X118323Y142535D02*
X116248D01*
Y140264D01*
X118323D01*
Y142535D01*
D02*
G37*
G36*
X41429Y142535D02*
X39354D01*
Y142381D01*
X38591Y142134D01*
X38488Y142134D01*
X34244D01*
Y139969D01*
X33079D01*
Y140827D01*
X31575Y142331D01*
X29449D01*
X27945Y140827D01*
Y138700D01*
X29449Y137197D01*
X31575D01*
X31969Y137591D01*
X34244D01*
Y137394D01*
X35228D01*
Y135244D01*
X34244D01*
Y130504D01*
X35228D01*
Y128847D01*
X33260D01*
Y125508D01*
X32858D01*
Y123728D01*
X36220D01*
X39583D01*
Y125508D01*
X39181D01*
Y128847D01*
X37606D01*
Y130504D01*
X38591D01*
Y135244D01*
X37606D01*
Y137394D01*
X38488D01*
X38591Y137394D01*
X39354Y137147D01*
Y136992D01*
X41429D01*
Y139764D01*
X41929D01*
D01*
X41429D01*
Y142535D01*
D02*
G37*
G36*
X44504Y139264D02*
X42429D01*
Y136992D01*
X44504D01*
Y139264D01*
D02*
G37*
G36*
X75287Y138598D02*
X73213D01*
Y136327D01*
X75287D01*
Y138598D01*
D02*
G37*
G36*
X44102Y135244D02*
X39756D01*
Y130504D01*
X44102D01*
Y131685D01*
X45916D01*
X46507Y131095D01*
X47981D01*
X49024Y132137D01*
Y133611D01*
X47981Y134653D01*
X46507D01*
X45916Y134063D01*
X44102D01*
Y135244D01*
D02*
G37*
G36*
X9511Y131905D02*
X8474D01*
Y128553D01*
X11827D01*
Y129590D01*
X9511Y131905D01*
D02*
G37*
G36*
X7274D02*
X6237D01*
X3921Y129590D01*
Y128553D01*
X7274D01*
Y131905D01*
D02*
G37*
G36*
X75287Y129421D02*
X73213D01*
Y127150D01*
X75287D01*
Y129421D01*
D02*
G37*
G36*
X20488Y127575D02*
X18216D01*
Y125500D01*
X20488D01*
Y127575D01*
D02*
G37*
G36*
X17217D02*
X14945D01*
Y125500D01*
X17217D01*
Y127575D01*
D02*
G37*
G36*
X27567Y128847D02*
X21646D01*
Y125091D01*
X27567D01*
Y128847D01*
D02*
G37*
G36*
X11827Y127353D02*
X8474D01*
Y124000D01*
X9511D01*
X11827Y126315D01*
Y127353D01*
D02*
G37*
G36*
X7274D02*
X3921D01*
Y126315D01*
X6237Y124000D01*
X7274D01*
Y127353D01*
D02*
G37*
G36*
X52575Y125606D02*
X50303D01*
Y123531D01*
X52575D01*
Y125606D01*
D02*
G37*
G36*
X43398D02*
X41126D01*
Y123531D01*
X43398D01*
Y125606D01*
D02*
G37*
G36*
X123579Y117555D02*
X120185D01*
Y114870D01*
X123579D01*
Y117555D01*
D02*
G37*
G36*
X119185D02*
X115791D01*
Y114870D01*
X119185D01*
Y117555D01*
D02*
G37*
G36*
X132634Y117555D02*
X129240D01*
Y114870D01*
X132634D01*
Y117555D01*
D02*
G37*
G36*
X128240D02*
X124846D01*
Y114870D01*
X128240D01*
Y117555D01*
D02*
G37*
G36*
X114189Y116551D02*
X111917D01*
Y114476D01*
X114189D01*
Y116551D01*
D02*
G37*
G36*
X110917D02*
X108646D01*
Y114476D01*
X110917D01*
Y116551D01*
D02*
G37*
G36*
X50669Y190787D02*
Y187795D01*
X53661D01*
X53474Y188496D01*
X52966Y189374D01*
X52249Y190092D01*
X51370Y190600D01*
X50669Y190787D01*
D02*
G37*
G36*
X49095D02*
X48394Y190600D01*
X47515Y190092D01*
X46798Y189374D01*
X46290Y188496D01*
X46103Y187795D01*
X49095D01*
Y190787D01*
D02*
G37*
G36*
X53661Y186221D02*
X50669D01*
Y183229D01*
X51370Y183416D01*
X52249Y183924D01*
X52966Y184641D01*
X53474Y185520D01*
X53661Y186221D01*
D02*
G37*
G36*
X49095D02*
X46103D01*
X46290Y185520D01*
X46798Y184641D01*
X47515Y183924D01*
X48394Y183416D01*
X49095Y183229D01*
Y186221D01*
D02*
G37*
G36*
X50669Y178976D02*
Y175984D01*
X53661D01*
X53474Y176685D01*
X52966Y177564D01*
X52249Y178281D01*
X51370Y178788D01*
X50669Y178976D01*
D02*
G37*
G36*
X49095D02*
X48394Y178788D01*
X47515Y178281D01*
X46798Y177564D01*
X46290Y176685D01*
X46103Y175984D01*
X49095D01*
Y178976D01*
D02*
G37*
G36*
X53661Y174409D02*
X50669D01*
Y171417D01*
X51370Y171605D01*
X52249Y172113D01*
X52966Y172830D01*
X53474Y173709D01*
X53661Y174409D01*
D02*
G37*
G36*
X49095D02*
X46103D01*
X46290Y173709D01*
X46798Y172830D01*
X47515Y172113D01*
X48394Y171605D01*
X49095Y171417D01*
Y174409D01*
D02*
G37*
G36*
X53174Y164305D02*
X51974D01*
Y162705D01*
X53174D01*
Y164305D01*
D02*
G37*
G36*
Y161705D02*
X51974D01*
Y160105D01*
X53174D01*
Y161705D01*
D02*
G37*
G36*
X73736Y190862D02*
X70669D01*
Y187795D01*
X73736D01*
Y190862D01*
D02*
G37*
G36*
X69095D02*
X66028D01*
Y187795D01*
X69095D01*
Y190862D01*
D02*
G37*
G36*
X73736Y186221D02*
X70669D01*
Y183153D01*
X73736D01*
Y186221D01*
D02*
G37*
G36*
X69095D02*
X66028D01*
Y183153D01*
X69095D01*
Y186221D01*
D02*
G37*
G36*
X73736Y179051D02*
X70669D01*
Y175984D01*
X73736D01*
Y179051D01*
D02*
G37*
G36*
X69095D02*
X66028D01*
Y175984D01*
X69095D01*
Y179051D01*
D02*
G37*
G36*
X73736Y174409D02*
X70669D01*
Y171343D01*
X73736D01*
Y174409D01*
D02*
G37*
G36*
X69095D02*
X66028D01*
Y171343D01*
X69095D01*
Y174409D01*
D02*
G37*
G36*
X79224Y165152D02*
X74974D01*
Y162902D01*
X79224D01*
Y165152D01*
D02*
G37*
G36*
Y161902D02*
X74974D01*
Y159652D01*
X79224D01*
Y161902D01*
D02*
G37*
G36*
X50303Y120095D02*
Y118020D01*
X52575D01*
Y120095D01*
X50303D01*
D02*
G37*
G36*
X43398D02*
X41126D01*
Y118020D01*
X43398D01*
Y120095D01*
D02*
G37*
G36*
X52575Y117020D02*
X50303D01*
Y114945D01*
X52575D01*
Y117020D01*
D02*
G37*
G36*
X43398D02*
X41126D01*
Y114945D01*
X43398D01*
Y117020D01*
D02*
G37*
G36*
X47032Y120095D02*
X46669D01*
X46638Y120095D01*
X44398D01*
Y117520D01*
Y114945D01*
X46638D01*
X46669Y114945D01*
X47032D01*
X47063Y114945D01*
X49303D01*
Y117520D01*
Y120095D01*
X47063D01*
X47032Y120095D01*
D02*
G37*
G36*
X35744Y115567D02*
X33669D01*
Y113295D01*
X35744D01*
Y115567D01*
D02*
G37*
G36*
Y112295D02*
X33669D01*
Y110024D01*
X35744D01*
Y112295D01*
D02*
G37*
G36*
X46860Y77750D02*
Y74419D01*
X50191D01*
X49943Y75345D01*
X49423Y76246D01*
X48687Y76982D01*
X47786Y77502D01*
X46860Y77750D01*
D02*
G37*
G36*
X45660D02*
X44734Y77502D01*
X43833Y76982D01*
X43097Y76246D01*
X42577Y75345D01*
X42328Y74419D01*
X45660D01*
Y77750D01*
D02*
G37*
G36*
X50191Y73219D02*
X46860D01*
Y69888D01*
X47786Y70135D01*
X48687Y70656D01*
X49423Y71392D01*
X49943Y72293D01*
X50191Y73219D01*
D02*
G37*
G36*
X45660D02*
X42328D01*
X42577Y72293D01*
X43097Y71392D01*
X43833Y70656D01*
X44734Y70135D01*
X45660Y69888D01*
Y73219D01*
D02*
G37*
G36*
X20488Y118988D02*
X18216D01*
Y116913D01*
X20488D01*
Y118988D01*
D02*
G37*
G36*
X17217D02*
X14945D01*
Y116913D01*
X17217D01*
Y118988D01*
D02*
G37*
G36*
X8474Y120073D02*
Y116742D01*
X11805D01*
X11557Y117667D01*
X11037Y118569D01*
X10301Y119305D01*
X9400Y119825D01*
X8474Y120073D01*
D02*
G37*
G36*
X7274D02*
X6348Y119825D01*
X5447Y119305D01*
X4711Y118569D01*
X4191Y117667D01*
X3943Y116742D01*
X7274D01*
Y120073D01*
D02*
G37*
G36*
X27158Y115567D02*
X25083D01*
Y113295D01*
X27158D01*
Y115567D01*
D02*
G37*
G36*
X7274Y115542D02*
X3943D01*
X4191Y114616D01*
X4711Y113715D01*
X5447Y112979D01*
X6348Y112458D01*
X7274Y112210D01*
Y115542D01*
D02*
G37*
G36*
X11805D02*
X8474D01*
Y112210D01*
X9400Y112458D01*
X10301Y112979D01*
X11037Y113715D01*
X11557Y114616D01*
X11805Y115542D01*
D02*
G37*
G36*
X27158Y112295D02*
X25083D01*
Y110024D01*
X27158D01*
Y112295D01*
D02*
G37*
G36*
X105433Y190787D02*
Y187795D01*
X108425D01*
X108237Y188496D01*
X107730Y189374D01*
X107012Y190092D01*
X106133Y190600D01*
X105433Y190787D01*
D02*
G37*
G36*
X118500Y190862D02*
X115433D01*
Y187795D01*
X118500D01*
Y190862D01*
D02*
G37*
G36*
X103858Y190787D02*
X103158Y190600D01*
X102279Y190092D01*
X101561Y189374D01*
X101054Y188496D01*
X100866Y187795D01*
X103858D01*
Y190787D01*
D02*
G37*
G36*
X113858Y190862D02*
X110791D01*
Y187795D01*
X113858D01*
Y190862D01*
D02*
G37*
G36*
X108425Y186221D02*
X105433D01*
Y183229D01*
X106133Y183416D01*
X107012Y183924D01*
X107730Y184641D01*
X108237Y185520D01*
X108425Y186221D01*
D02*
G37*
G36*
X103858D02*
X100866D01*
X101054Y185520D01*
X101561Y184641D01*
X102279Y183924D01*
X103158Y183416D01*
X103858Y183229D01*
Y186221D01*
D02*
G37*
G36*
X118500D02*
X115433D01*
Y183153D01*
X118500D01*
Y186221D01*
D02*
G37*
G36*
X113858D02*
X110791D01*
Y183153D01*
X113858D01*
Y186221D01*
D02*
G37*
G36*
X137008Y180874D02*
Y177362D01*
X140520D01*
X140336Y178049D01*
X139699Y179152D01*
X138798Y180053D01*
X137694Y180690D01*
X137008Y180874D01*
D02*
G37*
G36*
X134646Y180874D02*
X133959Y180690D01*
X132856Y180053D01*
X131955Y179152D01*
X131318Y178049D01*
X131134Y177362D01*
X134646D01*
Y180874D01*
D02*
G37*
G36*
X105433Y178976D02*
Y175984D01*
X108425D01*
X108237Y176685D01*
X107730Y177564D01*
X107012Y178281D01*
X106133Y178788D01*
X105433Y178976D01*
D02*
G37*
G36*
X118500Y179051D02*
X115433D01*
Y175984D01*
X118500D01*
Y179051D01*
D02*
G37*
G36*
X103858Y178976D02*
X103158Y178788D01*
X102279Y178281D01*
X101561Y177564D01*
X101054Y176685D01*
X100866Y175984D01*
X103858D01*
Y178976D01*
D02*
G37*
G36*
X113858Y179051D02*
X110791D01*
Y175984D01*
X113858D01*
Y179051D01*
D02*
G37*
G36*
X134646Y175000D02*
X131134D01*
X131318Y174313D01*
X131955Y173210D01*
X132856Y172309D01*
X133959Y171672D01*
X134646Y171488D01*
Y175000D01*
D02*
G37*
G36*
X140520D02*
X137008D01*
Y171488D01*
X137694Y171672D01*
X138798Y172309D01*
X139699Y173210D01*
X140336Y174313D01*
X140520Y175000D01*
D02*
G37*
G36*
X108425Y174409D02*
X105433D01*
Y171417D01*
X106133Y171605D01*
X107012Y172113D01*
X107730Y172830D01*
X108237Y173709D01*
X108425Y174409D01*
D02*
G37*
G36*
X103858D02*
X100866D01*
X101054Y173709D01*
X101561Y172830D01*
X102279Y172113D01*
X103158Y171605D01*
X103858Y171417D01*
Y174409D01*
D02*
G37*
G36*
X118500D02*
X115433D01*
Y171343D01*
X118500D01*
Y174409D01*
D02*
G37*
G36*
X113858D02*
X110791D01*
Y171343D01*
X113858D01*
Y174409D01*
D02*
G37*
G36*
X161986Y153856D02*
X157186D01*
Y150106D01*
X161986D01*
Y153856D01*
D02*
G37*
G36*
X156186D02*
X151386D01*
Y150106D01*
X156186D01*
Y153856D01*
D02*
G37*
G36*
X161986Y149106D02*
X157186D01*
Y145356D01*
X161986D01*
Y149106D01*
D02*
G37*
G36*
X156186D02*
X151386D01*
Y145356D01*
X156186D01*
Y149106D01*
D02*
G37*
G36*
X165954Y139758D02*
Y136427D01*
X169286D01*
X169038Y137353D01*
X168517Y138254D01*
X167781Y138990D01*
X166880Y139510D01*
X165954Y139758D01*
D02*
G37*
G36*
X164754Y139758D02*
X163829Y139510D01*
X162927Y138990D01*
X162191Y138254D01*
X161671Y137353D01*
X161423Y136427D01*
X164754D01*
Y139758D01*
D02*
G37*
G36*
Y135227D02*
X161423D01*
X161671Y134301D01*
X162191Y133400D01*
X162927Y132664D01*
X163829Y132143D01*
X164754Y131895D01*
Y135227D01*
D02*
G37*
G36*
X169286D02*
X165954D01*
Y131895D01*
X166880Y132143D01*
X167781Y132664D01*
X168517Y133400D01*
X169038Y134301D01*
X169286Y135227D01*
D02*
G37*
G36*
X157096Y114761D02*
Y111820D01*
X160036D01*
X159827Y112600D01*
X159357Y113416D01*
X158691Y114081D01*
X157876Y114552D01*
X157096Y114761D01*
D02*
G37*
G36*
X155896D02*
X155116Y114552D01*
X154301Y114081D01*
X153636Y113416D01*
X153165Y112600D01*
X152956Y111820D01*
X155896D01*
Y114761D01*
D02*
G37*
G36*
X114189Y111039D02*
X111917D01*
Y108965D01*
X114189D01*
Y111039D01*
D02*
G37*
G36*
X110917D02*
X108646D01*
Y108965D01*
X110917D01*
Y111039D01*
D02*
G37*
G36*
X132634Y110468D02*
X129240D01*
Y107783D01*
X132634D01*
Y110468D01*
D02*
G37*
G36*
X123579D02*
X120185D01*
Y107783D01*
X123579D01*
Y110468D01*
D02*
G37*
G36*
X128240D02*
X124846D01*
Y107783D01*
X128240D01*
Y110468D01*
D02*
G37*
G36*
X119185D02*
X115791D01*
Y107783D01*
X119185D01*
Y110468D01*
D02*
G37*
G36*
X160036Y110620D02*
X157096D01*
Y107680D01*
X157876Y107889D01*
X158691Y108360D01*
X159357Y109026D01*
X159827Y109841D01*
X160036Y110620D01*
D02*
G37*
G36*
X155896D02*
X152956D01*
X153165Y109841D01*
X153636Y109026D01*
X154301Y108360D01*
X155116Y107889D01*
X155896Y107680D01*
Y110620D01*
D02*
G37*
G36*
X114189Y107965D02*
X111917D01*
Y105890D01*
X114189D01*
Y107965D01*
D02*
G37*
G36*
X110917D02*
X108646D01*
Y105890D01*
X110917D01*
Y107965D01*
D02*
G37*
G36*
X132634Y106783D02*
X129240D01*
Y104098D01*
X132634D01*
Y106783D01*
D02*
G37*
G36*
X128240D02*
X124846D01*
Y104098D01*
X128240D01*
Y106783D01*
D02*
G37*
G36*
X123579D02*
X120185D01*
Y104098D01*
X123579D01*
Y106783D01*
D02*
G37*
G36*
X119185D02*
X115791D01*
Y104098D01*
X119185D01*
Y106783D01*
D02*
G37*
G36*
X160327Y93323D02*
X158252D01*
Y91051D01*
X160327D01*
Y93323D01*
D02*
G37*
G36*
Y90051D02*
X158252D01*
Y87779D01*
X160327D01*
Y90051D01*
D02*
G37*
G36*
X120488Y77378D02*
X118217D01*
Y75303D01*
X120488D01*
Y77378D01*
D02*
G37*
G36*
X36086Y77772D02*
X35049D01*
Y74419D01*
X38402D01*
Y75456D01*
X36086Y77772D01*
D02*
G37*
G36*
X33849D02*
X32811D01*
X30496Y75456D01*
Y74419D01*
X33849D01*
Y77772D01*
D02*
G37*
G36*
X38402Y73219D02*
X35049D01*
Y69866D01*
X36086D01*
X38402Y72182D01*
Y73219D01*
D02*
G37*
G36*
X33849D02*
X30496D01*
Y72182D01*
X32811Y69866D01*
X33849D01*
Y73219D01*
D02*
G37*
G36*
X111311Y68791D02*
X109039D01*
Y66716D01*
X111311D01*
Y68791D01*
D02*
G37*
G36*
X47897Y65961D02*
X46860D01*
Y62608D01*
X50213D01*
Y63645D01*
X47897Y65961D01*
D02*
G37*
G36*
X45660D02*
X44623D01*
X42307Y63645D01*
Y62608D01*
X45660D01*
Y65961D01*
D02*
G37*
G36*
X122925Y63795D02*
X120850D01*
Y61524D01*
X122925D01*
Y63795D01*
D02*
G37*
G36*
X50213Y61408D02*
X46860D01*
Y58055D01*
X47897D01*
X50213Y60371D01*
Y61408D01*
D02*
G37*
G36*
X45660D02*
X42307D01*
Y60371D01*
X44623Y58055D01*
X45660D01*
Y61408D01*
D02*
G37*
G36*
X122925Y54618D02*
X120850D01*
Y52346D01*
X122925D01*
Y54618D01*
D02*
G37*
G36*
X27228Y49228D02*
X26191D01*
Y45876D01*
X29543D01*
Y46913D01*
X27228Y49228D01*
D02*
G37*
G36*
X24991D02*
X23953D01*
X21638Y46913D01*
Y45876D01*
X24991D01*
Y49228D01*
D02*
G37*
G36*
X41823Y49526D02*
X37023D01*
Y45776D01*
X41823D01*
Y49526D01*
D02*
G37*
G36*
X119195Y47161D02*
X118386D01*
Y44094D01*
X121453D01*
Y44904D01*
X119195Y47161D01*
D02*
G37*
G36*
X116811D02*
X116002D01*
X113744Y44904D01*
Y44094D01*
X116811D01*
Y47161D01*
D02*
G37*
G36*
X109195D02*
X108386D01*
Y44094D01*
X111453D01*
Y44904D01*
X109195Y47161D01*
D02*
G37*
G36*
X29543Y44676D02*
X26191D01*
Y41323D01*
X27228D01*
X29543Y43638D01*
Y44676D01*
D02*
G37*
G36*
X24991D02*
X21638D01*
Y43638D01*
X23953Y41323D01*
X24991D01*
Y44676D01*
D02*
G37*
G36*
X41823Y44776D02*
X37023D01*
Y41026D01*
X41823D01*
Y44776D01*
D02*
G37*
G36*
X10646Y42535D02*
X8374D01*
Y40461D01*
X10646D01*
Y42535D01*
D02*
G37*
G36*
X7374D02*
X5102D01*
Y40461D01*
X7374D01*
Y42535D01*
D02*
G37*
G36*
X121453Y42520D02*
X118386D01*
Y39453D01*
X119195D01*
X121453Y41711D01*
Y42520D01*
D02*
G37*
G36*
X116811D02*
X113744D01*
Y41711D01*
X116002Y39453D01*
X116811D01*
Y42520D01*
D02*
G37*
G36*
X111453D02*
X108386D01*
Y39453D01*
X109195D01*
X111453Y41711D01*
Y42520D01*
D02*
G37*
G36*
X44488Y26401D02*
Y22835D01*
X48055D01*
X47409Y24394D01*
X46048Y25756D01*
X44488Y26401D01*
D02*
G37*
G36*
X42126D02*
X40566Y25756D01*
X39205Y24394D01*
X38559Y22835D01*
X42126D01*
Y26401D01*
D02*
G37*
G36*
X48055Y20472D02*
X44488D01*
Y16905D01*
X46048Y17552D01*
X47409Y18913D01*
X48055Y20472D01*
D02*
G37*
G36*
X42126D02*
X38559D01*
X39205Y18913D01*
X40566Y17552D01*
X42126Y16905D01*
Y20472D01*
D02*
G37*
G36*
X10646Y39461D02*
X7874D01*
X5102D01*
Y37386D01*
X5257D01*
X5504Y36622D01*
X5504Y36520D01*
Y32276D01*
X6414D01*
Y23622D01*
X6842Y22590D01*
X7825Y21607D01*
X6477Y19588D01*
X5713Y15748D01*
X6477Y11908D01*
X8652Y8652D01*
X11908Y6477D01*
X15748Y5713D01*
X19588Y6477D01*
X22844Y8652D01*
X25019Y11908D01*
X25783Y15748D01*
X25019Y19588D01*
X22844Y22844D01*
X19588Y25019D01*
X15748Y25783D01*
X11908Y25019D01*
X10000Y23745D01*
X9334Y24280D01*
Y32276D01*
X10244D01*
Y36520D01*
X10244Y36622D01*
X10491Y37386D01*
X10646D01*
Y39461D01*
D02*
G37*
G36*
X164189Y71744D02*
X161917D01*
Y69669D01*
X164189D01*
Y71744D01*
D02*
G37*
G36*
X160917D02*
X158646D01*
Y69669D01*
X160917D01*
Y71744D01*
D02*
G37*
G36*
X166823Y70366D02*
X165437D01*
Y67799D01*
X166823D01*
Y70366D01*
D02*
G37*
G36*
X129437Y63795D02*
Y61524D01*
X131512D01*
Y63795D01*
X129437D01*
D02*
G37*
G36*
X131512Y54618D02*
X129437D01*
Y52346D01*
X131512D01*
Y54618D01*
D02*
G37*
G36*
X160049Y42317D02*
Y38986D01*
X163380D01*
X163132Y39911D01*
X162612Y40813D01*
X161876Y41549D01*
X160975Y42069D01*
X160049Y42317D01*
D02*
G37*
G36*
X158849D02*
X157923Y42069D01*
X157022Y41549D01*
X156286Y40813D01*
X155765Y39911D01*
X155517Y38986D01*
X158849D01*
Y42317D01*
D02*
G37*
G36*
X163380Y37786D02*
X160049D01*
Y34454D01*
X160975Y34703D01*
X161876Y35223D01*
X162612Y35959D01*
X163132Y36860D01*
X163380Y37786D01*
D02*
G37*
G36*
X158849D02*
X155517D01*
X155765Y36860D01*
X156286Y35959D01*
X157022Y35223D01*
X157923Y34703D01*
X158849Y34454D01*
Y37786D01*
D02*
G37*
G36*
X134724Y31200D02*
Y26772D01*
X139153D01*
X138878Y27800D01*
X138124Y29105D01*
X137058Y30171D01*
X135753Y30925D01*
X134724Y31200D01*
D02*
G37*
G36*
X132362D02*
X131334Y30925D01*
X130028Y30171D01*
X128963Y29105D01*
X128209Y27800D01*
X127933Y26772D01*
X132362D01*
Y31200D01*
D02*
G37*
G36*
X139153Y24409D02*
X134724D01*
Y19981D01*
X135753Y20256D01*
X137058Y21010D01*
X138124Y22076D01*
X138878Y23381D01*
X139153Y24409D01*
D02*
G37*
G36*
X132362D02*
X127933D01*
X128209Y23381D01*
X128963Y22076D01*
X130028Y21010D01*
X131334Y20256D01*
X132362Y19981D01*
Y24409D01*
D02*
G37*
G36*
X134724Y17815D02*
Y13386D01*
X139153D01*
X138878Y14414D01*
X138124Y15720D01*
X137058Y16785D01*
X135753Y17539D01*
X134724Y17815D01*
D02*
G37*
G36*
X132362D02*
X131334Y17539D01*
X130028Y16785D01*
X128963Y15720D01*
X128209Y14414D01*
X127933Y13386D01*
X132362D01*
Y17815D01*
D02*
G37*
G36*
X139153Y11024D02*
X134724D01*
Y6595D01*
X135753Y6870D01*
X137058Y7624D01*
X138124Y8690D01*
X138878Y9995D01*
X139153Y11024D01*
D02*
G37*
G36*
X132362D02*
X127933D01*
X128209Y9995D01*
X128963Y8690D01*
X130028Y7624D01*
X131334Y6870D01*
X132362Y6595D01*
Y11024D01*
D02*
G37*
G36*
X156693Y180929D02*
Y177362D01*
X160260D01*
X159614Y178922D01*
X158253Y180283D01*
X156693Y180929D01*
D02*
G37*
G36*
X154331D02*
X152771Y180283D01*
X151410Y178922D01*
X150764Y177362D01*
X154331D01*
Y180929D01*
D02*
G37*
G36*
X160260Y175000D02*
X156693D01*
Y171433D01*
X158253Y172079D01*
X159614Y173440D01*
X160260Y175000D01*
D02*
G37*
G36*
X154331D02*
X150764D01*
X151410Y173440D01*
X152771Y172079D01*
X154331Y171433D01*
Y175000D01*
D02*
G37*
G36*
X181102Y191138D02*
X177262Y190374D01*
X174006Y188198D01*
X171831Y184943D01*
X171067Y181102D01*
X171831Y177262D01*
X174006Y174006D01*
X177262Y171831D01*
X181102Y171067D01*
X184943Y171831D01*
X186850Y173106D01*
X187517Y172571D01*
Y164575D01*
X186606D01*
Y160331D01*
X186606Y160228D01*
X186359Y159465D01*
X186205D01*
Y157390D01*
X191748D01*
Y159465D01*
X191594D01*
X191347Y160228D01*
X191347Y160331D01*
Y164575D01*
X190436D01*
Y173228D01*
X190008Y174260D01*
X189025Y175244D01*
X190374Y177262D01*
X191138Y181102D01*
X190374Y184943D01*
X188198Y188198D01*
X184943Y190374D01*
X181102Y191138D01*
D02*
G37*
G36*
X191748Y156390D02*
X189476D01*
Y154315D01*
X191748D01*
Y156390D01*
D02*
G37*
G36*
X188476D02*
X186205D01*
Y154315D01*
X188476D01*
Y156390D01*
D02*
G37*
G36*
X170586Y153856D02*
Y150106D01*
X175386D01*
Y153856D01*
X170586D01*
D02*
G37*
G36*
X175386Y149106D02*
X170586D01*
Y145356D01*
X175386D01*
Y149106D01*
D02*
G37*
G36*
X178803Y139779D02*
X177765D01*
Y136427D01*
X181118D01*
Y137464D01*
X178803Y139779D01*
D02*
G37*
G36*
X176565D02*
X175528D01*
X173213Y137464D01*
Y136427D01*
X176565D01*
Y139779D01*
D02*
G37*
G36*
X181118Y135227D02*
X177765D01*
Y131874D01*
X178803D01*
X181118Y134189D01*
Y135227D01*
D02*
G37*
G36*
X176565D02*
X173213D01*
Y134189D01*
X175528Y131874D01*
X176565D01*
Y135227D01*
D02*
G37*
G36*
X171756Y114795D02*
X170876D01*
Y111820D01*
X173850D01*
Y112701D01*
X171756Y114795D01*
D02*
G37*
G36*
X169676D02*
X168795D01*
X166701Y112701D01*
Y111820D01*
X169676D01*
Y114795D01*
D02*
G37*
G36*
X173850Y110620D02*
X170876D01*
Y107646D01*
X171756D01*
X173850Y109740D01*
Y110620D01*
D02*
G37*
G36*
X169676D02*
X166701D01*
Y109740D01*
X168795Y107646D01*
X169676D01*
Y110620D01*
D02*
G37*
G36*
X168913Y93323D02*
X166839D01*
Y91051D01*
X168913D01*
Y93323D01*
D02*
G37*
G36*
Y90051D02*
X166839D01*
Y87779D01*
X168913D01*
Y90051D01*
D02*
G37*
G36*
X171941Y84169D02*
X170555D01*
Y83768D01*
X165839D01*
Y79270D01*
X163787D01*
Y79929D01*
X159047D01*
Y75583D01*
X163787D01*
Y76242D01*
X167187D01*
X168257Y76686D01*
X168492Y76920D01*
X168935Y77990D01*
Y78437D01*
X170555D01*
Y78035D01*
X171941D01*
Y81102D01*
Y84169D01*
D02*
G37*
G36*
X174327Y84169D02*
Y84169D01*
X172941D01*
Y81102D01*
Y78035D01*
X174327D01*
Y78437D01*
X176484D01*
Y79358D01*
X177350Y80085D01*
X177354Y80084D01*
X178397Y79041D01*
X179871D01*
X180913Y80084D01*
Y81558D01*
X179871Y82600D01*
X179579D01*
X178826Y83354D01*
X177756Y83797D01*
X175086D01*
X174327Y84169D01*
D02*
G37*
G36*
X179871Y67724D02*
X178397D01*
X177354Y66682D01*
Y65208D01*
X177620Y64942D01*
Y63591D01*
X177086D01*
X175583Y62087D01*
Y59960D01*
X177086Y58457D01*
X177172Y58250D01*
X175644Y56721D01*
X175038Y57327D01*
X171965Y54253D01*
X175316Y50902D01*
X178390Y53975D01*
X177784Y54580D01*
X180204Y57000D01*
X180648Y58071D01*
Y59891D01*
X180717Y59960D01*
Y62087D01*
X180648Y62156D01*
Y64942D01*
X180913Y65208D01*
Y66682D01*
X179871Y67724D01*
D02*
G37*
G36*
X191748Y42535D02*
X189476D01*
Y40461D01*
X191748D01*
Y42535D01*
D02*
G37*
G36*
X188476D02*
X186205D01*
Y40461D01*
X188476D01*
Y42535D01*
D02*
G37*
G36*
X172897Y42339D02*
X171860D01*
Y38986D01*
X175213D01*
Y40023D01*
X172897Y42339D01*
D02*
G37*
G36*
X170660D02*
X169623D01*
X167307Y40023D01*
Y38986D01*
X170660D01*
Y42339D01*
D02*
G37*
G36*
X175213Y37786D02*
X171860D01*
Y34433D01*
X172897D01*
X175213Y36749D01*
Y37786D01*
D02*
G37*
G36*
X170660D02*
X167307D01*
Y36749D01*
X169623Y34433D01*
X170660D01*
Y37786D01*
D02*
G37*
G36*
X191748Y39461D02*
X188976D01*
X186205D01*
Y37386D01*
X186359D01*
X186606Y36622D01*
X186606Y36520D01*
Y32276D01*
X187517D01*
Y24279D01*
X186850Y23745D01*
X184943Y25019D01*
X181102Y25783D01*
X177262Y25019D01*
X174006Y22844D01*
X171831Y19588D01*
X171067Y15748D01*
X171831Y11908D01*
X174006Y8652D01*
X177262Y6477D01*
X181102Y5713D01*
X184943Y6477D01*
X188198Y8652D01*
X190374Y11908D01*
X191138Y15748D01*
X190374Y19588D01*
X189025Y21607D01*
X190008Y22590D01*
X190436Y23622D01*
Y32276D01*
X191347D01*
Y36520D01*
X191347Y36622D01*
X191594Y37386D01*
X191748D01*
Y39461D01*
D02*
G37*
G36*
X73435Y49207D02*
Y45876D01*
X76766D01*
X76518Y46801D01*
X75998Y47703D01*
X75262Y48439D01*
X74360Y48959D01*
X73435Y49207D01*
D02*
G37*
G36*
X72235D02*
X71309Y48959D01*
X70408Y48439D01*
X69672Y47703D01*
X69151Y46801D01*
X68903Y45876D01*
X72235D01*
Y49207D01*
D02*
G37*
G36*
X61023Y49526D02*
X56223D01*
Y45776D01*
X61023D01*
Y49526D01*
D02*
G37*
G36*
X55223D02*
X50423D01*
Y45776D01*
X55223D01*
Y49526D01*
D02*
G37*
G36*
X98386Y47086D02*
Y44094D01*
X101378D01*
X101190Y44795D01*
X100683Y45674D01*
X99965Y46391D01*
X99086Y46899D01*
X98386Y47086D01*
D02*
G37*
G36*
X96811D02*
X96111Y46899D01*
X95232Y46391D01*
X94514Y45674D01*
X94007Y44795D01*
X93819Y44094D01*
X96811D01*
Y47086D01*
D02*
G37*
G36*
X91453Y47161D02*
X88386D01*
Y44094D01*
X91453D01*
Y47161D01*
D02*
G37*
G36*
X86811D02*
X83744D01*
Y44094D01*
X86811D01*
Y47161D01*
D02*
G37*
G36*
X72235Y44676D02*
X68903D01*
X69151Y43750D01*
X69672Y42849D01*
X70408Y42113D01*
X71309Y41592D01*
X72235Y41344D01*
Y44676D01*
D02*
G37*
G36*
X76766D02*
X73435D01*
Y41344D01*
X74360Y41592D01*
X75262Y42113D01*
X75998Y42849D01*
X76518Y43750D01*
X76766Y44676D01*
D02*
G37*
G36*
X61023Y44776D02*
X56223D01*
Y41026D01*
X61023D01*
Y44776D01*
D02*
G37*
G36*
X55223D02*
X50423D01*
Y41026D01*
X55223D01*
Y44776D01*
D02*
G37*
G36*
X101378Y42520D02*
X98386D01*
Y39528D01*
X99086Y39715D01*
X99965Y40223D01*
X100683Y40940D01*
X101190Y41819D01*
X101378Y42520D01*
D02*
G37*
G36*
X96811D02*
X93819D01*
X94007Y41819D01*
X94514Y40940D01*
X95232Y40223D01*
X96111Y39715D01*
X96811Y39528D01*
Y42520D01*
D02*
G37*
G36*
X91453D02*
X88386D01*
Y39453D01*
X91453D01*
Y42520D01*
D02*
G37*
G36*
X86811D02*
X83744D01*
Y39453D01*
X86811D01*
Y42520D01*
D02*
G37*
G36*
X95669Y31200D02*
Y26772D01*
X100098D01*
X99822Y27800D01*
X99069Y29105D01*
X98003Y30171D01*
X96698Y30925D01*
X95669Y31200D01*
D02*
G37*
G36*
X93307D02*
X92279Y30925D01*
X90973Y30171D01*
X89907Y29105D01*
X89154Y27800D01*
X88878Y26772D01*
X93307D01*
Y31200D01*
D02*
G37*
G36*
X64173Y26346D02*
Y22835D01*
X67685D01*
X67501Y23521D01*
X66864Y24624D01*
X65963Y25525D01*
X64860Y26162D01*
X64173Y26346D01*
D02*
G37*
G36*
X61811D02*
X61124Y26162D01*
X60021Y25525D01*
X59120Y24624D01*
X58483Y23521D01*
X58299Y22835D01*
X61811D01*
Y26346D01*
D02*
G37*
G36*
X100098Y24409D02*
X95669D01*
Y19981D01*
X96698Y20256D01*
X98003Y21010D01*
X99069Y22076D01*
X99822Y23381D01*
X100098Y24409D01*
D02*
G37*
G36*
X93307D02*
X88878D01*
X89154Y23381D01*
X89907Y22076D01*
X90973Y21010D01*
X92279Y20256D01*
X93307Y19981D01*
Y24409D01*
D02*
G37*
G36*
X67685Y20472D02*
X64173D01*
Y16961D01*
X64860Y17145D01*
X65963Y17782D01*
X66864Y18683D01*
X67501Y19786D01*
X67685Y20472D01*
D02*
G37*
G36*
X61811D02*
X58299D01*
X58483Y19786D01*
X59120Y18683D01*
X60021Y17782D01*
X61124Y17145D01*
X61811Y16961D01*
Y20472D01*
D02*
G37*
G36*
X95669Y17815D02*
Y13386D01*
X100098D01*
X99822Y14414D01*
X99069Y15720D01*
X98003Y16785D01*
X96698Y17539D01*
X95669Y17815D01*
D02*
G37*
G36*
X93307D02*
X92279Y17539D01*
X90973Y16785D01*
X89907Y15720D01*
X89154Y14414D01*
X88878Y13386D01*
X93307D01*
Y17815D01*
D02*
G37*
G36*
X100098Y11024D02*
X95669D01*
Y6595D01*
X96698Y6870D01*
X98003Y7624D01*
X99069Y8690D01*
X99822Y9995D01*
X100098Y11024D01*
D02*
G37*
G36*
X93307D02*
X88878D01*
X89154Y9995D01*
X89907Y8690D01*
X90973Y7624D01*
X92279Y6870D01*
X93307Y6595D01*
Y11024D01*
D02*
G37*
%LPD*%
D20*
X42323Y45276D02*
D03*
X170086Y149606D02*
D03*
X156686D02*
D03*
X55723Y45276D02*
D03*
D21*
X18701Y67323D02*
D03*
X7874Y39961D02*
D03*
Y156693D02*
D03*
X188976Y156890D02*
D03*
Y39961D02*
D03*
X43898Y123031D02*
D03*
X17717Y125000D02*
D03*
X49803Y123031D02*
D03*
X111417Y113976D02*
D03*
X111811Y69291D02*
D03*
X12795Y67323D02*
D03*
X111417Y108465D02*
D03*
X117717Y74803D02*
D03*
X6890Y67323D02*
D03*
Y72835D02*
D03*
X18701D02*
D03*
X7874Y34449D02*
D03*
X161417Y72244D02*
D03*
X117717Y69291D02*
D03*
X17717Y119488D02*
D03*
X43898Y117520D02*
D03*
X49803D02*
D03*
X12795Y72835D02*
D03*
X87205Y141535D02*
D03*
Y147047D02*
D03*
X24606Y72835D02*
D03*
X24606Y67323D02*
D03*
X111811Y74803D02*
D03*
X100394Y91929D02*
D03*
X161417Y77756D02*
D03*
X100394Y97441D02*
D03*
X188976Y34449D02*
D03*
Y162402D02*
D03*
X7874Y162205D02*
D03*
D22*
X166339Y90551D02*
D03*
X41929Y139764D02*
D03*
X115748Y139764D02*
D03*
X98425Y147638D02*
D03*
X75787Y129921D02*
D03*
X75787Y135827D02*
D03*
X123425Y61024D02*
D03*
Y55118D02*
D03*
X115748Y133858D02*
D03*
X160827Y90551D02*
D03*
X128937Y61024D02*
D03*
Y55118D02*
D03*
X33169Y112795D02*
D03*
X27657D02*
D03*
X36417Y132874D02*
D03*
X41929D02*
D03*
X36417Y139764D02*
D03*
X110236Y133858D02*
D03*
Y139764D02*
D03*
X92913Y141732D02*
D03*
X98425D02*
D03*
X81299Y135827D02*
D03*
Y129921D02*
D03*
X92913Y147638D02*
D03*
D23*
X78937Y116142D02*
D03*
X78937Y107087D02*
D03*
X71850Y107087D02*
D03*
X71850Y116142D02*
D03*
D24*
X128740Y114370D02*
D03*
X119685Y114370D02*
D03*
Y107283D02*
D03*
X128740D02*
D03*
D25*
X172441Y81102D02*
D03*
X167323Y70866D02*
D03*
X175000Y81102D02*
D03*
X169882D02*
D03*
X167323D02*
D03*
X169882Y70866D02*
D03*
X172441D02*
D03*
X175000D02*
D03*
D26*
X55774Y162205D02*
D03*
X53674D02*
D03*
D27*
X87374Y162402D02*
D03*
D28*
X36220Y123228D02*
D03*
Y119488D02*
D03*
Y126969D02*
D03*
X24606D02*
D03*
Y119488D02*
D03*
D29*
X139862Y68503D02*
D03*
X142421D02*
D03*
X144980D02*
D03*
X147539D02*
D03*
Y81103D02*
D03*
X144980D02*
D03*
X142421D02*
D03*
X139862D02*
D03*
D30*
X171280Y50217D02*
D03*
X175177Y54114D02*
D03*
D31*
X68898Y84646D02*
D03*
X91398D02*
D03*
D32*
X79724Y162402D02*
D03*
D38*
X88937Y108661D02*
D03*
X103937D02*
D03*
X98937Y131299D02*
D03*
X93937Y131299D02*
D03*
X88937D02*
D03*
X98937Y108661D02*
D03*
X93937Y108661D02*
D03*
X103937Y131299D02*
D03*
D48*
X96437Y119980D02*
D03*
D49*
X30512Y139764D02*
D03*
X104331D02*
D03*
X171260Y61024D02*
D03*
X178150D02*
D03*
D50*
X25602Y63253D02*
X26314D01*
X26575Y62992D01*
X24606Y64248D02*
X25602Y63253D01*
X24606Y64248D02*
Y67323D01*
X81693Y141732D02*
X92913D01*
X18701Y72835D02*
X24606D01*
X11721Y71760D02*
X12795Y72835D01*
X11524Y71760D02*
X11721D01*
X7087Y67323D02*
X11524Y71760D01*
X6890Y67323D02*
X7087D01*
X6890Y82677D02*
X6890Y82677D01*
X6890Y72835D02*
Y82677D01*
X115748Y133858D02*
X120079D01*
X111811Y74803D02*
X112886Y73728D01*
X113083D01*
X117520Y69291D01*
X117717D01*
X41929Y132874D02*
X47244D01*
X97350Y142807D02*
X98681Y141476D01*
X97350Y142807D02*
Y143004D01*
X92913Y147441D02*
X97350Y143004D01*
X92913Y147441D02*
Y147638D01*
X87205Y147047D02*
X87795Y147638D01*
X92913D01*
X30512Y138779D02*
X36417D01*
Y132874D02*
Y138779D01*
X36220Y126969D02*
X36417Y127165D01*
Y132874D01*
X98681Y131555D02*
Y141476D01*
Y131555D02*
X98937Y131299D01*
D51*
X7874Y23622D02*
Y34449D01*
Y23622D02*
X15748Y15748D01*
X7874Y162205D02*
Y173228D01*
X15748Y181102D01*
X188976Y162402D02*
Y173228D01*
X181102Y181102D02*
X188976Y173228D01*
Y23622D02*
Y34449D01*
X181102Y15748D02*
X188976Y23622D01*
D52*
X169980Y58760D02*
Y70472D01*
X161417Y77756D02*
X167187D01*
X179134Y80821D02*
Y80905D01*
X175086Y82284D02*
X177756D01*
X179134Y80905D01*
X175000Y82198D02*
X175086Y82284D01*
X175000Y81102D02*
Y82198D01*
X167187Y77756D02*
X167421Y77990D01*
Y79533D01*
X171140Y50356D02*
X171280Y50217D01*
X162560Y50356D02*
X171140D01*
X179134Y58071D02*
Y65945D01*
X175177Y54114D02*
X179134Y58071D01*
X167323Y56102D02*
X169980Y58760D01*
X147539Y67027D02*
X149606Y64961D01*
X147539Y67027D02*
Y68503D01*
D53*
X104134Y139567D02*
X104331Y139764D01*
X104134Y131496D02*
Y139567D01*
X103937Y131299D02*
X104134Y131496D01*
X104331Y139764D02*
X110236D01*
Y133858D02*
Y139764D01*
D54*
X81299Y129921D02*
X88553D01*
X88937Y130305D01*
X91181Y137402D02*
X93937Y134645D01*
Y131299D02*
Y134645D01*
X88937Y130305D02*
Y131299D01*
X87008Y137402D02*
X91181D01*
X85433Y135827D02*
X87008Y137402D01*
X81299Y135827D02*
X85433D01*
D55*
X98937Y102118D02*
Y108661D01*
X100394Y97441D02*
Y100662D01*
X98937Y102118D02*
X100394Y100662D01*
X94948Y91929D02*
X100394D01*
X91398Y88378D02*
X94948Y91929D01*
X91398Y84646D02*
Y88378D01*
D56*
X34449Y73819D02*
D03*
X46260Y62008D02*
D03*
X25591Y45276D02*
D03*
X177165Y135827D02*
D03*
X171260Y38386D02*
D03*
X7874Y127953D02*
D03*
X165354Y135827D02*
D03*
X72835Y45276D02*
D03*
X159449Y38386D02*
D03*
X46260Y73819D02*
D03*
X7874Y116142D02*
D03*
D57*
X39882Y187008D02*
D03*
X59882D02*
D03*
X117598Y43307D02*
D03*
X107598D02*
D03*
X84646Y187008D02*
D03*
X94646D02*
D03*
X59882Y175197D02*
D03*
X39882D02*
D03*
X84646D02*
D03*
X94646D02*
D03*
X104646Y187008D02*
D03*
Y175197D02*
D03*
X97598Y43307D02*
D03*
X49882Y187008D02*
D03*
X49882Y175197D02*
D03*
D58*
X43307Y21654D02*
D03*
X155512Y176181D02*
D03*
X135827D02*
D03*
X62992Y21654D02*
D03*
D59*
X170276Y111221D02*
D03*
X156496D02*
D03*
D60*
X114646Y187008D02*
D03*
Y175197D02*
D03*
X87598Y43307D02*
D03*
X69882Y187008D02*
D03*
Y175197D02*
D03*
D61*
X133543Y25591D02*
D03*
Y12205D02*
D03*
X94488Y25591D02*
D03*
Y12205D02*
D03*
D62*
X181102Y15748D02*
D03*
X181102Y181102D02*
D03*
X15748Y15748D02*
D03*
Y181102D02*
D03*
D63*
X26575Y62992D02*
D03*
X7874Y53480D02*
D03*
X33858Y59055D02*
D03*
X59055Y162402D02*
D03*
X46063Y139764D02*
D03*
X70866Y132874D02*
D03*
X120079Y139764D02*
D03*
X103347Y147638D02*
D03*
X98425Y152559D02*
D03*
X107283Y68898D02*
D03*
X7874Y44291D02*
D03*
X188976D02*
D03*
Y152559D02*
D03*
X7874D02*
D03*
X170276Y157480D02*
D03*
X177165Y142717D02*
D03*
X172244Y86614D02*
D03*
X123031Y65945D02*
D03*
Y50197D02*
D03*
X17717Y129921D02*
D03*
X55118Y124016D02*
D03*
X43307Y127953D02*
D03*
X42323Y53150D02*
D03*
Y37402D02*
D03*
X91535Y162402D02*
D03*
X167323Y96457D02*
D03*
X88583Y123031D02*
D03*
Y118110D02*
D03*
X104331D02*
D03*
Y123031D02*
D03*
X99163Y118110D02*
D03*
Y123031D02*
D03*
X93750Y118110D02*
D03*
Y123031D02*
D03*
X112205Y120079D02*
D03*
X120079Y121063D02*
D03*
X78740Y124016D02*
D03*
X128937Y121063D02*
D03*
X135827Y115157D02*
D03*
X10236Y140095D02*
D03*
X18110Y37732D02*
D03*
Y45606D02*
D03*
Y53480D02*
D03*
Y140095D02*
D03*
Y147969D02*
D03*
X25984Y29858D02*
D03*
Y37732D02*
D03*
Y53480D02*
D03*
Y147969D02*
D03*
X33858Y6236D02*
D03*
Y14110D02*
D03*
Y21984D02*
D03*
Y29858D02*
D03*
Y37732D02*
D03*
Y53480D02*
D03*
Y84977D02*
D03*
Y163717D02*
D03*
Y171591D02*
D03*
Y179465D02*
D03*
X41732Y6236D02*
D03*
Y14110D02*
D03*
Y29858D02*
D03*
X49606Y6236D02*
D03*
Y14110D02*
D03*
Y29858D02*
D03*
X57480Y61354D02*
D03*
Y132221D02*
D03*
Y140095D02*
D03*
Y147969D02*
D03*
Y155843D02*
D03*
X65354Y61354D02*
D03*
X73228D02*
D03*
X81103D02*
D03*
X88977D02*
D03*
Y155843D02*
D03*
X96851Y61354D02*
D03*
X104725D02*
D03*
Y77103D02*
D03*
Y84977D02*
D03*
Y155843D02*
D03*
X112599Y6236D02*
D03*
Y14110D02*
D03*
Y21984D02*
D03*
Y29858D02*
D03*
Y37732D02*
D03*
Y61354D02*
D03*
Y84977D02*
D03*
Y147969D02*
D03*
X120473Y37732D02*
D03*
Y147969D02*
D03*
X128347Y140095D02*
D03*
X136221Y124347D02*
D03*
Y132221D02*
D03*
X167717Y124347D02*
D03*
Y163717D02*
D03*
Y171591D02*
D03*
X175591Y45606D02*
D03*
Y92851D02*
D03*
Y100724D02*
D03*
Y108598D02*
D03*
Y116473D02*
D03*
Y124347D02*
D03*
Y163717D02*
D03*
X183465Y37732D02*
D03*
Y53480D02*
D03*
Y61354D02*
D03*
Y69228D02*
D03*
Y77103D02*
D03*
Y84977D02*
D03*
Y92851D02*
D03*
Y100724D02*
D03*
Y108598D02*
D03*
Y116473D02*
D03*
Y124347D02*
D03*
Y147969D02*
D03*
X155512Y187992D02*
D03*
X164370D02*
D03*
X30512Y187008D02*
D03*
X112205Y125000D02*
D03*
X120079Y126969D02*
D03*
X128937D02*
D03*
X70866Y124016D02*
D03*
X100394Y162402D02*
D03*
X9843Y147969D02*
D03*
X29528Y125984D02*
D03*
Y131890D02*
D03*
X24606D02*
D03*
X33465Y92520D02*
D03*
X29528Y152559D02*
D03*
Y166339D02*
D03*
X14764Y165354D02*
D03*
X15748Y152559D02*
D03*
X110236Y53150D02*
D03*
X117126D02*
D03*
X154528Y79724D02*
D03*
Y86614D02*
D03*
X130905D02*
D03*
Y80709D02*
D03*
X138779Y86614D02*
D03*
X143701D02*
D03*
X148622D02*
D03*
X120079Y133858D02*
D03*
X160433Y96457D02*
D03*
X112205Y102362D02*
D03*
X130905Y92520D02*
D03*
X121063D02*
D03*
X139173D02*
D03*
X148032D02*
D03*
X156890Y126315D02*
D03*
X130315Y188323D02*
D03*
X148032Y135173D02*
D03*
Y152890D02*
D03*
Y108598D02*
D03*
X139173Y152890D02*
D03*
X112599Y161748D02*
D03*
X148032D02*
D03*
Y144032D02*
D03*
Y126315D02*
D03*
X130315Y161748D02*
D03*
Y152890D02*
D03*
X156890Y135173D02*
D03*
X139173Y161748D02*
D03*
Y188323D02*
D03*
X156890Y117457D02*
D03*
X121457Y99740D02*
D03*
X139173D02*
D03*
X148032Y117457D02*
D03*
X130315Y99740D02*
D03*
X148032D02*
D03*
X135827Y108268D02*
D03*
X113189Y96457D02*
D03*
X123031Y81693D02*
D03*
X122835Y177953D02*
D03*
X145669Y176181D02*
D03*
X122835Y183071D02*
D03*
X139173Y144032D02*
D03*
X162402Y64961D02*
D03*
X157480D02*
D03*
X128937Y65945D02*
D03*
X143701Y62992D02*
D03*
X136811D02*
D03*
X149606Y58071D02*
D03*
X136811D02*
D03*
X126378Y14110D02*
D03*
Y23953D02*
D03*
Y33795D02*
D03*
X136221D02*
D03*
Y43638D02*
D03*
X146063Y14110D02*
D03*
Y23953D02*
D03*
Y33795D02*
D03*
Y43638D02*
D03*
X155905Y14110D02*
D03*
Y23953D02*
D03*
Y33795D02*
D03*
Y53480D02*
D03*
X128937Y50197D02*
D03*
X143701Y58071D02*
D03*
X42323Y151772D02*
D03*
X48031Y157480D02*
D03*
X42323D02*
D03*
Y163189D02*
D03*
X48031Y151772D02*
D03*
Y163189D02*
D03*
X10236Y84977D02*
D03*
Y92851D02*
D03*
Y100724D02*
D03*
Y108598D02*
D03*
X18110Y84977D02*
D03*
Y92851D02*
D03*
Y100724D02*
D03*
Y108598D02*
D03*
X25984Y84977D02*
D03*
Y92851D02*
D03*
Y100724D02*
D03*
Y108598D02*
D03*
X55118Y117126D02*
D03*
X92520Y37402D02*
D03*
X62992Y116473D02*
D03*
X88977Y6236D02*
D03*
X81103Y37732D02*
D03*
Y29858D02*
D03*
Y21984D02*
D03*
Y14110D02*
D03*
Y6236D02*
D03*
X73228Y37732D02*
D03*
Y29858D02*
D03*
Y21984D02*
D03*
Y14110D02*
D03*
Y6236D02*
D03*
X65354Y45606D02*
D03*
Y37732D02*
D03*
Y29858D02*
D03*
Y14110D02*
D03*
Y6236D02*
D03*
X57480Y37732D02*
D03*
Y29858D02*
D03*
Y14110D02*
D03*
Y6236D02*
D03*
X76378Y171590D02*
D03*
Y155055D02*
D03*
Y149543D02*
D03*
X70866Y160567D02*
D03*
Y155055D02*
D03*
Y149543D02*
D03*
X65354Y160567D02*
D03*
Y155055D02*
D03*
Y149543D02*
D03*
X57480Y108598D02*
D03*
Y100724D02*
D03*
Y92851D02*
D03*
Y84977D02*
D03*
Y77103D02*
D03*
X49606Y108598D02*
D03*
Y100724D02*
D03*
Y92851D02*
D03*
Y84977D02*
D03*
X41732Y108598D02*
D03*
Y100724D02*
D03*
Y92851D02*
D03*
Y84977D02*
D03*
X47244Y132874D02*
D03*
X179134Y80821D02*
D03*
Y65945D02*
D03*
X81693Y141732D02*
D03*
X167323Y56102D02*
D03*
X149606Y64961D02*
D03*
M02*
