G04*
G04 #@! TF.GenerationSoftware,Altium Limited,Altium Designer,26.2.0 (7)*
G04*
G04 Layer_Physical_Order=2*
G04 Layer_Color=36540*
%FSLAX25Y25*%
%MOIN*%
G70*
G04*
G04 #@! TF.SameCoordinates,F614A745-3F37-49C4-9740-4EE86F791CEA*
G04*
G04*
G04 #@! TF.FilePolarity,Positive*
G04*
G01*
G75*
%ADD56C,0.05906*%
%ADD57C,0.05709*%
%ADD58C,0.07677*%
%ADD59C,0.05150*%
%ADD61C,0.09449*%
%ADD62C,0.15748*%
%ADD63C,0.02362*%
G36*
X193898Y2953D02*
X2953D01*
Y193898D01*
X193898D01*
Y2953D01*
D02*
G37*
%LPC*%
G36*
X85433Y190787D02*
Y187795D01*
X88425D01*
X88237Y188496D01*
X87730Y189374D01*
X87012Y190092D01*
X86133Y190600D01*
X85433Y190787D01*
D02*
G37*
G36*
X40669D02*
Y187795D01*
X43661D01*
X43474Y188496D01*
X42966Y189374D01*
X42248Y190092D01*
X41370Y190600D01*
X40669Y190787D01*
D02*
G37*
G36*
X95433D02*
Y187795D01*
X98425D01*
X98237Y188496D01*
X97730Y189374D01*
X97012Y190092D01*
X96133Y190600D01*
X95433Y190787D01*
D02*
G37*
G36*
X60669D02*
Y187795D01*
X63661D01*
X63474Y188496D01*
X62966Y189374D01*
X62248Y190092D01*
X61370Y190600D01*
X60669Y190787D01*
D02*
G37*
G36*
X39094D02*
X38394Y190600D01*
X37515Y190092D01*
X36798Y189374D01*
X36290Y188496D01*
X36103Y187795D01*
X39094D01*
Y190787D01*
D02*
G37*
G36*
X93858D02*
X93158Y190600D01*
X92279Y190092D01*
X91561Y189374D01*
X91054Y188496D01*
X90866Y187795D01*
X93858D01*
Y190787D01*
D02*
G37*
G36*
X59095D02*
X58394Y190600D01*
X57515Y190092D01*
X56798Y189374D01*
X56290Y188496D01*
X56103Y187795D01*
X59095D01*
Y190787D01*
D02*
G37*
G36*
X83858Y190787D02*
X83158Y190600D01*
X82279Y190092D01*
X81561Y189374D01*
X81054Y188496D01*
X80866Y187795D01*
X83858D01*
Y190787D01*
D02*
G37*
G36*
X139565Y190291D02*
X138782D01*
X138058Y189992D01*
X137504Y189438D01*
X137205Y188715D01*
Y187931D01*
X137504Y187208D01*
X138058Y186654D01*
X138782Y186354D01*
X139565D01*
X140288Y186654D01*
X140842Y187208D01*
X141142Y187931D01*
Y188715D01*
X140842Y189438D01*
X140288Y189992D01*
X139565Y190291D01*
D02*
G37*
G36*
X130707D02*
X129923D01*
X129200Y189992D01*
X128646Y189438D01*
X128347Y188715D01*
Y187931D01*
X128646Y187208D01*
X129200Y186654D01*
X129923Y186354D01*
X130707D01*
X131430Y186654D01*
X131984Y187208D01*
X132283Y187931D01*
Y188715D01*
X131984Y189438D01*
X131430Y189992D01*
X130707Y190291D01*
D02*
G37*
G36*
X115125Y190650D02*
X114166D01*
X113240Y190401D01*
X112410Y189922D01*
X111732Y189244D01*
X111252Y188414D01*
X111004Y187487D01*
Y186528D01*
X111252Y185602D01*
X111732Y184772D01*
X112410Y184094D01*
X113240Y183614D01*
X114166Y183366D01*
X115125D01*
X116051Y183614D01*
X116882Y184094D01*
X117560Y184772D01*
X118039Y185602D01*
X118287Y186528D01*
Y187487D01*
X118039Y188414D01*
X117560Y189244D01*
X116882Y189922D01*
X116051Y190401D01*
X115125Y190650D01*
D02*
G37*
G36*
X105125D02*
X104166D01*
X103240Y190401D01*
X102410Y189922D01*
X101732Y189244D01*
X101252Y188414D01*
X101004Y187487D01*
Y186528D01*
X101252Y185602D01*
X101732Y184772D01*
X102410Y184094D01*
X103240Y183614D01*
X104166Y183366D01*
X105125D01*
X106051Y183614D01*
X106882Y184094D01*
X107560Y184772D01*
X108039Y185602D01*
X108287Y186528D01*
Y187487D01*
X108039Y188414D01*
X107560Y189244D01*
X106882Y189922D01*
X106051Y190401D01*
X105125Y190650D01*
D02*
G37*
G36*
X70361D02*
X69402D01*
X68476Y190401D01*
X67646Y189922D01*
X66968Y189244D01*
X66488Y188414D01*
X66240Y187487D01*
Y186528D01*
X66488Y185602D01*
X66968Y184772D01*
X67646Y184094D01*
X68476Y183614D01*
X69402Y183366D01*
X70361D01*
X71288Y183614D01*
X72118Y184094D01*
X72796Y184772D01*
X73275Y185602D01*
X73524Y186528D01*
Y187487D01*
X73275Y188414D01*
X72796Y189244D01*
X72118Y189922D01*
X71288Y190401D01*
X70361Y190650D01*
D02*
G37*
G36*
X50361D02*
X49402D01*
X48476Y190401D01*
X47646Y189922D01*
X46968Y189244D01*
X46488Y188414D01*
X46240Y187487D01*
Y186528D01*
X46488Y185602D01*
X46968Y184772D01*
X47646Y184094D01*
X48476Y183614D01*
X49402Y183366D01*
X50361D01*
X51288Y183614D01*
X52118Y184094D01*
X52796Y184772D01*
X53275Y185602D01*
X53524Y186528D01*
Y187487D01*
X53275Y188414D01*
X52796Y189244D01*
X52118Y189922D01*
X51288Y190401D01*
X50361Y190650D01*
D02*
G37*
G36*
X88425Y186221D02*
X85433D01*
Y183229D01*
X86133Y183416D01*
X87012Y183924D01*
X87730Y184641D01*
X88237Y185520D01*
X88425Y186221D01*
D02*
G37*
G36*
X98425D02*
X95433D01*
Y183229D01*
X96133Y183416D01*
X97012Y183924D01*
X97730Y184641D01*
X98237Y185520D01*
X98425Y186221D01*
D02*
G37*
G36*
X63661D02*
X60669D01*
Y183229D01*
X61370Y183416D01*
X62248Y183924D01*
X62966Y184641D01*
X63474Y185520D01*
X63661Y186221D01*
D02*
G37*
G36*
X43661D02*
X40669D01*
Y183229D01*
X41370Y183416D01*
X42248Y183924D01*
X42966Y184641D01*
X43474Y185520D01*
X43661Y186221D01*
D02*
G37*
G36*
X59095D02*
X56103D01*
X56290Y185520D01*
X56798Y184641D01*
X57515Y183924D01*
X58394Y183416D01*
X59095Y183229D01*
Y186221D01*
D02*
G37*
G36*
X39094D02*
X36103D01*
X36290Y185520D01*
X36798Y184641D01*
X37515Y183924D01*
X38394Y183416D01*
X39094Y183229D01*
Y186221D01*
D02*
G37*
G36*
X93858D02*
X90866D01*
X91054Y185520D01*
X91561Y184641D01*
X92279Y183924D01*
X93158Y183416D01*
X93858Y183229D01*
Y186221D01*
D02*
G37*
G36*
X83858D02*
X80866D01*
X81054Y185520D01*
X81561Y184641D01*
X82279Y183924D01*
X83158Y183416D01*
X83858Y183229D01*
Y186221D01*
D02*
G37*
G36*
X123226Y185039D02*
X122443D01*
X121720Y184740D01*
X121166Y184186D01*
X120866Y183462D01*
Y182679D01*
X121166Y181956D01*
X121720Y181402D01*
X122443Y181102D01*
X123226D01*
X123950Y181402D01*
X124504Y181956D01*
X124803Y182679D01*
Y183462D01*
X124504Y184186D01*
X123950Y184740D01*
X123226Y185039D01*
D02*
G37*
G36*
X156693Y180874D02*
Y177362D01*
X160205D01*
X160021Y178049D01*
X159384Y179152D01*
X158483Y180053D01*
X157379Y180690D01*
X156693Y180874D01*
D02*
G37*
G36*
X154331D02*
X153644Y180690D01*
X152541Y180053D01*
X151640Y179152D01*
X151003Y178049D01*
X150819Y177362D01*
X154331D01*
Y180874D01*
D02*
G37*
G36*
X123226Y179921D02*
X122443D01*
X121720Y179622D01*
X121166Y179068D01*
X120866Y178344D01*
Y177561D01*
X121166Y176838D01*
X121720Y176284D01*
X122443Y175984D01*
X123226D01*
X123950Y176284D01*
X124504Y176838D01*
X124803Y177561D01*
Y178344D01*
X124504Y179068D01*
X123950Y179622D01*
X123226Y179921D01*
D02*
G37*
G36*
X85433Y178976D02*
Y175984D01*
X88425D01*
X88237Y176685D01*
X87730Y177564D01*
X87012Y178281D01*
X86133Y178788D01*
X85433Y178976D01*
D02*
G37*
G36*
X40669D02*
Y175984D01*
X43661D01*
X43474Y176685D01*
X42966Y177564D01*
X42248Y178281D01*
X41370Y178788D01*
X40669Y178976D01*
D02*
G37*
G36*
X95433D02*
Y175984D01*
X98425D01*
X98237Y176685D01*
X97730Y177564D01*
X97012Y178281D01*
X96133Y178788D01*
X95433Y178976D01*
D02*
G37*
G36*
X60669D02*
Y175984D01*
X63661D01*
X63474Y176685D01*
X62966Y177564D01*
X62248Y178281D01*
X61370Y178788D01*
X60669Y178976D01*
D02*
G37*
G36*
X39094D02*
X38394Y178788D01*
X37515Y178281D01*
X36798Y177564D01*
X36290Y176685D01*
X36103Y175984D01*
X39094D01*
Y178976D01*
D02*
G37*
G36*
X93858D02*
X93158Y178788D01*
X92279Y178281D01*
X91561Y177564D01*
X91054Y176685D01*
X90866Y175984D01*
X93858D01*
Y178976D01*
D02*
G37*
G36*
X59095D02*
X58394Y178788D01*
X57515Y178281D01*
X56798Y177564D01*
X56290Y176685D01*
X56103Y175984D01*
X59095D01*
Y178976D01*
D02*
G37*
G36*
X83858Y178976D02*
X83158Y178788D01*
X82279Y178281D01*
X81561Y177564D01*
X81054Y176685D01*
X80866Y175984D01*
X83858D01*
Y178976D01*
D02*
G37*
G36*
X146061Y178150D02*
X145278D01*
X144554Y177850D01*
X144000Y177296D01*
X143701Y176573D01*
Y175789D01*
X144000Y175066D01*
X144554Y174512D01*
X145278Y174213D01*
X146061D01*
X146784Y174512D01*
X147338Y175066D01*
X147638Y175789D01*
Y176573D01*
X147338Y177296D01*
X146784Y177850D01*
X146061Y178150D01*
D02*
G37*
G36*
X136436Y180807D02*
X135218D01*
X134041Y180492D01*
X132986Y179883D01*
X132125Y179022D01*
X131516Y177967D01*
X131201Y176790D01*
Y175572D01*
X131516Y174396D01*
X132125Y173341D01*
X132986Y172479D01*
X134041Y171870D01*
X135218Y171555D01*
X136436D01*
X137612Y171870D01*
X138667Y172479D01*
X139529Y173341D01*
X140138Y174396D01*
X140453Y175572D01*
Y176790D01*
X140138Y177967D01*
X139529Y179022D01*
X138667Y179883D01*
X137612Y180492D01*
X136436Y180807D01*
D02*
G37*
G36*
X115125Y178839D02*
X114166D01*
X113240Y178590D01*
X112410Y178111D01*
X111732Y177433D01*
X111252Y176602D01*
X111004Y175676D01*
Y174717D01*
X111252Y173791D01*
X111732Y172961D01*
X112410Y172283D01*
X113240Y171803D01*
X114166Y171555D01*
X115125D01*
X116051Y171803D01*
X116882Y172283D01*
X117560Y172961D01*
X118039Y173791D01*
X118287Y174717D01*
Y175676D01*
X118039Y176602D01*
X117560Y177433D01*
X116882Y178111D01*
X116051Y178590D01*
X115125Y178839D01*
D02*
G37*
G36*
X105125D02*
X104166D01*
X103240Y178590D01*
X102410Y178111D01*
X101732Y177433D01*
X101252Y176602D01*
X101004Y175676D01*
Y174717D01*
X101252Y173791D01*
X101732Y172961D01*
X102410Y172283D01*
X103240Y171803D01*
X104166Y171555D01*
X105125D01*
X106051Y171803D01*
X106882Y172283D01*
X107560Y172961D01*
X108039Y173791D01*
X108287Y174717D01*
Y175676D01*
X108039Y176602D01*
X107560Y177433D01*
X106882Y178111D01*
X106051Y178590D01*
X105125Y178839D01*
D02*
G37*
G36*
X70361D02*
X69402D01*
X68476Y178590D01*
X67646Y178111D01*
X66968Y177433D01*
X66488Y176602D01*
X66240Y175676D01*
Y174717D01*
X66488Y173791D01*
X66968Y172961D01*
X67646Y172283D01*
X68476Y171803D01*
X69402Y171555D01*
X70361D01*
X71288Y171803D01*
X72118Y172283D01*
X72796Y172961D01*
X73275Y173791D01*
X73524Y174717D01*
Y175676D01*
X73275Y176602D01*
X72796Y177433D01*
X72118Y178111D01*
X71288Y178590D01*
X70361Y178839D01*
D02*
G37*
G36*
X50361D02*
X49402D01*
X48476Y178590D01*
X47646Y178111D01*
X46968Y177433D01*
X46488Y176602D01*
X46240Y175676D01*
Y174717D01*
X46488Y173791D01*
X46968Y172961D01*
X47646Y172283D01*
X48476Y171803D01*
X49402Y171555D01*
X50361D01*
X51288Y171803D01*
X52118Y172283D01*
X52796Y172961D01*
X53275Y173791D01*
X53524Y174717D01*
Y175676D01*
X53275Y176602D01*
X52796Y177433D01*
X52118Y178111D01*
X51288Y178590D01*
X50361Y178839D01*
D02*
G37*
G36*
X160205Y175000D02*
X156693D01*
Y171488D01*
X157379Y171672D01*
X158483Y172309D01*
X159384Y173210D01*
X160021Y174313D01*
X160205Y175000D01*
D02*
G37*
G36*
X154331D02*
X150819D01*
X151003Y174313D01*
X151640Y173210D01*
X152541Y172309D01*
X153644Y171672D01*
X154331Y171488D01*
Y175000D01*
D02*
G37*
G36*
X88425Y174409D02*
X85433D01*
Y171417D01*
X86133Y171605D01*
X87012Y172113D01*
X87730Y172830D01*
X88237Y173709D01*
X88425Y174409D01*
D02*
G37*
G36*
X98425D02*
X95433D01*
Y171417D01*
X96133Y171605D01*
X97012Y172113D01*
X97730Y172830D01*
X98237Y173709D01*
X98425Y174409D01*
D02*
G37*
G36*
X63661D02*
X60669D01*
Y171417D01*
X61370Y171605D01*
X62248Y172113D01*
X62966Y172830D01*
X63474Y173709D01*
X63661Y174409D01*
D02*
G37*
G36*
X43661D02*
X40669D01*
Y171417D01*
X41370Y171605D01*
X42248Y172113D01*
X42966Y172830D01*
X43474Y173709D01*
X43661Y174409D01*
D02*
G37*
G36*
X59095D02*
X56103D01*
X56290Y173709D01*
X56798Y172830D01*
X57515Y172113D01*
X58394Y171605D01*
X59095Y171417D01*
Y174409D01*
D02*
G37*
G36*
X39094D02*
X36103D01*
X36290Y173709D01*
X36798Y172830D01*
X37515Y172113D01*
X38394Y171605D01*
X39094Y171417D01*
Y174409D01*
D02*
G37*
G36*
X93858D02*
X90866D01*
X91054Y173709D01*
X91561Y172830D01*
X92279Y172113D01*
X93158Y171605D01*
X93858Y171417D01*
Y174409D01*
D02*
G37*
G36*
X83858D02*
X80866D01*
X81054Y173709D01*
X81561Y172830D01*
X82279Y172113D01*
X83158Y171605D01*
X83858Y171417D01*
Y174409D01*
D02*
G37*
G36*
X181102Y191765D02*
X179434Y191634D01*
X177807Y191243D01*
X176261Y190603D01*
X174835Y189729D01*
X173563Y188642D01*
X172476Y187370D01*
X171602Y185943D01*
X170961Y184397D01*
X170571Y182770D01*
X170440Y181102D01*
X170571Y179434D01*
X170961Y177807D01*
X171602Y176262D01*
X172476Y174835D01*
X173563Y173563D01*
X174835Y172476D01*
X176261Y171602D01*
X177807Y170961D01*
X179434Y170571D01*
X181102Y170440D01*
X182770Y170571D01*
X184397Y170961D01*
X185943Y171602D01*
X187370Y172476D01*
X188642Y173563D01*
X189729Y174835D01*
X190603Y176262D01*
X191243Y177807D01*
X191634Y179434D01*
X191765Y181102D01*
X191634Y182770D01*
X191243Y184397D01*
X190603Y185943D01*
X189729Y187370D01*
X188642Y188642D01*
X187370Y189729D01*
X185943Y190603D01*
X184397Y191243D01*
X182770Y191634D01*
X181102Y191765D01*
D02*
G37*
G36*
X15748D02*
X14080Y191634D01*
X12453Y191243D01*
X10907Y190603D01*
X9481Y189729D01*
X8208Y188642D01*
X7122Y187370D01*
X6247Y185943D01*
X5607Y184397D01*
X5217Y182770D01*
X5085Y181102D01*
X5217Y179434D01*
X5607Y177807D01*
X6247Y176262D01*
X7122Y174835D01*
X8208Y173563D01*
X9481Y172476D01*
X10907Y171602D01*
X12453Y170961D01*
X14080Y170571D01*
X15748Y170440D01*
X17416Y170571D01*
X19043Y170961D01*
X20589Y171602D01*
X22016Y172476D01*
X23288Y173563D01*
X24374Y174835D01*
X25249Y176262D01*
X25889Y177807D01*
X26280Y179434D01*
X26411Y181102D01*
X26280Y182770D01*
X25889Y184397D01*
X25249Y185943D01*
X24374Y187370D01*
X23288Y188642D01*
X22016Y189729D01*
X20589Y190603D01*
X19043Y191243D01*
X17416Y191634D01*
X15748Y191765D01*
D02*
G37*
G36*
X76770Y173559D02*
X75986D01*
X75263Y173259D01*
X74709Y172706D01*
X74409Y171982D01*
Y171199D01*
X74709Y170475D01*
X75263Y169922D01*
X75986Y169622D01*
X76770D01*
X77493Y169922D01*
X78047Y170475D01*
X78346Y171199D01*
Y171982D01*
X78047Y172706D01*
X77493Y173259D01*
X76770Y173559D01*
D02*
G37*
G36*
X48423Y165157D02*
X47640D01*
X46916Y164858D01*
X46363Y164304D01*
X46063Y163581D01*
Y162797D01*
X46363Y162074D01*
X46916Y161520D01*
X47640Y161221D01*
X48423D01*
X49147Y161520D01*
X49700Y162074D01*
X50000Y162797D01*
Y163581D01*
X49700Y164304D01*
X49147Y164858D01*
X48423Y165157D01*
D02*
G37*
G36*
X42714D02*
X41931D01*
X41208Y164858D01*
X40654Y164304D01*
X40354Y163581D01*
Y162797D01*
X40654Y162074D01*
X41208Y161520D01*
X41931Y161221D01*
X42714D01*
X43438Y161520D01*
X43992Y162074D01*
X44291Y162797D01*
Y163581D01*
X43992Y164304D01*
X43438Y164858D01*
X42714Y165157D01*
D02*
G37*
G36*
X148423Y163717D02*
X147640D01*
X146916Y163417D01*
X146363Y162863D01*
X146063Y162140D01*
Y161356D01*
X146363Y160633D01*
X146916Y160079D01*
X147640Y159780D01*
X148423D01*
X149147Y160079D01*
X149700Y160633D01*
X150000Y161356D01*
Y162140D01*
X149700Y162863D01*
X149147Y163417D01*
X148423Y163717D01*
D02*
G37*
G36*
X139565D02*
X138782D01*
X138058Y163417D01*
X137504Y162863D01*
X137205Y162140D01*
Y161356D01*
X137504Y160633D01*
X138058Y160079D01*
X138782Y159780D01*
X139565D01*
X140288Y160079D01*
X140842Y160633D01*
X141142Y161356D01*
Y162140D01*
X140842Y162863D01*
X140288Y163417D01*
X139565Y163717D01*
D02*
G37*
G36*
X130707D02*
X129923D01*
X129200Y163417D01*
X128646Y162863D01*
X128347Y162140D01*
Y161356D01*
X128646Y160633D01*
X129200Y160079D01*
X129923Y159780D01*
X130707D01*
X131430Y160079D01*
X131984Y160633D01*
X132283Y161356D01*
Y162140D01*
X131984Y162863D01*
X131430Y163417D01*
X130707Y163717D01*
D02*
G37*
G36*
X112990D02*
X112207D01*
X111483Y163417D01*
X110930Y162863D01*
X110630Y162140D01*
Y161356D01*
X110930Y160633D01*
X111483Y160079D01*
X112207Y159780D01*
X112990D01*
X113714Y160079D01*
X114267Y160633D01*
X114567Y161356D01*
Y162140D01*
X114267Y162863D01*
X113714Y163417D01*
X112990Y163717D01*
D02*
G37*
G36*
X71258Y162535D02*
X70474D01*
X69751Y162236D01*
X69197Y161682D01*
X68898Y160958D01*
Y160175D01*
X69197Y159452D01*
X69751Y158898D01*
X70474Y158598D01*
X71258D01*
X71981Y158898D01*
X72535Y159452D01*
X72835Y160175D01*
Y160958D01*
X72535Y161682D01*
X71981Y162236D01*
X71258Y162535D01*
D02*
G37*
G36*
X65746D02*
X64963D01*
X64239Y162236D01*
X63686Y161682D01*
X63386Y160958D01*
Y160175D01*
X63686Y159452D01*
X64239Y158898D01*
X64963Y158598D01*
X65746D01*
X66469Y158898D01*
X67023Y159452D01*
X67323Y160175D01*
Y160958D01*
X67023Y161682D01*
X66469Y162236D01*
X65746Y162535D01*
D02*
G37*
G36*
X48423Y159449D02*
X47640D01*
X46916Y159149D01*
X46363Y158595D01*
X46063Y157872D01*
Y157089D01*
X46363Y156365D01*
X46916Y155812D01*
X47640Y155512D01*
X48423D01*
X49147Y155812D01*
X49700Y156365D01*
X50000Y157089D01*
Y157872D01*
X49700Y158595D01*
X49147Y159149D01*
X48423Y159449D01*
D02*
G37*
G36*
X42714D02*
X41931D01*
X41208Y159149D01*
X40654Y158595D01*
X40354Y157872D01*
Y157089D01*
X40654Y156365D01*
X41208Y155812D01*
X41931Y155512D01*
X42714D01*
X43438Y155812D01*
X43992Y156365D01*
X44291Y157089D01*
Y157872D01*
X43992Y158595D01*
X43438Y159149D01*
X42714Y159449D01*
D02*
G37*
G36*
X76770Y157024D02*
X75986D01*
X75263Y156724D01*
X74709Y156170D01*
X74409Y155447D01*
Y154664D01*
X74709Y153940D01*
X75263Y153386D01*
X75986Y153087D01*
X76770D01*
X77493Y153386D01*
X78047Y153940D01*
X78346Y154664D01*
Y155447D01*
X78047Y156170D01*
X77493Y156724D01*
X76770Y157024D01*
D02*
G37*
G36*
X71258D02*
X70474D01*
X69751Y156724D01*
X69197Y156170D01*
X68898Y155447D01*
Y154664D01*
X69197Y153940D01*
X69751Y153386D01*
X70474Y153087D01*
X71258D01*
X71981Y153386D01*
X72535Y153940D01*
X72835Y154664D01*
Y155447D01*
X72535Y156170D01*
X71981Y156724D01*
X71258Y157024D01*
D02*
G37*
G36*
X65746D02*
X64963D01*
X64239Y156724D01*
X63686Y156170D01*
X63386Y155447D01*
Y154664D01*
X63686Y153940D01*
X64239Y153386D01*
X64963Y153087D01*
X65746D01*
X66469Y153386D01*
X67023Y153940D01*
X67323Y154664D01*
Y155447D01*
X67023Y156170D01*
X66469Y156724D01*
X65746Y157024D01*
D02*
G37*
G36*
X148423Y154858D02*
X147640D01*
X146916Y154559D01*
X146363Y154005D01*
X146063Y153281D01*
Y152498D01*
X146363Y151775D01*
X146916Y151221D01*
X147640Y150921D01*
X148423D01*
X149147Y151221D01*
X149700Y151775D01*
X150000Y152498D01*
Y153281D01*
X149700Y154005D01*
X149147Y154559D01*
X148423Y154858D01*
D02*
G37*
G36*
X139565D02*
X138782D01*
X138058Y154559D01*
X137504Y154005D01*
X137205Y153281D01*
Y152498D01*
X137504Y151775D01*
X138058Y151221D01*
X138782Y150921D01*
X139565D01*
X140288Y151221D01*
X140842Y151775D01*
X141142Y152498D01*
Y153281D01*
X140842Y154005D01*
X140288Y154559D01*
X139565Y154858D01*
D02*
G37*
G36*
X130707D02*
X129923D01*
X129200Y154559D01*
X128646Y154005D01*
X128347Y153281D01*
Y152498D01*
X128646Y151775D01*
X129200Y151221D01*
X129923Y150921D01*
X130707D01*
X131430Y151221D01*
X131984Y151775D01*
X132283Y152498D01*
Y153281D01*
X131984Y154005D01*
X131430Y154559D01*
X130707Y154858D01*
D02*
G37*
G36*
X48423Y153740D02*
X47640D01*
X46916Y153440D01*
X46363Y152887D01*
X46063Y152163D01*
Y151380D01*
X46363Y150657D01*
X46916Y150103D01*
X47640Y149803D01*
X48423D01*
X49147Y150103D01*
X49700Y150657D01*
X50000Y151380D01*
Y152163D01*
X49700Y152887D01*
X49147Y153440D01*
X48423Y153740D01*
D02*
G37*
G36*
X42714D02*
X41931D01*
X41208Y153440D01*
X40654Y152887D01*
X40354Y152163D01*
Y151380D01*
X40654Y150657D01*
X41208Y150103D01*
X41931Y149803D01*
X42714D01*
X43438Y150103D01*
X43992Y150657D01*
X44291Y151380D01*
Y152163D01*
X43992Y152887D01*
X43438Y153440D01*
X42714Y153740D01*
D02*
G37*
G36*
X76770Y151512D02*
X75986D01*
X75263Y151212D01*
X74709Y150658D01*
X74409Y149935D01*
Y149152D01*
X74709Y148428D01*
X75263Y147874D01*
X75986Y147575D01*
X76770D01*
X77493Y147874D01*
X78047Y148428D01*
X78346Y149152D01*
Y149935D01*
X78047Y150658D01*
X77493Y151212D01*
X76770Y151512D01*
D02*
G37*
G36*
X71258D02*
X70474D01*
X69751Y151212D01*
X69197Y150658D01*
X68898Y149935D01*
Y149152D01*
X69197Y148428D01*
X69751Y147874D01*
X70474Y147575D01*
X71258D01*
X71981Y147874D01*
X72535Y148428D01*
X72835Y149152D01*
Y149935D01*
X72535Y150658D01*
X71981Y151212D01*
X71258Y151512D01*
D02*
G37*
G36*
X65746D02*
X64963D01*
X64239Y151212D01*
X63686Y150658D01*
X63386Y149935D01*
Y149152D01*
X63686Y148428D01*
X64239Y147874D01*
X64963Y147575D01*
X65746D01*
X66469Y147874D01*
X67023Y148428D01*
X67323Y149152D01*
Y149935D01*
X67023Y150658D01*
X66469Y151212D01*
X65746Y151512D01*
D02*
G37*
G36*
X148423Y146000D02*
X147640D01*
X146916Y145700D01*
X146363Y145147D01*
X146063Y144423D01*
Y143640D01*
X146363Y142917D01*
X146916Y142363D01*
X147640Y142063D01*
X148423D01*
X149147Y142363D01*
X149700Y142917D01*
X150000Y143640D01*
Y144423D01*
X149700Y145147D01*
X149147Y145700D01*
X148423Y146000D01*
D02*
G37*
G36*
X139565D02*
X138782D01*
X138058Y145700D01*
X137504Y145147D01*
X137205Y144423D01*
Y143640D01*
X137504Y142917D01*
X138058Y142363D01*
X138782Y142063D01*
X139565D01*
X140288Y142363D01*
X140842Y142917D01*
X141142Y143640D01*
Y144423D01*
X140842Y145147D01*
X140288Y145700D01*
X139565Y146000D01*
D02*
G37*
G36*
X81693Y144810D02*
X80896Y144705D01*
X80154Y144397D01*
X79517Y143908D01*
X79028Y143271D01*
X78720Y142529D01*
X78615Y141732D01*
X78720Y140936D01*
X79028Y140193D01*
X79517Y139556D01*
X80154Y139067D01*
X80896Y138760D01*
X81693Y138655D01*
X82489Y138760D01*
X83232Y139067D01*
X83869Y139556D01*
X84358Y140193D01*
X84666Y140936D01*
X84770Y141732D01*
X84666Y142529D01*
X84358Y143271D01*
X83869Y143908D01*
X83232Y144397D01*
X82489Y144705D01*
X81693Y144810D01*
D02*
G37*
G36*
X177765Y139758D02*
Y136427D01*
X181097D01*
X180849Y137353D01*
X180328Y138254D01*
X179592Y138990D01*
X178691Y139510D01*
X177765Y139758D01*
D02*
G37*
G36*
X176565D02*
X175640Y139510D01*
X174738Y138990D01*
X174002Y138254D01*
X173482Y137353D01*
X173234Y136427D01*
X176565D01*
Y139758D01*
D02*
G37*
G36*
X157281Y137142D02*
X156498D01*
X155775Y136842D01*
X155221Y136288D01*
X154921Y135565D01*
Y134782D01*
X155221Y134058D01*
X155775Y133504D01*
X156498Y133205D01*
X157281D01*
X158005Y133504D01*
X158559Y134058D01*
X158858Y134782D01*
Y135565D01*
X158559Y136288D01*
X158005Y136842D01*
X157281Y137142D01*
D02*
G37*
G36*
X148423D02*
X147640D01*
X146916Y136842D01*
X146363Y136288D01*
X146063Y135565D01*
Y134782D01*
X146363Y134058D01*
X146916Y133504D01*
X147640Y133205D01*
X148423D01*
X149147Y133504D01*
X149700Y134058D01*
X150000Y134782D01*
Y135565D01*
X149700Y136288D01*
X149147Y136842D01*
X148423Y137142D01*
D02*
G37*
G36*
X165847Y139567D02*
X164862D01*
X163911Y139312D01*
X163058Y138820D01*
X162362Y138123D01*
X161869Y137270D01*
X161614Y136319D01*
Y135334D01*
X161869Y134383D01*
X162362Y133530D01*
X163058Y132834D01*
X163911Y132342D01*
X164862Y132087D01*
X165847D01*
X166798Y132342D01*
X167651Y132834D01*
X168347Y133530D01*
X168840Y134383D01*
X169095Y135334D01*
Y136319D01*
X168840Y137270D01*
X168347Y138123D01*
X167651Y138820D01*
X166798Y139312D01*
X165847Y139567D01*
D02*
G37*
G36*
X181097Y135227D02*
X177765D01*
Y131895D01*
X178691Y132143D01*
X179592Y132664D01*
X180328Y133400D01*
X180849Y134301D01*
X181097Y135227D01*
D02*
G37*
G36*
X176565D02*
X173234D01*
X173482Y134301D01*
X174002Y133400D01*
X174738Y132664D01*
X175640Y132143D01*
X176565Y131895D01*
Y135227D01*
D02*
G37*
G36*
X120470Y135827D02*
X119687D01*
X118964Y135527D01*
X118410Y134973D01*
X118110Y134250D01*
Y133467D01*
X118410Y132743D01*
X118964Y132190D01*
X119687Y131890D01*
X120470D01*
X121194Y132190D01*
X121748Y132743D01*
X122047Y133467D01*
Y134250D01*
X121748Y134973D01*
X121194Y135527D01*
X120470Y135827D01*
D02*
G37*
G36*
X47636Y134843D02*
X46852D01*
X46129Y134543D01*
X45575Y133989D01*
X45276Y133266D01*
Y132483D01*
X45575Y131759D01*
X46129Y131205D01*
X46852Y130905D01*
X47636D01*
X48359Y131205D01*
X48913Y131759D01*
X49213Y132483D01*
Y133266D01*
X48913Y133989D01*
X48359Y134543D01*
X47636Y134843D01*
D02*
G37*
G36*
X8474Y131884D02*
Y128553D01*
X11805D01*
X11557Y129479D01*
X11037Y130380D01*
X10301Y131116D01*
X9400Y131636D01*
X8474Y131884D01*
D02*
G37*
G36*
X7274D02*
X6348Y131636D01*
X5447Y131116D01*
X4711Y130380D01*
X4191Y129479D01*
X3943Y128553D01*
X7274D01*
Y131884D01*
D02*
G37*
G36*
X157281Y128284D02*
X156498D01*
X155775Y127984D01*
X155221Y127430D01*
X154921Y126707D01*
Y125924D01*
X155221Y125200D01*
X155775Y124646D01*
X156498Y124346D01*
X157281D01*
X158005Y124646D01*
X158559Y125200D01*
X158858Y125924D01*
Y126707D01*
X158559Y127430D01*
X158005Y127984D01*
X157281Y128284D01*
D02*
G37*
G36*
X148423D02*
X147640D01*
X146916Y127984D01*
X146363Y127430D01*
X146063Y126707D01*
Y125924D01*
X146363Y125200D01*
X146916Y124646D01*
X147640Y124346D01*
X148423D01*
X149147Y124646D01*
X149700Y125200D01*
X150000Y125924D01*
Y126707D01*
X149700Y127430D01*
X149147Y127984D01*
X148423Y128284D01*
D02*
G37*
G36*
X7274Y127353D02*
X3943D01*
X4191Y126427D01*
X4711Y125526D01*
X5447Y124790D01*
X6348Y124269D01*
X7274Y124021D01*
Y127353D01*
D02*
G37*
G36*
X11805D02*
X8474D01*
Y124021D01*
X9400Y124269D01*
X10301Y124790D01*
X11037Y125526D01*
X11557Y126427D01*
X11805Y127353D01*
D02*
G37*
G36*
X157281Y119425D02*
X156498D01*
X155775Y119126D01*
X155221Y118572D01*
X154921Y117848D01*
Y117065D01*
X155221Y116342D01*
X155775Y115788D01*
X156498Y115488D01*
X157281D01*
X158005Y115788D01*
X158559Y116342D01*
X158858Y117065D01*
Y117848D01*
X158559Y118572D01*
X158005Y119126D01*
X157281Y119425D01*
D02*
G37*
G36*
X148423D02*
X147640D01*
X146916Y119126D01*
X146363Y118572D01*
X146063Y117848D01*
Y117065D01*
X146363Y116342D01*
X146916Y115788D01*
X147640Y115488D01*
X148423D01*
X149147Y115788D01*
X149700Y116342D01*
X150000Y117065D01*
Y117848D01*
X149700Y118572D01*
X149147Y119126D01*
X148423Y119425D01*
D02*
G37*
G36*
X55510Y119095D02*
X54726D01*
X54003Y118795D01*
X53449Y118241D01*
X53150Y117517D01*
Y116734D01*
X53449Y116011D01*
X54003Y115457D01*
X54726Y115157D01*
X55510D01*
X56233Y115457D01*
X56787Y116011D01*
X57087Y116734D01*
Y117517D01*
X56787Y118241D01*
X56233Y118795D01*
X55510Y119095D01*
D02*
G37*
G36*
X63384Y118441D02*
X62601D01*
X61877Y118141D01*
X61323Y117588D01*
X61024Y116864D01*
Y116081D01*
X61323Y115357D01*
X61877Y114804D01*
X62601Y114504D01*
X63384D01*
X64107Y114804D01*
X64661Y115357D01*
X64961Y116081D01*
Y116864D01*
X64661Y117588D01*
X64107Y118141D01*
X63384Y118441D01*
D02*
G37*
G36*
X8366Y119882D02*
X7382D01*
X6430Y119627D01*
X5578Y119135D01*
X4881Y118438D01*
X4389Y117585D01*
X4134Y116634D01*
Y115649D01*
X4389Y114698D01*
X4881Y113845D01*
X5578Y113149D01*
X6430Y112656D01*
X7382Y112402D01*
X8366D01*
X9318Y112656D01*
X10170Y113149D01*
X10867Y113845D01*
X11359Y114698D01*
X11614Y115649D01*
Y116634D01*
X11359Y117585D01*
X10867Y118438D01*
X10170Y119135D01*
X9318Y119627D01*
X8366Y119882D01*
D02*
G37*
G36*
X170876Y114761D02*
Y111820D01*
X173816D01*
X173607Y112600D01*
X173136Y113416D01*
X172471Y114081D01*
X171655Y114552D01*
X170876Y114761D01*
D02*
G37*
G36*
X169676Y114761D02*
X168896Y114552D01*
X168081Y114081D01*
X167415Y113416D01*
X166944Y112600D01*
X166735Y111820D01*
X169676D01*
Y114761D01*
D02*
G37*
G36*
X156939Y114583D02*
X156053D01*
X155198Y114354D01*
X154432Y113911D01*
X153806Y113285D01*
X153363Y112518D01*
X153134Y111663D01*
Y110778D01*
X153363Y109923D01*
X153806Y109156D01*
X154432Y108530D01*
X155198Y108087D01*
X156053Y107858D01*
X156939D01*
X157794Y108087D01*
X158561Y108530D01*
X159186Y109156D01*
X159629Y109923D01*
X159858Y110778D01*
Y111663D01*
X159629Y112518D01*
X159186Y113285D01*
X158561Y113911D01*
X157794Y114354D01*
X156939Y114583D01*
D02*
G37*
G36*
X169676Y110620D02*
X166735D01*
X166944Y109841D01*
X167415Y109026D01*
X168081Y108360D01*
X168896Y107889D01*
X169676Y107680D01*
Y110620D01*
D02*
G37*
G36*
X173816D02*
X170876D01*
Y107680D01*
X171655Y107889D01*
X172471Y108360D01*
X173136Y109026D01*
X173607Y109841D01*
X173816Y110620D01*
D02*
G37*
G36*
X57872Y110567D02*
X57089D01*
X56365Y110267D01*
X55812Y109714D01*
X55512Y108990D01*
Y108207D01*
X55812Y107483D01*
X56365Y106930D01*
X57089Y106630D01*
X57872D01*
X58596Y106930D01*
X59149Y107483D01*
X59449Y108207D01*
Y108990D01*
X59149Y109714D01*
X58596Y110267D01*
X57872Y110567D01*
D02*
G37*
G36*
X49998D02*
X49215D01*
X48491Y110267D01*
X47938Y109714D01*
X47638Y108990D01*
Y108207D01*
X47938Y107483D01*
X48491Y106930D01*
X49215Y106630D01*
X49998D01*
X50721Y106930D01*
X51275Y107483D01*
X51575Y108207D01*
Y108990D01*
X51275Y109714D01*
X50721Y110267D01*
X49998Y110567D01*
D02*
G37*
G36*
X42124D02*
X41341D01*
X40617Y110267D01*
X40064Y109714D01*
X39764Y108990D01*
Y108207D01*
X40064Y107483D01*
X40617Y106930D01*
X41341Y106630D01*
X42124D01*
X42847Y106930D01*
X43401Y107483D01*
X43701Y108207D01*
Y108990D01*
X43401Y109714D01*
X42847Y110267D01*
X42124Y110567D01*
D02*
G37*
G36*
X26376D02*
X25593D01*
X24869Y110267D01*
X24316Y109714D01*
X24016Y108990D01*
Y108207D01*
X24316Y107483D01*
X24869Y106930D01*
X25593Y106630D01*
X26376D01*
X27099Y106930D01*
X27653Y107483D01*
X27953Y108207D01*
Y108990D01*
X27653Y109714D01*
X27099Y110267D01*
X26376Y110567D01*
D02*
G37*
G36*
X18502D02*
X17719D01*
X16995Y110267D01*
X16442Y109714D01*
X16142Y108990D01*
Y108207D01*
X16442Y107483D01*
X16995Y106930D01*
X17719Y106630D01*
X18502D01*
X19225Y106930D01*
X19779Y107483D01*
X20079Y108207D01*
Y108990D01*
X19779Y109714D01*
X19225Y110267D01*
X18502Y110567D01*
D02*
G37*
G36*
X10628D02*
X9845D01*
X9121Y110267D01*
X8568Y109714D01*
X8268Y108990D01*
Y108207D01*
X8568Y107483D01*
X9121Y106930D01*
X9845Y106630D01*
X10628D01*
X11351Y106930D01*
X11905Y107483D01*
X12205Y108207D01*
Y108990D01*
X11905Y109714D01*
X11351Y110267D01*
X10628Y110567D01*
D02*
G37*
G36*
X148423Y110567D02*
X147640D01*
X146916Y110267D01*
X146363Y109714D01*
X146063Y108990D01*
Y108207D01*
X146363Y107483D01*
X146916Y106930D01*
X147640Y106630D01*
X148423D01*
X149147Y106930D01*
X149700Y107483D01*
X150000Y108207D01*
Y108990D01*
X149700Y109714D01*
X149147Y110267D01*
X148423Y110567D01*
D02*
G37*
G36*
X136218Y110236D02*
X135435D01*
X134712Y109936D01*
X134158Y109383D01*
X133858Y108659D01*
Y107876D01*
X134158Y107153D01*
X134712Y106599D01*
X135435Y106299D01*
X136218D01*
X136942Y106599D01*
X137496Y107153D01*
X137795Y107876D01*
Y108659D01*
X137496Y109383D01*
X136942Y109936D01*
X136218Y110236D01*
D02*
G37*
G36*
X112596Y104331D02*
X111813D01*
X111090Y104031D01*
X110536Y103477D01*
X110236Y102754D01*
Y101971D01*
X110536Y101247D01*
X111090Y100693D01*
X111813Y100394D01*
X112596D01*
X113320Y100693D01*
X113874Y101247D01*
X114173Y101971D01*
Y102754D01*
X113874Y103477D01*
X113320Y104031D01*
X112596Y104331D01*
D02*
G37*
G36*
X57872Y102693D02*
X57089D01*
X56365Y102393D01*
X55812Y101840D01*
X55512Y101116D01*
Y100333D01*
X55812Y99610D01*
X56365Y99056D01*
X57089Y98756D01*
X57872D01*
X58596Y99056D01*
X59149Y99610D01*
X59449Y100333D01*
Y101116D01*
X59149Y101840D01*
X58596Y102393D01*
X57872Y102693D01*
D02*
G37*
G36*
X49998D02*
X49215D01*
X48491Y102393D01*
X47938Y101840D01*
X47638Y101116D01*
Y100333D01*
X47938Y99610D01*
X48491Y99056D01*
X49215Y98756D01*
X49998D01*
X50721Y99056D01*
X51275Y99610D01*
X51575Y100333D01*
Y101116D01*
X51275Y101840D01*
X50721Y102393D01*
X49998Y102693D01*
D02*
G37*
G36*
X42124D02*
X41341D01*
X40617Y102393D01*
X40064Y101840D01*
X39764Y101116D01*
Y100333D01*
X40064Y99610D01*
X40617Y99056D01*
X41341Y98756D01*
X42124D01*
X42847Y99056D01*
X43401Y99610D01*
X43701Y100333D01*
Y101116D01*
X43401Y101840D01*
X42847Y102393D01*
X42124Y102693D01*
D02*
G37*
G36*
X26376D02*
X25593D01*
X24869Y102393D01*
X24316Y101840D01*
X24016Y101116D01*
Y100333D01*
X24316Y99610D01*
X24869Y99056D01*
X25593Y98756D01*
X26376D01*
X27099Y99056D01*
X27653Y99610D01*
X27953Y100333D01*
Y101116D01*
X27653Y101840D01*
X27099Y102393D01*
X26376Y102693D01*
D02*
G37*
G36*
X18502D02*
X17719D01*
X16995Y102393D01*
X16442Y101840D01*
X16142Y101116D01*
Y100333D01*
X16442Y99610D01*
X16995Y99056D01*
X17719Y98756D01*
X18502D01*
X19225Y99056D01*
X19779Y99610D01*
X20079Y100333D01*
Y101116D01*
X19779Y101840D01*
X19225Y102393D01*
X18502Y102693D01*
D02*
G37*
G36*
X10628D02*
X9845D01*
X9121Y102393D01*
X8568Y101840D01*
X8268Y101116D01*
Y100333D01*
X8568Y99610D01*
X9121Y99056D01*
X9845Y98756D01*
X10628D01*
X11351Y99056D01*
X11905Y99610D01*
X12205Y100333D01*
Y101116D01*
X11905Y101840D01*
X11351Y102393D01*
X10628Y102693D01*
D02*
G37*
G36*
X148423Y101709D02*
X147640D01*
X146916Y101409D01*
X146363Y100855D01*
X146063Y100132D01*
Y99349D01*
X146363Y98625D01*
X146916Y98071D01*
X147640Y97772D01*
X148423D01*
X149147Y98071D01*
X149700Y98625D01*
X150000Y99349D01*
Y100132D01*
X149700Y100855D01*
X149147Y101409D01*
X148423Y101709D01*
D02*
G37*
G36*
X139565D02*
X138782D01*
X138058Y101409D01*
X137504Y100855D01*
X137205Y100132D01*
Y99349D01*
X137504Y98625D01*
X138058Y98071D01*
X138782Y97772D01*
X139565D01*
X140288Y98071D01*
X140842Y98625D01*
X141142Y99349D01*
Y100132D01*
X140842Y100855D01*
X140288Y101409D01*
X139565Y101709D01*
D02*
G37*
G36*
X130707D02*
X129923D01*
X129200Y101409D01*
X128646Y100855D01*
X128347Y100132D01*
Y99349D01*
X128646Y98625D01*
X129200Y98071D01*
X129923Y97772D01*
X130707D01*
X131430Y98071D01*
X131984Y98625D01*
X132283Y99349D01*
Y100132D01*
X131984Y100855D01*
X131430Y101409D01*
X130707Y101709D01*
D02*
G37*
G36*
X121848D02*
X121065D01*
X120342Y101409D01*
X119788Y100855D01*
X119488Y100132D01*
Y99349D01*
X119788Y98625D01*
X120342Y98071D01*
X121065Y97772D01*
X121848D01*
X122572Y98071D01*
X123126Y98625D01*
X123425Y99349D01*
Y100132D01*
X123126Y100855D01*
X122572Y101409D01*
X121848Y101709D01*
D02*
G37*
G36*
X160825Y98425D02*
X160041D01*
X159318Y98125D01*
X158764Y97572D01*
X158465Y96848D01*
Y96065D01*
X158764Y95342D01*
X159318Y94788D01*
X160041Y94488D01*
X160825D01*
X161548Y94788D01*
X162102Y95342D01*
X162402Y96065D01*
Y96848D01*
X162102Y97572D01*
X161548Y98125D01*
X160825Y98425D01*
D02*
G37*
G36*
X113581D02*
X112797D01*
X112074Y98125D01*
X111520Y97572D01*
X111221Y96848D01*
Y96065D01*
X111520Y95342D01*
X112074Y94788D01*
X112797Y94488D01*
X113581D01*
X114304Y94788D01*
X114858Y95342D01*
X115157Y96065D01*
Y96848D01*
X114858Y97572D01*
X114304Y98125D01*
X113581Y98425D01*
D02*
G37*
G36*
X57872Y94819D02*
X57089D01*
X56365Y94519D01*
X55812Y93966D01*
X55512Y93242D01*
Y92459D01*
X55812Y91735D01*
X56365Y91182D01*
X57089Y90882D01*
X57872D01*
X58596Y91182D01*
X59149Y91735D01*
X59449Y92459D01*
Y93242D01*
X59149Y93966D01*
X58596Y94519D01*
X57872Y94819D01*
D02*
G37*
G36*
X49998D02*
X49215D01*
X48491Y94519D01*
X47938Y93966D01*
X47638Y93242D01*
Y92459D01*
X47938Y91735D01*
X48491Y91182D01*
X49215Y90882D01*
X49998D01*
X50721Y91182D01*
X51275Y91735D01*
X51575Y92459D01*
Y93242D01*
X51275Y93966D01*
X50721Y94519D01*
X49998Y94819D01*
D02*
G37*
G36*
X42124D02*
X41341D01*
X40617Y94519D01*
X40064Y93966D01*
X39764Y93242D01*
Y92459D01*
X40064Y91735D01*
X40617Y91182D01*
X41341Y90882D01*
X42124D01*
X42847Y91182D01*
X43401Y91735D01*
X43701Y92459D01*
Y93242D01*
X43401Y93966D01*
X42847Y94519D01*
X42124Y94819D01*
D02*
G37*
G36*
X26376D02*
X25593D01*
X24869Y94519D01*
X24316Y93966D01*
X24016Y93242D01*
Y92459D01*
X24316Y91735D01*
X24869Y91182D01*
X25593Y90882D01*
X26376D01*
X27099Y91182D01*
X27653Y91735D01*
X27953Y92459D01*
Y93242D01*
X27653Y93966D01*
X27099Y94519D01*
X26376Y94819D01*
D02*
G37*
G36*
X18502D02*
X17719D01*
X16995Y94519D01*
X16442Y93966D01*
X16142Y93242D01*
Y92459D01*
X16442Y91735D01*
X16995Y91182D01*
X17719Y90882D01*
X18502D01*
X19225Y91182D01*
X19779Y91735D01*
X20079Y92459D01*
Y93242D01*
X19779Y93966D01*
X19225Y94519D01*
X18502Y94819D01*
D02*
G37*
G36*
X10628D02*
X9845D01*
X9121Y94519D01*
X8568Y93966D01*
X8268Y93242D01*
Y92459D01*
X8568Y91735D01*
X9121Y91182D01*
X9845Y90882D01*
X10628D01*
X11351Y91182D01*
X11905Y91735D01*
X12205Y92459D01*
Y93242D01*
X11905Y93966D01*
X11351Y94519D01*
X10628Y94819D01*
D02*
G37*
G36*
X148423Y94488D02*
X147640D01*
X146916Y94188D01*
X146363Y93635D01*
X146063Y92911D01*
Y92128D01*
X146363Y91405D01*
X146916Y90851D01*
X147640Y90551D01*
X148423D01*
X149147Y90851D01*
X149700Y91405D01*
X150000Y92128D01*
Y92911D01*
X149700Y93635D01*
X149147Y94188D01*
X148423Y94488D01*
D02*
G37*
G36*
X139565D02*
X138782D01*
X138058Y94188D01*
X137504Y93635D01*
X137205Y92911D01*
Y92128D01*
X137504Y91405D01*
X138058Y90851D01*
X138782Y90551D01*
X139565D01*
X140288Y90851D01*
X140842Y91405D01*
X141142Y92128D01*
Y92911D01*
X140842Y93635D01*
X140288Y94188D01*
X139565Y94488D01*
D02*
G37*
G36*
X131297D02*
X130514D01*
X129790Y94188D01*
X129237Y93635D01*
X128937Y92911D01*
Y92128D01*
X129237Y91405D01*
X129790Y90851D01*
X130514Y90551D01*
X131297D01*
X132021Y90851D01*
X132574Y91405D01*
X132874Y92128D01*
Y92911D01*
X132574Y93635D01*
X132021Y94188D01*
X131297Y94488D01*
D02*
G37*
G36*
X121455D02*
X120671D01*
X119948Y94188D01*
X119394Y93635D01*
X119095Y92911D01*
Y92128D01*
X119394Y91405D01*
X119948Y90851D01*
X120671Y90551D01*
X121455D01*
X122178Y90851D01*
X122732Y91405D01*
X123031Y92128D01*
Y92911D01*
X122732Y93635D01*
X122178Y94188D01*
X121455Y94488D01*
D02*
G37*
G36*
X154919Y88583D02*
X154136D01*
X153412Y88283D01*
X152859Y87729D01*
X152559Y87006D01*
Y86223D01*
X152859Y85499D01*
X153412Y84945D01*
X154136Y84646D01*
X154919D01*
X155643Y84945D01*
X156196Y85499D01*
X156496Y86223D01*
Y87006D01*
X156196Y87729D01*
X155643Y88283D01*
X154919Y88583D01*
D02*
G37*
G36*
X149014D02*
X148231D01*
X147507Y88283D01*
X146953Y87729D01*
X146653Y87006D01*
Y86223D01*
X146953Y85499D01*
X147507Y84945D01*
X148231Y84646D01*
X149014D01*
X149737Y84945D01*
X150291Y85499D01*
X150591Y86223D01*
Y87006D01*
X150291Y87729D01*
X149737Y88283D01*
X149014Y88583D01*
D02*
G37*
G36*
X144092D02*
X143309D01*
X142586Y88283D01*
X142032Y87729D01*
X141732Y87006D01*
Y86223D01*
X142032Y85499D01*
X142586Y84945D01*
X143309Y84646D01*
X144092D01*
X144816Y84945D01*
X145370Y85499D01*
X145669Y86223D01*
Y87006D01*
X145370Y87729D01*
X144816Y88283D01*
X144092Y88583D01*
D02*
G37*
G36*
X139171D02*
X138388D01*
X137664Y88283D01*
X137111Y87729D01*
X136811Y87006D01*
Y86223D01*
X137111Y85499D01*
X137664Y84945D01*
X138388Y84646D01*
X139171D01*
X139895Y84945D01*
X140448Y85499D01*
X140748Y86223D01*
Y87006D01*
X140448Y87729D01*
X139895Y88283D01*
X139171Y88583D01*
D02*
G37*
G36*
X131297D02*
X130514D01*
X129790Y88283D01*
X129237Y87729D01*
X128937Y87006D01*
Y86223D01*
X129237Y85499D01*
X129790Y84945D01*
X130514Y84646D01*
X131297D01*
X132021Y84945D01*
X132574Y85499D01*
X132874Y86223D01*
Y87006D01*
X132574Y87729D01*
X132021Y88283D01*
X131297Y88583D01*
D02*
G37*
G36*
X57872Y86945D02*
X57089D01*
X56365Y86645D01*
X55812Y86092D01*
X55512Y85368D01*
Y84585D01*
X55812Y83861D01*
X56365Y83308D01*
X57089Y83008D01*
X57872D01*
X58596Y83308D01*
X59149Y83861D01*
X59449Y84585D01*
Y85368D01*
X59149Y86092D01*
X58596Y86645D01*
X57872Y86945D01*
D02*
G37*
G36*
X49998D02*
X49215D01*
X48491Y86645D01*
X47938Y86092D01*
X47638Y85368D01*
Y84585D01*
X47938Y83861D01*
X48491Y83308D01*
X49215Y83008D01*
X49998D01*
X50721Y83308D01*
X51275Y83861D01*
X51575Y84585D01*
Y85368D01*
X51275Y86092D01*
X50721Y86645D01*
X49998Y86945D01*
D02*
G37*
G36*
X42124D02*
X41341D01*
X40617Y86645D01*
X40064Y86092D01*
X39764Y85368D01*
Y84585D01*
X40064Y83861D01*
X40617Y83308D01*
X41341Y83008D01*
X42124D01*
X42847Y83308D01*
X43401Y83861D01*
X43701Y84585D01*
Y85368D01*
X43401Y86092D01*
X42847Y86645D01*
X42124Y86945D01*
D02*
G37*
G36*
X26376D02*
X25593D01*
X24869Y86645D01*
X24316Y86092D01*
X24016Y85368D01*
Y84585D01*
X24316Y83861D01*
X24869Y83308D01*
X25593Y83008D01*
X26376D01*
X27099Y83308D01*
X27653Y83861D01*
X27953Y84585D01*
Y85368D01*
X27653Y86092D01*
X27099Y86645D01*
X26376Y86945D01*
D02*
G37*
G36*
X18502D02*
X17719D01*
X16995Y86645D01*
X16442Y86092D01*
X16142Y85368D01*
Y84585D01*
X16442Y83861D01*
X16995Y83308D01*
X17719Y83008D01*
X18502D01*
X19225Y83308D01*
X19779Y83861D01*
X20079Y84585D01*
Y85368D01*
X19779Y86092D01*
X19225Y86645D01*
X18502Y86945D01*
D02*
G37*
G36*
X10628D02*
X9845D01*
X9121Y86645D01*
X8568Y86092D01*
X8268Y85368D01*
Y84585D01*
X8568Y83861D01*
X9121Y83308D01*
X9845Y83008D01*
X10628D01*
X11351Y83308D01*
X11905Y83861D01*
X12205Y84585D01*
Y85368D01*
X11905Y86092D01*
X11351Y86645D01*
X10628Y86945D01*
D02*
G37*
G36*
X123423Y83661D02*
X122640D01*
X121916Y83362D01*
X121363Y82808D01*
X121063Y82085D01*
Y81301D01*
X121363Y80578D01*
X121916Y80024D01*
X122640Y79724D01*
X123423D01*
X124147Y80024D01*
X124700Y80578D01*
X125000Y81301D01*
Y82085D01*
X124700Y82808D01*
X124147Y83362D01*
X123423Y83661D01*
D02*
G37*
G36*
X179525Y82789D02*
X178742D01*
X178019Y82490D01*
X177465Y81936D01*
X177165Y81213D01*
Y80429D01*
X177465Y79706D01*
X178019Y79152D01*
X178742Y78852D01*
X179525D01*
X180249Y79152D01*
X180803Y79706D01*
X181102Y80429D01*
Y81213D01*
X180803Y81936D01*
X180249Y82490D01*
X179525Y82789D01*
D02*
G37*
G36*
X131297Y82677D02*
X130514D01*
X129790Y82377D01*
X129237Y81824D01*
X128937Y81100D01*
Y80317D01*
X129237Y79594D01*
X129790Y79040D01*
X130514Y78740D01*
X131297D01*
X132021Y79040D01*
X132574Y79594D01*
X132874Y80317D01*
Y81100D01*
X132574Y81824D01*
X132021Y82377D01*
X131297Y82677D01*
D02*
G37*
G36*
X154919Y81693D02*
X154136D01*
X153412Y81393D01*
X152859Y80840D01*
X152559Y80116D01*
Y79333D01*
X152859Y78609D01*
X153412Y78056D01*
X154136Y77756D01*
X154919D01*
X155643Y78056D01*
X156196Y78609D01*
X156496Y79333D01*
Y80116D01*
X156196Y80840D01*
X155643Y81393D01*
X154919Y81693D01*
D02*
G37*
G36*
X57872Y79071D02*
X57089D01*
X56365Y78771D01*
X55812Y78218D01*
X55512Y77494D01*
Y76711D01*
X55812Y75987D01*
X56365Y75434D01*
X57089Y75134D01*
X57872D01*
X58596Y75434D01*
X59149Y75987D01*
X59449Y76711D01*
Y77494D01*
X59149Y78218D01*
X58596Y78771D01*
X57872Y79071D01*
D02*
G37*
G36*
X35049Y77750D02*
Y74419D01*
X38380D01*
X38132Y75345D01*
X37612Y76246D01*
X36876Y76982D01*
X35974Y77502D01*
X35049Y77750D01*
D02*
G37*
G36*
X33849D02*
X32923Y77502D01*
X32022Y76982D01*
X31286Y76246D01*
X30765Y75345D01*
X30517Y74419D01*
X33849D01*
Y77750D01*
D02*
G37*
G36*
X46752Y77559D02*
X45768D01*
X44816Y77304D01*
X43963Y76812D01*
X43267Y76115D01*
X42775Y75262D01*
X42520Y74311D01*
Y73326D01*
X42775Y72375D01*
X43267Y71522D01*
X43963Y70826D01*
X44816Y70334D01*
X45768Y70079D01*
X46752D01*
X47703Y70334D01*
X48556Y70826D01*
X49253Y71522D01*
X49745Y72375D01*
X50000Y73326D01*
Y74311D01*
X49745Y75262D01*
X49253Y76115D01*
X48556Y76812D01*
X47703Y77304D01*
X46752Y77559D01*
D02*
G37*
G36*
X38380Y73219D02*
X35049D01*
Y69888D01*
X35974Y70135D01*
X36876Y70656D01*
X37612Y71392D01*
X38132Y72293D01*
X38380Y73219D01*
D02*
G37*
G36*
X33849D02*
X30517D01*
X30765Y72293D01*
X31286Y71392D01*
X32022Y70656D01*
X32923Y70135D01*
X33849Y69888D01*
Y73219D01*
D02*
G37*
G36*
X179525Y67913D02*
X178742D01*
X178019Y67614D01*
X177465Y67060D01*
X177165Y66336D01*
Y65553D01*
X177465Y64830D01*
X178019Y64276D01*
X178742Y63976D01*
X179525D01*
X180249Y64276D01*
X180803Y64830D01*
X181102Y65553D01*
Y66336D01*
X180803Y67060D01*
X180249Y67614D01*
X179525Y67913D01*
D02*
G37*
G36*
X129329D02*
X128545D01*
X127822Y67614D01*
X127268Y67060D01*
X126969Y66336D01*
Y65553D01*
X127268Y64830D01*
X127822Y64276D01*
X128545Y63976D01*
X129329D01*
X130052Y64276D01*
X130606Y64830D01*
X130905Y65553D01*
Y66336D01*
X130606Y67060D01*
X130052Y67614D01*
X129329Y67913D01*
D02*
G37*
G36*
X162793Y66929D02*
X162010D01*
X161286Y66629D01*
X160733Y66076D01*
X160433Y65352D01*
Y64569D01*
X160733Y63846D01*
X161286Y63292D01*
X162010Y62992D01*
X162793D01*
X163517Y63292D01*
X164070Y63846D01*
X164370Y64569D01*
Y65352D01*
X164070Y66076D01*
X163517Y66629D01*
X162793Y66929D01*
D02*
G37*
G36*
X157872D02*
X157089D01*
X156365Y66629D01*
X155812Y66076D01*
X155512Y65352D01*
Y64569D01*
X155812Y63846D01*
X156365Y63292D01*
X157089Y62992D01*
X157872D01*
X158595Y63292D01*
X159149Y63846D01*
X159449Y64569D01*
Y65352D01*
X159149Y66076D01*
X158595Y66629D01*
X157872Y66929D01*
D02*
G37*
G36*
X149998D02*
X149215D01*
X148491Y66629D01*
X147938Y66076D01*
X147638Y65352D01*
Y64569D01*
X147938Y63846D01*
X148491Y63292D01*
X149215Y62992D01*
X149998D01*
X150721Y63292D01*
X151275Y63846D01*
X151575Y64569D01*
Y65352D01*
X151275Y66076D01*
X150721Y66629D01*
X149998Y66929D01*
D02*
G37*
G36*
X46860Y65939D02*
Y62608D01*
X50191D01*
X49943Y63534D01*
X49423Y64435D01*
X48687Y65171D01*
X47786Y65691D01*
X46860Y65939D01*
D02*
G37*
G36*
X45660D02*
X44734Y65691D01*
X43833Y65171D01*
X43097Y64435D01*
X42577Y63534D01*
X42328Y62608D01*
X45660D01*
Y65939D01*
D02*
G37*
G36*
X144092Y64961D02*
X143309D01*
X142586Y64661D01*
X142032Y64107D01*
X141732Y63384D01*
Y62601D01*
X142032Y61877D01*
X142586Y61323D01*
X143309Y61024D01*
X144092D01*
X144816Y61323D01*
X145370Y61877D01*
X145669Y62601D01*
Y63384D01*
X145370Y64107D01*
X144816Y64661D01*
X144092Y64961D01*
D02*
G37*
G36*
X137203D02*
X136419D01*
X135696Y64661D01*
X135142Y64107D01*
X134843Y63384D01*
Y62601D01*
X135142Y61877D01*
X135696Y61323D01*
X136419Y61024D01*
X137203D01*
X137926Y61323D01*
X138480Y61877D01*
X138779Y62601D01*
Y63384D01*
X138480Y64107D01*
X137926Y64661D01*
X137203Y64961D01*
D02*
G37*
G36*
X26966D02*
X26183D01*
X25460Y64661D01*
X24906Y64107D01*
X24606Y63384D01*
Y62601D01*
X24906Y61877D01*
X25460Y61323D01*
X26183Y61024D01*
X26966D01*
X27690Y61323D01*
X28244Y61877D01*
X28543Y62601D01*
Y63384D01*
X28244Y64107D01*
X27690Y64661D01*
X26966Y64961D01*
D02*
G37*
G36*
X50191Y61408D02*
X46860D01*
Y58077D01*
X47786Y58324D01*
X48687Y58845D01*
X49423Y59581D01*
X49943Y60482D01*
X50191Y61408D01*
D02*
G37*
G36*
X45660D02*
X42328D01*
X42577Y60482D01*
X43097Y59581D01*
X43833Y58845D01*
X44734Y58324D01*
X45660Y58077D01*
Y61408D01*
D02*
G37*
G36*
X149998Y60039D02*
X149215D01*
X148491Y59740D01*
X147938Y59186D01*
X147638Y58462D01*
Y57679D01*
X147938Y56956D01*
X148491Y56402D01*
X149215Y56102D01*
X149998D01*
X150721Y56402D01*
X151275Y56956D01*
X151575Y57679D01*
Y58462D01*
X151275Y59186D01*
X150721Y59740D01*
X149998Y60039D01*
D02*
G37*
G36*
X144092D02*
X143309D01*
X142586Y59740D01*
X142032Y59186D01*
X141732Y58462D01*
Y57679D01*
X142032Y56956D01*
X142586Y56402D01*
X143309Y56102D01*
X144092D01*
X144816Y56402D01*
X145370Y56956D01*
X145669Y57679D01*
Y58462D01*
X145370Y59186D01*
X144816Y59740D01*
X144092Y60039D01*
D02*
G37*
G36*
X137203D02*
X136419D01*
X135696Y59740D01*
X135142Y59186D01*
X134843Y58462D01*
Y57679D01*
X135142Y56956D01*
X135696Y56402D01*
X136419Y56102D01*
X137203D01*
X137926Y56402D01*
X138480Y56956D01*
X138779Y57679D01*
Y58462D01*
X138480Y59186D01*
X137926Y59740D01*
X137203Y60039D01*
D02*
G37*
G36*
X167714Y58071D02*
X166931D01*
X166208Y57771D01*
X165654Y57217D01*
X165354Y56494D01*
Y55711D01*
X165654Y54987D01*
X166208Y54434D01*
X166931Y54134D01*
X167714D01*
X168438Y54434D01*
X168992Y54987D01*
X169291Y55711D01*
Y56494D01*
X168992Y57217D01*
X168438Y57771D01*
X167714Y58071D01*
D02*
G37*
G36*
X156297Y55449D02*
X155514D01*
X154790Y55149D01*
X154237Y54595D01*
X153937Y53872D01*
Y53089D01*
X154237Y52365D01*
X154790Y51811D01*
X155514Y51512D01*
X156297D01*
X157021Y51811D01*
X157574Y52365D01*
X157874Y53089D01*
Y53872D01*
X157574Y54595D01*
X157021Y55149D01*
X156297Y55449D01*
D02*
G37*
G36*
X129329Y52165D02*
X128545D01*
X127822Y51866D01*
X127268Y51312D01*
X126969Y50588D01*
Y49805D01*
X127268Y49082D01*
X127822Y48528D01*
X128545Y48228D01*
X129329D01*
X130052Y48528D01*
X130606Y49082D01*
X130905Y49805D01*
Y50588D01*
X130606Y51312D01*
X130052Y51866D01*
X129329Y52165D01*
D02*
G37*
G36*
X26191Y49207D02*
Y45876D01*
X29522D01*
X29274Y46801D01*
X28754Y47703D01*
X28018Y48439D01*
X27116Y48959D01*
X26191Y49207D01*
D02*
G37*
G36*
X24991D02*
X24065Y48959D01*
X23164Y48439D01*
X22428Y47703D01*
X21907Y46801D01*
X21659Y45876D01*
X24991D01*
Y49207D01*
D02*
G37*
G36*
X118386Y47086D02*
Y44094D01*
X121378D01*
X121190Y44795D01*
X120683Y45674D01*
X119965Y46391D01*
X119086Y46899D01*
X118386Y47086D01*
D02*
G37*
G36*
X116811D02*
X116111Y46899D01*
X115232Y46391D01*
X114514Y45674D01*
X114007Y44795D01*
X113819Y44094D01*
X116811D01*
Y47086D01*
D02*
G37*
G36*
X108386D02*
Y44094D01*
X111378D01*
X111190Y44795D01*
X110683Y45674D01*
X109965Y46391D01*
X109086Y46899D01*
X108386Y47086D01*
D02*
G37*
G36*
X106811D02*
X106111Y46899D01*
X105232Y46391D01*
X104514Y45674D01*
X104007Y44795D01*
X103819Y44094D01*
X106811D01*
Y47086D01*
D02*
G37*
G36*
X65746Y47575D02*
X64963D01*
X64239Y47275D01*
X63686Y46721D01*
X63386Y45998D01*
Y45215D01*
X63686Y44491D01*
X64239Y43938D01*
X64963Y43638D01*
X65746D01*
X66470Y43938D01*
X67023Y44491D01*
X67323Y45215D01*
Y45998D01*
X67023Y46721D01*
X66470Y47275D01*
X65746Y47575D01*
D02*
G37*
G36*
X146455Y45606D02*
X145671D01*
X144948Y45307D01*
X144394Y44753D01*
X144095Y44029D01*
Y43246D01*
X144394Y42523D01*
X144948Y41969D01*
X145671Y41669D01*
X146455D01*
X147178Y41969D01*
X147732Y42523D01*
X148031Y43246D01*
Y44029D01*
X147732Y44753D01*
X147178Y45307D01*
X146455Y45606D01*
D02*
G37*
G36*
X136612D02*
X135829D01*
X135105Y45307D01*
X134552Y44753D01*
X134252Y44029D01*
Y43246D01*
X134552Y42523D01*
X135105Y41969D01*
X135829Y41669D01*
X136612D01*
X137336Y41969D01*
X137889Y42523D01*
X138189Y43246D01*
Y44029D01*
X137889Y44753D01*
X137336Y45307D01*
X136612Y45606D01*
D02*
G37*
G36*
X73327Y49016D02*
X72342D01*
X71391Y48761D01*
X70538Y48268D01*
X69842Y47572D01*
X69349Y46719D01*
X69095Y45768D01*
Y44783D01*
X69349Y43832D01*
X69842Y42979D01*
X70538Y42283D01*
X71391Y41790D01*
X72342Y41535D01*
X73327D01*
X74278Y41790D01*
X75131Y42283D01*
X75827Y42979D01*
X76320Y43832D01*
X76575Y44783D01*
Y45768D01*
X76320Y46719D01*
X75827Y47572D01*
X75131Y48268D01*
X74278Y48761D01*
X73327Y49016D01*
D02*
G37*
G36*
X29522Y44676D02*
X26191D01*
Y41344D01*
X27116Y41592D01*
X28018Y42113D01*
X28754Y42849D01*
X29274Y43750D01*
X29522Y44676D01*
D02*
G37*
G36*
X24991D02*
X21659D01*
X21907Y43750D01*
X22428Y42849D01*
X23164Y42113D01*
X24065Y41592D01*
X24991Y41344D01*
Y44676D01*
D02*
G37*
G36*
X98078Y46949D02*
X97119D01*
X96193Y46701D01*
X95362Y46221D01*
X94684Y45543D01*
X94205Y44713D01*
X93957Y43786D01*
Y42828D01*
X94205Y41901D01*
X94684Y41071D01*
X95362Y40393D01*
X96193Y39913D01*
X97119Y39665D01*
X98078D01*
X99004Y39913D01*
X99835Y40393D01*
X100513Y41071D01*
X100992Y41901D01*
X101240Y42828D01*
Y43786D01*
X100992Y44713D01*
X100513Y45543D01*
X99835Y46221D01*
X99004Y46701D01*
X98078Y46949D01*
D02*
G37*
G36*
X88078D02*
X87119D01*
X86193Y46701D01*
X85362Y46221D01*
X84684Y45543D01*
X84205Y44713D01*
X83957Y43786D01*
Y42828D01*
X84205Y41901D01*
X84684Y41071D01*
X85362Y40393D01*
X86193Y39913D01*
X87119Y39665D01*
X88078D01*
X89004Y39913D01*
X89834Y40393D01*
X90513Y41071D01*
X90992Y41901D01*
X91240Y42828D01*
Y43786D01*
X90992Y44713D01*
X90513Y45543D01*
X89834Y46221D01*
X89004Y46701D01*
X88078Y46949D01*
D02*
G37*
G36*
X121378Y42520D02*
X118386D01*
Y39528D01*
X119086Y39715D01*
X119965Y40223D01*
X120683Y40940D01*
X121190Y41819D01*
X121378Y42520D01*
D02*
G37*
G36*
X116811D02*
X113819D01*
X114007Y41819D01*
X114514Y40940D01*
X115232Y40223D01*
X116111Y39715D01*
X116811Y39528D01*
Y42520D01*
D02*
G37*
G36*
X111378D02*
X108386D01*
Y39528D01*
X109086Y39715D01*
X109965Y40223D01*
X110683Y40940D01*
X111190Y41819D01*
X111378Y42520D01*
D02*
G37*
G36*
X106811D02*
X103819D01*
X104007Y41819D01*
X104514Y40940D01*
X105232Y40223D01*
X106111Y39715D01*
X106811Y39528D01*
Y42520D01*
D02*
G37*
G36*
X171860Y42317D02*
Y38986D01*
X175191D01*
X174943Y39911D01*
X174423Y40813D01*
X173687Y41549D01*
X172785Y42069D01*
X171860Y42317D01*
D02*
G37*
G36*
X170660D02*
X169734Y42069D01*
X168833Y41549D01*
X168097Y40813D01*
X167577Y39911D01*
X167328Y38986D01*
X170660D01*
Y42317D01*
D02*
G37*
G36*
X81494Y39701D02*
X80711D01*
X79987Y39401D01*
X79434Y38847D01*
X79134Y38124D01*
Y37341D01*
X79434Y36617D01*
X79987Y36064D01*
X80711Y35764D01*
X81494D01*
X82218Y36064D01*
X82771Y36617D01*
X83071Y37341D01*
Y38124D01*
X82771Y38847D01*
X82218Y39401D01*
X81494Y39701D01*
D02*
G37*
G36*
X73620D02*
X72837D01*
X72113Y39401D01*
X71560Y38847D01*
X71260Y38124D01*
Y37341D01*
X71560Y36617D01*
X72113Y36064D01*
X72837Y35764D01*
X73620D01*
X74344Y36064D01*
X74897Y36617D01*
X75197Y37341D01*
Y38124D01*
X74897Y38847D01*
X74344Y39401D01*
X73620Y39701D01*
D02*
G37*
G36*
X65746D02*
X64963D01*
X64239Y39401D01*
X63686Y38847D01*
X63386Y38124D01*
Y37341D01*
X63686Y36617D01*
X64239Y36064D01*
X64963Y35764D01*
X65746D01*
X66470Y36064D01*
X67023Y36617D01*
X67323Y37341D01*
Y38124D01*
X67023Y38847D01*
X66470Y39401D01*
X65746Y39701D01*
D02*
G37*
G36*
X57872D02*
X57089D01*
X56365Y39401D01*
X55812Y38847D01*
X55512Y38124D01*
Y37341D01*
X55812Y36617D01*
X56365Y36064D01*
X57089Y35764D01*
X57872D01*
X58596Y36064D01*
X59149Y36617D01*
X59449Y37341D01*
Y38124D01*
X59149Y38847D01*
X58596Y39401D01*
X57872Y39701D01*
D02*
G37*
G36*
X92911Y39370D02*
X92128D01*
X91405Y39070D01*
X90851Y38517D01*
X90551Y37793D01*
Y37010D01*
X90851Y36287D01*
X91405Y35733D01*
X92128Y35433D01*
X92911D01*
X93635Y35733D01*
X94188Y36287D01*
X94488Y37010D01*
Y37793D01*
X94188Y38517D01*
X93635Y39070D01*
X92911Y39370D01*
D02*
G37*
G36*
X159941Y42126D02*
X158956D01*
X158005Y41871D01*
X157152Y41379D01*
X156456Y40682D01*
X155964Y39829D01*
X155709Y38878D01*
Y37893D01*
X155964Y36942D01*
X156434Y36127D01*
X156378Y35980D01*
X156225Y35764D01*
X155514D01*
X154790Y35464D01*
X154237Y34910D01*
X153937Y34187D01*
Y33404D01*
X154237Y32680D01*
X154790Y32127D01*
X155514Y31827D01*
X156297D01*
X157021Y32127D01*
X157574Y32680D01*
X157874Y33404D01*
Y34187D01*
X157692Y34627D01*
X158004Y34901D01*
X158005Y34901D01*
X158956Y34646D01*
X159941D01*
X160892Y34901D01*
X161745Y35393D01*
X162442Y36089D01*
X162934Y36942D01*
X163189Y37893D01*
Y38878D01*
X162934Y39829D01*
X162442Y40682D01*
X161745Y41379D01*
X160892Y41871D01*
X159941Y42126D01*
D02*
G37*
G36*
X175191Y37786D02*
X171860D01*
Y34454D01*
X172785Y34702D01*
X173687Y35223D01*
X174423Y35959D01*
X174943Y36860D01*
X175191Y37786D01*
D02*
G37*
G36*
X170660D02*
X167328D01*
X167577Y36860D01*
X168097Y35959D01*
X168833Y35223D01*
X169734Y34702D01*
X170660Y34454D01*
Y37786D01*
D02*
G37*
G36*
X146455Y35764D02*
X145671D01*
X144948Y35464D01*
X144394Y34910D01*
X144095Y34187D01*
Y33404D01*
X144394Y32680D01*
X144948Y32127D01*
X145671Y31827D01*
X146455D01*
X147178Y32127D01*
X147732Y32680D01*
X148031Y33404D01*
Y34187D01*
X147732Y34910D01*
X147178Y35464D01*
X146455Y35764D01*
D02*
G37*
G36*
X136612D02*
X135829D01*
X135105Y35464D01*
X134552Y34910D01*
X134252Y34187D01*
Y33404D01*
X134552Y32680D01*
X135105Y32127D01*
X135829Y31827D01*
X136612D01*
X137336Y32127D01*
X137889Y32680D01*
X138189Y33404D01*
Y34187D01*
X137889Y34910D01*
X137336Y35464D01*
X136612Y35764D01*
D02*
G37*
G36*
X126769D02*
X125986D01*
X125263Y35464D01*
X124709Y34910D01*
X124409Y34187D01*
Y33404D01*
X124709Y32680D01*
X125263Y32127D01*
X125986Y31827D01*
X126769D01*
X127493Y32127D01*
X128047Y32680D01*
X128347Y33404D01*
Y34187D01*
X128047Y34910D01*
X127493Y35464D01*
X126769Y35764D01*
D02*
G37*
G36*
X81494Y31827D02*
X80711D01*
X79987Y31527D01*
X79434Y30973D01*
X79134Y30250D01*
Y29467D01*
X79434Y28743D01*
X79987Y28190D01*
X80711Y27890D01*
X81494D01*
X82218Y28190D01*
X82771Y28743D01*
X83071Y29467D01*
Y30250D01*
X82771Y30973D01*
X82218Y31527D01*
X81494Y31827D01*
D02*
G37*
G36*
X73620D02*
X72837D01*
X72113Y31527D01*
X71560Y30973D01*
X71260Y30250D01*
Y29467D01*
X71560Y28743D01*
X72113Y28190D01*
X72837Y27890D01*
X73620D01*
X74344Y28190D01*
X74897Y28743D01*
X75197Y29467D01*
Y30250D01*
X74897Y30973D01*
X74344Y31527D01*
X73620Y31827D01*
D02*
G37*
G36*
X65746D02*
X64963D01*
X64239Y31527D01*
X63686Y30973D01*
X63386Y30250D01*
Y29467D01*
X63686Y28743D01*
X64239Y28190D01*
X64963Y27890D01*
X65746D01*
X66470Y28190D01*
X67023Y28743D01*
X67323Y29467D01*
Y30250D01*
X67023Y30973D01*
X66470Y31527D01*
X65746Y31827D01*
D02*
G37*
G36*
X57872D02*
X57089D01*
X56365Y31527D01*
X55812Y30973D01*
X55512Y30250D01*
Y29467D01*
X55812Y28743D01*
X56365Y28190D01*
X57089Y27890D01*
X57872D01*
X58596Y28190D01*
X59149Y28743D01*
X59449Y29467D01*
Y30250D01*
X59149Y30973D01*
X58596Y31527D01*
X57872Y31827D01*
D02*
G37*
G36*
X134269Y31102D02*
X132818D01*
X131416Y30727D01*
X130159Y30001D01*
X129133Y28975D01*
X128407Y27718D01*
X128032Y26316D01*
Y25598D01*
X127668Y25447D01*
X127493Y25622D01*
X126769Y25921D01*
X125986D01*
X125263Y25622D01*
X124709Y25068D01*
X124409Y24344D01*
Y23561D01*
X124709Y22838D01*
X125263Y22284D01*
X125986Y21984D01*
X126769D01*
X127493Y22284D01*
X128047Y22838D01*
X128158Y23107D01*
X128596Y23135D01*
X129133Y22206D01*
X130159Y21180D01*
X131416Y20454D01*
X132818Y20079D01*
X134269D01*
X135671Y20454D01*
X136928Y21180D01*
X137954Y22206D01*
X138680Y23463D01*
X139055Y24865D01*
Y26316D01*
X138680Y27718D01*
X137954Y28975D01*
X136928Y30001D01*
X135671Y30727D01*
X134269Y31102D01*
D02*
G37*
G36*
X44488Y26346D02*
Y22835D01*
X48000D01*
X47816Y23521D01*
X47179Y24624D01*
X46278Y25525D01*
X45175Y26162D01*
X44488Y26346D01*
D02*
G37*
G36*
X42126D02*
X41440Y26162D01*
X40336Y25525D01*
X39435Y24624D01*
X38798Y23521D01*
X38614Y22835D01*
X42126D01*
Y26346D01*
D02*
G37*
G36*
X156297Y25921D02*
X155514D01*
X154790Y25622D01*
X154237Y25068D01*
X153937Y24344D01*
Y23561D01*
X154237Y22838D01*
X154790Y22284D01*
X155514Y21984D01*
X156297D01*
X157021Y22284D01*
X157574Y22838D01*
X157874Y23561D01*
Y24344D01*
X157574Y25068D01*
X157021Y25622D01*
X156297Y25921D01*
D02*
G37*
G36*
X146455D02*
X145671D01*
X144948Y25622D01*
X144394Y25068D01*
X144095Y24344D01*
Y23561D01*
X144394Y22838D01*
X144948Y22284D01*
X145671Y21984D01*
X146455D01*
X147178Y22284D01*
X147732Y22838D01*
X148031Y23561D01*
Y24344D01*
X147732Y25068D01*
X147178Y25622D01*
X146455Y25921D01*
D02*
G37*
G36*
X95214Y31102D02*
X93762D01*
X92361Y30727D01*
X91104Y30001D01*
X90078Y28975D01*
X89352Y27718D01*
X88976Y26316D01*
Y24865D01*
X89352Y23463D01*
X90078Y22206D01*
X91104Y21180D01*
X92361Y20454D01*
X93762Y20079D01*
X95214D01*
X96616Y20454D01*
X97873Y21180D01*
X98899Y22206D01*
X99624Y23463D01*
X100000Y24865D01*
Y26316D01*
X99624Y27718D01*
X98899Y28975D01*
X97873Y30001D01*
X96616Y30727D01*
X95214Y31102D01*
D02*
G37*
G36*
X81494Y23953D02*
X80711D01*
X79987Y23653D01*
X79434Y23099D01*
X79134Y22376D01*
Y21593D01*
X79434Y20869D01*
X79987Y20315D01*
X80711Y20016D01*
X81494D01*
X82218Y20315D01*
X82771Y20869D01*
X83071Y21593D01*
Y22376D01*
X82771Y23099D01*
X82218Y23653D01*
X81494Y23953D01*
D02*
G37*
G36*
X73620D02*
X72837D01*
X72113Y23653D01*
X71560Y23099D01*
X71260Y22376D01*
Y21593D01*
X71560Y20869D01*
X72113Y20315D01*
X72837Y20016D01*
X73620D01*
X74344Y20315D01*
X74897Y20869D01*
X75197Y21593D01*
Y22376D01*
X74897Y23099D01*
X74344Y23653D01*
X73620Y23953D01*
D02*
G37*
G36*
X63601Y26280D02*
X62383D01*
X61207Y25964D01*
X60152Y25355D01*
X59290Y24494D01*
X58681Y23439D01*
X58366Y22263D01*
Y21045D01*
X58681Y19868D01*
X59290Y18813D01*
X60152Y17952D01*
X61207Y17343D01*
X62383Y17028D01*
X63601D01*
X64778Y17343D01*
X65833Y17952D01*
X66694Y18813D01*
X67303Y19868D01*
X67618Y21045D01*
Y22263D01*
X67303Y23439D01*
X66694Y24494D01*
X65833Y25355D01*
X64778Y25964D01*
X63601Y26280D01*
D02*
G37*
G36*
X48000Y20472D02*
X44488D01*
Y16961D01*
X45175Y17145D01*
X46278Y17782D01*
X47179Y18683D01*
X47816Y19786D01*
X48000Y20472D01*
D02*
G37*
G36*
X42126D02*
X38614D01*
X38798Y19786D01*
X39435Y18683D01*
X40336Y17782D01*
X41440Y17145D01*
X42126Y16961D01*
Y20472D01*
D02*
G37*
G36*
X134269Y17717D02*
X132818D01*
X131416Y17341D01*
X130159Y16615D01*
X129133Y15589D01*
X128661Y14772D01*
X128223Y14800D01*
X128047Y15225D01*
X127493Y15779D01*
X126769Y16079D01*
X125986D01*
X125263Y15779D01*
X124709Y15225D01*
X124409Y14502D01*
Y13719D01*
X124709Y12995D01*
X125263Y12441D01*
X125986Y12142D01*
X126769D01*
X127493Y12441D01*
X127638Y12586D01*
X128032Y12423D01*
Y11479D01*
X128407Y10077D01*
X129133Y8820D01*
X130159Y7794D01*
X131416Y7069D01*
X132818Y6693D01*
X134269D01*
X135671Y7069D01*
X136928Y7794D01*
X137954Y8820D01*
X138680Y10077D01*
X139055Y11479D01*
Y12930D01*
X138680Y14332D01*
X137954Y15589D01*
X136928Y16615D01*
X135671Y17341D01*
X134269Y17717D01*
D02*
G37*
G36*
X81494Y16079D02*
X80711D01*
X79987Y15779D01*
X79434Y15225D01*
X79134Y14502D01*
Y13719D01*
X79434Y12995D01*
X79987Y12442D01*
X80711Y12142D01*
X81494D01*
X82218Y12442D01*
X82771Y12995D01*
X83071Y13719D01*
Y14502D01*
X82771Y15225D01*
X82218Y15779D01*
X81494Y16079D01*
D02*
G37*
G36*
X73620D02*
X72837D01*
X72113Y15779D01*
X71560Y15225D01*
X71260Y14502D01*
Y13719D01*
X71560Y12995D01*
X72113Y12442D01*
X72837Y12142D01*
X73620D01*
X74344Y12442D01*
X74897Y12995D01*
X75197Y13719D01*
Y14502D01*
X74897Y15225D01*
X74344Y15779D01*
X73620Y16079D01*
D02*
G37*
G36*
X65746D02*
X64963D01*
X64239Y15779D01*
X63686Y15225D01*
X63386Y14502D01*
Y13719D01*
X63686Y12995D01*
X64239Y12442D01*
X64963Y12142D01*
X65746D01*
X66470Y12442D01*
X67023Y12995D01*
X67323Y13719D01*
Y14502D01*
X67023Y15225D01*
X66470Y15779D01*
X65746Y16079D01*
D02*
G37*
G36*
X57872D02*
X57089D01*
X56365Y15779D01*
X55812Y15225D01*
X55512Y14502D01*
Y13719D01*
X55812Y12995D01*
X56365Y12442D01*
X57089Y12142D01*
X57872D01*
X58596Y12442D01*
X59149Y12995D01*
X59449Y13719D01*
Y14502D01*
X59149Y15225D01*
X58596Y15779D01*
X57872Y16079D01*
D02*
G37*
G36*
X156297Y16079D02*
X155514D01*
X154790Y15779D01*
X154237Y15225D01*
X153937Y14502D01*
Y13719D01*
X154237Y12995D01*
X154790Y12441D01*
X155514Y12142D01*
X156297D01*
X157021Y12441D01*
X157574Y12995D01*
X157874Y13719D01*
Y14502D01*
X157574Y15225D01*
X157021Y15779D01*
X156297Y16079D01*
D02*
G37*
G36*
X146455D02*
X145671D01*
X144948Y15779D01*
X144394Y15225D01*
X144095Y14502D01*
Y13719D01*
X144394Y12995D01*
X144948Y12441D01*
X145671Y12142D01*
X146455D01*
X147178Y12441D01*
X147732Y12995D01*
X148031Y13719D01*
Y14502D01*
X147732Y15225D01*
X147178Y15779D01*
X146455Y16079D01*
D02*
G37*
G36*
X95214Y17717D02*
X93762D01*
X92361Y17341D01*
X91104Y16615D01*
X90078Y15589D01*
X89352Y14332D01*
X88976Y12930D01*
Y11479D01*
X89352Y10077D01*
X90078Y8820D01*
X91104Y7794D01*
X92361Y7069D01*
X93762Y6693D01*
X95214D01*
X96616Y7069D01*
X97873Y7794D01*
X98899Y8820D01*
X99624Y10077D01*
X100000Y11479D01*
Y12930D01*
X99624Y14332D01*
X98899Y15589D01*
X97873Y16615D01*
X96616Y17341D01*
X95214Y17717D01*
D02*
G37*
G36*
X181102Y26411D02*
X179434Y26280D01*
X177807Y25889D01*
X176262Y25249D01*
X174835Y24374D01*
X173563Y23288D01*
X172476Y22016D01*
X171602Y20589D01*
X170961Y19043D01*
X170571Y17416D01*
X170440Y15748D01*
X170571Y14080D01*
X170961Y12453D01*
X171602Y10907D01*
X172476Y9481D01*
X173563Y8208D01*
X174835Y7122D01*
X176262Y6247D01*
X177807Y5607D01*
X179434Y5217D01*
X181102Y5085D01*
X182770Y5217D01*
X184397Y5607D01*
X185943Y6247D01*
X187370Y7122D01*
X188642Y8208D01*
X189729Y9481D01*
X190603Y10907D01*
X191243Y12453D01*
X191634Y14080D01*
X191765Y15748D01*
X191634Y17416D01*
X191243Y19043D01*
X190603Y20589D01*
X189729Y22016D01*
X188642Y23288D01*
X187370Y24374D01*
X185943Y25249D01*
X184397Y25889D01*
X182770Y26280D01*
X181102Y26411D01*
D02*
G37*
G36*
X15748D02*
X14080Y26280D01*
X12453Y25889D01*
X10907Y25249D01*
X9481Y24374D01*
X8208Y23288D01*
X7122Y22016D01*
X6247Y20589D01*
X5607Y19043D01*
X5217Y17416D01*
X5085Y15748D01*
X5217Y14080D01*
X5607Y12453D01*
X6247Y10907D01*
X7122Y9481D01*
X8208Y8208D01*
X9481Y7122D01*
X10907Y6247D01*
X12453Y5607D01*
X14080Y5217D01*
X15748Y5085D01*
X17416Y5217D01*
X19043Y5607D01*
X20589Y6247D01*
X22016Y7122D01*
X23288Y8208D01*
X24374Y9481D01*
X25249Y10907D01*
X25889Y12453D01*
X26280Y14080D01*
X26411Y15748D01*
X26280Y17416D01*
X25889Y19043D01*
X25249Y20589D01*
X24374Y22016D01*
X23288Y23288D01*
X22016Y24374D01*
X20589Y25249D01*
X19043Y25889D01*
X17416Y26280D01*
X15748Y26411D01*
D02*
G37*
G36*
X89368Y8205D02*
X88585D01*
X87861Y7905D01*
X87308Y7351D01*
X87008Y6628D01*
Y5845D01*
X87308Y5121D01*
X87861Y4567D01*
X88585Y4268D01*
X89368D01*
X90092Y4567D01*
X90645Y5121D01*
X90945Y5845D01*
Y6628D01*
X90645Y7351D01*
X90092Y7905D01*
X89368Y8205D01*
D02*
G37*
G36*
X81494D02*
X80711D01*
X79987Y7905D01*
X79434Y7351D01*
X79134Y6628D01*
Y5845D01*
X79434Y5121D01*
X79987Y4567D01*
X80711Y4268D01*
X81494D01*
X82218Y4567D01*
X82771Y5121D01*
X83071Y5845D01*
Y6628D01*
X82771Y7351D01*
X82218Y7905D01*
X81494Y8205D01*
D02*
G37*
G36*
X73620D02*
X72837D01*
X72113Y7905D01*
X71560Y7351D01*
X71260Y6628D01*
Y5845D01*
X71560Y5121D01*
X72113Y4567D01*
X72837Y4268D01*
X73620D01*
X74344Y4567D01*
X74897Y5121D01*
X75197Y5845D01*
Y6628D01*
X74897Y7351D01*
X74344Y7905D01*
X73620Y8205D01*
D02*
G37*
G36*
X65746D02*
X64963D01*
X64239Y7905D01*
X63686Y7351D01*
X63386Y6628D01*
Y5845D01*
X63686Y5121D01*
X64239Y4567D01*
X64963Y4268D01*
X65746D01*
X66470Y4567D01*
X67023Y5121D01*
X67323Y5845D01*
Y6628D01*
X67023Y7351D01*
X66470Y7905D01*
X65746Y8205D01*
D02*
G37*
G36*
X57872D02*
X57089D01*
X56365Y7905D01*
X55812Y7351D01*
X55512Y6628D01*
Y5845D01*
X55812Y5121D01*
X56365Y4567D01*
X57089Y4268D01*
X57872D01*
X58596Y4567D01*
X59149Y5121D01*
X59449Y5845D01*
Y6628D01*
X59149Y7351D01*
X58596Y7905D01*
X57872Y8205D01*
D02*
G37*
%LPD*%
D56*
X34449Y73819D02*
D03*
X46260Y62008D02*
D03*
X25591Y45276D02*
D03*
X177165Y135827D02*
D03*
X171260Y38386D02*
D03*
X7874Y127953D02*
D03*
X165354Y135827D02*
D03*
X72835Y45276D02*
D03*
X159449Y38386D02*
D03*
X46260Y73819D02*
D03*
X7874Y116142D02*
D03*
D57*
X39882Y187008D02*
D03*
X59882D02*
D03*
X117598Y43307D02*
D03*
X107598D02*
D03*
X84646Y187008D02*
D03*
X94646D02*
D03*
X59882Y175197D02*
D03*
X39882D02*
D03*
X84646D02*
D03*
X94646D02*
D03*
X104646Y187008D02*
D03*
X114646D02*
D03*
Y175197D02*
D03*
X104646D02*
D03*
X87598Y43307D02*
D03*
X97598D02*
D03*
X49882Y187008D02*
D03*
X49882Y175197D02*
D03*
X69882Y187008D02*
D03*
Y175197D02*
D03*
D58*
X43307Y21654D02*
D03*
X155512Y176181D02*
D03*
X135827D02*
D03*
X62992Y21654D02*
D03*
D59*
X170276Y111221D02*
D03*
X156496D02*
D03*
D61*
X133543Y25591D02*
D03*
Y12205D02*
D03*
X94488Y25591D02*
D03*
Y12205D02*
D03*
D62*
X181102Y15748D02*
D03*
X181102Y181102D02*
D03*
X15748Y15748D02*
D03*
Y181102D02*
D03*
D63*
X26575Y62992D02*
D03*
X7874Y53480D02*
D03*
X33858Y59055D02*
D03*
X59055Y162402D02*
D03*
X46063Y139764D02*
D03*
X70866Y132874D02*
D03*
X120079Y139764D02*
D03*
X103347Y147638D02*
D03*
X98425Y152559D02*
D03*
X107283Y68898D02*
D03*
X7874Y44291D02*
D03*
X188976D02*
D03*
Y152559D02*
D03*
X7874D02*
D03*
X170276Y157480D02*
D03*
X177165Y142717D02*
D03*
X172244Y86614D02*
D03*
X123031Y65945D02*
D03*
Y50197D02*
D03*
X17717Y129921D02*
D03*
X55118Y124016D02*
D03*
X43307Y127953D02*
D03*
X42323Y53150D02*
D03*
Y37402D02*
D03*
X91535Y162402D02*
D03*
X167323Y96457D02*
D03*
X88583Y123031D02*
D03*
Y118110D02*
D03*
X104331D02*
D03*
Y123031D02*
D03*
X99163Y118110D02*
D03*
Y123031D02*
D03*
X93750Y118110D02*
D03*
Y123031D02*
D03*
X112205Y120079D02*
D03*
X120079Y121063D02*
D03*
X78740Y124016D02*
D03*
X128937Y121063D02*
D03*
X135827Y115157D02*
D03*
X10236Y140095D02*
D03*
X18110Y37732D02*
D03*
Y45606D02*
D03*
Y53480D02*
D03*
Y140095D02*
D03*
Y147969D02*
D03*
X25984Y29858D02*
D03*
Y37732D02*
D03*
Y53480D02*
D03*
Y147969D02*
D03*
X33858Y6236D02*
D03*
Y14110D02*
D03*
Y21984D02*
D03*
Y29858D02*
D03*
Y37732D02*
D03*
Y53480D02*
D03*
Y84977D02*
D03*
Y163717D02*
D03*
Y171591D02*
D03*
Y179465D02*
D03*
X41732Y6236D02*
D03*
Y14110D02*
D03*
Y29858D02*
D03*
X49606Y6236D02*
D03*
Y14110D02*
D03*
Y29858D02*
D03*
X57480Y61354D02*
D03*
Y132221D02*
D03*
Y140095D02*
D03*
Y147969D02*
D03*
Y155843D02*
D03*
X65354Y61354D02*
D03*
X73228D02*
D03*
X81103D02*
D03*
X88977D02*
D03*
Y155843D02*
D03*
X96851Y61354D02*
D03*
X104725D02*
D03*
Y77103D02*
D03*
Y84977D02*
D03*
Y155843D02*
D03*
X112599Y6236D02*
D03*
Y14110D02*
D03*
Y21984D02*
D03*
Y29858D02*
D03*
Y37732D02*
D03*
Y61354D02*
D03*
Y84977D02*
D03*
Y147969D02*
D03*
X120473Y37732D02*
D03*
Y147969D02*
D03*
X128347Y140095D02*
D03*
X136221Y124347D02*
D03*
Y132221D02*
D03*
X167717Y124347D02*
D03*
Y163717D02*
D03*
Y171591D02*
D03*
X175591Y45606D02*
D03*
Y92851D02*
D03*
Y100724D02*
D03*
Y108598D02*
D03*
Y116473D02*
D03*
Y124347D02*
D03*
Y163717D02*
D03*
X183465Y37732D02*
D03*
Y53480D02*
D03*
Y61354D02*
D03*
Y69228D02*
D03*
Y77103D02*
D03*
Y84977D02*
D03*
Y92851D02*
D03*
Y100724D02*
D03*
Y108598D02*
D03*
Y116473D02*
D03*
Y124347D02*
D03*
Y147969D02*
D03*
X155512Y187992D02*
D03*
X164370D02*
D03*
X30512Y187008D02*
D03*
X112205Y125000D02*
D03*
X120079Y126969D02*
D03*
X128937D02*
D03*
X70866Y124016D02*
D03*
X100394Y162402D02*
D03*
X9843Y147969D02*
D03*
X29528Y125984D02*
D03*
Y131890D02*
D03*
X24606D02*
D03*
X33465Y92520D02*
D03*
X29528Y152559D02*
D03*
Y166339D02*
D03*
X14764Y165354D02*
D03*
X15748Y152559D02*
D03*
X110236Y53150D02*
D03*
X117126D02*
D03*
X154528Y79724D02*
D03*
Y86614D02*
D03*
X130905D02*
D03*
Y80709D02*
D03*
X138779Y86614D02*
D03*
X143701D02*
D03*
X148622D02*
D03*
X120079Y133858D02*
D03*
X160433Y96457D02*
D03*
X112205Y102362D02*
D03*
X130905Y92520D02*
D03*
X121063D02*
D03*
X139173D02*
D03*
X148032D02*
D03*
X156890Y126315D02*
D03*
X130315Y188323D02*
D03*
X148032Y135173D02*
D03*
Y152890D02*
D03*
Y108598D02*
D03*
X139173Y152890D02*
D03*
X112599Y161748D02*
D03*
X148032D02*
D03*
Y144032D02*
D03*
Y126315D02*
D03*
X130315Y161748D02*
D03*
Y152890D02*
D03*
X156890Y135173D02*
D03*
X139173Y161748D02*
D03*
Y188323D02*
D03*
X156890Y117457D02*
D03*
X121457Y99740D02*
D03*
X139173D02*
D03*
X148032Y117457D02*
D03*
X130315Y99740D02*
D03*
X148032D02*
D03*
X135827Y108268D02*
D03*
X113189Y96457D02*
D03*
X123031Y81693D02*
D03*
X122835Y177953D02*
D03*
X145669Y176181D02*
D03*
X122835Y183071D02*
D03*
X139173Y144032D02*
D03*
X162402Y64961D02*
D03*
X157480D02*
D03*
X128937Y65945D02*
D03*
X143701Y62992D02*
D03*
X136811D02*
D03*
X149606Y58071D02*
D03*
X136811D02*
D03*
X126378Y14110D02*
D03*
Y23953D02*
D03*
Y33795D02*
D03*
X136221D02*
D03*
Y43638D02*
D03*
X146063Y14110D02*
D03*
Y23953D02*
D03*
Y33795D02*
D03*
Y43638D02*
D03*
X155905Y14110D02*
D03*
Y23953D02*
D03*
Y33795D02*
D03*
Y53480D02*
D03*
X128937Y50197D02*
D03*
X143701Y58071D02*
D03*
X42323Y151772D02*
D03*
X48031Y157480D02*
D03*
X42323D02*
D03*
Y163189D02*
D03*
X48031Y151772D02*
D03*
Y163189D02*
D03*
X10236Y84977D02*
D03*
Y92851D02*
D03*
Y100724D02*
D03*
Y108598D02*
D03*
X18110Y84977D02*
D03*
Y92851D02*
D03*
Y100724D02*
D03*
Y108598D02*
D03*
X25984Y84977D02*
D03*
Y92851D02*
D03*
Y100724D02*
D03*
Y108598D02*
D03*
X55118Y117126D02*
D03*
X92520Y37402D02*
D03*
X62992Y116473D02*
D03*
X88977Y6236D02*
D03*
X81103Y37732D02*
D03*
Y29858D02*
D03*
Y21984D02*
D03*
Y14110D02*
D03*
Y6236D02*
D03*
X73228Y37732D02*
D03*
Y29858D02*
D03*
Y21984D02*
D03*
Y14110D02*
D03*
Y6236D02*
D03*
X65354Y45606D02*
D03*
Y37732D02*
D03*
Y29858D02*
D03*
Y14110D02*
D03*
Y6236D02*
D03*
X57480Y37732D02*
D03*
Y29858D02*
D03*
Y14110D02*
D03*
Y6236D02*
D03*
X76378Y171590D02*
D03*
Y155055D02*
D03*
Y149543D02*
D03*
X70866Y160567D02*
D03*
Y155055D02*
D03*
Y149543D02*
D03*
X65354Y160567D02*
D03*
Y155055D02*
D03*
Y149543D02*
D03*
X57480Y108598D02*
D03*
Y100724D02*
D03*
Y92851D02*
D03*
Y84977D02*
D03*
Y77103D02*
D03*
X49606Y108598D02*
D03*
Y100724D02*
D03*
Y92851D02*
D03*
Y84977D02*
D03*
X41732Y108598D02*
D03*
Y100724D02*
D03*
Y92851D02*
D03*
Y84977D02*
D03*
X47244Y132874D02*
D03*
X179134Y80821D02*
D03*
Y65945D02*
D03*
X81693Y141732D02*
D03*
X167323Y56102D02*
D03*
X149606Y64961D02*
D03*
M02*
